<svg width="119" height="119" viewBox="0 0 119 119" fill="none" xmlns="http://www.w3.org/2000/svg">
<path d="M118.626 52.8944C118.438 51.2218 116.487 49.9636 114.8 49.9636C109.348 49.9636 104.51 46.7636 102.48 41.8107C100.409 36.739 101.746 30.8254 105.808 27.0989C107.087 25.9292 107.243 23.9705 106.17 22.6108C103.379 19.0671 100.208 15.8655 96.7442 13.0911C95.3892 12.0042 93.3981 12.1555 92.2221 13.457C88.6757 17.3847 82.305 18.8442 77.382 16.7903C72.2608 14.6356 69.0283 9.44445 69.3459 3.87252C69.4503 2.12123 68.1699 0.599457 66.4248 0.396177C61.9798 -0.118456 57.4958 -0.13338 53.038 0.361182C51.3149 0.551596 50.0355 2.03734 50.0927 3.76651C50.2857 9.28389 47.0167 14.3834 41.9449 16.461C37.081 18.448 30.7546 16.9993 27.2154 13.1061C26.0456 11.8236 24.0895 11.6661 22.7252 12.7299C19.1597 15.5279 15.917 18.7315 13.0999 22.2465C12.0021 23.6128 12.1642 25.5931 13.4544 26.767C17.5968 30.5182 18.9323 36.4827 16.7816 41.6136C14.7282 46.5052 9.6492 49.6563 3.83531 49.6563C1.94864 49.5956 0.605947 50.8631 0.397518 52.5789C-0.125356 57.0475 -0.131017 61.603 0.3723 66.1081C0.560144 67.7879 2.56878 69.0353 4.2743 69.0353C9.45672 68.9036 14.4292 72.1097 16.5181 77.1876C18.5967 82.2593 17.2587 88.1704 13.1899 91.902C11.9172 93.0718 11.7546 95.0258 12.8292 96.3839C15.5923 99.9056 18.7666 103.109 22.2404 105.907C23.6042 107.005 25.5876 106.852 26.7697 105.549C30.33 101.612 36.6997 100.155 41.6027 102.213C46.7388 104.362 49.9697 109.552 49.6542 115.126C49.5508 116.877 50.8343 118.404 52.5732 118.602C54.8479 118.868 57.1345 119 59.4282 119C61.6052 119 63.7826 118.881 65.96 118.639C67.6851 118.448 68.9625 116.961 68.9043 115.231C68.7051 109.717 71.9813 104.617 77.0469 102.543C81.9432 100.543 88.2414 102.007 91.7826 105.894C92.9586 107.174 94.9029 107.33 96.2728 106.27C99.8321 103.479 103.069 100.277 105.898 96.7529C106.997 95.3892 106.841 93.4063 105.544 92.2303C101.402 88.4818 100.06 82.5146 102.21 77.3889C104.232 72.5631 109.122 69.323 114.381 69.323L115.117 69.3426C116.825 69.481 118.394 68.1661 118.6 66.4241C119.126 61.9514 119.132 57.401 118.626 52.8944ZM59.4998 93.8026C40.5543 93.8026 25.197 78.4454 25.197 59.5007C25.197 40.5561 40.5549 25.1989 59.4998 25.1989C78.4447 25.1989 93.8026 40.5561 93.8026 59.5007C93.8026 65.9311 92.0296 71.9456 88.9505 77.0888L73.9303 62.0682C75.0177 59.5043 75.592 56.7248 75.5915 53.8562C75.5915 48.239 73.4038 42.9584 69.4313 38.9869C65.4598 35.0155 60.1791 32.8283 54.5628 32.8283C52.6885 32.8283 50.8229 33.0774 49.0181 33.5689C48.2276 33.7845 47.5812 34.4361 47.3707 35.2281C47.1556 36.0381 47.398 36.8682 48.031 37.5017C48.031 37.5017 55.4465 44.9742 57.9275 47.4547C58.1874 47.7146 58.1869 48.3347 58.1504 48.5581L58.1272 48.7212C57.8771 51.4488 57.3949 54.7229 56.9971 55.9812C56.9436 56.0342 56.8931 56.0789 56.8386 56.1335C56.7814 56.1906 56.729 56.2457 56.6739 56.3023C55.3991 56.7114 52.0746 57.1993 49.3037 57.4473L49.3042 57.4324L49.1797 57.4638C49.1576 57.4664 49.1164 57.4695 49.0619 57.4695C48.7623 57.4695 48.3218 57.3856 47.9214 56.9857C45.3389 54.4033 38.2143 47.3297 38.2143 47.3297C37.5751 46.6925 36.9194 46.5587 36.4825 46.5587C35.464 46.5587 34.5521 47.2947 34.2649 48.3502C32.3036 55.608 34.3828 63.415 39.6923 68.725C43.6648 72.6969 48.9461 74.8841 54.5634 74.8841C57.432 74.8841 60.2115 74.3103 62.7749 73.2229L77.9584 88.4061C72.6277 91.8171 66.2977 93.8026 59.4998 93.8026Z" fill="white"/>
</svg>
