<svg width="82" height="82" viewBox="0 0 82 82" fill="none" xmlns="http://www.w3.org/2000/svg">
<circle cx="41" cy="41" r="39.5" stroke="#1EC51B" stroke-width="3"/>
<path d="M56.0939 34.1258L37.5527 52.119C37.2657 52.3982 36.9247 52.6198 36.5492 52.771C36.1738 52.9222 35.7713 53 35.3649 53C34.9584 53 34.5559 52.9222 34.1805 52.771C33.8051 52.6198 33.4641 52.3982 33.177 52.119L23.9064 43.1224C23.6191 42.8436 23.3912 42.5126 23.2357 42.1483C23.0802 41.784 23.0002 41.3935 23.0002 40.9992C23.0002 40.6049 23.0802 40.2144 23.2357 39.8502C23.3912 39.4859 23.6191 39.1548 23.9064 38.876C24.1937 38.5972 24.5348 38.376 24.9102 38.2251C25.2856 38.0742 25.6879 37.9966 26.0943 37.9966C26.5006 37.9966 26.9029 38.0742 27.2783 38.2251C27.6537 38.376 27.9948 38.5972 28.2821 38.876L35.3649 45.7554L51.7182 29.8795C52.2985 29.3164 53.0855 29 53.9061 29C54.7267 29 55.5137 29.3164 56.0939 29.8795C56.6742 30.4426 57.0002 31.2063 57.0002 32.0026C57.0002 32.799 56.6742 33.5627 56.0939 34.1258Z" fill="#1EC51B"/>
</svg>
