<svg width="20" height="20" viewBox="0 0 20 20" fill="none" xmlns="http://www.w3.org/2000/svg">
<path d="M17.2 5.5H2.8C1.80589 5.5 1 6.30589 1 7.3V16.3C1 17.2941 1.80589 18.1 2.8 18.1H17.2C18.1941 18.1 19 17.2941 19 16.3V7.3C19 6.30589 18.1941 5.5 17.2 5.5Z" stroke="#26AB7B" stroke-width="2" stroke-linecap="round" stroke-linejoin="round"/>
<path d="M13.6 18.1V3.69999C13.6 3.2226 13.4104 2.76477 13.0728 2.4272C12.7353 2.08964 12.2774 1.89999 11.8 1.89999H8.20002C7.72263 1.89999 7.2648 2.08964 6.92723 2.4272C6.58967 2.76477 6.40002 3.2226 6.40002 3.69999V18.1" stroke="#26AB7B" stroke-width="2" stroke-linecap="round" stroke-linejoin="round"/>
</svg>
