<svg width="82" height="82" viewBox="0 0 82 82" fill="none" xmlns="http://www.w3.org/2000/svg">
<circle cx="41" cy="41" r="39.5" stroke="#FF5050" stroke-width="3"/>
<path fill-rule="evenodd" clip-rule="evenodd" d="M38.1448 23.9146L21.5259 52.0341C21.1832 52.6355 21.0019 53.3173 21 54.0118C20.9981 54.7063 21.1756 55.3892 21.5149 55.9925C21.8543 56.5959 22.3435 57.0986 22.9341 57.4508C23.5246 57.803 24.1959 57.9924 24.8811 58H58.1189C58.8041 57.9924 59.4754 57.803 60.0659 57.4508C60.6565 57.0986 61.1457 56.5959 61.4851 55.9925C61.8244 55.3892 62.0019 54.7063 62 54.0118C61.9981 53.3173 61.8168 52.6355 61.4741 52.0341L44.8552 23.9146C44.5054 23.3301 44.0129 22.8469 43.4252 22.5115C42.8375 22.1762 42.1744 22 41.5 22C40.8256 22 40.1625 22.1762 39.5748 22.5115C38.9871 22.8469 38.4946 23.3301 38.1448 23.9146ZM41.5522 33.0606C42.5329 33.0606 43.3279 33.8556 43.3279 34.8363V41.9389C43.3279 42.9195 42.5329 43.7145 41.5522 43.7145C40.5716 43.7145 39.7766 42.9195 39.7766 41.9389V34.8363C39.7766 33.8556 40.5716 33.0606 41.5522 33.0606ZM41.5522 47.2658C40.5716 47.2658 39.7766 48.0608 39.7766 49.0414C39.7766 50.0221 40.5716 50.8171 41.5522 50.8171H41.57C42.5507 50.8171 43.3456 50.0221 43.3456 49.0414C43.3456 48.0608 42.5507 47.2658 41.57 47.2658H41.5522Z" fill="#FF5050"/>
</svg>
