<svg width="34" height="34" viewBox="0 0 34 34" fill="none" xmlns="http://www.w3.org/2000/svg">
<path d="M33 16.8815C32.9386 25.7568 25.8621 32.9605 16.9342 33.0132C8.10722 33.0702 1.00878 25.9542 1.00001 17.1272C0.991234 8.32657 8.27393 1 17.0351 1C25.9103 1 32.9912 8.04579 33 16.8815ZM17.1492 1.82917C8.55471 1.84234 1.77654 8.86619 1.8248 17.2764C1.86867 25.4848 8.59858 32.2015 16.8421 32.1884C25.3181 32.1796 32.1796 25.3093 32.1752 16.8421C32.1708 8.54593 25.4365 1.81601 17.1492 1.82917Z" fill="#26AB7B" stroke="#26AB7B" stroke-width="0.5"/>
<path d="M23.0279 17.5747C23.1463 17.2194 23.2078 17.2106 23.5807 17.2676C23.9316 17.3203 24.2168 17.4606 24.4625 17.7107C24.7959 18.0485 24.7126 18.3425 24.2563 18.4785C24.23 18.4872 24.2036 18.5004 24.151 18.5267C24.695 18.8294 25.0548 19.2989 25.2653 19.8297C25.4715 20.3518 25.5242 20.9265 25.3399 21.5056C25.6646 21.646 25.6777 21.9707 25.6909 22.2734C25.7172 22.9139 25.7304 23.5588 25.7348 24.1993C25.7348 24.6073 25.7172 25.0153 25.6953 25.4234C25.6733 25.7919 25.4145 26.077 25.0504 26.1121C24.6336 26.156 24.208 26.1516 23.7912 26.1911C23.1814 26.2438 22.7559 25.7524 22.8305 25.1601C18.8645 25.1601 14.8941 25.1601 10.9237 25.1601C10.9193 25.2303 10.9149 25.2786 10.9105 25.3268C10.8754 25.8577 10.6429 26.1209 10.1208 26.1736C9.73038 26.213 9.33553 26.235 8.94069 26.235C8.33965 26.2306 7.97551 25.8577 7.96235 25.261C7.9448 24.4275 7.93164 23.5983 7.93164 22.7647C7.93164 22.4883 7.96674 22.2119 8.01938 21.9399C8.04132 21.8347 8.13345 21.703 8.22997 21.6592C8.3572 21.5977 8.36597 21.5232 8.37474 21.4047C8.39668 20.9835 8.40107 20.558 8.47126 20.1456C8.51075 19.9218 8.63359 19.6893 8.77398 19.5051C9.01527 19.1892 9.30044 18.904 9.57244 18.6013C9.46276 18.5443 9.3487 18.5004 9.25218 18.4346C8.90998 18.1977 8.90559 17.7765 9.26973 17.5747C9.50663 17.4431 9.78302 17.3729 10.0463 17.2939C10.2393 17.2369 10.3314 17.351 10.3446 17.5396C10.349 17.623 10.3665 17.7063 10.3841 17.8336C10.6692 17.3685 10.9105 16.9342 11.1869 16.5262C11.4063 16.2015 11.6432 15.8769 11.924 15.6049C12.1477 15.3855 12.4373 15.2407 12.7795 15.2188C13.4419 15.1749 14.1 15.0784 14.7625 15.0302C15.3591 14.9863 15.9602 14.96 16.5568 14.9556C17.228 14.9512 17.8993 14.9863 18.5705 14.9994C18.9566 15.0082 19.3427 14.9863 19.7287 14.9994C20.5272 15.0345 21.1589 15.4075 21.681 15.9909C22.032 16.3814 22.3917 16.7675 22.7383 17.1623C22.8392 17.2852 22.9226 17.4299 23.0279 17.5747ZM8.90559 21.1152C9.12934 21.0976 9.31799 21.0625 9.50225 21.0669C10.2788 21.0801 11.0509 21.1152 11.8274 21.1195C15.3942 21.1459 18.9566 21.159 22.5234 21.1854C23.3174 21.1897 24.1159 21.2161 24.91 21.2424C25.0942 21.2468 25.1688 21.1722 25.1644 21.0055C25.1469 20.3562 24.9933 19.7551 24.5371 19.255C24.0589 18.7373 23.4183 18.5794 22.7778 18.5267C21.817 18.4434 20.8518 18.4434 19.8867 18.4434C17.4079 18.4346 14.9336 18.439 12.4548 18.4434C11.9942 18.4434 11.5291 18.4127 11.0772 18.4829C10.2788 18.6057 9.54173 18.8558 9.08547 19.6279C8.81785 20.0798 8.83101 20.5448 8.85295 21.0274C8.85733 21.0581 8.89682 21.0932 8.90559 21.1152ZM8.75643 21.6109C8.76959 21.8741 8.75204 22.0628 8.79591 22.2383C8.95385 22.8832 9.12934 23.5237 9.30921 24.1599C9.32676 24.23 9.37941 24.3046 9.43205 24.3529C9.76548 24.6468 10.1559 24.7565 10.6034 24.7433C11.5949 24.7214 12.5908 24.7126 13.5867 24.7214C14.916 24.7302 16.2453 24.7784 17.5746 24.7784C18.5179 24.7784 19.4567 24.7126 20.4 24.6951C21.2204 24.6775 22.0364 24.7082 22.8568 24.6775C23.2604 24.66 23.664 24.5635 24.0589 24.4801C24.3265 24.4231 24.4888 24.23 24.5415 23.9668C24.5985 23.6729 24.6336 23.3745 24.6687 23.0806C24.7213 22.6419 24.7608 22.2032 24.8091 21.7513C19.4655 21.7118 14.1483 21.6636 8.75643 21.6109ZM11.4896 16.6315C11.5291 16.5832 11.573 16.535 11.6125 16.4911C11.8713 16.2191 12.1565 15.969 12.5338 15.8857C13.1217 15.754 13.7139 15.6049 14.3106 15.5391C14.9028 15.4733 15.5083 15.4952 16.1049 15.4908C17.3333 15.482 18.5574 15.4776 19.7858 15.4952C20.0534 15.4996 20.3254 15.5961 20.5886 15.6795C20.7553 15.7321 20.9045 15.8374 21.0624 15.9208C20.9396 15.776 20.7992 15.6531 20.6369 15.5698C20.0314 15.2407 19.3514 15.2802 18.6977 15.232C17.9783 15.1837 17.2544 15.232 16.5305 15.2144C15.4249 15.1925 14.3325 15.289 13.2357 15.3899C12.4066 15.4689 11.902 15.9778 11.4896 16.6315ZM18.9566 16.4209C18.9478 16.4604 18.939 16.4999 18.9303 16.5393C19.0312 16.5613 19.1365 16.5788 19.2374 16.6052C19.7024 16.7368 20.185 16.8333 20.536 17.2194C20.5886 17.2764 20.7904 17.2808 20.8562 17.2237C20.9791 17.1272 20.9177 16.9868 20.8124 16.8859C20.7553 16.8333 20.6895 16.7763 20.6193 16.7499C20.4175 16.6753 20.2113 16.5964 19.9963 16.5569C19.6542 16.4999 19.3032 16.4648 18.9566 16.4209ZM17.8993 16.263C17.8291 16.3463 17.7457 16.4033 17.7545 16.4384C17.7677 16.4955 17.8379 16.5701 17.8905 16.5788C17.9344 16.5876 18.0353 16.5042 18.0353 16.4648C18.0353 16.4077 17.9651 16.3551 17.8993 16.263Z" fill="#26AB7B" stroke="#26AB7B" stroke-width="0.5"/>
<path d="M13.341 8.56788C15.3196 8.56788 17.2851 8.56788 19.2505 8.56788C19.2505 8.58982 19.2549 8.60737 19.2549 8.6293C18.9961 8.65124 18.7328 8.68195 18.474 8.69511C17.3421 8.75214 16.2146 8.80918 15.0827 8.86621C14.4729 8.89692 13.8587 8.94957 13.2489 8.94957C12.6873 8.94957 12.6435 8.71705 12.8804 8.29149C13.0339 8.0151 13.2357 7.75626 13.4375 7.51058C13.749 7.13328 14.2009 7.06747 14.6484 7.04115C15.9733 6.96218 17.2982 6.77792 18.6319 6.87005C19.1365 6.90515 19.641 7.01921 20.1367 7.12012C20.2684 7.14644 20.4219 7.23857 20.5009 7.34386C20.7553 7.69923 20.9835 8.07213 21.216 8.44066C21.2423 8.48453 21.2423 8.55034 21.2511 8.60298C20.8475 8.80918 19.8954 8.78724 19.6454 8.54156C20.049 8.45382 20.4307 8.37046 20.8167 8.28272C20.4965 7.65974 20.0007 7.3307 19.3032 7.27806C17.7106 7.15522 16.1181 7.17277 14.5343 7.35264C13.8675 7.42722 13.4419 7.8791 13.341 8.56788Z" fill="#26AB7B" stroke="#26AB7B" stroke-width="0.5"/>
<path d="M24.7566 14.4598C25.0637 14.7626 25.0725 15.1881 24.9935 15.6224C25.1602 15.6356 25.3445 15.6049 25.4805 15.6751C25.8008 15.8374 25.985 16.1401 26.0684 16.4823C26.2307 17.1272 25.8139 17.759 25.1602 17.8906C25.1427 17.895 25.1207 17.8862 25.0725 17.8774C25.2173 17.7897 25.3533 17.7195 25.4761 17.6362C25.9192 17.3247 26.0333 16.8114 25.7613 16.3463C25.7042 16.2454 25.6253 16.1577 25.5639 16.0568C25.3796 15.7584 25.0857 15.8199 24.8487 15.9997C24.7917 16.0392 24.7171 16.0568 24.6513 16.0875C24.6469 16.0129 24.6294 15.9383 24.6338 15.8681C24.6557 15.6093 24.7171 15.3504 24.7084 15.096C24.6996 14.8415 24.5855 14.609 24.3091 14.5213C24.0196 14.4291 23.7476 14.4818 23.5063 14.6704C23.4668 14.7011 23.4317 14.7406 23.3439 14.7582C23.3571 14.6968 23.3571 14.6222 23.3922 14.5739C23.5633 14.3151 23.8353 14.2668 24.1205 14.2405C24.2082 14.2317 24.3398 14.2668 24.3793 14.2185C24.4758 14.1045 24.568 13.9641 24.5943 13.8193C24.625 13.6526 24.6074 13.4683 24.568 13.2972C24.4539 12.7883 24.0415 12.569 23.4405 12.705C22.9754 12.8103 22.6376 13.1042 22.3832 13.4991C22.3524 13.5473 22.3349 13.6087 22.2998 13.6526C22.2208 13.7447 22.1331 13.8281 22.0497 13.9158C21.9795 13.8149 21.883 13.7228 21.8479 13.6087C21.7426 13.2665 21.5145 13.056 21.1767 13.0472C20.8126 13.0384 20.444 13.1349 20.2598 13.4903C20.1852 13.6351 20.2291 13.8544 20.2334 14.0343C20.2378 14.1659 20.3343 14.3458 20.1325 14.3765C19.9439 14.4028 19.9176 14.2273 19.9 14.0738C19.8123 13.3236 20.1325 13.0384 20.8827 12.8673C21.4004 12.7488 21.7426 12.9375 22.041 13.4727C22.1945 12.9726 22.5499 12.683 22.9666 12.4374C23.3878 12.1873 23.8485 12.1522 24.3003 12.2312C24.897 12.3408 25.2655 13.0252 25.0944 13.6789C25.0198 13.9378 24.8751 14.1791 24.7566 14.4598Z" fill="#26AB7B" stroke="#26AB7B" stroke-width="0.5"/>
<path d="M9.81842 15.7145C9.7219 15.5741 9.621 15.4337 9.52887 15.2889C9.35777 15.0213 9.28757 15.0169 9.0068 15.1617C8.91028 15.21 8.71286 15.2187 8.66021 15.1617C8.54614 15.0345 8.67776 14.9248 8.79182 14.8502C9.08576 14.6616 9.1779 14.3808 9.07699 14.0386C9.05944 13.9772 9.08576 13.8982 9.09454 13.828C9.15596 13.8675 9.25686 13.8894 9.27441 13.9465C9.40164 14.3062 9.67803 14.3939 10.0158 14.3983C10.0685 14.3983 10.1167 14.4334 10.1694 14.4554C10.1431 14.508 10.1299 14.5826 10.086 14.6089C9.91494 14.7142 9.88862 14.859 9.90178 15.0432C9.91494 15.2582 9.90617 15.4732 9.90617 15.6882C9.87107 15.6969 9.84474 15.7057 9.81842 15.7145ZM9.75261 14.5782C9.61661 14.5475 9.49377 14.5212 9.35338 14.4905C9.33145 14.6133 9.30951 14.7274 9.28757 14.8371C9.40603 14.8941 9.50693 14.9423 9.59906 14.9862C9.65171 14.8502 9.69997 14.7186 9.75261 14.5782Z" fill="#26AB7B" stroke="#26AB7B" stroke-width="0.5"/>
<path d="M18.4961 12.1961C18.5005 11.8364 18.7199 11.6697 19.1674 11.6784C19.3867 11.6828 19.6763 12.047 19.6763 12.3102C19.6763 12.5515 19.4262 12.7621 19.1498 12.7489C18.7594 12.7357 18.4918 12.512 18.4961 12.1961ZM19.1279 11.8408C18.8954 11.8451 18.7067 12.0162 18.7067 12.2224C18.7067 12.4199 18.8998 12.5778 19.1454 12.5822C19.3297 12.5866 19.5535 12.4023 19.5447 12.2531C19.5403 12.0777 19.299 11.8408 19.1279 11.8408Z" fill="#26AB7B" stroke="#26AB7B" stroke-width="0.5"/>
<path d="M13.3322 10.5509C13.205 10.2877 13.4858 9.5726 13.7841 9.40588C13.942 9.69982 13.6612 10.4062 13.3322 10.5509Z" fill="#26AB7B" stroke="#26AB7B" stroke-width="0.5"/>
<path d="M22.4753 14.7538C22.6727 14.7538 22.8614 14.9029 22.8702 15.0697C22.8746 15.2188 22.6464 15.4294 22.4666 15.4382C22.2209 15.4557 22.0278 15.3592 22.0103 15.2013C21.9796 14.9819 22.1244 14.7801 22.2735 14.7582C22.2428 14.8986 22.2077 15.0609 22.1726 15.2188C22.3218 15.21 22.5192 15.2583 22.6157 15.1793C22.8921 14.9688 22.4578 14.9249 22.4753 14.7538Z" fill="#26AB7B" stroke="#26AB7B" stroke-width="0.5"/>
<path d="M26.4984 15.4425C26.5817 15.5653 26.4019 15.7979 26.6607 15.7847C26.7133 15.7803 26.7616 15.6224 26.8362 15.4908C26.9152 15.482 26.9722 15.5873 26.981 15.7057C26.9897 15.8768 26.8757 15.9734 26.7221 16.0084C26.5554 16.0435 26.3887 16.0172 26.3097 15.8461C26.2308 15.6662 26.336 15.5434 26.4984 15.4425Z" fill="#26AB7B" stroke="#26AB7B" stroke-width="0.5"/>
<path d="M9.36187 16.127C9.23025 16.2147 9.12935 16.3639 9.2478 16.5833C9.23025 16.5833 9.20832 16.5876 9.19077 16.5876C9.15567 16.5613 9.12496 16.5306 9.08548 16.5043C9.01528 16.456 8.94947 16.4122 8.87928 16.3639C8.84418 16.342 8.77399 16.3156 8.77399 16.3025C8.80908 16.1533 8.85296 16.0041 8.89683 15.855C8.94947 15.8725 9.00212 15.8769 9.04599 15.9032C9.1469 15.969 9.24341 16.0392 9.36187 16.127Z" fill="#26AB7B" stroke="#26AB7B" stroke-width="0.5"/>
<path d="M20.637 10.7614C20.6984 10.6649 20.7291 10.5683 20.773 10.5596C20.8344 10.5464 20.9485 10.5771 20.9748 10.6254C21.0494 10.7614 21.1108 10.9149 21.1415 11.0685C21.1678 11.1869 21.0582 11.2396 20.9792 11.1694C20.852 11.0553 20.7511 10.9062 20.637 10.7614Z" fill="#26AB7B" stroke="#26AB7B" stroke-width="0.5"/>
<path d="M15.1047 10.2788C14.995 10.0243 14.9906 9.80498 15.0696 9.59001C15.0871 9.54175 15.1661 9.48033 15.21 9.48472C15.2539 9.48911 15.3197 9.5593 15.3284 9.61195C15.3767 9.85324 15.3197 10.0682 15.1047 10.2788Z" fill="#26AB7B" stroke="#26AB7B" stroke-width="0.5"/>
<path d="M15.2977 11.3844C15.2231 11.4985 15.1441 11.6082 15.0695 11.7222C15.0257 11.595 14.9774 11.4678 14.9379 11.3406C14.9291 11.3099 14.9248 11.2572 14.9423 11.2353C14.9906 11.1651 15.052 11.1037 15.109 11.0422C15.1529 11.108 15.2011 11.1739 15.2362 11.244C15.2494 11.2748 15.2406 11.3142 15.2406 11.3537C15.2582 11.3581 15.2801 11.3713 15.2977 11.3844Z" fill="#26AB7B" stroke="#26AB7B" stroke-width="0.5"/>
<path d="M12.6259 11.8758C12.6127 11.6126 12.6917 11.4152 12.854 11.2528C12.8847 11.2265 12.9549 11.209 12.9856 11.2221C13.0163 11.2397 13.0383 11.3055 13.0383 11.3494C13.0514 11.5424 12.8803 11.7705 12.6259 11.8758Z" fill="#26AB7B" stroke="#26AB7B" stroke-width="0.5"/>
<path d="M17.0746 13.113C16.8859 12.9814 16.8114 12.7269 16.9035 12.5558C16.9605 12.4505 17.0351 12.433 17.0965 12.547C17.1886 12.7269 17.2106 12.9156 17.0746 13.113Z" fill="#26AB7B" stroke="#26AB7B" stroke-width="0.5"/>
<path d="M15.0215 13.3279C14.8723 13.2007 14.8065 12.9374 14.8987 12.7883C14.9206 12.7488 14.982 12.7005 15.0084 12.7093C15.0522 12.7225 15.118 12.7751 15.118 12.8146C15.1224 12.9857 15.1093 13.1568 15.1049 13.3279C15.0785 13.3279 15.0478 13.3279 15.0215 13.3279Z" fill="#26AB7B" stroke="#26AB7B" stroke-width="0.5"/>
<path d="M16.9035 9.32678C17.0132 9.58563 17.0439 9.81376 16.9123 10.0551C16.6929 9.87518 16.6798 9.55053 16.9035 9.32678Z" fill="#26AB7B" stroke="#26AB7B" stroke-width="0.5"/>
<path d="M16.9472 11.5335C16.9077 11.3844 16.8507 11.2352 16.8288 11.086C16.82 11.0422 16.9033 10.9807 16.9428 10.9281C16.9911 10.972 17.0744 11.0115 17.0788 11.0597C17.0964 11.2089 17.0876 11.3624 17.0876 11.5116C17.0394 11.5204 16.9911 11.5291 16.9472 11.5335Z" fill="#26AB7B" stroke="#26AB7B" stroke-width="0.5"/>
<path d="M18.8029 9.80511C18.7503 9.67349 18.6845 9.54188 18.645 9.40588C18.6362 9.36639 18.7064 9.30936 18.7371 9.25671C18.7854 9.29181 18.86 9.32252 18.8688 9.36639C18.8995 9.5024 18.8995 9.6384 18.9126 9.77879C18.8775 9.78756 18.8424 9.79634 18.8029 9.80511Z" fill="#26AB7B" stroke="#26AB7B" stroke-width="0.5"/>
<path d="M20.4089 9.26978C20.5888 9.46281 20.6502 9.66023 20.637 9.89714C20.4528 9.79624 20.3606 9.56372 20.4089 9.26978Z" fill="#26AB7B" stroke="#26AB7B" stroke-width="0.5"/>
<path d="M12.3452 13.2665C12.2706 13.0472 12.3847 12.9463 12.5338 12.8629C12.5558 12.8498 12.6479 12.9068 12.6435 12.92C12.6128 13.0823 12.5294 13.2095 12.3452 13.2665Z" fill="#26AB7B" stroke="#26AB7B" stroke-width="0.5"/>
<path d="M17.1974 14.0035C17.2193 14.1395 17.2413 14.2712 17.272 14.451C17.0745 14.2975 17.0526 14.1922 17.1974 14.0035Z" fill="#26AB7B" stroke="#26AB7B" stroke-width="0.5"/>
<path d="M23.6464 20.6809C23.3788 20.659 23.1068 20.6458 22.8392 20.6195C22.7471 20.6107 22.6506 20.58 22.5716 20.5361C22.2864 20.387 22.2382 20.1413 22.4882 19.9438C22.962 19.5709 23.4841 19.3077 24.1203 19.4042C24.5721 19.4744 24.8617 20.0623 24.6204 20.4615C24.5634 20.5581 24.4186 20.6414 24.3045 20.6546C24.0895 20.6853 23.8702 20.6633 23.6508 20.6633C23.6464 20.6721 23.6464 20.6765 23.6464 20.6809ZM22.6988 20.1808C22.7032 20.2027 22.7076 20.2246 22.712 20.2466C23.2297 20.2466 23.743 20.2466 24.3001 20.2466C24.2606 20.0667 24.2299 19.9088 24.1992 19.7596C23.5894 19.6104 23.1419 19.8868 22.6988 20.1808Z" fill="#26AB7B" stroke="#26AB7B" stroke-width="0.5"/>
<path d="M10.3008 20.7467C10.0683 20.7335 9.83578 20.7335 9.60326 20.7072C9.26106 20.6677 9.1119 20.4001 9.25228 20.093C9.32687 19.9263 9.41022 19.7639 9.50235 19.606C9.60326 19.4305 9.78313 19.3603 9.95423 19.4437C10.3271 19.6235 10.6869 19.8253 11.0422 20.0359C11.1826 20.1193 11.2748 20.2816 11.1914 20.4308C11.13 20.5405 10.9896 20.637 10.8624 20.6721C10.6825 20.7247 10.4851 20.7116 10.2964 20.7291C10.3052 20.7335 10.3008 20.7423 10.3008 20.7467ZM9.62519 19.7464C9.59448 19.8824 9.55061 19.9877 9.55061 20.0886C9.55061 20.1632 9.59887 20.2992 9.64713 20.3079C9.99372 20.3737 10.3447 20.3474 10.6957 20.2641C10.4061 19.9657 10.0288 19.8824 9.62519 19.7464Z" fill="#26AB7B" stroke="#26AB7B" stroke-width="0.5"/>
<path d="M15.9249 23.6904C15.2098 23.6904 14.4947 23.6904 13.7796 23.6904C13.4549 23.6904 13.3321 23.5544 13.354 23.2298C13.3672 23.006 13.3891 22.7779 13.4111 22.5541C13.433 22.3128 13.5251 22.2426 13.7664 22.2383C14.4947 22.2207 15.223 22.19 15.9512 22.1812C16.4689 22.1768 16.9866 22.1944 17.5043 22.2119C17.9781 22.2295 18.4475 22.2646 18.9213 22.2953C19.0881 22.3041 19.2548 22.3216 19.4171 22.3435C19.6145 22.3655 19.6935 22.5146 19.6979 22.6814C19.7066 22.9051 19.6891 23.1332 19.6496 23.357C19.6145 23.5676 19.4127 23.7036 19.1802 23.7036C18.7415 23.7036 18.3071 23.6948 17.8684 23.6948C17.2235 23.6904 16.5742 23.6904 15.9249 23.6904ZM15.2581 23.2956C15.223 23.0016 15.1923 22.7384 15.1572 22.4752C15.008 22.4752 14.8852 22.4752 14.8018 22.4752C14.8018 22.7559 14.8018 23.0236 14.8018 23.2956C14.9641 23.2956 15.0913 23.2956 15.2581 23.2956ZM14.0779 23.3789C14.056 23.0938 14.0428 22.8305 14.0033 22.5761C13.9946 22.5322 13.8805 22.4839 13.8103 22.4708C13.7752 22.4664 13.6918 22.541 13.6918 22.5761C13.6918 22.8437 13.7094 23.1069 13.7226 23.3789C13.8322 23.3789 13.9331 23.3789 14.0779 23.3789ZM14.2402 23.3438C14.3719 23.335 14.4771 23.3307 14.6044 23.3263C14.5824 23.0279 14.5649 22.7516 14.543 22.4796C14.2402 22.4401 14.2402 22.4401 14.2402 22.7252C14.2402 22.9227 14.2402 23.1201 14.2402 23.3438ZM16.3943 23.3C16.3724 23.0279 16.3505 22.7779 16.3285 22.519C16.2145 22.519 16.1179 22.519 16.0039 22.519C16.0039 22.7867 16.0039 23.0455 16.0039 23.3175C16.1311 23.3131 16.2539 23.3043 16.3943 23.3ZM18.2984 22.5585C18.1624 22.5585 18.0308 22.5585 17.8947 22.5585C17.8947 22.7954 17.8947 23.0148 17.8947 23.2429C18.0308 23.2429 18.1624 23.2429 18.2984 23.2429C18.2984 23.0104 18.2984 22.7954 18.2984 22.5585ZM17.0436 23.2561C17.0261 23.0148 17.0129 22.7867 16.9954 22.5585C16.8769 22.5585 16.776 22.5585 16.6663 22.5585C16.6663 22.8086 16.6663 23.0455 16.6663 23.2956C16.7936 23.2824 16.9076 23.2692 17.0436 23.2561ZM15.4906 22.4971C15.473 22.7735 15.4599 23.0279 15.4467 23.2956C15.5564 23.2956 15.6573 23.2956 15.7845 23.2956C15.7626 23.0367 15.7363 22.7779 15.7143 22.5103C15.6397 22.5059 15.5783 22.5015 15.4906 22.4971ZM18.8336 23.2605C18.8336 22.9972 18.8336 22.7516 18.8336 22.4445C18.7371 22.519 18.645 22.5541 18.6318 22.6024C18.5923 22.813 18.5748 23.0279 18.5484 23.2605C18.6493 23.2605 18.7327 23.2605 18.8336 23.2605ZM17.6096 23.2561C17.6096 23.0148 17.6096 22.791 17.6096 22.5673C17.5175 22.5673 17.4429 22.5673 17.3551 22.5673C17.3551 22.8086 17.3551 23.0279 17.3551 23.2561C17.4473 23.2561 17.5262 23.2561 17.6096 23.2561ZM19.0179 23.3043C19.1188 23.2517 19.2372 23.221 19.246 23.1727C19.2899 22.9709 19.2986 22.7647 19.325 22.5585C19.1758 22.5629 19.0924 22.7647 19.0179 23.3043Z" fill="#26AB7B" stroke="#26AB7B" stroke-width="0.5"/>
<path d="M10.5859 22.3304C10.7658 22.3568 10.9281 22.4489 10.9852 22.6551C11.0554 22.9227 11.1168 23.1903 11.1606 23.4623C11.1957 23.6729 11.0115 23.844 10.8053 23.7738C10.6605 23.7256 10.4982 23.6203 10.4236 23.493C10.3051 23.2825 10.2393 23.0368 10.1691 22.7999C10.1077 22.5893 10.3359 22.3304 10.5859 22.3304Z" fill="#26AB7B" stroke="#26AB7B" stroke-width="0.5"/>
<path d="M9.1557 22.5717C9.21712 22.4839 9.26538 22.3611 9.35312 22.3128C9.42332 22.2733 9.56809 22.2997 9.6339 22.3523C9.73919 22.4401 9.84449 22.5629 9.88836 22.6945C9.98487 22.9972 10.0507 23.3131 10.1165 23.6246C10.1297 23.6948 10.0989 23.8352 10.0595 23.844C9.98049 23.8659 9.85765 23.8483 9.805 23.7957C9.66461 23.6509 9.51984 23.493 9.43209 23.3175C9.31364 23.0894 9.24783 22.8393 9.1557 22.5717Z" fill="#26AB7B" stroke="#26AB7B" stroke-width="0.5"/>
<path d="M24.4229 22.5453C24.3483 22.9841 24.1465 23.3657 23.8745 23.7167C23.835 23.765 23.7078 23.7825 23.642 23.7562C23.5894 23.7387 23.5323 23.6246 23.5411 23.5676C23.6069 23.142 23.6815 22.7164 23.9315 22.3523C23.9842 22.2777 24.129 22.2163 24.2211 22.2339C24.3659 22.2514 24.458 22.3699 24.4229 22.5453Z" fill="#26AB7B" stroke="#26AB7B" stroke-width="0.5"/>
<path d="M23.3789 22.7252C23.3306 22.9358 23.3131 23.1113 23.2517 23.2736C23.2166 23.3701 23.1332 23.4622 23.0499 23.5149C22.9884 23.5544 22.8788 23.55 22.8086 23.5193C22.7691 23.5017 22.7428 23.3876 22.7559 23.3262C22.8173 23.1025 22.8875 22.8787 22.9884 22.6725C23.0235 22.6023 23.1683 22.5672 23.2648 22.5585C23.2999 22.5629 23.3482 22.6813 23.3789 22.7252Z" fill="#26AB7B" stroke="#26AB7B" stroke-width="0.5"/>
</svg>
