<svg width="58" height="58" viewBox="0 0 58 58" fill="none" xmlns="http://www.w3.org/2000/svg">
<path d="M57 28.8117C56.877 44.3472 44.4778 56.9385 28.8578 57.0231C13.4069 57.1076 1 44.6393 1 29.196C1 13.7912 13.7528 0.992316 29.0807 1C44.6162 1.00769 56.9923 13.3377 57 28.8117ZM29.2575 2.45285C14.2217 2.47591 2.3606 14.7598 2.44516 29.4804C2.52203 43.8475 14.2986 55.5933 28.7271 55.5779C43.5554 55.5625 55.5702 43.54 55.5625 28.7194C55.5472 14.2063 43.7629 2.42979 29.2575 2.45285Z" fill="#26AB7B" stroke="#26AB7B" stroke-width="0.5"/>
<path d="M29.227 14.0757C29.3346 13.722 29.4345 13.3761 29.5575 12.961C29.2654 12.8611 28.981 12.7689 28.6889 12.6689C28.5198 13.0148 28.366 13.3223 28.2046 13.6298C28.1661 13.6144 28.1354 13.6067 28.097 13.5914C28.1431 13.2685 28.1969 12.9457 28.2507 12.5997C27.3744 12.4229 26.5288 12.3768 25.6602 12.5767C25.714 12.5306 25.7678 12.4614 25.8293 12.4383C27.2821 11.9002 28.7196 11.7004 30.1878 12.4614C31.6176 13.1993 32.5478 14.3447 33.1935 15.7745C33.4241 16.2818 33.6316 16.7969 33.8622 17.3426C33.9084 17.3657 34.1159 17.3964 34.1467 17.4887C34.1928 17.6271 34.1159 17.8039 34.0775 18.0498C34.9692 19.6103 35.5149 21.4321 36.1991 23.1925C36.8064 24.7606 37.5213 26.2903 38.1439 27.8508C38.7742 29.442 39.3661 31.0486 39.9504 32.6552C40.0426 32.9166 40.1656 33.0165 40.427 33.0396C41.4801 33.1318 42.3871 33.5469 43.1251 34.3233C43.3019 34.5078 43.5171 34.6538 43.6786 34.846C43.7785 34.969 43.8707 35.1535 43.8554 35.3072C43.8477 35.3841 43.6017 35.5071 43.471 35.4917C41.9259 35.338 40.4193 35.5916 38.8972 35.7838C38.2054 35.8684 37.4982 35.853 36.791 35.8838C36.4451 35.8991 36.0992 35.9683 35.7609 35.9452C35.5841 35.9376 35.3228 35.8146 35.269 35.6762C35.2075 35.5148 35.2613 35.2227 35.3766 35.092C35.9685 34.4232 36.5604 33.7468 37.4905 33.5161C37.6596 33.47 37.8057 33.324 37.9517 33.2317C37.0447 30.9179 36.1453 28.6579 35.2613 26.3826C34.7462 25.0604 34.2773 23.7229 33.7546 22.4084C33.3703 21.4398 32.9167 20.4943 32.517 19.5334C32.4094 19.2721 32.3786 19.0261 32.0712 18.8647C31.9559 18.8032 31.9943 18.4419 31.9559 18.219C32.0174 18.1959 32.0712 18.1728 32.1327 18.1498C31.633 17.4195 31.1718 16.6585 30.6183 15.959C30.0187 15.1903 29.2039 14.5907 28.3122 14.2986C27.2053 13.9373 26.7133 14.0449 26.0676 15.1211C25.3911 16.2511 25.6371 17.2965 26.2905 18.3189C27.1361 19.6411 28.366 20.6096 29.5498 21.5936C31.0642 22.8542 32.2095 24.3763 32.9398 26.2058C33.2319 26.9284 33.4164 27.674 33.2165 28.4504C33.132 28.7656 32.9782 29.05 32.8322 29.4036C33.3933 29.7034 33.5163 30.3491 33.6931 30.9564C33.9699 31.9096 34.2543 32.8627 34.4695 33.8313C34.6156 34.4847 34.6463 35.1612 34.7386 35.8223C34.7924 36.1989 34.6002 36.3911 34.2773 36.4526C33.6239 36.5833 32.9705 36.7831 32.3171 36.7908C30.1955 36.7985 28.0739 36.7293 25.9523 36.6909C25.4526 36.6832 24.9607 36.737 24.461 36.7139C24.2611 36.7063 24.069 36.5602 23.8691 36.4833C24.0536 36.3911 24.2381 36.222 24.4303 36.2066C25.4526 36.1528 26.475 36.1144 27.4974 36.1067C29.1732 36.0913 30.8489 36.1144 32.517 36.099C32.9629 36.0913 33.4087 36.0298 33.8469 35.9529C34.3081 35.8684 34.1236 35.4917 34.1313 35.215C34.139 34.9075 33.9007 34.9767 33.7162 34.9767C33.2703 34.9767 32.8245 34.9613 32.3786 34.969C30.1033 35.0151 27.8279 35.0689 25.5526 35.1151C25.5295 35.1151 25.4987 35.1227 25.4757 35.1151C24.6378 34.9997 24.0305 35.1765 23.4924 35.9914C22.939 36.8369 21.9627 37.1367 20.8788 37.1675C19.9487 37.1905 19.1262 37.0137 18.3652 36.5448C17.4427 35.976 16.8893 35.1458 16.8508 34.0312C16.8278 33.3163 16.8124 32.6168 17.0661 31.9172C17.2813 31.333 17.6119 30.8872 18.0808 30.5182C18.3037 30.3414 18.3806 30.1646 18.3575 29.8725C18.2729 28.7656 18.1961 27.6586 18.1807 26.544C18.1653 25.6908 18.4805 25.3986 19.3491 25.3833C19.7642 25.3756 20.187 25.4217 20.5944 25.4448C20.825 24.4455 21.9243 23.7075 23.0158 23.7997C23.5462 23.8459 24.0613 23.9381 24.4303 24.3763C24.5379 24.4993 24.6839 24.653 24.6839 24.7914C24.6916 25.2372 25.0068 25.2603 25.3143 25.3525C26.475 25.6984 27.6434 26.029 28.7888 26.421C29.1808 26.5517 29.5114 26.8361 29.8727 27.059C30.0033 27.1359 30.1187 27.2282 30.3031 27.3512C30.2878 27.1513 30.2955 27.0129 30.2647 26.8822C30.0495 25.8061 29.7497 24.7683 28.858 24.0304C28.2584 23.5384 27.6434 23.0618 27.0285 22.5852C26.2213 21.9625 25.3834 21.3783 24.5917 20.7249C22.716 19.1798 22.4393 16.5432 23.4463 14.4216C23.5693 14.1602 23.7154 13.8912 23.9075 13.6759C23.9998 13.576 24.2227 13.5837 24.3841 13.5376C24.3688 13.6836 24.3841 13.845 24.3303 13.9757C24.2381 14.2217 24.1151 14.46 23.9921 14.729C24.3688 14.7829 24.707 14.829 25.0452 14.8751C25.0529 14.9212 25.0606 14.9673 25.0606 15.0212C24.7377 15.0827 24.4226 15.1672 24.0997 15.198C23.8845 15.221 23.7845 15.2825 23.7538 15.5054C23.5232 17.1966 23.7461 18.7801 25.0452 19.987C25.9369 20.8172 26.9362 21.5474 27.9202 22.27C29.6728 23.5461 30.9642 25.1296 31.5023 27.2666C31.5331 27.3742 31.5715 27.5049 31.6484 27.5741C31.7867 27.7047 31.9943 27.9123 32.1173 27.8739C32.271 27.8277 32.4017 27.5971 32.4863 27.4203C32.7092 26.9822 32.5631 26.5594 32.3863 26.1366C31.6253 24.3455 30.3493 22.9542 28.8349 21.7857C27.6357 20.8633 26.6134 19.7871 25.7447 18.5649C24.83 17.2735 24.976 15.3056 26.0522 14.1448C26.5058 13.6606 27.0515 13.453 27.7126 13.6529C28.2353 13.7835 28.735 13.9219 29.227 14.0757C29.2961 14.1218 29.3576 14.1833 29.4268 14.2294C30.1571 14.6368 30.8335 15.1134 31.3178 15.8052C31.7252 16.3971 32.1096 17.0044 32.5324 17.6347C32.7476 17.5425 33.0474 17.4041 33.3088 17.2965C32.9936 16.6662 32.7399 16.0205 32.3633 15.4516C31.9866 14.8751 31.4946 14.3754 31.0488 13.845C30.8105 14.1064 30.6491 14.2909 30.4799 14.4754C30.4492 14.4523 30.4184 14.4293 30.38 14.4139C30.4953 14.1756 30.6106 13.9373 30.749 13.6605C30.4492 13.4914 30.1494 13.3223 29.8342 13.1455C29.7497 13.33 29.7112 13.4684 29.6267 13.5837C29.5114 13.7451 29.3653 13.9065 29.227 14.0757ZM24.3841 34.6077C27.5819 34.5385 30.7029 34.477 33.8469 34.4078C33.8392 34.2618 33.8545 34.1465 33.8315 34.0389C33.5624 32.8704 33.2857 31.702 33.0013 30.5336C32.9705 30.4106 32.8552 30.2953 32.7553 30.203C32.3095 29.8033 31.8482 29.419 31.4024 29.0269C30.234 27.9969 28.9656 27.1282 27.4513 26.6824C26.9285 26.5286 26.4135 26.3211 25.8908 26.152C25.6602 26.0751 25.4219 25.9752 25.1913 25.9752C23.969 25.9675 22.7391 25.9752 21.5169 25.9982C20.9327 26.0136 20.3408 26.0674 19.7565 26.1135C19.1262 26.1597 19.0724 26.2288 19.1031 26.8669C19.1262 27.3511 19.1416 27.8354 19.1493 28.3197C19.157 28.7733 19.1493 29.2345 19.1493 29.7572C20.7328 29.1653 22.1703 29.173 23.331 30.4336C24.3841 31.5944 24.8069 32.9627 24.3841 34.6077ZM19.4721 33.1779C19.4721 34.085 19.8257 34.5001 20.6175 34.5001C21.3862 34.5001 21.9935 33.9774 22.0012 33.324C22.0012 32.6552 21.3478 31.8634 20.7635 31.8404C20.0794 31.8096 19.4721 32.4323 19.4721 33.1779ZM42.5178 34.8537C41.8875 34.4078 41.3263 34.0312 40.6038 34.0235C39.9196 34.0158 39.2278 34.0312 38.5359 34.0389C37.6596 34.0542 37.0062 34.5078 36.3759 35.1842C38.4668 35.3457 40.4346 34.9306 42.5178 34.8537ZM21.44 25.0143C21.4477 25.0527 21.4477 25.0988 21.4554 25.1373C22.2702 25.1373 23.085 25.1373 23.9075 25.1373C23.8845 24.6914 23.6231 24.5454 23.3003 24.4531C22.5469 24.2302 21.9627 24.5223 21.44 25.0143ZM33.8084 18.5802C33.7777 18.5802 33.7546 18.5803 33.7239 18.5879C33.7239 18.8186 33.6547 19.0799 33.7392 19.2721C34.016 19.9255 34.3388 20.5635 34.654 21.2015C34.7539 21.4014 34.8846 21.5936 34.9999 21.7857C35.0383 21.7704 35.0768 21.7473 35.1152 21.7319C34.6847 20.6711 34.2466 19.6257 33.8084 18.5802Z" fill="#26AB7B"/>
<path d="M29.227 14.0757C29.3346 13.722 29.4345 13.3761 29.5575 12.961C29.2654 12.8611 28.981 12.7689 28.6889 12.6689C28.5198 13.0148 28.366 13.3223 28.2046 13.6298C28.1661 13.6144 28.1354 13.6067 28.097 13.5914C28.1431 13.2685 28.1969 12.9457 28.2507 12.5997C27.3744 12.4229 26.5288 12.3768 25.6602 12.5767C25.714 12.5306 25.7678 12.4614 25.8293 12.4383C27.2821 11.9002 28.7196 11.7004 30.1878 12.4614C31.6176 13.1993 32.5478 14.3447 33.1935 15.7745C33.4241 16.2818 33.6316 16.7969 33.8622 17.3426C33.9084 17.3657 34.1159 17.3964 34.1467 17.4887C34.1928 17.6271 34.1159 17.8039 34.0775 18.0498C34.9692 19.6103 35.5149 21.4321 36.1991 23.1925C36.8064 24.7606 37.5213 26.2903 38.1439 27.8508C38.7742 29.442 39.3661 31.0486 39.9504 32.6552C40.0426 32.9166 40.1656 33.0165 40.427 33.0396C41.4801 33.1318 42.3872 33.5469 43.1251 34.3233C43.3019 34.5078 43.5171 34.6538 43.6786 34.846C43.7785 34.969 43.8707 35.1535 43.8554 35.3072C43.8477 35.3841 43.6017 35.5071 43.471 35.4917C41.9259 35.338 40.4193 35.5916 38.8972 35.7838C38.2054 35.8684 37.4982 35.853 36.791 35.8838C36.4451 35.8991 36.0992 35.9683 35.7609 35.9452C35.5841 35.9376 35.3228 35.8146 35.269 35.6762C35.2075 35.5148 35.2613 35.2227 35.3766 35.092C35.9685 34.4232 36.5604 33.7468 37.4905 33.5161C37.6596 33.47 37.8057 33.324 37.9517 33.2317C37.0447 30.9179 36.1453 28.6579 35.2613 26.3826C34.7462 25.0604 34.2773 23.7229 33.7546 22.4084C33.3703 21.4398 32.9167 20.4943 32.517 19.5334C32.4094 19.2721 32.3786 19.0261 32.0712 18.8647C31.9559 18.8032 31.9943 18.4419 31.9559 18.219C32.0173 18.1959 32.0712 18.1728 32.1327 18.1498C31.633 17.4195 31.1718 16.6585 30.6183 15.959C30.0187 15.1903 29.2039 14.5907 28.3122 14.2986C27.2053 13.9373 26.7133 14.0449 26.0676 15.1211C25.3911 16.2511 25.6371 17.2965 26.2905 18.3189C27.1361 19.6411 28.366 20.6096 29.5498 21.5936C31.0642 22.8542 32.2095 24.3763 32.9398 26.2058C33.2319 26.9284 33.4164 27.674 33.2165 28.4504C33.132 28.7656 32.9782 29.05 32.8322 29.4036C33.3933 29.7034 33.5163 30.3491 33.6931 30.9564C33.9699 31.9096 34.2543 32.8627 34.4695 33.8313C34.6156 34.4847 34.6463 35.1612 34.7386 35.8223C34.7924 36.1989 34.6002 36.3911 34.2773 36.4526C33.6239 36.5833 32.9705 36.7831 32.3171 36.7908C30.1955 36.7985 28.0739 36.7293 25.9523 36.6909C25.4526 36.6832 24.9607 36.737 24.461 36.7139C24.2611 36.7063 24.069 36.5602 23.8691 36.4833C24.0536 36.3911 24.2381 36.222 24.4303 36.2066C25.4526 36.1528 26.475 36.1144 27.4974 36.1067C29.1731 36.0913 30.8489 36.1144 32.517 36.099C32.9629 36.0913 33.4087 36.0298 33.8469 35.9529C34.3081 35.8684 34.1236 35.4917 34.1313 35.215C34.139 34.9075 33.9007 34.9767 33.7162 34.9767C33.2703 34.9767 32.8245 34.9613 32.3786 34.969C30.1033 35.0151 27.8279 35.0689 25.5526 35.1151C25.5295 35.1151 25.4987 35.1227 25.4757 35.1151C24.6378 34.9997 24.0305 35.1765 23.4924 35.9914C22.939 36.8369 21.9627 37.1367 20.8788 37.1675C19.9487 37.1905 19.1262 37.0137 18.3652 36.5448C17.4427 35.976 16.8893 35.1458 16.8508 34.0312C16.8278 33.3163 16.8124 32.6168 17.0661 31.9172C17.2813 31.333 17.6119 30.8872 18.0808 30.5182C18.3037 30.3414 18.3806 30.1646 18.3575 29.8725C18.2729 28.7656 18.1961 27.6586 18.1807 26.544C18.1653 25.6908 18.4805 25.3986 19.3491 25.3833C19.7642 25.3756 20.187 25.4217 20.5944 25.4448C20.825 24.4455 21.9243 23.7075 23.0158 23.7997C23.5462 23.8459 24.0613 23.9381 24.4303 24.3763C24.5379 24.4993 24.6839 24.653 24.6839 24.7914C24.6916 25.2372 25.0068 25.2603 25.3143 25.3525C26.475 25.6984 27.6434 26.029 28.7888 26.421C29.1808 26.5517 29.5114 26.8361 29.8727 27.059C30.0033 27.1359 30.1187 27.2282 30.3031 27.3512C30.2878 27.1513 30.2955 27.0129 30.2647 26.8822C30.0495 25.8061 29.7497 24.7683 28.858 24.0304C28.2584 23.5384 27.6434 23.0618 27.0285 22.5852C26.2213 21.9625 25.3834 21.3783 24.5917 20.7249C22.716 19.1798 22.4393 16.5432 23.4463 14.4216C23.5693 14.1602 23.7154 13.8912 23.9075 13.6759C23.9998 13.576 24.2227 13.5837 24.3841 13.5376C24.3688 13.6836 24.3841 13.845 24.3303 13.9757C24.2381 14.2217 24.1151 14.46 23.9921 14.729C24.3688 14.7829 24.707 14.829 25.0452 14.8751C25.0529 14.9212 25.0606 14.9673 25.0606 15.0212C24.7377 15.0827 24.4226 15.1672 24.0997 15.198C23.8845 15.221 23.7845 15.2825 23.7538 15.5054C23.5232 17.1966 23.7461 18.7801 25.0452 19.987C25.9369 20.8172 26.9362 21.5474 27.9202 22.27C29.6728 23.5461 30.9642 25.1296 31.5023 27.2666C31.5331 27.3742 31.5715 27.5049 31.6484 27.5741C31.7867 27.7047 31.9943 27.9123 32.1173 27.8739C32.271 27.8277 32.4017 27.5971 32.4863 27.4203C32.7092 26.9822 32.5631 26.5594 32.3863 26.1366C31.6253 24.3455 30.3493 22.9542 28.8349 21.7857C27.6357 20.8633 26.6134 19.7871 25.7447 18.5649C24.83 17.2735 24.976 15.3056 26.0522 14.1448C26.5058 13.6606 27.0515 13.453 27.7126 13.6529C28.2353 13.7835 28.735 13.9219 29.227 14.0757ZM29.227 14.0757C29.2961 14.1218 29.3576 14.1833 29.4268 14.2294C30.1571 14.6368 30.8335 15.1134 31.3178 15.8052C31.7252 16.3971 32.1096 17.0044 32.5324 17.6347C32.7476 17.5425 33.0474 17.4041 33.3088 17.2965C32.9936 16.6662 32.7399 16.0205 32.3633 15.4516C31.9866 14.8751 31.4946 14.3754 31.0488 13.845C30.8105 14.1064 30.6491 14.2909 30.4799 14.4754C30.4492 14.4523 30.4184 14.4293 30.38 14.4139C30.4953 14.1756 30.6106 13.9373 30.749 13.6605C30.4492 13.4914 30.1494 13.3223 29.8342 13.1455C29.7497 13.33 29.7112 13.4684 29.6267 13.5837C29.5114 13.7451 29.3653 13.9065 29.227 14.0757ZM24.3841 34.6077C27.5819 34.5385 30.7029 34.477 33.8469 34.4078C33.8392 34.2618 33.8545 34.1465 33.8315 34.0389C33.5624 32.8704 33.2857 31.702 33.0013 30.5336C32.9705 30.4106 32.8552 30.2953 32.7553 30.203C32.3095 29.8033 31.8482 29.419 31.4024 29.0269C30.234 27.9969 28.9656 27.1282 27.4513 26.6824C26.9285 26.5286 26.4135 26.3211 25.8908 26.152C25.6602 26.0751 25.4219 25.9752 25.1913 25.9752C23.969 25.9675 22.7391 25.9752 21.5169 25.9982C20.9327 26.0136 20.3408 26.0674 19.7565 26.1135C19.1262 26.1597 19.0724 26.2288 19.1031 26.8669C19.1262 27.3511 19.1416 27.8354 19.1493 28.3197C19.157 28.7733 19.1493 29.2345 19.1493 29.7572C20.7328 29.1653 22.1703 29.173 23.331 30.4336C24.3841 31.5944 24.8069 32.9627 24.3841 34.6077ZM19.4721 33.1779C19.4721 34.085 19.8257 34.5001 20.6175 34.5001C21.3862 34.5001 21.9935 33.9774 22.0012 33.324C22.0012 32.6552 21.3478 31.8634 20.7635 31.8404C20.0794 31.8096 19.4721 32.4323 19.4721 33.1779ZM42.5178 34.8537C41.8875 34.4078 41.3263 34.0312 40.6038 34.0235C39.9196 34.0158 39.2278 34.0312 38.5359 34.0389C37.6596 34.0542 37.0062 34.5078 36.3759 35.1842C38.4668 35.3457 40.4346 34.9306 42.5178 34.8537ZM21.44 25.0143C21.4477 25.0527 21.4477 25.0988 21.4554 25.1373C22.2702 25.1373 23.085 25.1373 23.9075 25.1373C23.8845 24.6914 23.6231 24.5454 23.3003 24.4531C22.5469 24.2302 21.9627 24.5223 21.44 25.0143ZM33.8084 18.5802C33.7777 18.5802 33.7546 18.5803 33.7239 18.5879C33.7239 18.8186 33.6547 19.0799 33.7392 19.2721C34.016 19.9255 34.3388 20.5635 34.654 21.2015C34.7539 21.4014 34.8846 21.5936 34.9999 21.7857C35.0384 21.7704 35.0768 21.7473 35.1152 21.7319C34.6847 20.6711 34.2466 19.6257 33.8084 18.5802Z" stroke="#26AB7B" stroke-width="0.5"/>
<path d="M16.3818 33.7006C15.69 33.8082 15.0058 33.9312 14.314 34.0158C13.9988 34.0542 13.7913 34.1542 13.6145 34.4386C12.1309 36.8446 10.6319 39.2276 9.14062 41.6259C9.11755 41.6567 9.10987 41.6951 9.07143 41.7797C9.30973 41.8104 9.53265 41.8566 9.74789 41.8566C13.3915 41.8566 17.0429 41.8489 20.6865 41.8335C22.001 41.8258 23.3232 41.8027 24.6377 41.7951C28.1814 41.7643 31.7251 41.7336 35.2688 41.7182C38.2745 41.7028 41.2801 41.7259 44.2857 41.7028C45.1467 41.6951 46.0153 41.5952 46.8839 41.5337C46.2613 40.6651 45.6847 39.8041 45.0621 38.9816C44.4471 38.1668 43.7784 37.3981 43.1403 36.6063C43.1865 36.5679 43.2326 36.5294 43.2787 36.491C43.4939 36.7216 43.7246 36.9369 43.9167 37.1828C44.5471 37.9823 45.1467 38.8048 45.777 39.6043C46.2459 40.2038 46.7379 40.7881 47.2222 41.38C47.2606 41.4261 47.3221 41.4799 47.3759 41.4799C47.9447 41.4722 48.5136 41.4491 49.0978 41.3723C47.7295 39.5428 46.0307 38.0284 44.8853 36.0452C44.9775 36.099 45.0852 36.1451 45.1697 36.2143C46.3228 37.1675 47.4374 38.1668 48.406 39.3122C48.8749 39.8656 49.3899 40.3806 49.8588 40.9341C50.1125 41.2339 50.1125 41.6029 49.9587 41.9488C49.8127 42.2717 49.5129 42.3255 49.19 42.3408C46.9531 42.4254 44.7239 42.5484 42.4869 42.6099C40.8727 42.656 39.2661 42.6253 37.6518 42.6329C31.9865 42.656 26.3211 42.6868 20.6481 42.7098C19.7948 42.7098 18.9339 42.633 18.0806 42.6483C16.3818 42.6868 14.683 42.7867 12.9841 42.8174C11.9618 42.8405 10.9394 42.779 9.91701 42.7559C9.45578 42.7483 8.99456 42.7252 8.54103 42.7175C8.29504 42.7098 8.09518 42.6637 7.97987 42.41C7.86457 42.164 7.99525 42.0257 8.11055 41.8258C8.47953 41.2108 8.76395 40.5498 9.15599 39.9579C10.4935 37.9439 11.8618 35.9529 13.2224 33.962C13.3992 33.7006 13.6375 33.5776 13.9604 33.5623C14.5369 33.5392 15.1057 33.47 15.6823 33.4469C15.9206 33.4393 16.1666 33.5161 16.4049 33.5546C16.3895 33.593 16.3818 33.6468 16.3818 33.7006Z" fill="#26AB7B" stroke="#26AB7B" stroke-width="0.5"/>
<path d="M14.2831 36.883C13.3222 38.5203 12.3613 40.1654 11.4004 41.8027C11.3543 41.7796 11.3005 41.7566 11.2544 41.7335C11.3005 41.5952 11.3159 41.426 11.4081 41.3184C12.2229 40.3114 12.7918 39.1661 13.3452 38.013C13.499 37.6901 13.6604 37.375 13.8372 37.0675C13.9064 36.9445 14.0371 36.8599 14.137 36.76C14.1908 36.8061 14.2369 36.8446 14.2831 36.883Z" fill="#26AB7B" stroke="#26AB7B" stroke-width="0.5"/>
<path d="M14.6292 35.7069C14.7138 35.0997 15.0213 34.5846 15.4594 34.3848C15.2519 34.9075 15.029 35.3149 14.6292 35.7069Z" fill="#26AB7B" stroke="#26AB7B" stroke-width="0.5"/>
<path d="M35.9838 37.4365C36.0068 37.0291 36.0914 36.6831 36.4757 36.4833C36.6679 36.8138 36.5142 37.0982 35.9838 37.4365Z" fill="#26AB7B" stroke="#26AB7B" stroke-width="0.5"/>
<path d="M37.9132 37.5365C37.7979 37.3443 37.6672 37.1521 37.5749 36.9523C37.5365 36.8754 37.5903 36.7524 37.6057 36.6525C37.6826 36.7063 37.8056 36.7524 37.8363 36.8293C37.9209 37.0445 37.967 37.2751 38.0285 37.498C37.99 37.5134 37.9516 37.5211 37.9132 37.5365Z" fill="#26AB7B" stroke="#26AB7B" stroke-width="0.5"/>
<path d="M39.2658 37.2981C39.2197 37.3058 39.1966 37.3135 39.1966 37.3058C39.1197 37.0983 39.0429 36.883 38.9814 36.6678C38.9814 36.6524 39.089 36.6063 39.1505 36.5756C39.1966 36.7754 39.2427 36.9753 39.2889 37.1751C39.2889 37.2136 39.2658 37.2597 39.2658 37.2981Z" fill="#26AB7B" stroke="#26AB7B" stroke-width="0.5"/>
<path d="M25.6829 18.5571C25.46 18.7724 25.2909 18.9338 25.0449 19.1721C25.0833 18.6955 25.214 18.5802 25.6829 18.5571Z" fill="#26AB7B" stroke="#26AB7B" stroke-width="0.5"/>
<path d="M40.7418 36.9753C40.6726 36.837 40.6035 36.6986 40.5496 36.5602C40.542 36.5372 40.6496 36.4757 40.7111 36.4373C40.7879 36.5833 40.8725 36.7371 40.9494 36.8831C40.8802 36.9062 40.811 36.9369 40.7418 36.9753Z" fill="#26AB7B" stroke="#26AB7B" stroke-width="0.5"/>
<path d="M25.3985 31.8942C24.7144 30.8948 24.3377 29.6726 23.1308 29.073C23.4229 28.95 24.0763 29.0807 24.3454 29.3497C25.0526 30.0339 25.5522 30.8257 25.3985 31.8942Z" fill="#26AB7B" stroke="#26AB7B" stroke-width="0.5"/>
</svg>
