<svg width="58" height="58" viewBox="0 0 58 58" fill="none" xmlns="http://www.w3.org/2000/svg">
<path d="M57 28.7886C56.8924 44.3241 44.5086 56.9231 28.8809 57.0231C13.4376 57.123 1.0077 44.6623 1.00001 29.2191C0.98464 13.8143 13.7297 1 29.0577 1C44.5855 0.992317 56.9846 13.3223 57 28.7886ZM29.2498 2.44517C14.2217 2.47592 2.36062 14.7598 2.43749 29.4804C2.51436 43.8398 14.2986 55.5933 28.7194 55.5702C43.5477 55.5471 55.5548 43.5246 55.5471 28.7041C55.5471 14.191 43.7553 2.42211 29.2498 2.44517Z" fill="#26AB7B" stroke="#26AB7B" stroke-width="0.5"/>
<path d="M31.7326 21.9471C31.6941 21.5013 31.8402 21.1861 32.1016 20.9171C32.9394 20.0638 33.7773 19.2029 34.6229 18.3496C34.9765 17.9883 35.3147 17.5963 35.7221 17.3042C36.2295 16.9429 36.6753 17.1735 36.8445 17.7731C36.9905 18.2881 36.8752 18.6802 36.5216 19.0722C35.5915 20.11 34.6844 21.1708 33.762 22.2085C33.5467 22.4545 33.3007 22.6697 33.0086 22.9542C34.2386 23.9765 35.5069 25.0296 36.7983 26.0981C37.2826 25.045 38.2358 24.4147 38.9046 23.5537C39.1813 23.1925 39.5042 22.8542 39.827 22.5237C40.0423 22.3084 40.2729 22.1009 40.5342 21.9471C41.3491 21.4705 41.8026 21.8395 42.087 22.5544C42.1485 22.7082 42.1024 22.9465 42.0178 23.1002C41.8641 23.3769 41.6565 23.6229 41.4567 23.8689C40.9801 24.4531 40.5035 25.0296 40.0192 25.6062C39.5964 26.0981 39.1659 26.5824 38.7355 27.0744C38.6278 27.1974 38.5202 27.3204 38.3819 27.4818C38.8585 27.92 39.312 28.3428 39.7732 28.7656C40.0499 29.0192 40.319 29.2652 40.6034 29.5035C41.0339 29.8571 41.2952 30.2799 41.0877 30.841C40.8648 31.4406 40.3728 31.6943 39.7655 31.7174C39.0353 31.7404 38.3434 31.8865 37.6977 32.2093C36.7215 32.7013 36.0219 33.4854 35.3839 34.354C34.4 35.6916 33.3007 36.9369 31.8018 37.6979C29.8877 38.6741 27.9429 38.4666 26.0826 37.5211C23.7534 36.345 22.3928 34.4155 21.9854 31.8404C21.7779 30.5105 21.9931 29.2345 22.831 28.1275C23.7842 26.8669 24.7528 25.6139 25.7213 24.3532C26.1825 23.7536 26.6976 23.1925 26.8821 22.4391C26.9897 21.9933 27.0204 21.5321 27.0742 21.0785C27.1357 20.5174 27.4202 20.11 27.8891 19.8025C28.2734 19.5488 28.5425 19.518 28.9114 19.8025C29.5572 20.2868 30.1721 20.8018 30.8101 21.2937C31.1099 21.509 31.4251 21.7242 31.7326 21.9471ZM28.5271 22.4314C28.2965 22.7773 28.1504 23.0618 27.9429 23.3001C26.9359 24.4762 25.8828 25.6062 24.9142 26.813C24.3146 27.5587 23.7304 28.3428 23.3307 29.2037C22.4236 31.1332 23.1385 32.8397 24.3146 34.4078C24.6375 34.846 25.0218 35.2995 25.483 35.5532C26.467 36.0913 27.4893 36.5986 28.6193 36.7524C29.5264 36.883 30.4412 36.8523 31.256 36.3373C32.4398 35.5916 33.516 34.7076 34.4461 33.6622C35.3916 32.6014 36.291 31.5021 37.5747 30.8103C37.6439 30.7719 37.7131 30.7411 37.79 30.7027C37.2057 30.0185 36.4447 29.5957 36.168 28.7732C36.3294 28.7886 36.4447 28.8501 36.5523 28.927C37.2903 29.4958 38.0206 30.0723 38.7585 30.6489C39.0199 30.8487 39.2966 30.941 39.6195 30.8026C39.9885 30.6412 40.0115 30.3952 39.6963 30.1492C39.4196 29.9417 39.1429 29.7341 38.8892 29.5035C37.9744 28.6656 37.0828 27.797 36.1449 26.9898C34.1694 25.2756 32.1631 23.5845 30.1644 21.8933C29.5802 21.4014 28.9883 20.9248 28.3964 20.4482C28.0966 20.7941 28.0889 20.9094 28.3042 21.1323C29.4572 22.3315 30.6026 23.5307 31.7556 24.7299C31.7941 24.7683 31.8095 24.8221 31.8325 24.8682C31.8095 24.899 31.7787 24.922 31.7556 24.9528C30.6795 24.0995 29.611 23.2693 28.5271 22.4314Z" fill="#26AB7B" stroke="#26AB7B" stroke-width="0.5"/>
<path d="M24.7379 45.5387C25.1991 45.5387 25.6603 45.5617 26.1139 45.531C26.3522 45.5156 26.6058 45.4618 26.8134 45.3465C27.7743 44.8161 28.7275 44.2703 29.673 43.7168C30.58 43.1941 31.5486 42.902 32.571 43.1557C34.1161 43.54 35.5843 44.1319 36.8757 45.0851C37.506 45.554 37.5829 46.1536 37.1294 46.661C36.8834 46.9377 36.5836 47.0684 36.2377 46.9146C35.9148 46.7686 35.5997 46.5918 35.3229 46.3765C34.0469 45.3311 32.6401 44.9775 31.0797 45.5848C30.0189 45.9922 28.9965 46.4919 27.9511 46.9377C27.044 47.322 26.1369 47.7064 25.1376 47.7756C23.8001 47.8755 22.5932 47.5604 21.5862 46.6533C21.0251 46.1536 20.4408 45.6616 19.9642 45.0851C18.8343 43.7245 18.7881 42.41 19.6414 40.8573C20.2717 39.7119 21.0789 38.7203 21.9706 37.7748C22.2704 37.4596 22.5471 37.1214 22.8469 36.8139C23.262 36.3834 23.4849 36.3296 23.8001 36.5448C24.2997 36.8831 24.4842 37.3674 24.2152 37.8286C23.9692 38.2437 23.6386 38.605 23.3465 38.9893C22.7008 39.8426 22.0551 40.6958 21.4094 41.5568C21.0481 42.0334 21.0866 42.5253 21.2095 43.1096C21.5708 44.8161 23.3004 45.5002 24.7379 45.5387ZM23.0775 46.3227C23.5771 46.6533 24.0614 46.7225 24.5611 46.7686C25.7295 46.8839 26.775 46.4534 27.8204 46.046C28.7582 45.677 29.6653 45.2081 30.6185 44.9006C32.5095 44.2857 34.2391 44.6393 35.7611 45.9614C35.9071 46.0921 36.1147 46.1613 36.2915 46.2536C36.3299 46.2074 36.3684 46.169 36.4068 46.1229C36.3145 45.9922 36.2377 45.8461 36.1224 45.7462C35.1 44.8161 33.8009 44.4317 32.5248 44.0243C32.202 43.9244 31.8176 44.0089 31.464 44.0474C30.4263 44.1704 29.6115 44.8007 28.7198 45.2773C27.9049 45.7155 27.1824 46.3535 26.1984 46.4227C25.2452 46.4919 24.2844 46.6225 23.3465 46.3227C23.285 46.3074 23.2235 46.3227 23.0775 46.3227ZM23.5541 37.2828C23.508 37.252 23.4618 37.2136 23.4234 37.1829C22.5701 38.3974 21.4017 39.3583 20.7637 40.7343C21.6938 39.5889 22.624 38.4358 23.5541 37.2828Z" fill="#26AB7B" stroke="#26AB7B" stroke-width="0.5"/>
<path d="M22.6697 17.5963C22.5314 17.604 22.4699 17.5963 22.4084 17.6117C21.4091 17.8807 20.4174 18.1728 19.4104 18.4111C19.2183 18.4572 18.9185 18.4034 18.8032 18.2727C18.6878 18.1421 18.7032 17.85 18.7493 17.6501C18.7878 17.4733 18.9338 17.3196 19.0568 17.1735C20.3867 15.5515 21.7089 13.9296 23.0541 12.323C23.5768 11.7003 24.161 11.1161 24.7145 10.5165C24.7913 10.432 24.8913 10.3628 25.0373 10.3397C24.4531 11.2237 23.8689 12.1077 23.2847 12.9841C23.7613 13.3761 24.2302 13.6913 24.6222 14.0833C25.6907 15.1364 26.3518 16.4048 26.3672 17.9268C26.3826 20.1791 25.3141 21.8088 23.3692 22.8696C22.2469 23.4845 21.0401 23.4307 19.8025 23.2155C20.0485 22.7389 20.2868 22.4468 20.894 22.4775C22.5006 22.5621 23.6921 21.7165 24.6991 20.5789C25.9213 19.1952 25.8752 17.6655 25.2141 16.0281C24.7683 14.9212 23.9073 14.3293 22.9541 13.7912C22.8696 13.7451 22.6544 13.7835 22.6005 13.8527C21.8472 14.852 21.1093 15.8667 20.3713 16.8814C20.3559 16.9045 20.3559 16.9506 20.3329 17.0736C20.9786 16.8891 21.5782 16.7276 22.1701 16.5508C22.5621 16.4355 22.9465 16.3049 23.3462 16.1973C23.6075 16.1281 23.915 16.1511 24.0073 16.4202C24.0688 16.6047 24.015 16.9121 23.892 17.0736C22.7082 18.6187 21.509 20.1484 20.3021 21.6704C19.1029 23.1848 17.8961 24.6837 16.6892 26.1827C16.474 26.4517 16.2357 26.69 15.959 26.913C16.7046 25.4909 17.5963 24.161 18.611 22.8465C16.9583 21.7857 16.0435 20.3021 15.9666 18.365C15.9205 17.112 16.3279 15.9666 17.0428 14.9443C18.0959 13.453 20.8018 12.2922 22.1163 12.8226C21.8626 12.9456 21.7012 13.0917 21.5167 13.1147C20.1868 13.2839 18.9953 13.7835 18.0037 14.6598C17.6347 14.9904 17.3426 15.4439 17.1274 15.8974C16.1819 17.8346 16.4279 19.7948 17.75 21.263C17.8577 21.386 17.9806 21.5013 18.1036 21.6166C18.8877 22.3084 19.0261 22.2931 19.6564 21.4782C20.5327 20.3406 21.4167 19.2183 22.2931 18.0806C22.4161 17.9499 22.5237 17.7961 22.6697 17.5963Z" fill="#26AB7B" stroke="#26AB7B" stroke-width="0.5"/>
</svg>
