<svg width="58" height="58" viewBox="0 0 58 58" fill="none" xmlns="http://www.w3.org/2000/svg">
<path d="M57 28.827C56.877 44.3625 44.4778 56.9539 28.8578 57.0307C13.4069 57.1076 1 44.6469 1 29.196C1 13.7912 13.7528 0.992316 29.0884 1C44.6162 1.01538 56.9923 13.3531 57 28.827ZM55.5548 28.7963C55.5164 14.2294 43.9705 2.67578 29.6649 2.46823C14.4446 2.2453 2.46823 14.5753 2.44517 29.2345C2.4221 43.7399 14.1141 55.5395 28.6118 55.5933C43.4555 55.6394 55.5087 43.6476 55.5548 28.7963Z" fill="#26AB7B" stroke="#26AB7B" stroke-width="0.5"/>
<path d="M23.7152 30.4951C23.7383 30.2414 23.7383 29.9801 23.7844 29.7341C23.9535 28.8424 24.4839 28.4042 25.391 28.4196C25.9906 28.4273 26.5902 28.5042 27.1897 28.5503C27.3204 28.558 27.4434 28.5657 27.5741 28.5811C28.0046 28.6349 28.3197 28.5734 28.435 28.0506C28.5427 27.574 28.927 27.3665 29.419 27.3434C29.8495 27.3204 30.2799 27.2896 30.6797 27.2589C30.7873 26.6747 30.8488 26.1135 31.0102 25.5831C31.0871 25.3141 31.3023 24.9758 31.5406 24.8836C32.5937 24.4762 33.6853 24.2686 34.7615 24.8375C35.5763 25.2603 35.8454 25.8214 35.7531 26.8053C35.7377 26.9283 35.7223 27.059 35.6993 27.2435C35.9299 27.2435 36.1374 27.2358 36.3527 27.2435C37.2674 27.2666 37.4827 27.5433 37.3059 28.4965C37.4366 28.5119 37.5672 28.5426 37.6979 28.5503C38.8202 28.6118 39.9502 28.6656 41.0725 28.7194C41.8259 28.7579 42.0718 28.9423 42.2025 29.7956C42.2794 30.2799 42.1948 30.7872 42.1871 31.2869C42.1795 31.6021 42.1871 31.9249 42.1871 32.1555C42.7329 32.4015 43.2633 32.6244 43.7707 32.8781C45.677 33.839 45.9307 36.2911 44.8853 37.8055C43.5939 39.6734 40.9957 39.8349 39.5505 38.0822C39.2738 37.7517 39.0355 37.6748 38.628 37.6902C37.352 37.7286 36.0683 37.6825 34.7922 37.6979C33.7084 37.7132 32.6168 37.7824 31.5329 37.7901C29.3114 37.7978 27.0821 37.7747 24.8606 37.7747C24.1457 37.7747 23.4308 37.7901 22.7159 37.8055C22.6006 37.8055 22.4776 37.8747 22.3777 37.9438C22.1778 38.0745 21.9856 38.236 21.7858 38.3743C20.0101 39.5966 18.219 39.2891 16.5125 38.3051C15.344 37.6287 13.9142 35.238 14.56 33.201C14.7598 32.5552 15.0519 31.9403 15.344 31.333C15.7207 30.5489 16.3818 30.0723 17.1274 29.6572C17.8346 29.2575 18.5803 29.2344 19.349 29.2114C19.4412 29.2114 19.5258 29.2191 19.618 29.2114C19.6411 29.2114 19.6565 29.1883 19.6949 29.1653C19.6795 29.1191 19.6718 29.073 19.6565 29.0269C18.7878 27.1051 17.9346 25.1757 17.0352 23.277C16.2972 21.7165 15.4978 20.1868 14.7291 18.6417C14.5369 18.2574 14.437 17.727 14.1295 17.5117C13.822 17.2965 13.2916 17.3887 12.8611 17.3657C11.7158 17.2888 10.5627 17.2273 9.41734 17.1581C9.14061 17.1428 8.89463 17.0889 8.86388 16.7584C8.83313 16.4279 8.9715 16.2357 9.30973 16.0973C10.0016 15.8206 10.7011 15.8667 11.4237 15.9205C12.2231 15.982 13.0302 15.9897 13.8374 16.0589C14.0834 16.0819 14.3755 16.1819 14.5369 16.3587C14.8905 16.7353 15.2134 17.1581 15.4901 17.604C17.3042 20.5327 18.9185 23.5691 20.502 26.6209C21.0862 27.7585 21.7704 28.8424 22.4161 29.9417C22.7851 30.6104 22.9235 30.6642 23.7152 30.4951ZM41.1648 32.6398C41.0725 31.7712 40.9803 30.9333 40.9034 30.0954C40.8804 29.8802 40.8188 29.7879 40.5805 29.7879C38.4974 29.7725 36.4142 29.7264 34.331 29.7187C32.8244 29.7187 31.3177 29.7572 29.811 29.7879C28.804 29.811 27.7893 29.8494 26.7823 29.8648C26.4364 29.8725 26.0905 29.8187 25.7523 29.8187C25.6523 29.8187 25.4986 29.8955 25.4602 29.9801C25.3372 30.2491 25.2603 30.5412 25.1681 30.8333C25.7292 31.0409 26.3211 31.1946 26.8515 31.4637C28.6426 32.3708 30.4491 33.2394 32.3478 33.8928C32.6706 34.0081 33.0165 34.108 33.3471 34.1157C35.0228 34.1311 36.6986 34.1157 38.3744 34.1003C38.6665 34.1003 38.9586 34.0542 39.2507 34.0004C39.3814 33.9773 39.5428 33.9235 39.612 33.8236C39.9963 33.2932 40.5191 32.9165 41.1648 32.6398ZM23.5077 36.3757C28.6734 36.4449 33.7391 36.7062 38.8125 36.5064C38.9048 35.9683 38.997 35.4071 39.0893 34.8229C38.09 34.8229 37.0983 34.8075 36.1067 34.8306C35.1612 34.846 34.2234 34.9228 33.2779 34.9382C32.9781 34.9459 32.6552 34.8844 32.3862 34.7691C31.4561 34.3848 30.5336 33.9773 29.6189 33.5546C27.7893 32.7244 25.906 32.0402 23.992 31.4406C23.8075 31.3868 23.6153 31.3561 23.3539 31.2946C24.1226 33.0165 24.3686 34.6769 23.5077 36.3757ZM19.0108 29.8263C18.3958 29.8648 17.3734 29.9493 16.697 30.8103C15.8591 31.8711 15.3902 33.101 15.6131 34.4539C15.8437 35.853 16.5509 36.883 18.0652 37.2751C19.3105 37.5979 20.3714 37.2443 21.4014 36.6601C23.1233 35.6839 23.7152 33.2317 22.616 31.6021C21.8473 30.4797 20.8172 29.7802 19.0108 29.8263ZM40.0501 35.7684C40.0578 36.8369 40.8342 37.767 41.8412 37.8362C42.5484 37.8824 43.2249 37.7056 43.7553 37.2059C43.9705 37.006 44.2011 36.737 44.2703 36.4603C44.4164 35.9222 44.5163 35.3533 44.5163 34.7999C44.5163 34.2771 44.3395 33.7775 43.8475 33.4469C43.0173 32.8935 42.1103 32.8781 41.2954 33.4469C41.2186 33.5007 41.1494 33.5546 41.0725 33.593C40.5421 33.8544 40.2961 34.3233 40.1731 34.8614C40.104 35.1535 40.0886 35.4686 40.0501 35.7684ZM34.2541 27.1666C34.331 27.1051 34.4309 27.0129 34.5462 26.936C35.1612 26.5209 35.1305 25.806 34.5001 25.4217C33.6545 24.899 32.7705 25.0527 31.9096 25.3064C31.4176 25.4524 31.2792 25.9905 31.5329 26.4441C31.7866 26.9053 32.2171 27.0898 32.7013 27.1205C33.1164 27.1513 33.5392 27.0821 33.962 27.0667C34.0466 27.0667 34.1465 27.1282 34.2541 27.1666ZM21.509 29.5035C19.0569 26.1212 17.6809 22.1778 15.3748 18.7493C15.4132 18.8877 15.467 19.0261 15.5362 19.1568C16.1819 20.4021 16.843 21.6397 17.481 22.9003C18.0114 23.9611 18.5111 25.0373 19.0338 26.1058C19.495 27.0436 19.964 27.9815 20.4175 28.927C20.6097 29.3344 20.9095 29.5189 21.509 29.5035ZM33.1472 28.1506C33.1626 28.2198 33.1779 28.2966 33.1933 28.3658C34.3233 28.3658 35.461 28.3658 36.6064 28.3658C36.6217 28.0506 36.4834 27.9123 36.1528 27.92C35.4303 27.9353 34.7 27.9046 33.9774 27.9353C33.7007 27.9584 33.4239 28.0814 33.1472 28.1506ZM9.42504 16.6508C9.42504 16.6969 9.41734 16.743 9.41734 16.7891C9.70176 16.8122 9.98619 16.843 10.2706 16.866C10.2706 16.8353 10.2783 16.7968 10.2783 16.7661C9.99387 16.7661 9.75558 16.3894 9.42504 16.6508Z" fill="#26AB7B" stroke="#26AB7B" stroke-width="0.5"/>
<path d="M50.7429 34.454C50.4738 34.9997 50.1894 35.5378 49.928 36.0913C49.5898 36.8062 49.29 37.5365 48.9518 38.259C48.8749 38.4282 48.7135 38.5512 48.5828 38.6972C48.4521 38.5435 48.3214 38.3974 48.2061 38.2437C48.1677 38.1976 48.1523 38.1284 48.0831 38.1668C47.8295 38.0669 47.5681 37.9977 47.3375 37.8593C47.0992 37.721 46.8763 37.5365 46.6841 37.3443C46.6072 37.2674 46.6072 37.0983 46.5765 36.9753C46.7148 36.9599 46.8916 36.8908 46.9916 36.9446C47.2683 37.1137 47.522 37.3366 47.7757 37.5441C47.8602 37.6133 47.9217 37.721 48.0216 37.7978C47.6757 36.6371 47.5681 35.3841 46.6764 34.4232C47.4067 34.577 47.7756 35.1151 48.1139 35.707C48.2984 34.9075 48.1446 34.1465 48.0063 33.3163C48.5136 33.6084 48.6827 34.0542 48.7596 34.5231C48.8365 34.9844 48.8518 35.4533 48.898 36.0298C49.4053 35.2918 49.9434 34.7153 50.6737 34.3771C50.689 34.4078 50.7121 34.4309 50.7429 34.454Z" fill="#26AB7B" stroke="#26AB7B" stroke-width="0.5"/>
<path d="M10.4703 34.9998C10.3704 35.4302 10.2935 35.7608 10.2243 36.0913C10.109 36.591 10.0245 37.0906 9.87842 37.5826C9.82461 37.7594 9.66318 37.9823 9.50944 38.0208C9.22502 38.0976 9.1712 37.8363 9.10202 37.598C9.00209 37.2444 8.82529 36.9215 8.67923 36.5833C8.60236 36.3911 8.52549 36.1912 8.44862 35.9991C8.47937 35.9837 8.50244 35.9683 8.53319 35.9529C8.74074 36.2527 8.94828 36.5602 9.17889 36.8985C9.54787 36.2374 9.65549 35.4456 10.4703 34.9998Z" fill="#26AB7B" stroke="#26AB7B" stroke-width="0.5"/>
<path d="M28.827 42.2179C28.7578 41.9027 28.704 41.5799 28.6271 41.2647C28.4888 40.7266 28.3273 40.2039 27.8584 39.8503C27.7969 39.8042 27.7431 39.6504 27.7662 39.5966C27.8046 39.5121 27.9507 39.4044 28.0122 39.4198C28.2197 39.489 28.4657 39.5582 28.5887 39.7196C29.0038 40.25 29.073 40.888 29.0345 41.5337C29.0192 41.7644 28.973 41.995 28.9346 42.2333C28.9039 42.2256 28.8654 42.2256 28.827 42.2179Z" fill="#26AB7B" stroke="#26AB7B" stroke-width="0.5"/>
<path d="M50.8505 36.7985C50.6661 37.2521 50.4969 37.7133 50.2971 38.1591C50.2048 38.359 50.0434 38.5435 49.782 38.4282C49.5053 38.3052 49.5437 38.0515 49.636 37.8363C49.8589 37.3213 50.2202 36.9369 50.7045 36.6909C50.7583 36.7294 50.8044 36.7601 50.8505 36.7985Z" fill="#26AB7B" stroke="#26AB7B" stroke-width="0.5"/>
<path d="M12.3232 36.6063C12.2079 37.006 12.1079 37.4057 11.9773 37.7978C11.9388 37.9131 11.8235 38.0361 11.7159 38.0745C11.6544 38.0976 11.493 37.9592 11.4545 37.8593C11.3085 37.521 11.1855 37.1751 11.0625 36.8292C11.0394 36.7677 11.1086 36.6755 11.1317 36.5986C11.2009 36.6524 11.3162 36.6832 11.3392 36.7523C11.4392 36.9983 11.5084 37.2597 11.5929 37.5134C11.7928 37.1828 11.9926 36.8523 12.1848 36.5217C12.2309 36.5525 12.2771 36.5832 12.3232 36.6063Z" fill="#26AB7B" stroke="#26AB7B" stroke-width="0.5"/>
<path d="M8.14137 37.5134C8.10293 37.598 8.05681 37.7979 7.94919 37.9362C7.91076 37.9823 7.64172 37.9362 7.58791 37.8594C7.45723 37.6518 7.30349 37.4058 7.31886 37.1829C7.33424 36.9677 7.55716 37.0368 7.70321 37.1598C7.81083 37.2598 7.93382 37.3443 8.14137 37.5134Z" fill="#26AB7B" stroke="#26AB7B" stroke-width="0.5"/>
<path d="M29.8342 41.3646C29.9034 41.0033 29.9572 40.6343 30.0494 40.2807C30.0725 40.2038 30.2493 40.1346 30.3492 40.1346C30.4107 40.1346 30.526 40.3268 30.503 40.3806C30.3492 40.7419 30.1647 41.0801 29.9956 41.4338C29.9418 41.4107 29.888 41.3876 29.8342 41.3646Z" fill="#26AB7B" stroke="#26AB7B" stroke-width="0.5"/>
<path d="M33.9696 41.2108C34.0311 40.8726 34.0772 40.5343 34.1695 40.2038C34.1925 40.1269 34.3617 40.0962 34.4616 40.0424C34.5077 40.15 34.6153 40.2807 34.5846 40.3575C34.4462 40.665 34.2694 40.9648 34.108 41.2646C34.0619 41.2415 34.0157 41.2262 33.9696 41.2108Z" fill="#26AB7B" stroke="#26AB7B" stroke-width="0.5"/>
<path d="M46.8994 38.3435C46.7072 38.2743 46.5074 38.2052 46.2076 38.0975C46.3921 38.013 46.5073 37.9131 46.5765 37.9438C46.7303 38.0053 46.8533 38.1283 46.9916 38.2282C46.9532 38.259 46.9301 38.2974 46.8994 38.3435Z" fill="#26AB7B" stroke="#26AB7B" stroke-width="0.5"/>
<path d="M38.1131 31.1024C37.8902 31.0563 37.5135 31.1562 37.4444 30.7257C37.3982 30.472 37.6827 30.2876 38.1516 30.2337C38.6128 30.1799 38.951 30.3721 38.9587 30.6719C38.951 30.9486 38.6743 31.1024 38.1131 31.1024Z" fill="#26AB7B" stroke="#26AB7B" stroke-width="0.5"/>
<path d="M38.2974 31.3484C38.3819 31.3561 38.551 31.3176 38.6817 31.3791C38.8047 31.4329 38.9431 31.579 38.9508 31.6866C38.9585 31.7942 38.8124 32.0018 38.7202 32.0095C38.3896 32.0325 38.0514 32.0095 37.7208 31.9557C37.6209 31.9403 37.4518 31.7174 37.4826 31.6482C37.5287 31.5252 37.6824 31.4099 37.8131 31.3561C37.9284 31.31 38.0821 31.3484 38.2974 31.3484Z" fill="#26AB7B" stroke="#26AB7B" stroke-width="0.5"/>
<path d="M38.1898 33.347C37.8977 33.3547 37.6055 33.347 37.5594 32.9627C37.5287 32.6859 37.8208 32.4707 38.2051 32.4707C38.3051 32.4707 38.4434 32.4553 38.4972 32.5168C38.651 32.6629 38.7663 32.8397 38.9047 33.0011C38.7509 33.1087 38.6125 33.2317 38.4511 33.324C38.3819 33.3624 38.282 33.3393 38.1898 33.347Z" fill="#26AB7B" stroke="#26AB7B" stroke-width="0.5"/>
<path d="M18.0343 34.1465C18.311 33.5776 18.5878 33.0088 18.8722 32.4399C18.9183 32.3477 19.0336 32.2939 19.1182 32.2247C19.1797 32.3093 19.2412 32.3938 19.3411 32.5322C19.3719 32.3784 19.4333 32.2478 19.4103 32.1325C19.3488 31.825 19.5256 31.8019 19.7408 31.8327C20.1482 31.8865 20.6018 32.3246 20.5941 32.7474C20.5864 33.2086 20.5556 33.7006 20.3942 34.1311C20.0944 34.9613 19.1797 35.3303 18.3418 35.0381C17.8191 34.8537 17.4193 34.3694 17.4501 33.8313C17.4731 33.4085 17.5885 32.978 17.7038 32.5706C17.8421 32.094 18.3264 32.1939 18.6646 32.0556C18.7338 32.0248 18.8261 32.0248 18.9106 32.0171C18.5647 32.5552 18.2188 33.0703 17.919 33.6084C17.8421 33.7544 17.919 33.9927 17.9267 34.1849C17.9728 34.1695 18.0036 34.1618 18.0343 34.1465ZM18.6646 34.4539C18.6262 34.4386 18.5801 34.4155 18.5416 34.4001C18.6031 34.1695 18.657 33.9312 18.7415 33.7083C18.8338 33.47 18.949 33.2317 19.0567 33.0011C19.0336 32.9857 19.0029 32.978 18.9798 32.9627C18.7031 33.4239 18.434 33.8928 18.1112 34.4309C18.411 34.5077 18.657 34.5692 18.8953 34.623C19.0413 34.2003 19.172 33.839 19.3027 33.4777C19.295 33.47 19.2796 33.47 19.2719 33.4623C19.0567 33.8005 18.8568 34.1234 18.6646 34.4539ZM20.0099 33.2163C19.7639 33.6314 19.5179 34.0388 19.2335 34.5077C19.6332 34.4001 20.0483 33.7237 20.0099 33.2163Z" fill="#26AB7B" stroke="#26AB7B" stroke-width="0.5"/>
<path d="M41.8411 34.5692C41.7642 34.8459 41.7027 35.0842 41.6412 35.3225C41.6566 35.3302 41.6796 35.3379 41.695 35.3456C41.818 35.1381 41.941 34.9305 42.064 34.723C42.0947 34.7306 42.1255 34.7383 42.1562 34.7537C42.1639 34.8383 42.1716 34.9305 42.187 35.0919C42.2715 34.9997 42.3253 34.9459 42.3792 34.8844C42.4483 34.8075 42.5252 34.6768 42.5944 34.6768C42.702 34.6845 42.8481 34.7537 42.9019 34.8459C43.071 35.1304 43.0633 35.4302 42.8634 35.7069C42.6251 36.0221 42.1101 36.1758 41.7642 36.0297C41.4337 35.8991 41.3568 35.63 41.3798 35.3149C41.4183 34.9997 41.5105 34.723 41.8411 34.5692Z" fill="#26AB7B" stroke="#26AB7B" stroke-width="0.5"/>
</svg>
