<svg width="58" height="58" viewBox="0 0 58 58" fill="none" xmlns="http://www.w3.org/2000/svg">
<path d="M57 28.7963C56.8924 44.3318 44.5086 56.9308 28.8809 57.0307C13.4299 57.123 1.01539 44.67 1.00001 29.2191C0.98464 13.8143 13.7297 1 29.0653 1C44.5931 1 56.9846 13.33 57 28.7963ZM29.2575 2.45285C14.2217 2.47591 2.36061 14.7675 2.43748 29.4804C2.51435 43.8475 14.2832 55.5933 28.7117 55.5856C43.5554 55.5702 55.5856 43.5246 55.5472 28.6887C55.5241 14.1756 43.7476 2.42979 29.2575 2.45285Z" fill="#26AB7B" stroke="#26AB7B" stroke-width="0.5"/>
<path d="M36.8752 37.4672C37.1212 38.651 37.0905 39.7733 36.8983 40.9109C36.6907 42.1255 36.2065 43.2324 35.3993 44.1395C34.6152 45.0158 33.5929 45.5539 32.3937 45.6846C31.3867 45.7922 30.3874 45.9383 29.3804 46.0074C28.2581 46.0843 27.1358 46.1074 26.0058 46.1304C24.7681 46.1535 23.5305 46.1766 22.2852 46.1535C21.8471 46.1458 21.4012 46.0536 20.9708 45.9613C18.4571 45.4463 17.281 43.7013 16.7198 41.3645C16.3278 39.7502 16.1664 38.1052 16.1279 36.4602C16.0664 33.6083 16.1049 30.7564 16.1203 27.9045C16.1279 26.075 16.1664 24.2455 16.1971 22.416C16.2048 21.8394 16.2279 21.2629 16.2509 20.6941C16.2586 20.4788 16.2125 20.3635 15.9742 20.279C15.2516 20.0176 15.1132 19.7409 15.1671 18.9645C15.2439 17.8499 15.2977 16.7276 15.3516 15.6053C15.3669 15.3362 15.5668 15.3285 15.759 15.3055C16.766 15.1978 17.7653 15.0825 18.7723 14.998C19.4564 14.9442 20.1482 14.9365 20.8401 14.9211C21.801 14.9057 22.7618 14.9057 23.715 14.898C24.5376 14.8827 24.9373 15.1671 25.1756 15.9665C25.5215 17.1427 25.4907 18.3418 25.3524 19.541C25.2755 20.2175 24.8604 20.5019 24.1763 20.4788C24.0763 20.4788 23.9764 20.4788 23.8303 20.4788C23.8303 21.4781 23.7996 22.4621 23.838 23.446C23.9456 26.3748 24.0379 29.2958 23.9533 32.2323C23.9149 33.5007 24.1455 34.7767 24.2531 36.0527C24.2916 36.537 24.3377 37.0213 24.3915 37.5056C24.4607 38.159 24.6605 38.3589 25.2832 38.5357C26.0596 38.7432 26.8052 38.6279 27.5509 38.3973C28.0582 38.2359 28.2119 37.6286 27.8968 37.2135C27.7815 37.0597 27.6892 36.8445 27.6892 36.6523C27.6969 35.8606 27.72 35.0688 27.7815 34.2847C27.8276 33.6851 28.3042 33.5237 28.7808 33.4315C28.7808 32.732 28.7731 32.0478 28.7808 31.3637C28.7962 29.6264 28.8038 27.8891 28.8577 26.1519C28.873 25.6599 29.0191 25.1679 29.1574 24.6913C29.2343 24.4069 29.4111 24.1532 29.5418 23.8919C29.5956 23.9072 29.6494 23.9149 29.7032 23.9303C29.6571 27.0589 29.611 30.1875 29.5649 33.3469C30.1952 33.3469 30.7948 33.3546 31.3944 33.3469C32.4782 33.3315 33.5698 33.3008 34.6537 33.2854C35.4454 33.2777 35.4608 33.2854 35.5684 32.5398C35.6222 32.1785 35.5684 31.8018 35.5684 31.4328C35.5684 30.372 35.5377 29.3112 35.5838 28.2581C35.6222 27.4587 36.0296 27.082 36.8291 26.9436C37.7515 26.7822 38.6817 26.6131 39.6041 26.444C39.5657 24.5222 39.5196 22.6543 39.4811 20.8171C37.4056 20.9016 35.3301 20.9785 33.2546 21.0861C32.6935 21.1169 32.14 21.2245 31.5789 21.286C31.0561 21.3475 30.6257 21.555 30.3105 21.9855C30.2644 22.047 30.1875 22.0931 30.0876 22.17C29.9876 21.6703 30.249 21.4013 30.5719 21.186C31.3098 20.6941 32.14 20.4404 33.001 20.3097C34.8382 20.0253 36.683 19.91 38.5433 20.0791C38.6432 20.0868 38.7432 20.0791 38.8508 20.0791C39.0814 20.0791 39.3043 20.0791 39.5042 20.0791C39.5503 20.0099 39.5657 19.9869 39.5734 19.9638C39.6502 19.1105 39.6425 19.0567 40.4881 18.9799C41.4413 18.8876 42.4022 18.8722 43.3554 18.8799C43.955 18.8876 44.078 19.1182 44.0857 19.7101C44.1087 21.9471 44.1471 24.184 44.1856 26.4209C44.1933 26.7361 44.224 27.0589 44.2701 27.3741C44.3393 27.8814 44.1164 28.1505 43.586 28.1966C42.5329 28.2888 41.472 28.2812 40.4112 28.2658C39.9961 28.2581 39.7348 27.9967 39.7041 27.4971C38.7739 27.5663 37.8592 27.6124 36.9521 27.7123C36.6062 27.7508 36.3986 28.0198 36.414 28.3965C36.4447 29.8032 36.4755 31.2099 36.5216 32.6166C36.537 33.147 36.5601 33.1547 37.0828 33.2162C37.6824 33.2854 37.8976 33.4545 37.9591 34.0695C38.0436 34.9381 38.0898 35.8068 38.1282 36.6754C38.1436 37.0597 37.8822 37.3211 37.4748 37.3903C37.3057 37.4057 37.1135 37.4287 36.8752 37.4672ZM17.0273 20.2943C17.0273 21.8548 17.0273 23.3307 17.0273 24.8143C17.0273 26.8514 17.0658 28.8807 17.035 30.9178C17.0043 33.5545 16.9351 36.1834 17.2349 38.8124C17.3732 40.0346 17.5424 41.2492 18.0036 42.3945C18.534 43.7244 19.4334 44.6699 20.8939 44.9159C22.0393 45.1157 23.1923 45.3156 24.3454 45.3771C25.5907 45.4386 26.8437 45.3233 28.0966 45.3079C29.5418 45.2926 30.9793 45.1465 32.3783 44.7698C33.3161 44.5238 34.154 44.1011 34.6921 43.2478C35.284 42.3177 35.7145 41.326 35.8221 40.2191C35.9067 39.3582 35.9297 38.4972 35.9835 37.6055C35.799 37.6209 35.676 37.6363 35.5454 37.644C33.9772 37.7439 32.4091 37.8515 30.8409 37.9284C30.4642 37.9438 30.0799 37.8669 29.6955 37.8285C29.3804 37.79 29.1574 37.8131 29.0421 38.2051C28.8576 38.797 28.4272 39.2198 27.843 39.412C27.2818 39.6042 26.6976 39.7656 26.1134 39.8424C24.5529 40.0423 23.4537 39.1429 23.2923 37.5748C23.2308 36.9368 23.1923 36.2987 23.1539 35.6607C23.077 34.131 22.9848 32.6013 22.9386 31.0639C22.8925 29.6879 22.9002 28.3042 22.8695 26.9206C22.831 24.9296 22.6542 22.931 22.9309 20.9477C22.954 20.794 22.9771 20.6326 22.9924 20.4788C21.0323 20.0253 19.0951 20.3405 17.0273 20.2943ZM31.5174 36.9752C33.1701 36.8445 34.9535 36.6985 36.7369 36.5601C36.9675 36.5447 37.0905 36.4832 37.0905 36.2295C37.0828 35.5915 37.0981 34.9535 37.0751 34.3155C37.0751 34.2232 36.8983 34.0926 36.783 34.0695C36.4832 34.008 36.1757 33.9849 35.8682 33.9696C35.1149 33.9234 34.3692 33.8466 33.6159 33.8696C32.4091 33.9004 31.1945 34.0157 29.9876 34.0772C29.6187 34.0926 29.2497 34.0234 28.8807 34.0541C28.75 34.0618 28.5271 34.2232 28.5194 34.3309C28.4579 35.0534 28.4426 35.7837 28.4195 36.5063C28.4118 36.7446 28.5425 36.8291 28.7808 36.8445C29.6494 36.8753 30.5181 36.9214 31.5174 36.9752ZM16.3047 19.1567C17.3809 19.0721 18.4571 18.9491 19.541 18.9107C20.5172 18.8722 21.5012 18.9184 22.4851 18.926C22.9694 18.9337 23.4537 18.9568 23.938 18.9491C24.0148 18.9491 24.1532 18.8261 24.1609 18.7569C24.1993 17.9575 24.2224 17.1503 24.2301 16.3509C24.2301 16.0434 24.0379 15.9589 23.7304 15.9973C23.3153 16.0511 22.8925 16.1049 22.4697 16.0895C20.9477 16.0357 19.4334 15.9435 17.9113 15.882C17.2503 15.8589 16.5892 15.8743 15.9511 15.8743C16.0588 16.9505 16.1817 18.0344 16.3047 19.1567ZM43.2324 27.1742C43.2324 24.7528 43.2324 22.3775 43.2324 19.9177C42.3023 19.9177 41.4259 19.9177 40.4497 19.9177C40.5035 22.4698 40.5573 24.9219 40.6111 27.3972C41.5182 27.3203 42.333 27.2511 43.2324 27.1742Z" fill="#26AB7B" stroke="#26AB7B" stroke-width="0.5"/>
<path d="M44.8774 29.4881C44.962 28.3889 45.1695 27.428 45.7922 26.5978C45.9075 26.444 45.9613 26.2519 46.0843 26.1058C46.3303 25.806 46.6993 25.8444 46.7531 26.2057C46.8914 27.1051 47.4987 27.7585 47.8523 28.5426C48.1829 29.2652 48.1368 30.0185 47.737 30.718C47.4603 31.2023 47.0452 31.4714 46.461 31.3714C45.7538 31.2561 45.208 30.9179 44.9927 30.203C44.9082 29.9416 44.9005 29.6649 44.8774 29.4881ZM46.8069 30.6258C47.6294 29.9801 47.368 28.4273 46.3072 27.551C46.5148 28.5964 47.3373 29.4804 46.8069 30.6258Z" fill="#26AB7B" stroke="#26AB7B" stroke-width="0.5"/>
<path d="M45.1006 32.4631C44.9545 33.1395 44.7931 33.6546 44.3703 34.0466C44.0321 34.3618 43.5632 34.3618 43.1788 34.0543C42.5408 33.5546 42.2103 32.9089 42.4716 32.1018C42.7253 31.3254 43.0328 30.5721 43.3326 29.8187C43.371 29.7188 43.494 29.6496 43.5786 29.5651C43.6554 29.6496 43.7477 29.7265 43.8015 29.8264C44.0551 30.2646 44.3088 30.7027 44.5317 31.164C44.7624 31.6175 44.9391 32.0941 45.1006 32.4631Z" fill="#26AB7B" stroke="#26AB7B" stroke-width="0.5"/>
<path d="M32.7089 22.7159C32.5398 22.8542 32.3937 23.0541 32.2015 23.1079C31.8172 23.2155 31.6327 23.4692 31.502 23.7997C31.3713 24.1072 31.2637 24.4224 31.1176 24.7145C31.0715 24.8067 30.9332 24.8605 30.8332 24.9297C30.7564 24.8221 30.6334 24.7222 30.6257 24.6069C30.5565 23.9074 30.8486 23.2847 31.3482 22.8773C31.6557 22.6236 32.2015 22.6467 32.6397 22.5468C32.655 22.6006 32.6858 22.6621 32.7089 22.7159Z" fill="#26AB7B" stroke="#26AB7B" stroke-width="0.5"/>
<path d="M34.1851 21.9087C34.3004 22.0009 34.3696 22.0624 34.4388 22.1162C34.3465 22.2008 34.262 22.3084 34.162 22.3622C34.1313 22.3776 33.9622 22.2315 33.9699 22.2085C34.0006 22.1162 34.0852 22.0317 34.1851 21.9087Z" fill="#26AB7B" stroke="#26AB7B" stroke-width="0.5"/>
<path d="M19.8025 42.3024C19.4104 42.3716 19.1721 42.2255 19.0799 41.8258C18.9723 41.3415 18.8262 40.8726 18.7186 40.3883C18.6802 40.2192 18.7109 40.027 18.7109 39.8502C18.7647 39.8425 18.8185 39.8425 18.8724 39.8348C18.9646 40.2499 19.0645 40.665 19.1568 41.0878C19.2183 41.3569 19.2336 41.649 19.3489 41.895C19.4258 42.0564 19.6257 42.1486 19.8025 42.3024Z" fill="#26AB7B" stroke="#26AB7B" stroke-width="0.5"/>
</svg>
