<svg width="18" height="18" viewBox="0 0 18 18" fill="none" xmlns="http://www.w3.org/2000/svg">
<path d="M9 17C13.4183 17 17 13.4183 17 9C17 4.58172 13.4183 1 9 1C4.58172 1 1 4.58172 1 9C1 13.4183 4.58172 17 9 17Z" stroke="#26AB7B" stroke-width="2" stroke-linecap="round" stroke-linejoin="round"/>
<path d="M6.67188 6.60004C6.85996 6.06537 7.2312 5.61453 7.71984 5.32735C8.20848 5.04017 8.78299 4.93519 9.34162 5.03101C9.90024 5.12683 10.4069 5.41726 10.7719 5.85086C11.1369 6.28447 11.3367 6.83326 11.3359 7.40004C11.3359 9.00004 8.93587 9.80004 8.93587 9.80004" stroke="#26AB7B" stroke-width="2" stroke-linecap="round" stroke-linejoin="round"/>
<path d="M9 13H9.008" stroke="#26AB7B" stroke-width="2" stroke-linecap="round" stroke-linejoin="round"/>
</svg>
