<svg width="18" height="18" viewBox="0 0 18 18" fill="none" xmlns="http://www.w3.org/2000/svg">
<path d="M14.6569 3.34311L11.5138 6.48622L14.6569 3.34311ZM11.5138 11.5138L14.6569 14.6569L11.5138 11.5138ZM6.48622 6.48622L3.34311 3.34311L6.48622 6.48622ZM6.48622 11.5138L3.34311 14.6569L6.48622 11.5138ZM17 9C17 10.0506 16.7931 11.0909 16.391 12.0615C15.989 13.0321 15.3997 13.914 14.6569 14.6569C13.914 15.3997 13.0321 15.989 12.0615 16.391C11.0909 16.7931 10.0506 17 9 17C7.94943 17 6.90914 16.7931 5.93853 16.391C4.96793 15.989 4.08601 15.3997 3.34315 14.6569C2.60028 13.914 2.011 13.0321 1.60896 12.0615C1.20693 11.0909 1 10.0506 1 9C1 6.87827 1.84285 4.84344 3.34315 3.34315C4.84344 1.84285 6.87827 1 9 1C11.1217 1 13.1566 1.84285 14.6569 3.34315C16.1571 4.84344 17 6.87827 17 9ZM12.5556 9C12.5556 9.94299 12.181 10.8474 11.5142 11.5142C10.8474 12.181 9.94299 12.5556 9 12.5556C8.05701 12.5556 7.15264 12.181 6.48584 11.5142C5.81905 10.8474 5.44444 9.94299 5.44444 9C5.44444 8.05701 5.81905 7.15264 6.48584 6.48584C7.15264 5.81905 8.05701 5.44444 9 5.44444C9.94299 5.44444 10.8474 5.81905 11.5142 6.48584C12.181 7.15264 12.5556 8.05701 12.5556 9V9Z" stroke="#26AB7B" stroke-width="2" stroke-linecap="round" stroke-linejoin="round"/>
</svg>
