<svg width="17" height="18" viewBox="0 0 17 18" fill="none" xmlns="http://www.w3.org/2000/svg">
<path d="M13.8 8.20001H2.6C1.71634 8.20001 1 8.91636 1 9.80001V15.4C1 16.2837 1.71634 17 2.6 17H13.8C14.6837 17 15.4 16.2837 15.4 15.4V9.80001C15.4 8.91636 14.6837 8.20001 13.8 8.20001Z" stroke="#26AB7B" stroke-width="2" stroke-linecap="round" stroke-linejoin="round"/>
<path d="M4.2 8.2V5C4.2 3.93913 4.62143 2.92172 5.37157 2.17157C6.12172 1.42143 7.13913 1 8.2 1C9.26087 1 10.2783 1.42143 11.0284 2.17157C11.7786 2.92172 12.2 3.93913 12.2 5V8.2" stroke="#26AB7B" stroke-width="2" stroke-linecap="round" stroke-linejoin="round"/>
</svg>
