<svg width="18" height="20" viewBox="0 0 18 20" fill="none" xmlns="http://www.w3.org/2000/svg">
<path d="M10.8 1H3.6C3.12261 1 2.66477 1.18964 2.32721 1.52721C1.98964 1.86477 1.8 2.32261 1.8 2.8V17.2C1.8 17.6774 1.98964 18.1352 2.32721 18.4728C2.66477 18.8104 3.12261 19 3.6 19H14.4C14.8774 19 15.3352 18.8104 15.6728 18.4728C16.0104 18.1352 16.2 17.6774 16.2 17.2V6.4L10.8 1Z" stroke="#26AB7B" stroke-width="2" stroke-linecap="round" stroke-linejoin="round"/>
<path d="M10.8 1V6.4H16.2" stroke="#26AB7B" stroke-width="2" stroke-linecap="round" stroke-linejoin="round"/>
<path d="M12.6 10.9H5.4" stroke="#26AB7B" stroke-width="2" stroke-linecap="round" stroke-linejoin="round"/>
<path d="M12.6 14.5H5.4" stroke="#26AB7B" stroke-width="2" stroke-linecap="round" stroke-linejoin="round"/>
<path d="M7.2 7.30005H6.3H5.4" stroke="#26AB7B" stroke-width="2" stroke-linecap="round" stroke-linejoin="round"/>
</svg>
