<svg width="19" height="19" viewBox="0 0 19 19" fill="none" xmlns="http://www.w3.org/2000/svg">
<g opacity="0.3">
<path d="M9.21149 18.4227C4.1176 18.4227 0.000119802 14.2951 0.000119358 9.21137C0.000118913 4.12577 4.1176 -6.56744e-07 9.21148 -1.10207e-06C14.2962 -1.54658e-06 18.4229 4.12577 18.4229 9.21136C18.4229 14.2951 14.2962 18.4227 9.21149 18.4227ZM9.21148 6.51151C9.65363 6.51151 10.0129 6.15227 10.0129 5.71012C10.0129 5.26798 9.65363 4.89952 9.20227 4.89952C8.76013 4.89952 8.40088 5.26798 8.40088 5.71012C8.40088 6.15227 8.76013 6.51151 9.21148 6.51151ZM9.21149 13.5131C9.65363 13.5131 10.0221 13.1437 10.0221 12.7025L10.0221 8.63105C10.0221 8.18798 9.65363 7.82966 9.21148 7.82966C8.76934 7.82966 8.4101 8.18798 8.4101 8.63105L8.4101 12.7025C8.4101 13.1437 8.76934 13.5131 9.21149 13.5131Z" fill="black"/>
</g>
</svg>
