<svg width="20" height="20" viewBox="0 0 20 20" fill="none" xmlns="http://www.w3.org/2000/svg">
<path fill-rule="evenodd" clip-rule="evenodd" d="M14.1956 1.01464C14.1666 1.02034 14.024 1.04418 13.8788 1.06767C13.7336 1.09112 13.4779 1.15481 13.3107 1.20917C13.1434 1.26354 12.8662 1.37881 12.6947 1.46531C12.5231 1.55182 12.264 1.70602 12.1188 1.80799C11.9736 1.90997 11.7202 2.12936 11.5556 2.29555C11.391 2.46171 11.1722 2.72006 11.0693 2.86969C10.9664 3.01928 10.8047 3.3038 10.71 3.50188C10.6153 3.7 10.4982 4.0124 10.4498 4.19614C10.4014 4.37988 10.3432 4.67262 10.3204 4.84669C10.2952 5.03911 10.2879 5.3217 10.3017 5.56757C10.3141 5.78999 10.3548 6.10647 10.392 6.27086C10.4293 6.43526 10.4909 6.65884 10.5291 6.76767L10.5985 6.96562L9.8206 7.60284C9.39278 7.95332 9.03384 8.24009 9.02304 8.24009C9.01219 8.24009 8.21157 7.44899 7.24386 6.4821L5.48439 4.72411L5.84723 4.36036C6.13819 4.0687 6.21641 3.96862 6.24189 3.85536C6.26125 3.7692 6.26065 3.66881 6.24027 3.59785C6.2219 3.53392 6.17103 3.44344 6.12721 3.39684C6.08335 3.35022 5.5048 2.882 4.84153 2.35632C4.1783 1.83064 3.57546 1.37838 3.50196 1.35134C3.41474 1.31924 3.31995 1.3109 3.22917 1.32736C3.10642 1.34962 2.98766 1.45487 2.22122 2.22051C1.46459 2.97641 1.34928 3.10593 1.32788 3.22369C1.3139 3.3006 1.32056 3.41439 1.34329 3.48743C1.36734 3.56462 1.75679 4.08629 2.31872 4.79394C2.8332 5.44185 3.30375 6.02369 3.36444 6.08692C3.42512 6.15014 3.53495 6.21808 3.60851 6.23788C3.69958 6.26239 3.78385 6.26242 3.87237 6.23799C3.96583 6.21221 4.10441 6.1006 4.36493 5.84122L4.72741 5.48032L6.45921 7.21043C7.41172 8.16196 8.18376 8.94694 8.17493 8.95482C8.16606 8.96266 6.68569 10.1754 4.88522 11.6498C3.08474 13.1243 1.54488 14.4042 1.46333 14.4941C1.38177 14.5841 1.26712 14.7526 1.20858 14.8687C1.15005 14.9847 1.07623 15.1825 1.04455 15.3082C1.00369 15.4704 0.992175 15.6236 1.00495 15.8357C1.01583 16.0159 1.05293 16.2134 1.09844 16.3331C1.13998 16.4423 1.23477 16.6243 1.30915 16.7375C1.38557 16.8539 1.82497 17.3187 2.31999 17.8067C3.00258 18.4798 3.24289 18.6947 3.41009 18.7817C3.52805 18.8431 3.72605 18.9172 3.85009 18.9464C3.97414 18.9756 4.17129 18.9997 4.28822 19C4.40516 19.0003 4.59524 18.9765 4.71062 18.9471C4.82601 18.9178 5.0194 18.8442 5.14041 18.7837C5.2614 18.7231 5.43564 18.6006 5.52761 18.5115C5.61956 18.4223 6.89073 16.8948 8.35241 15.117C9.81408 13.3391 11.0214 11.8676 11.0353 11.8469C11.0506 11.8242 11.165 11.9129 11.3252 12.0717L11.5899 12.3341L11.1901 12.7399C10.9703 12.963 10.7646 13.1962 10.733 13.2581C10.7014 13.32 10.6756 13.4231 10.6756 13.4872C10.6756 13.5514 10.7033 13.6543 10.7372 13.7159C10.7711 13.7776 11.7318 14.8666 12.8723 16.1359C14.0127 17.4053 15.0264 18.504 15.125 18.5776C15.2237 18.6511 15.3677 18.7426 15.4452 18.7807C15.5226 18.819 15.6731 18.8798 15.7796 18.9159C15.9217 18.9642 16.0762 18.9818 16.3604 18.9823C16.6634 18.9828 16.8015 18.966 16.9955 18.9051C17.1318 18.8622 17.3456 18.7614 17.4707 18.6812C17.5957 18.6009 17.8902 18.3432 18.1251 18.1085C18.36 17.8738 18.615 17.5842 18.6918 17.4648C18.7686 17.3454 18.8694 17.1318 18.9159 16.9901C18.9845 16.7809 19.0003 16.6596 19 16.3456C18.9997 16.0602 18.9823 15.9081 18.9336 15.7654C18.8972 15.659 18.8362 15.5087 18.798 15.4313C18.7598 15.3539 18.6673 15.2088 18.5925 15.1087C18.5157 15.0059 17.4492 14.0359 16.1413 12.8792C14.8679 11.7531 13.7785 10.8025 13.7204 10.7668C13.6623 10.7311 13.5546 10.7018 13.481 10.7018C13.4075 10.7017 13.2966 10.7274 13.2346 10.759C13.1727 10.7906 12.9472 10.9881 12.7335 11.198L12.345 11.5797L12.0514 11.2849C11.7815 11.0139 11.7617 10.9845 11.8063 10.9213C11.833 10.8835 12.1221 10.5275 12.4487 10.1301L13.0427 9.40767L13.2831 9.48936C13.4154 9.5343 13.655 9.59932 13.8156 9.63385C14.025 9.67886 14.2619 9.69666 14.6532 9.69666C15.0481 9.69666 15.2811 9.67897 15.4966 9.63269C15.6603 9.59749 15.9138 9.52885 16.0598 9.48007C16.2058 9.43134 16.4598 9.32377 16.6244 9.24102C16.7889 9.15828 17.0424 9.00693 17.1876 8.90474C17.3328 8.80252 17.5792 8.59139 17.7352 8.43554C17.8912 8.27969 18.1026 8.0335 18.2049 7.88845C18.3072 7.74339 18.4618 7.48451 18.5483 7.31311C18.6349 7.14176 18.7501 6.86483 18.8043 6.69773C18.8585 6.53066 18.9247 6.28317 18.9516 6.14779C18.9813 5.99809 19 5.68112 18.9994 5.339C18.9986 4.92866 18.9808 4.69545 18.9338 4.47746C18.8983 4.31306 18.8234 4.05196 18.7674 3.89724C18.7114 3.74251 18.6347 3.56525 18.5969 3.50336C18.5592 3.44143 18.4783 3.36495 18.4172 3.33337C18.3561 3.30183 18.2366 3.27598 18.1517 3.27598C18.0574 3.27598 17.9529 3.30383 17.8829 3.34765C17.8199 3.38707 17.2695 3.91848 16.6598 4.52859C15.7915 5.39751 15.532 5.6379 15.4625 5.6379C15.3953 5.6379 15.2525 5.5164 14.8727 5.13634C14.4962 4.75955 14.3716 4.61302 14.3716 4.54712C14.3716 4.47894 14.611 4.22118 15.4488 3.38714C16.0412 2.79736 16.5719 2.25311 16.628 2.17768C16.7099 2.06758 16.73 2.00442 16.73 1.85761C16.73 1.72525 16.7077 1.64163 16.6494 1.55519C16.5905 1.46763 16.4973 1.40504 16.3012 1.32093C16.1539 1.2578 15.9147 1.1758 15.7694 1.1387C15.6242 1.1016 15.3838 1.05434 15.2352 1.0337C15.0865 1.01306 14.8037 0.997972 14.6067 1.00022C14.4096 1.00247 14.2246 1.00894 14.1956 1.01464ZM15.1746 2.10306C15.1857 2.11424 14.8212 2.49877 14.3646 2.95757C13.7547 3.57028 13.5076 3.84309 13.4337 3.98515C13.3417 4.1621 13.3332 4.20996 13.3335 4.54779C13.3337 4.86526 13.3456 4.94167 13.4184 5.09284C13.4786 5.21789 13.6819 5.44727 14.1221 5.88711C14.5624 6.32692 14.792 6.52996 14.9172 6.59013C15.0685 6.66285 15.145 6.67473 15.4628 6.67498C15.801 6.67522 15.8489 6.66671 16.026 6.57483C16.1682 6.50102 16.4413 6.25416 17.0546 5.6449C17.5139 5.1887 17.9015 4.82735 17.9162 4.84191C17.9307 4.8565 17.9421 5.07716 17.9413 5.33228C17.9403 5.68706 17.922 5.86868 17.8635 6.10468C17.8214 6.27438 17.7398 6.52391 17.6821 6.65915C17.6245 6.7944 17.5072 7.01355 17.4213 7.14612C17.3355 7.27869 17.158 7.50068 17.027 7.63941C16.896 7.77817 16.6599 7.97734 16.5024 8.08206C16.3449 8.18678 16.1003 8.32161 15.9589 8.3817C15.8176 8.4418 15.583 8.52138 15.4376 8.55851C15.2922 8.59564 15.0286 8.63601 14.8516 8.64822C14.6613 8.66133 14.415 8.65332 14.2484 8.62859C14.0935 8.6056 13.8598 8.55556 13.7291 8.5174C13.5983 8.47925 13.387 8.40125 13.2594 8.34408C13.1221 8.28254 12.9677 8.24016 12.8811 8.24023C12.8007 8.2403 12.6871 8.26942 12.6288 8.30494C12.5705 8.34042 10.7836 10.4847 8.6578 13.07C5.60829 16.7788 4.76356 17.7855 4.6543 17.8412C4.57817 17.88 4.44638 17.9212 4.36151 17.9328C4.26091 17.9466 4.14704 17.934 4.03454 17.8967C3.88357 17.8466 3.75319 17.7303 2.99519 16.9694C2.2788 16.2503 2.12181 16.075 2.09024 15.9588C2.06922 15.8814 2.05208 15.7627 2.05215 15.695C2.05226 15.6273 2.08996 15.4912 2.13596 15.3925C2.21425 15.2245 2.52024 14.9663 6.92843 11.3489C9.5183 9.22369 11.6664 7.43718 11.7019 7.37894C11.7374 7.32071 11.7666 7.2086 11.7667 7.1298C11.7668 7.04365 11.7182 6.87443 11.6448 6.70522C11.5776 6.55049 11.4981 6.33012 11.468 6.21551C11.4379 6.10091 11.3947 5.86197 11.372 5.68453C11.3403 5.43584 11.3406 5.27904 11.3733 5.00022C11.3992 4.77991 11.462 4.50376 11.5339 4.29383C11.5989 4.10422 11.7293 3.82037 11.8238 3.66304C11.9183 3.50571 12.1123 3.25249 12.255 3.10034C12.3976 2.94818 12.6439 2.7375 12.8023 2.63219C12.9608 2.52687 13.2005 2.39401 13.335 2.33691C13.4695 2.2798 13.6796 2.20725 13.8018 2.17571C13.9241 2.14413 14.1142 2.10405 14.2242 2.0866C14.3343 2.06913 14.5886 2.06114 14.7893 2.06881C14.99 2.07648 15.1634 2.09191 15.1746 2.10306ZM4.21078 3.20991L4.94044 3.78855L4.3683 4.36089C4.05365 4.67568 3.78487 4.9217 3.77107 4.90756C3.75727 4.89342 3.47602 4.54164 3.14609 4.12581L2.54625 3.36977L2.95615 2.9588C3.30534 2.60877 3.37461 2.55401 3.42361 2.58957C3.45525 2.61253 3.80951 2.89167 4.21078 3.20991ZM15.5553 13.7786C16.6711 14.7649 17.6456 15.6418 17.7209 15.7271C17.8053 15.8229 17.8793 15.9564 17.914 16.0757C17.9528 16.2089 17.9632 16.3295 17.9476 16.4627C17.935 16.5691 17.8838 16.7314 17.8337 16.8233C17.7837 16.9152 17.5663 17.1637 17.3508 17.3756C17.1352 17.5875 16.8926 17.7942 16.8118 17.835C16.7309 17.8758 16.5791 17.9192 16.4743 17.9315C16.3448 17.9467 16.2229 17.9361 16.0933 17.8982C15.9885 17.8676 15.8416 17.7919 15.7668 17.73C15.6921 17.6681 14.7996 16.6921 13.7835 15.561L11.9361 13.5045L12.7048 12.7359C13.1276 12.3133 13.4855 11.9714 13.5001 11.9763C13.5147 11.9812 14.4395 12.7922 15.5553 13.7786ZM3.75143 15.518C3.6893 15.5558 3.60616 15.6501 3.56663 15.7274C3.52713 15.8048 3.49482 15.9088 3.49482 15.9585C3.49482 16.0082 3.51643 16.1006 3.54283 16.1637C3.56923 16.2269 3.64097 16.3207 3.70225 16.3722C3.76354 16.4237 3.86935 16.4763 3.93739 16.4891C4.01888 16.5043 4.11441 16.4919 4.21747 16.4526C4.30663 16.4185 4.40713 16.3462 4.45113 16.2845C4.49886 16.2175 4.53339 16.1079 4.54156 15.9972C4.55156 15.8612 4.53741 15.7905 4.4827 15.7035C4.44307 15.6405 4.35905 15.5575 4.29593 15.519C4.22634 15.4766 4.11891 15.4491 4.02282 15.4491C3.92753 15.4491 3.8194 15.4766 3.75143 15.518Z" fill="#898A8D"/>
</svg>
