<svg width="29" height="29" viewBox="0 0 29 29" fill="none" xmlns="http://www.w3.org/2000/svg">
<path d="M28 14.3999C27.9481 21.8892 21.9745 27.9629 14.4407 28.0074C6.99217 28.0519 1.00741 22.0449 1 14.6001C0.996296 7.17376 7.14041 1 14.5296 1C22.0189 1 27.9926 6.944 28 14.3999ZM27.3033 14.3888C27.2811 7.36646 21.7114 1.79674 14.8187 1.70039C7.47762 1.59663 1.70409 7.55174 1.70039 14.6297C1.70039 21.6039 7.34052 27.2922 14.3221 27.3107C21.4779 27.333 27.2848 21.5483 27.3033 14.3888Z" fill="#26AB7B" stroke="#26AB7B" stroke-width="0.5"/>
<path d="M5.74698 14.3369C5.63581 14.274 5.52464 14.2295 5.4357 14.1554C5.20965 13.9738 5.19112 13.6588 5.4357 13.5106C5.66546 13.3735 5.93968 13.2993 6.20279 13.2252C6.32879 13.1882 6.38066 13.2993 6.39549 13.4142C6.4066 13.492 6.41402 13.5661 6.42884 13.681C6.66601 13.2919 6.86612 12.9325 7.09587 12.5915C7.28486 12.3136 7.48868 12.032 7.72585 11.7985C7.91484 11.6132 8.15571 11.4909 8.44847 11.4724C8.98209 11.4391 9.51572 11.3649 10.0493 11.3279C10.5941 11.2908 11.1425 11.2612 11.691 11.2538C12.2431 11.2464 12.799 11.2797 13.3512 11.2871C13.6773 11.2908 14.0034 11.276 14.3295 11.2908C14.9817 11.3205 15.5042 11.6281 15.9341 12.1024C16.2416 12.4396 16.5492 12.7768 16.8494 13.1178C16.942 13.2215 17.0124 13.3438 17.1014 13.4661C17.1977 13.1696 17.257 13.1511 17.5535 13.1993C17.8314 13.2475 18.0723 13.3475 18.2724 13.5402C18.5985 13.8515 18.5392 14.0998 18.1167 14.2332C18.1019 14.2369 18.0871 14.2517 18.0686 14.2628C19.1432 14.9892 19.2618 16.1231 19.0358 16.7716C19.3248 16.9013 19.3322 17.1718 19.3433 17.4275C19.3656 17.9574 19.3767 18.4874 19.3804 19.0173C19.3804 19.3693 19.3693 19.7177 19.347 20.0697C19.3285 20.4069 19.1173 20.6256 18.7764 20.6589C18.428 20.6923 18.0797 20.7219 17.7313 20.7256C17.1829 20.7293 16.8938 20.3995 16.9309 19.8622C13.5846 19.8622 10.2346 19.8622 6.89206 19.8622C6.87353 19.9771 6.86982 20.0734 6.84388 20.1698C6.75494 20.5478 6.58819 20.696 6.2065 20.7145C5.86186 20.733 5.52093 20.7405 5.1763 20.733C4.67602 20.7256 4.3981 20.4477 4.39068 19.9474C4.37586 19.247 4.36475 18.543 4.36475 17.8426C4.36475 17.6091 4.39439 17.3756 4.43886 17.1459C4.45739 17.057 4.53521 16.9458 4.61673 16.905C4.72049 16.8531 4.73532 16.7938 4.74273 16.6938C4.76126 16.338 4.76126 15.9786 4.82425 15.6302C4.85761 15.4338 4.96878 15.2374 5.09107 15.0744C5.28377 14.8187 5.52093 14.5852 5.74698 14.3369ZM11.5798 16.5122C12.8027 16.5122 14.7816 16.5085 16.7604 16.5159C17.4052 16.5196 18.0537 16.5419 18.6985 16.5604C18.8245 16.5641 18.9135 16.527 18.9061 16.3936C18.8912 16.0119 18.8505 15.6377 18.6689 15.2893C18.2872 14.5556 17.609 14.3332 16.8753 14.2665C16.0971 14.1961 15.3115 14.1998 14.5296 14.1961C12.2246 14.185 9.91964 14.1961 7.61097 14.185C7.16628 14.185 6.74012 14.2591 6.32508 14.4036C5.47276 14.7038 5.03919 15.4301 5.13924 16.3232C5.15036 16.427 5.18371 16.49 5.31712 16.4529C5.43941 16.4196 5.57282 16.4122 5.70252 16.4159C7.41086 16.4381 9.1155 16.4677 11.5798 16.5122ZM18.6096 16.994C14.0997 16.994 9.61207 16.8272 5.09477 16.9087C5.09477 17.0829 5.06513 17.2385 5.09848 17.3794C5.23189 17.9278 5.38382 18.4763 5.53205 19.021C5.54688 19.0803 5.58764 19.1433 5.63581 19.184C5.91745 19.4323 6.24726 19.525 6.62154 19.5176C7.44792 19.499 8.2743 19.4879 9.10068 19.4953C10.2346 19.5027 11.3686 19.5472 12.5025 19.5472C13.24 19.5472 13.9811 19.4916 14.7186 19.4768C15.4597 19.462 16.1972 19.4805 16.9383 19.4657C17.2274 19.4583 17.5127 19.4101 17.798 19.3582C18.1723 19.2952 18.3835 19.0655 18.428 18.6875C18.4873 18.1353 18.5466 17.5795 18.6096 16.994ZM7.34786 12.636C7.36269 12.6508 7.37751 12.6694 7.39233 12.6842C7.42568 12.636 7.45162 12.5767 7.49238 12.536C7.68879 12.3396 7.90001 12.1691 8.16683 12.0653C8.77457 11.8282 9.41196 11.7392 10.0493 11.7244C11.4649 11.6911 12.8805 11.7022 14.2998 11.7022C14.6185 11.7022 14.9224 11.7763 15.204 11.9282C15.2893 11.9727 15.3671 12.0283 15.4486 12.0764C15.4597 12.0616 15.4671 12.0505 15.4782 12.0357C15.3597 11.9505 15.2448 11.8504 15.1188 11.78C14.6111 11.4984 14.0367 11.5243 13.4846 11.4872C12.8398 11.4428 12.1913 11.4835 11.5465 11.4724C10.6386 11.4576 9.74177 11.5391 8.84128 11.6243C8.14089 11.6873 7.72214 12.1246 7.34786 12.636ZM13.6587 12.5285C13.655 12.5508 13.655 12.5767 13.6513 12.599C13.7365 12.6138 13.8218 12.6249 13.9033 12.6471C14.2961 12.762 14.7038 12.8361 15.0002 13.1622C15.0447 13.2104 15.2114 13.2178 15.2707 13.1733C15.3782 13.0955 15.3337 12.9658 15.2411 12.888C15.1484 12.8139 15.041 12.7324 14.9261 12.7064C14.5926 12.6286 14.2554 12.573 13.9181 12.5174C13.8366 12.5026 13.7477 12.5248 13.6587 12.5285ZM12.9695 12.5248C12.8731 12.4655 12.8212 12.41 12.7694 12.41C12.7286 12.41 12.6915 12.4767 12.6508 12.5137C12.6878 12.5508 12.7249 12.6212 12.7619 12.6212C12.8138 12.6286 12.8657 12.5767 12.9695 12.5248Z" fill="#26AB7B" stroke="#26AB7B" stroke-width="0.5"/>
<path d="M16.7011 8.32254C16.6641 8.2336 16.6307 8.12984 16.5788 8.03349C16.4528 7.79262 16.4751 7.67773 16.6455 7.54803C16.7604 7.4591 16.8679 7.35534 16.9754 7.25528C17.0828 7.15893 17.1755 7.1997 17.2681 7.27752C17.7461 7.68145 18.4984 7.39239 18.6133 6.76242C18.6503 6.56972 18.743 6.48819 18.9394 6.48449C19.0987 6.48078 19.2618 6.48079 19.4211 6.4882C19.5397 6.4919 19.6361 6.53266 19.6472 6.67718C19.6546 6.76612 19.7028 6.85507 19.7065 6.94401C19.7102 7.17006 19.8584 7.27011 20.0289 7.37757C20.3253 7.55916 20.5884 7.61103 20.9183 7.40351C21.2962 7.16635 21.3185 7.19599 21.6446 7.51098C21.8669 7.7222 21.8669 7.72962 21.7261 7.99643C21.6668 8.11131 21.6038 8.22248 21.5408 8.33736C21.3629 8.65605 21.4445 9.1415 21.7335 9.36755C21.7928 9.41202 21.8929 9.41202 21.9744 9.41202C22.4673 9.41573 22.534 9.34161 22.5228 9.979C22.5228 10.0272 22.5228 10.0791 22.5191 10.1272C22.4821 10.394 22.4561 10.4237 22.1856 10.4385C21.9114 10.4533 21.7261 10.5793 21.6186 10.835C21.5816 10.924 21.5297 11.0092 21.4815 11.0944C21.3629 11.302 21.3741 11.5021 21.5038 11.6985C21.8039 12.1617 21.8039 12.1617 21.3704 12.51C21.2407 12.6101 21.1184 12.6175 20.985 12.5248C20.8478 12.4322 20.7144 12.3358 20.5699 12.258C20.5143 12.2284 20.4291 12.2358 20.3661 12.2506C20.2475 12.2803 20.1326 12.3284 20.0178 12.3655C19.7324 12.4581 19.599 12.6731 19.5768 12.9547C19.562 13.1363 19.4841 13.24 19.3063 13.2697C19.2099 13.2882 19.1136 13.3068 19.0135 13.3142C18.6578 13.3401 18.5577 13.2623 18.4688 12.9139C18.4169 12.7064 18.3279 12.536 18.0982 12.473C18.0463 12.4581 17.9944 12.4359 17.9463 12.4063C17.6313 12.2099 17.3422 12.2247 17.042 12.4544C16.879 12.5804 16.7197 12.536 16.564 12.3803C16.3454 12.158 16.2861 12.0097 16.4306 11.8393C16.7011 11.5132 16.7382 11.1908 16.5232 10.8313C16.5047 10.8017 16.4973 10.7646 16.4862 10.7276C16.4269 10.483 16.3009 10.3644 16.023 10.3903C15.7895 10.4126 15.708 10.3051 15.7043 10.0679C15.7043 10.0049 15.7006 9.94564 15.7043 9.88265C15.7117 9.74924 15.682 9.5899 15.7488 9.48984C15.8006 9.40832 15.9674 9.40461 16.0823 9.36384C16.3157 9.28232 16.4899 9.14151 16.5529 8.88952C16.5937 8.71164 16.6455 8.53006 16.7011 8.32254ZM20.355 9.88265C20.3698 9.12297 19.8584 8.61529 19.2433 8.57082C18.4465 8.51153 17.8499 9.10445 17.8388 9.916C17.8314 10.5756 18.3946 11.1945 19.032 11.1797C19.6731 11.1648 20.3735 10.7424 20.355 9.88265Z" fill="#26AB7B" stroke="#26AB7B" stroke-width="0.5"/>
<path d="M22.6417 12.3396C22.5045 12.1172 22.5675 11.8986 22.6417 11.6948C22.7973 11.2834 23.2753 10.9684 23.7089 11.0166C23.8571 11.0314 24.0091 11.15 24.1239 11.2575C24.2166 11.3427 24.1202 11.402 24.0276 11.3983C23.846 11.3946 23.7126 11.4835 23.594 11.6095C23.4087 11.8022 23.3865 11.9356 23.5125 12.1283C23.5792 12.2284 23.8015 12.2766 23.972 12.1987C24.1351 12.1283 24.3241 12.069 24.3537 11.843C24.3574 11.8245 24.4612 11.7948 24.4982 11.8133C24.539 11.8319 24.5723 11.8949 24.5872 11.9468C24.6798 12.258 24.5205 12.725 24.2462 12.888C23.9683 13.0548 23.6756 13.1808 23.3346 13.0585C23.2902 13.0437 23.216 13.0696 23.1753 13.0992C22.5119 13.6069 21.8486 14.1183 21.189 14.6334C21.1482 14.6668 21.1075 14.7335 21.1112 14.7816C21.1816 15.4264 20.6813 15.9601 20.0328 15.9156C19.9439 15.9082 19.8475 15.8785 19.7734 15.8341C19.7215 15.8007 19.6696 15.7229 19.6659 15.6599C19.6622 15.6191 19.7438 15.5747 19.7919 15.5339C19.9179 15.4227 20.0699 15.3338 20.1699 15.2041C20.2922 15.0448 20.2366 14.8409 20.081 14.7409C19.9402 14.6482 19.7438 14.7038 19.6326 14.8669C19.5807 14.9447 19.5511 15.0336 19.4918 15.104C19.4547 15.1485 19.3732 15.193 19.325 15.1856C19.2768 15.1745 19.2213 15.0966 19.2101 15.041C19.1397 14.6297 19.2583 14.2851 19.5992 14.0294C19.8698 13.8293 20.1551 13.8812 20.4441 13.9738C20.4923 13.9886 20.5664 13.9849 20.6035 13.959C21.2668 13.4402 21.9302 12.9177 22.5898 12.3951C22.6083 12.384 22.6194 12.3655 22.6417 12.3396Z" fill="#26AB7B" stroke="#26AB7B" stroke-width="0.5"/>
<path d="M17.6128 16.0861C17.3904 16.0675 17.1718 16.0564 16.9495 16.0342C16.8828 16.0268 16.8161 16.0119 16.7531 15.986C16.4751 15.86 16.427 15.6265 16.6678 15.445C17.0532 15.1559 17.4683 14.9447 17.9797 15.004C18.3947 15.0522 18.6541 15.5339 18.4466 15.8971C18.3984 15.9786 18.2798 16.0527 18.1835 16.0638C17.9982 16.0898 17.8018 16.0712 17.6128 16.0712C17.6128 16.0786 17.6128 16.0823 17.6128 16.0861ZM16.8346 15.6562C16.8346 15.6747 16.8383 15.6895 16.8383 15.7081C16.8791 15.7155 16.9198 15.7303 16.9569 15.7303C17.2274 15.734 17.4979 15.7414 17.7684 15.7377C18.2131 15.7377 18.2131 15.734 18.0797 15.3004C17.5906 15.1782 17.2126 15.4116 16.8346 15.6562Z" fill="#26AB7B" stroke="#26AB7B" stroke-width="0.5"/>
<path d="M6.35475 16.1416C6.15835 16.1305 5.96194 16.1268 5.76925 16.1009C5.49502 16.0675 5.37273 15.8415 5.48761 15.5895C5.55061 15.4487 5.62102 15.3116 5.69884 15.1819C5.78407 15.0336 5.9323 14.9743 6.08053 15.041C6.39552 15.1893 6.69939 15.3634 6.99955 15.5376C7.11814 15.608 7.19966 15.7451 7.12925 15.8674C7.07367 15.9638 6.94767 16.049 6.8365 16.0786C6.68456 16.1231 6.51781 16.1083 6.35846 16.1194C6.35846 16.1305 6.35846 16.1379 6.35475 16.1416ZM6.69197 15.7859C6.69939 15.7599 6.7068 15.734 6.7105 15.7081C6.45481 15.482 6.13611 15.4042 5.78777 15.3004C5.76554 15.4264 5.7359 15.5265 5.7396 15.6228C5.74331 15.6784 5.81001 15.7748 5.85077 15.7748C6.13241 15.7933 6.41034 15.7859 6.69197 15.7859Z" fill="#26AB7B" stroke="#26AB7B" stroke-width="0.5"/>
<path d="M9.67887 17.4127C10.1903 17.3868 10.698 17.3497 11.2093 17.346C11.6837 17.3423 12.1543 17.3793 12.6286 17.3979C12.9659 17.4127 13.3031 17.4275 13.6403 17.446C13.7811 17.4535 13.9219 17.472 14.0591 17.4831C14.2184 17.4979 14.2888 17.6165 14.2962 17.7462C14.3036 17.9463 14.2999 18.1575 14.2555 18.3502C14.2147 18.5281 14.0702 18.6356 13.8701 18.6319C13.4847 18.6282 13.0956 18.6245 12.7102 18.6245C11.5873 18.6245 10.4682 18.6245 9.34536 18.6245C9.02296 18.6245 8.92661 18.5207 8.94884 18.202C8.96367 18.0241 8.97849 17.8463 8.99331 17.6684C9.01184 17.4646 9.08966 17.3942 9.28977 17.4016C9.35647 17.4016 9.42318 17.4127 9.49359 17.4127C9.55658 17.4127 9.61587 17.4127 9.67887 17.4127ZM10.168 18.2872C10.3126 18.2872 10.42 18.2872 10.5534 18.2872C10.5275 18.0464 10.5015 17.824 10.4756 17.5943C10.3533 17.5943 10.2496 17.5943 10.1717 17.5943C10.168 17.8277 10.168 18.0538 10.168 18.2872ZM9.23048 18.354C9.35277 18.354 9.44171 18.354 9.55288 18.354C9.53435 18.1205 9.52323 17.8981 9.49359 17.6832C9.48617 17.6462 9.38982 17.6017 9.33424 17.598C9.30459 17.5943 9.23789 17.6684 9.23789 17.7054C9.22678 17.9204 9.23048 18.1316 9.23048 18.354ZM11.1797 17.635C11.1797 17.8611 11.1797 18.076 11.1797 18.3095C11.2946 18.3021 11.402 18.2984 11.5095 18.291C11.491 18.0649 11.4725 17.8537 11.4539 17.635C11.3613 17.635 11.2798 17.635 11.1797 17.635ZM9.94568 17.535C9.84192 17.598 9.70852 17.635 9.70111 17.6906C9.67517 17.8944 9.68999 18.1057 9.68999 18.3169C9.79375 18.3169 9.88269 18.3169 9.99757 18.3169C9.98275 18.0723 9.96421 17.8426 9.94568 17.535ZM13.1178 17.6536C13.0029 17.661 12.8843 17.6647 12.7806 17.6721C12.7806 17.8796 12.7806 18.0575 12.7806 18.2502C12.8917 18.2502 13.0029 18.2502 13.1178 18.2502C13.1178 18.0464 13.1178 17.8611 13.1178 17.6536ZM12.0209 17.6684C11.9208 17.6684 11.8393 17.6684 11.743 17.6684C11.743 17.8759 11.743 18.076 11.743 18.291C11.8504 18.2761 11.9505 18.265 12.0617 18.2502C12.0468 18.0538 12.032 17.8685 12.0209 17.6684ZM10.9981 18.3058C10.9759 18.0686 10.9574 17.8463 10.9351 17.6276C10.861 17.6276 10.8054 17.6276 10.7498 17.6276C10.735 17.85 10.7239 18.0612 10.7128 18.291C10.8017 18.2984 10.8869 18.3021 10.9981 18.3058ZM13.5699 18.2613C13.5699 18.0427 13.5699 17.8352 13.5699 17.6165C13.5069 17.6239 13.455 17.6276 13.4031 17.635C13.3772 17.85 13.355 18.0464 13.3327 18.2613C13.4143 18.2613 13.4847 18.2613 13.5699 18.2613ZM12.5397 18.2576C12.5397 18.0686 12.5397 17.8759 12.5397 17.6758C12.4619 17.6758 12.4026 17.6758 12.3248 17.6758C12.3248 17.8759 12.3248 18.0649 12.3248 18.2576C12.3952 18.2576 12.4619 18.2576 12.5397 18.2576ZM13.7181 18.3095C13.8145 18.2465 13.9108 18.2205 13.9219 18.1687C13.959 18.0056 13.9627 17.8351 13.9886 17.6239C13.9182 17.6647 13.8552 17.6832 13.8478 17.7129C13.7997 17.887 13.77 18.0686 13.7181 18.3095Z" fill="#26AB7B" stroke="#26AB7B" stroke-width="0.5"/>
<path d="M6.23633 17.8203C6.25856 17.6017 6.39938 17.5461 6.51426 17.4979C6.65878 17.4349 6.79589 17.5165 6.88483 17.635C6.93671 17.7018 6.96265 17.787 6.98489 17.8722C7.02935 18.0464 7.06271 18.2206 7.09235 18.3947C7.12941 18.606 6.95524 18.7764 6.75884 18.6949C6.64396 18.6467 6.51796 18.5541 6.46238 18.4466C6.35862 18.2317 6.29933 17.9982 6.23633 17.8203Z" fill="#26AB7B" stroke="#26AB7B" stroke-width="0.5"/>
<path d="M5.69141 17.4016C5.78405 17.4905 5.92487 17.5609 5.96193 17.6647C6.0731 17.9797 6.14351 18.3095 6.22503 18.6356C6.23244 18.669 6.18798 18.7505 6.16204 18.7505C6.09533 18.7579 5.99898 18.7579 5.96193 18.7171C5.83593 18.58 5.70623 18.4318 5.61729 18.265C5.53206 18.1057 5.48388 17.9241 5.43571 17.7462C5.39495 17.5906 5.50982 17.4387 5.69141 17.4016Z" fill="#26AB7B" stroke="#26AB7B" stroke-width="0.5"/>
<path d="M18.2872 17.6647C18.2205 18.0278 18.0537 18.3465 17.8314 18.6356C17.7981 18.6801 17.6869 18.6986 17.635 18.6763C17.5868 18.6541 17.5275 18.5541 17.5424 18.5022C17.635 18.1687 17.7313 17.8314 17.8573 17.509C17.8833 17.4423 18.0278 17.3756 18.1093 17.383C18.239 17.4053 18.3094 17.5165 18.2872 17.6647Z" fill="#26AB7B" stroke="#26AB7B" stroke-width="0.5"/>
<path d="M17.4051 17.8055C17.3644 17.9871 17.3459 18.1427 17.2903 18.2835C17.2569 18.3688 17.1791 18.4503 17.1013 18.4948C16.9605 18.5726 16.8419 18.4874 16.8789 18.3317C16.9234 18.1353 16.9938 17.9426 17.079 17.7647C17.105 17.7092 17.231 17.6832 17.3125 17.6795C17.3421 17.6758 17.3792 17.7684 17.4051 17.8055Z" fill="#26AB7B" stroke="#26AB7B" stroke-width="0.5"/>
</svg>
