<svg width="29" height="29" viewBox="0 0 29 29" fill="none" xmlns="http://www.w3.org/2000/svg">
<path d="M28 14.4055C27.9481 21.8958 21.9736 27.9703 14.4426 28.0148C6.993 28.0593 1.00742 22.0552 1.00001 14.6056C0.992594 7.17831 7.13755 1 14.5315 1C22.0181 1.00371 27.9926 6.94852 28 14.4055ZM14.6205 1.70419C7.37104 1.71531 1.65601 7.64159 1.69307 14.7391C1.73014 21.6623 7.41181 27.3292 14.3647 27.318C21.5141 27.3069 27.3032 21.5104 27.2995 14.3647C27.2995 7.36733 21.6178 1.69307 14.6205 1.70419Z" fill="#26AB7B" stroke="#26AB7B" stroke-width="0.5"/>
<path fill-rule="evenodd" clip-rule="evenodd" d="M13.3582 7.94155C12.9332 8.07097 12.821 8.17827 13.1941 8.09825C13.3856 8.0572 13.59 8.05302 13.887 8.08405L14.0944 8.10573L14.0747 8.24958C14.0638 8.32867 14.0456 8.43067 14.0342 8.4762C13.9947 8.63349 14.0891 8.56204 14.1764 8.36863C14.2236 8.26395 14.2664 8.17317 14.2714 8.16691C14.2843 8.15105 14.6499 8.25928 14.6499 8.27895C14.6499 8.28775 14.621 8.39909 14.5857 8.52632C14.5505 8.65355 14.5357 8.75764 14.553 8.75764C14.5702 8.75764 14.6249 8.67196 14.6746 8.56727C14.7242 8.46259 14.7674 8.37208 14.7705 8.36618C14.7786 8.35092 14.9808 8.45673 15.0891 8.53291L15.1806 8.59724L15.1183 8.6857C15.0391 8.79806 14.9993 8.92317 15.0427 8.92317C15.0608 8.92317 15.1221 8.86732 15.179 8.79902L15.2824 8.67487L15.5441 8.94525C15.7596 9.1679 15.8351 9.27626 15.9717 9.55939C16.0629 9.74846 16.1736 9.95627 16.2177 10.0212L16.2978 10.1393L16.1124 10.2182C16.0103 10.2616 15.9175 10.3013 15.9059 10.3065C15.8944 10.3117 15.8525 10.2269 15.8128 10.1179C15.6795 9.75243 15.2217 9.21878 14.8212 8.96197C14.4901 8.74969 14.2391 8.64716 13.878 8.57678L13.5863 8.51993L13.4075 8.60737C13.3092 8.65547 13.1897 8.74115 13.1421 8.79776C13.0287 8.93238 12.7732 9.44259 12.7457 9.58905C12.7186 9.73326 12.8114 10.2432 12.9044 10.4606C13.0683 10.8441 13.7617 11.6257 14.3002 12.0338C14.6717 12.3154 15.3311 12.9862 15.5145 13.2692C15.588 13.3826 15.7179 13.6156 15.8032 13.787C15.9377 14.0576 15.9579 14.1251 15.9567 14.3001C15.955 14.5514 15.8895 14.6967 15.7719 14.7104C15.6617 14.7232 15.5286 14.5731 15.496 14.3992C15.4649 14.2335 15.2983 13.8161 15.1735 13.5912C15.0421 13.3543 14.6293 12.8451 14.3957 12.6316C14.2944 12.5391 14.0233 12.3338 13.7932 12.1752C13.0738 11.6797 12.5465 11.201 12.3963 10.9072C12.2425 10.6062 12.1608 10.2804 12.1438 9.89983C12.1349 9.69953 12.1406 9.47606 12.1565 9.40322C12.1835 9.27891 12.1943 9.26914 12.3329 9.24401C12.5808 9.19905 12.7289 9.15373 12.7289 9.12287C12.7289 9.10668 12.6432 9.08404 12.5384 9.07248C12.4337 9.06096 12.3295 9.04871 12.307 9.04527C12.2793 9.04107 12.2995 8.96707 12.3692 8.8175C12.4826 8.57423 12.4784 8.47381 12.3564 8.51096C12.2405 8.54632 12.1665 8.6262 12.0666 8.82385C11.9461 9.06252 11.8534 9.3724 11.8024 9.70698C11.7672 9.93743 11.7689 10.0238 11.8141 10.2885C11.9176 10.8957 12.0584 11.1656 12.4843 11.5735C12.8174 11.8925 13.2196 12.2034 13.6397 12.4666C14.0382 12.7163 14.1308 12.7936 14.4458 13.1397C14.7383 13.4611 14.7816 13.5423 14.8939 13.9816C15.0319 14.5208 15.0366 14.5148 14.6683 14.2704C14.4963 14.1562 14.2988 14.0523 14.2295 14.0394C14.1601 14.0266 13.8276 13.9281 13.4906 13.8207C13.1536 13.7132 12.8146 13.6096 12.7372 13.5904C12.6298 13.5639 12.5964 13.5398 12.5964 13.489C12.5964 13.3961 12.52 13.2598 12.4084 13.1539C12.2726 13.0249 12.0553 12.9574 11.7759 12.9576C11.5747 12.9577 11.497 12.9753 11.303 13.0646C11.0684 13.1727 10.8457 13.3726 10.836 13.4837C10.8332 13.5156 10.8294 13.5639 10.8276 13.5912C10.8248 13.6325 10.7559 13.6409 10.4212 13.6409C9.77806 13.6409 9.74315 13.6914 9.76839 14.5844C9.7774 14.9031 9.79939 15.2867 9.81731 15.4369L9.84987 15.7099L9.62134 15.9384C9.29696 16.2626 9.21376 16.4754 9.19309 17.0335C9.18369 17.2873 9.19283 17.5136 9.21677 17.6206C9.25794 17.8044 9.49101 18.1855 9.64399 18.3192C9.7664 18.4261 10.1266 18.6047 10.3492 18.6688C10.5862 18.7371 11.0513 18.7355 11.3347 18.6653C11.6568 18.5856 11.9919 18.3472 12.1806 18.0633L12.3313 17.8367L13.7473 17.8097C14.526 17.7948 15.4909 17.7819 15.8915 17.7809L16.6198 17.7793L16.6375 17.8786C16.6956 18.2037 16.5971 18.2461 15.8091 18.2351C15.5085 18.231 14.6014 18.2448 13.7933 18.2659C12.4537 18.3009 12.3178 18.3096 12.2532 18.3646C12.099 18.4957 12.2077 18.5096 13.4626 18.5183C14.1064 18.5229 14.76 18.5394 14.9148 18.5551C15.5436 18.6187 16.6695 18.4896 16.8441 18.3339C16.9176 18.2683 16.922 18.0069 16.8523 17.8404C16.825 17.775 16.8021 17.6302 16.8015 17.5186C16.7997 17.198 16.7253 16.8654 16.5077 16.2048C16.326 15.6534 16.2919 15.5775 16.1746 15.4629L16.0439 15.3354L16.1228 15.2417C16.2252 15.12 16.2856 14.8224 16.2629 14.5511C16.217 14.0037 15.7406 13.1022 15.1655 12.4747C15.0575 12.3568 14.7909 12.1104 14.5731 11.9271C13.7663 11.248 13.2845 10.7285 13.1229 10.3633C13.0866 10.2814 13.0361 10.0954 13.0105 9.94998C12.9701 9.72005 12.9703 9.66427 13.0128 9.52155C13.0759 9.3088 13.3099 8.96227 13.4575 8.86262C13.5603 8.79333 13.6021 8.78601 13.8255 8.79839C14.1223 8.81485 14.2274 8.86259 14.6872 9.18998C14.9254 9.35959 15.0647 9.49066 15.2377 9.70807C15.4928 10.0286 15.7643 10.5371 15.7097 10.5918C15.623 10.6784 15.7228 10.8765 15.8531 10.8765C15.892 10.8765 15.9084 10.9048 15.9084 10.9716C15.9084 11.024 15.946 11.1339 15.9919 11.216C16.0378 11.2981 16.1102 11.4678 16.1529 11.5933C16.1956 11.7187 16.264 11.887 16.305 11.9672C16.4138 12.1806 16.646 12.7651 16.8844 13.4257C16.9993 13.7444 17.3019 14.534 17.5567 15.1804C17.8115 15.8268 18.0307 16.3903 18.0436 16.4327C18.0567 16.475 18.117 16.6187 18.1778 16.752L18.2882 16.9943L18.2161 17.0615C18.1765 17.0985 18.0993 17.1394 18.0447 17.1524C17.8899 17.1893 17.7667 17.2608 17.5496 17.44C17.1297 17.7867 17.0029 18.0282 17.18 18.1441C17.2501 18.1901 17.3404 18.1919 17.9666 18.1603C18.3556 18.1406 18.8155 18.1036 18.9886 18.078C19.552 17.9947 20.0575 17.9563 20.4459 17.9672L20.8268 17.9779L20.8371 17.8889C20.8435 17.8335 20.8233 17.7772 20.7837 17.7399C20.7487 17.7069 20.6174 17.5827 20.4919 17.4639C20.3664 17.3451 20.1945 17.2092 20.1099 17.162C19.9222 17.0571 19.5315 16.9352 19.3809 16.9345C19.32 16.9342 19.2522 16.9227 19.2304 16.9088C19.2086 16.8949 19.1402 16.735 19.0785 16.5534C18.7919 15.7099 18.5318 15.0468 18.2608 14.4686C18.0986 14.1226 17.9071 13.6831 17.8353 13.4919C17.7635 13.3007 17.643 12.9804 17.5676 12.7801C17.4923 12.5798 17.362 12.2297 17.2781 12.0021C17.0305 11.3301 16.846 10.8924 16.7068 10.6469C16.5967 10.4526 16.5836 10.4105 16.6232 10.3776C16.7182 10.2988 16.6367 10.1157 16.5256 10.1584C16.4928 10.171 16.4747 10.1404 16.4629 10.0524C16.4538 9.98445 16.3405 9.7137 16.2111 9.45083C15.8423 8.70112 15.5111 8.35503 14.8351 8.01273L14.5736 7.88031L14.0901 7.87312C13.668 7.86683 13.575 7.87554 13.3582 7.94155ZM15.3601 9.09159C15.3288 9.14221 15.3968 9.20081 15.4591 9.1769C15.4876 9.16595 15.511 9.1342 15.511 9.10629C15.511 9.04845 15.3939 9.03703 15.3601 9.09159ZM12.4888 9.97041C12.355 10.0559 12.3372 10.0819 12.4124 10.0819C12.4669 10.0819 12.6548 9.93012 12.6295 9.90651C12.6204 9.898 12.5571 9.92677 12.4888 9.97041ZM16.2065 10.4239C16.2065 10.4418 15.9162 10.6447 15.8907 10.6447C15.8778 10.6447 15.8857 10.6224 15.9084 10.5951C15.9311 10.5678 15.9641 10.5454 15.9818 10.5454C15.9994 10.5454 16.0518 10.5156 16.0981 10.4792C16.1799 10.4149 16.2065 10.4013 16.2065 10.4239ZM12.783 10.7465C12.6907 10.8191 12.6663 10.9096 12.7392 10.9096C12.7836 10.9096 12.9607 10.7427 12.9607 10.7008C12.9607 10.6555 12.8687 10.6791 12.783 10.7465ZM16.557 10.8516C16.5887 10.9472 16.6735 11.1521 16.7454 11.3069C16.86 11.5533 17.0695 12.1135 17.0666 12.1656C17.0615 12.2579 16.4846 11.1294 16.4543 10.9678C16.4333 10.8557 16.4528 10.6778 16.486 10.6778C16.4933 10.6778 16.5252 10.7561 16.557 10.8516ZM13.2269 11.322C13.1723 11.3877 13.2153 11.456 13.2783 11.4037C13.3299 11.3609 13.3417 11.2738 13.296 11.2738C13.28 11.2738 13.2489 11.2954 13.2269 11.322ZM11.9609 13.2448C12.0897 13.2831 12.1447 13.3197 12.1822 13.3922C12.2096 13.4452 12.2321 13.4946 12.2321 13.5018C12.2321 13.5269 11.3507 13.5591 11.2446 13.5378C11.1573 13.5204 11.1451 13.508 11.177 13.4696C11.2828 13.3421 11.5675 13.1987 11.721 13.1954C11.7587 13.1946 11.8666 13.2169 11.9609 13.2448ZM13.5512 14.1396C14.4832 14.4577 14.9383 14.7235 15.5157 15.2867C15.6517 15.4194 15.8449 15.5889 15.945 15.6633C16.1234 15.7961 16.1283 15.8043 16.2042 16.0937C16.3365 16.5988 16.503 17.3448 16.5038 17.4363L16.5046 17.5237L15.7677 17.544C15.3623 17.5553 14.4491 17.5733 13.7383 17.5842L12.4458 17.604L12.4763 17.2678C12.5142 16.8503 12.479 16.6739 12.2777 16.2719C12.0804 15.8779 11.7814 15.5895 11.3942 15.4196C11.2428 15.3532 10.6513 15.3677 10.4066 15.4439C10.2919 15.4796 10.1957 15.5056 10.1928 15.5018C10.1683 15.4691 10.1567 14.0186 10.1809 14.0037C10.2854 13.9391 11.6714 13.8619 12.348 13.8829L12.8448 13.8984L13.5512 14.1396ZM11.9009 15.21C11.9009 15.2263 11.974 15.2866 12.0633 15.3439C12.2466 15.4614 12.4699 15.7638 12.6944 16.1982C12.7719 16.3483 12.8503 16.4618 12.8686 16.4505C12.9349 16.4096 12.8776 16.0557 12.769 15.835C12.6154 15.5232 12.433 15.3308 12.2132 15.2486C12.0193 15.176 11.9009 15.1614 11.9009 15.21ZM11.2236 16.6324C11.268 16.6977 11.3279 16.8222 11.3567 16.909C11.4077 17.0625 11.4069 17.0719 11.3261 17.2484C11.2197 17.4807 11.0915 17.564 10.841 17.5634C10.48 17.5626 10.3171 17.3913 10.313 17.0085C10.3101 16.7382 10.3726 16.6264 10.581 16.5295C10.8301 16.4136 10.8358 16.4127 10.9976 16.4659C11.0973 16.4988 11.1682 16.551 11.2236 16.6324ZM12.9387 16.8545C12.9111 16.9264 12.9812 16.994 13.0314 16.9439C13.0738 16.9015 13.0475 16.8026 12.9938 16.8026C12.9745 16.8026 12.9497 16.8259 12.9387 16.8545ZM8.11393 17.1365C7.93472 17.1533 7.75991 17.1869 7.72543 17.211C7.62614 17.2805 7.36717 17.6408 6.65085 18.7063C5.80151 19.9694 5.59074 20.3024 5.50853 20.5109C5.47207 20.6034 5.41175 20.7202 5.37453 20.7706C5.30272 20.8677 5.31852 20.9845 5.41414 21.0635C5.47207 21.1114 7.3114 21.1665 7.75395 21.1337C7.93078 21.1206 10.4676 21.1007 13.3913 21.0896C20.0464 21.0642 20.8722 21.0562 21.3236 21.013C21.524 20.9937 22.0525 20.9677 22.4981 20.9551L23.3082 20.9321L23.4006 20.8398C23.5284 20.712 23.5289 20.5077 23.4017 20.3185C23.3138 20.1877 22.6807 19.502 22.2344 19.0542C21.8633 18.6819 21.3026 18.2174 21.267 18.253C21.2158 18.3041 21.9363 19.214 22.4518 19.7491C22.7848 20.0949 23.1125 20.5046 23.0811 20.536C23.0701 20.547 22.8932 20.5625 22.6881 20.5703L22.3152 20.5846L22.1891 20.3948C22.1198 20.2904 21.9563 20.0908 21.8258 19.9512C21.6953 19.8116 21.4991 19.5743 21.3898 19.424C20.9748 18.8531 20.5934 18.3988 20.5585 18.4337C20.521 18.4712 20.5822 18.5844 20.7366 18.7636C21.1756 19.2728 21.494 19.6797 21.6915 19.9839C21.812 20.1696 21.9678 20.3835 22.0377 20.4593L22.1648 20.5971L21.5951 20.644C21.1567 20.68 20.2245 20.6918 17.5479 20.6951C15.6352 20.6976 12.281 20.7113 10.0941 20.7257C7.9072 20.74 6.04693 20.7412 5.96019 20.7282L5.80247 20.7045L5.8812 20.5993C5.92449 20.5414 6.09973 20.2706 6.27063 19.9974C6.44153 19.7243 6.67274 19.3593 6.78442 19.1863C6.8961 19.0133 7.07042 18.7303 7.17183 18.5573C7.27321 18.3843 7.42116 18.1422 7.50055 18.0193C7.57994 17.8964 7.69573 17.7066 7.75786 17.5977C7.85073 17.4347 7.88898 17.3968 7.97314 17.3841C8.45196 17.3118 8.97235 17.2233 8.98407 17.2123C8.99199 17.2049 8.98159 17.1819 8.96102 17.1614C8.91044 17.1108 8.51151 17.0991 8.11393 17.1365ZM19.7007 17.4206C19.7918 17.4485 19.9549 17.5256 20.0631 17.5921L20.2599 17.713L20.0962 17.7217C20.0062 17.7265 19.7313 17.7522 19.4854 17.7789C18.8095 17.8524 17.897 17.9006 17.7354 17.8714L17.5917 17.8455L17.8062 17.6736C18.1149 17.4264 18.2077 17.395 18.7071 17.369C19.2342 17.3415 19.4846 17.3545 19.7007 17.4206ZM8.37671 17.6717C8.26526 17.8619 8.18428 18.0607 8.2183 18.0607C8.28361 18.0607 8.55573 17.6645 8.55573 17.5694C8.55573 17.4821 8.45365 17.5404 8.37671 17.6717ZM19.762 18.2768C19.7498 18.3086 19.7604 18.3447 19.7869 18.3614C19.8526 18.4029 19.8994 18.3801 19.8994 18.3067C19.8994 18.2267 19.7903 18.203 19.762 18.2768ZM19.399 18.4388C19.3746 18.5023 19.4429 18.6235 19.5031 18.6235C19.5621 18.6235 19.5683 18.4878 19.5119 18.4315C19.4592 18.3788 19.4211 18.3813 19.399 18.4388ZM17.5561 18.482C17.4895 18.5556 17.4317 18.7044 17.4328 18.7994C17.4335 18.8627 17.4505 18.8539 17.5674 18.7301C17.6553 18.637 17.6977 18.564 17.6908 18.5174C17.677 18.4239 17.6219 18.4094 17.5561 18.482ZM18.711 18.5095C18.687 18.572 18.7727 18.789 18.8213 18.789C18.8588 18.789 18.869 18.5962 18.836 18.5103C18.8103 18.4432 18.7366 18.4427 18.711 18.5095ZM18.0944 18.5461C18.0944 18.6251 18.2581 18.8934 18.2931 18.8718C18.3094 18.8617 18.3014 18.784 18.2751 18.6971C18.2489 18.6111 18.2274 18.5296 18.2272 18.5159C18.227 18.5022 18.197 18.4911 18.1606 18.4911C18.1209 18.4911 18.0944 18.5131 18.0944 18.5461ZM7.91853 18.6152C7.89034 18.6471 7.73978 18.9284 7.58398 19.2404C7.31547 19.778 7.01722 20.2817 6.8452 20.4883C6.76634 20.583 6.74021 20.7092 6.79949 20.7092C6.81724 20.7092 6.85679 20.6609 6.88733 20.6018C6.9179 20.5427 6.99053 20.4198 7.04872 20.3287C7.25784 20.0012 7.42195 19.7273 7.59431 19.4181C7.69076 19.2451 7.83473 18.9905 7.91429 18.8523C7.99384 18.7142 8.05892 18.5912 8.05892 18.5792C8.05892 18.5355 7.9686 18.5587 7.91853 18.6152Z" fill="#26AB7B" stroke="#26AB7B" stroke-width="0.5"/>
</svg>
