<svg width="29" height="29" viewBox="0 0 29 29" fill="none" xmlns="http://www.w3.org/2000/svg">
<path d="M28 14.4001C27.9482 21.8885 21.9774 27.9667 14.4445 28.0111C6.99672 28.0592 1.00741 22.0551 1.00001 14.6073C0.992603 7.18179 7.13738 1 14.5296 1C22.0181 1 27.9926 6.94488 28 14.4001ZM14.6259 1.69962C7.37429 1.71072 1.6552 7.6371 1.69592 14.7332C1.73294 21.659 7.4113 27.3263 14.3667 27.3152C21.5184 27.3078 27.3078 21.511 27.3041 14.3667C27.3004 7.36688 21.6183 1.68851 14.6259 1.69962Z" fill="#26AB7B" stroke="#26AB7B" stroke-width="0.5"/>
<path d="M19.5861 14.9849C19.686 14.6851 19.7379 14.6777 20.0525 14.7258C20.3486 14.7702 20.5892 14.8887 20.7965 15.0997C21.0779 15.3847 21.0075 15.6327 20.6226 15.7475C20.6003 15.7549 20.5781 15.766 20.5337 15.7882C20.9927 16.0436 21.2963 16.4397 21.4739 16.8876C21.6479 17.3281 21.6923 17.813 21.5369 18.3016C21.8108 18.4201 21.8219 18.694 21.833 18.9494C21.8552 19.4899 21.8663 20.034 21.87 20.5745C21.87 20.9187 21.8552 21.263 21.8367 21.6072C21.8182 21.9182 21.5998 22.1588 21.2926 22.1884C20.9409 22.2254 20.5818 22.2217 20.2302 22.255C19.7156 22.2994 19.3566 21.8849 19.4195 21.3851C16.0732 21.3851 12.7232 21.3851 9.37317 21.3851C9.36947 21.4444 9.36577 21.4851 9.36207 21.5258C9.33245 21.9737 9.13627 22.1958 8.69577 22.2402C8.36632 22.2735 8.03317 22.292 7.70002 22.292C7.19289 22.2883 6.88565 21.9737 6.87454 21.4703C6.85974 20.7669 6.84863 20.0673 6.84863 19.364C6.84863 19.1308 6.87825 18.8976 6.92267 18.6681C6.94117 18.5793 7.01891 18.4682 7.10035 18.4312C7.2077 18.3794 7.2151 18.3164 7.2225 18.2165C7.24101 17.8611 7.24471 17.5021 7.30394 17.1541C7.33725 16.9653 7.4409 16.7691 7.55935 16.6137C7.76295 16.3471 8.00355 16.1065 8.23306 15.8511C8.14052 15.803 8.04427 15.766 7.96284 15.7105C7.67411 15.5106 7.6704 15.1552 7.97764 14.9849C8.17753 14.8739 8.41074 14.8147 8.63284 14.748C8.79571 14.6999 8.87345 14.7961 8.88455 14.9553C8.88825 15.0257 8.90306 15.096 8.91787 15.2033C9.15848 14.811 9.36207 14.4445 9.59527 14.1002C9.78036 13.8263 9.98025 13.5524 10.2172 13.3229C10.4059 13.1378 10.6502 13.0156 10.939 12.9971C11.4979 12.9601 12.0532 12.8787 12.6121 12.838C13.1156 12.8009 13.6227 12.7787 14.1261 12.775C14.6925 12.7713 15.2588 12.8009 15.8252 12.8121C16.1509 12.8195 16.4767 12.8009 16.8024 12.8121C17.4761 12.8417 18.0092 13.1563 18.4497 13.6486C18.7458 13.9781 19.0493 14.3038 19.3418 14.637C19.4269 14.7406 19.4972 14.8628 19.5861 14.9849ZM7.6704 17.9722C7.85919 17.9574 8.01836 17.9278 8.17383 17.9315C8.82903 17.9426 9.48052 17.9722 10.1357 17.9759C13.1452 17.9981 16.1509 18.0092 19.1604 18.0314C19.8304 18.0351 20.5041 18.0573 21.1741 18.0795C21.3296 18.0832 21.3925 18.0203 21.3888 17.8796C21.374 17.3318 21.2444 16.8247 20.8595 16.4027C20.456 15.9659 19.9155 15.8326 19.3751 15.7882C18.5644 15.7179 17.7501 15.7179 16.9357 15.7179C14.8442 15.7105 12.7565 15.7142 10.6651 15.7179C10.2764 15.7179 9.884 15.692 9.50273 15.7512C8.82903 15.8548 8.20715 16.0658 7.82217 16.7173C7.59637 17.0986 7.60748 17.491 7.62598 17.8982C7.62969 17.9241 7.663 17.9537 7.6704 17.9722ZM7.54455 18.3905C7.55565 18.6126 7.54085 18.7717 7.57786 18.9198C7.71112 19.464 7.85919 20.0044 8.01096 20.5411C8.02576 20.6004 8.07018 20.6633 8.1146 20.704C8.39593 20.952 8.72538 21.0446 9.10295 21.0335C9.93953 21.015 10.7798 21.0076 11.6201 21.015C12.7417 21.0224 13.8633 21.0631 14.9849 21.0631C15.7808 21.0631 16.5729 21.0076 17.3688 20.9927C18.061 20.9779 18.7495 21.0039 19.4417 20.9779C19.7823 20.9631 20.1228 20.8817 20.456 20.8114C20.6818 20.7632 20.8187 20.6004 20.8632 20.3783C20.9113 20.1303 20.9409 19.8785 20.9705 19.6305C21.0149 19.2604 21.0482 18.8902 21.089 18.5089C16.5803 18.4756 12.0939 18.4349 7.54455 18.3905ZM9.85069 14.1891C9.884 14.1484 9.92102 14.1076 9.95433 14.0706C10.1727 13.8411 10.4133 13.6301 10.7317 13.5598C11.2277 13.4487 11.7274 13.3229 12.2309 13.2674C12.7306 13.2118 13.2414 13.2303 13.7448 13.2266C14.7813 13.2192 15.8141 13.2155 16.8505 13.2303C17.0764 13.234 17.3059 13.3155 17.528 13.3858C17.6686 13.4302 17.7945 13.5191 17.9277 13.5894C17.8241 13.4672 17.7056 13.3636 17.5687 13.2933C17.0578 13.0156 16.4841 13.049 15.9325 13.0082C15.3255 12.9675 14.7147 13.0082 14.1039 12.9934C13.1711 12.9749 12.2494 13.0564 11.324 13.1415C10.6243 13.2081 10.1986 13.6375 9.85069 14.1891ZM16.1509 14.0114C16.1435 14.0447 16.1361 14.078 16.1287 14.1113C16.2139 14.1298 16.3027 14.1447 16.3878 14.1669C16.7802 14.2779 17.1874 14.3594 17.4835 14.6851C17.528 14.7332 17.6982 14.7369 17.7538 14.6888C17.8574 14.6074 17.8056 14.4889 17.7167 14.4038C17.6686 14.3594 17.6131 14.3112 17.5539 14.289C17.3836 14.2261 17.2096 14.1595 17.0282 14.1261C16.7395 14.078 16.4434 14.0484 16.1509 14.0114ZM15.2588 13.8781C15.1996 13.9485 15.1293 13.9966 15.1367 14.0262C15.1478 14.0743 15.207 14.1373 15.2514 14.1447C15.2884 14.1521 15.3736 14.0817 15.3736 14.0484C15.3736 14.0003 15.3144 13.9559 15.2588 13.8781Z" fill="#26AB7B" stroke="#26AB7B" stroke-width="0.5"/>
<path d="M11.4128 7.38539C13.0823 7.38539 14.7406 7.38539 16.399 7.38539C16.399 7.4039 16.4027 7.41871 16.4027 7.43721C16.1843 7.45572 15.9622 7.48163 15.7438 7.49274C14.7887 7.54086 13.8374 7.58898 12.8824 7.6371C12.3678 7.66302 11.8496 7.70744 11.3351 7.70744C10.8613 7.70744 10.8243 7.51125 11.0241 7.15219C11.1537 6.91898 11.324 6.70058 11.4943 6.49329C11.7571 6.17494 12.1383 6.11942 12.5159 6.09721C13.6338 6.03058 14.7517 5.87511 15.877 5.95284C16.3027 5.98246 16.7284 6.0787 17.1467 6.16384C17.2578 6.18605 17.3873 6.26378 17.4539 6.35262C17.6686 6.65246 17.8611 6.9671 18.0573 7.27804C18.0795 7.31506 18.0795 7.37058 18.0869 7.415C17.7464 7.58898 16.9431 7.57047 16.7321 7.36318C17.0727 7.28915 17.3947 7.21882 17.7205 7.14478C17.4502 6.61914 17.032 6.34152 16.4434 6.2971C15.0997 6.19345 13.756 6.20826 12.4197 6.36003C11.857 6.42296 11.498 6.80423 11.4128 7.38539Z" fill="#26AB7B" stroke="#26AB7B" stroke-width="0.5"/>
<path d="M21.0447 12.3568C21.3038 12.6122 21.3112 12.9712 21.2446 13.3377C21.3853 13.3488 21.5408 13.3229 21.6555 13.3821C21.9257 13.5191 22.0812 13.7745 22.1515 14.0632C22.2885 14.6074 21.9368 15.1404 21.3853 15.2515C21.3705 15.2552 21.352 15.2478 21.3112 15.2404C21.4334 15.1663 21.5482 15.1071 21.6518 15.0368C22.0257 14.7739 22.1219 14.3408 21.8924 13.9485C21.8443 13.8633 21.7777 13.7893 21.7258 13.7042C21.5704 13.4524 21.3224 13.5043 21.1225 13.656C21.0743 13.6894 21.0114 13.7042 20.9559 13.7301C20.9522 13.6671 20.9374 13.6042 20.9411 13.545C20.9596 13.3266 21.0114 13.1082 21.004 12.8935C20.9966 12.6788 20.9004 12.4826 20.6672 12.4086C20.4228 12.3308 20.1933 12.3753 19.9898 12.5344C19.9564 12.5603 19.9268 12.5937 19.8528 12.6085C19.8639 12.5566 19.8639 12.4937 19.8935 12.453C20.0379 12.2346 20.2674 12.1939 20.508 12.1717C20.582 12.1643 20.6931 12.1939 20.7264 12.1532C20.8078 12.0569 20.8856 11.9385 20.9078 11.8163C20.9337 11.6756 20.9189 11.5202 20.8856 11.3758C20.7893 10.9464 20.4414 10.7613 19.9342 10.8761C19.5418 10.9649 19.2568 11.2129 19.0421 11.5461C19.0162 11.5868 19.0014 11.6386 18.9718 11.6756C18.9052 11.7534 18.8311 11.8237 18.7608 11.8977C18.7016 11.8126 18.6201 11.7349 18.5905 11.6386C18.5017 11.3499 18.3092 11.1722 18.0242 11.1648C17.7169 11.1574 17.406 11.2388 17.2505 11.5387C17.1876 11.6608 17.2246 11.8459 17.2283 11.9977C17.232 12.1087 17.3134 12.2605 17.1432 12.2864C16.984 12.3086 16.9618 12.1606 16.947 12.031C16.8729 11.398 17.1432 11.1574 17.7762 11.013C18.2129 10.9131 18.5017 11.0723 18.7534 11.5239C18.883 11.1019 19.1828 10.8576 19.5344 10.6503C19.8898 10.4393 20.2785 10.4097 20.6598 10.4763C21.1632 10.5688 21.4741 11.1463 21.3298 11.6979C21.2668 11.9163 21.1447 12.1198 21.0447 12.3568Z" fill="#26AB7B" stroke="#26AB7B" stroke-width="0.5"/>
<path d="M8.44051 13.4154C8.35907 13.2969 8.27393 13.1785 8.1962 13.0563C8.05183 12.8305 7.9926 12.8268 7.7557 12.949C7.67426 12.9897 7.50768 12.9971 7.46326 12.949C7.36702 12.8416 7.47807 12.7491 7.57431 12.6862C7.82233 12.527 7.90006 12.2901 7.81492 12.0014C7.80012 11.9495 7.82233 11.8829 7.82973 11.8237C7.88155 11.857 7.96669 11.8755 7.9815 11.9236C8.08885 12.2272 8.32205 12.3012 8.60708 12.3049C8.6515 12.3049 8.69222 12.3345 8.73664 12.353C8.71443 12.3974 8.70332 12.4604 8.66631 12.4826C8.52194 12.5714 8.49973 12.6936 8.51084 12.849C8.52194 13.0304 8.51454 13.2118 8.51454 13.3932C8.48493 13.4006 8.46272 13.408 8.44051 13.4154ZM8.38498 12.4567C8.27023 12.4307 8.16658 12.4085 8.04813 12.3826C8.02962 12.4863 8.01111 12.5825 7.9926 12.6751C8.09255 12.7232 8.17769 12.7639 8.25542 12.8009C8.29984 12.6862 8.34056 12.5751 8.38498 12.4567Z" fill="#26AB7B" stroke="#26AB7B" stroke-width="0.5"/>
<path d="M15.7623 10.4467C15.766 10.1431 15.951 10.0025 16.3286 10.0099C16.5137 10.0136 16.758 10.3208 16.758 10.5429C16.758 10.7465 16.547 10.9242 16.3138 10.9131C15.9844 10.902 15.7586 10.7132 15.7623 10.4467ZM16.2953 10.1468C16.0991 10.1505 15.9399 10.2949 15.9399 10.4689C15.9399 10.6355 16.1028 10.7687 16.3101 10.7724C16.4656 10.7761 16.6544 10.6207 16.647 10.4948C16.6432 10.3467 16.4397 10.1468 16.2953 10.1468Z" fill="#26AB7B" stroke="#26AB7B" stroke-width="0.5"/>
<path d="M11.4054 9.05856C11.2981 8.83646 11.535 8.23309 11.7867 8.09242C11.92 8.34043 11.6831 8.9364 11.4054 9.05856Z" fill="#26AB7B" stroke="#26AB7B" stroke-width="0.5"/>
<path d="M19.1198 12.6047C19.2863 12.6047 19.4455 12.7306 19.4529 12.8713C19.4566 12.9971 19.2641 13.1748 19.1124 13.1822C18.9051 13.197 18.7422 13.1156 18.7274 12.9823C18.7015 12.7972 18.8236 12.6269 18.9495 12.6084C18.9236 12.7269 18.894 12.8639 18.8643 12.9971C18.9902 12.9897 19.1568 13.0304 19.2382 12.9638C19.4714 12.7861 19.105 12.7491 19.1198 12.6047Z" fill="#26AB7B" stroke="#26AB7B" stroke-width="0.5"/>
<path d="M22.5141 13.1859C22.5844 13.2896 22.4326 13.4857 22.651 13.4746C22.6954 13.4709 22.7362 13.3377 22.7991 13.2266C22.8657 13.2192 22.9138 13.3081 22.9212 13.408C22.9286 13.5524 22.8324 13.6338 22.7028 13.6634C22.5622 13.693 22.4215 13.6708 22.3549 13.5265C22.2883 13.3747 22.3771 13.2711 22.5141 13.1859Z" fill="#26AB7B" stroke="#26AB7B" stroke-width="0.5"/>
<path d="M8.05535 13.7634C7.9443 13.8374 7.85916 13.9633 7.95911 14.1483C7.9443 14.1483 7.92579 14.152 7.91098 14.152C7.88137 14.1298 7.85546 14.1039 7.82215 14.0817C7.76292 14.041 7.70739 14.004 7.64817 13.9633C7.61855 13.9447 7.55933 13.9225 7.55933 13.9114C7.58894 13.7856 7.62596 13.6597 7.66297 13.5339C7.70739 13.5487 7.75181 13.5524 7.78883 13.5746C7.87397 13.6301 7.9554 13.6893 8.05535 13.7634Z" fill="#26AB7B" stroke="#26AB7B" stroke-width="0.5"/>
<path d="M17.5686 9.23621C17.6204 9.15477 17.6463 9.07334 17.6834 9.06593C17.7352 9.05483 17.8314 9.08074 17.8536 9.12146C17.9166 9.23621 17.9684 9.36577 17.9943 9.49533C18.0165 9.59527 17.924 9.63969 17.8573 9.58047C17.75 9.48422 17.6648 9.35837 17.5686 9.23621Z" fill="#26AB7B" stroke="#26AB7B" stroke-width="0.5"/>
<path d="M12.9008 8.82903C12.8083 8.61434 12.8046 8.42925 12.8712 8.24787C12.886 8.20715 12.9527 8.15533 12.9897 8.15903C13.0267 8.16273 13.0822 8.22196 13.0896 8.26638C13.1303 8.46997 13.0822 8.65135 12.9008 8.82903Z" fill="#26AB7B" stroke="#26AB7B" stroke-width="0.5"/>
<path d="M13.0637 9.76188C13.0007 9.85812 12.9341 9.95066 12.8712 10.0469C12.8342 9.93956 12.7935 9.83221 12.7601 9.72486C12.7527 9.69895 12.749 9.65453 12.7638 9.63602C12.8046 9.57679 12.8564 9.52497 12.9045 9.47314C12.9415 9.52867 12.9822 9.58419 13.0119 9.64342C13.023 9.66933 13.0156 9.70265 13.0156 9.73596C13.0304 9.73967 13.0489 9.75077 13.0637 9.76188Z" fill="#26AB7B" stroke="#26AB7B" stroke-width="0.5"/>
<path d="M10.8093 10.1764C10.7982 9.95435 10.8648 9.78777 11.0018 9.65081C11.0277 9.6286 11.0869 9.6138 11.1128 9.6249C11.1387 9.63971 11.1573 9.69523 11.1573 9.73225C11.1684 9.89512 11.024 10.0876 10.8093 10.1764Z" fill="#26AB7B" stroke="#26AB7B" stroke-width="0.5"/>
<path d="M14.5628 11.2203C14.4037 11.1093 14.3407 10.8946 14.4185 10.7502C14.4666 10.6614 14.5295 10.6466 14.5814 10.7428C14.6591 10.8946 14.6776 11.0537 14.5628 11.2203Z" fill="#26AB7B" stroke="#26AB7B" stroke-width="0.5"/>
<path d="M12.8306 11.4017C12.7047 11.2943 12.6492 11.0722 12.7269 10.9464C12.7454 10.9131 12.7973 10.8723 12.8195 10.8797C12.8565 10.8908 12.912 10.9353 12.912 10.9686C12.9157 11.1129 12.9046 11.2573 12.9009 11.4017C12.8787 11.4017 12.8528 11.4017 12.8306 11.4017Z" fill="#26AB7B" stroke="#26AB7B" stroke-width="0.5"/>
<path d="M14.4186 8.02577C14.5111 8.24417 14.537 8.43666 14.426 8.64025C14.2409 8.48848 14.2298 8.21456 14.4186 8.02577Z" fill="#26AB7B" stroke="#26AB7B" stroke-width="0.5"/>
<path d="M14.4555 9.88771C14.4222 9.76185 14.374 9.63599 14.3555 9.51014C14.3481 9.47312 14.4185 9.4213 14.4518 9.37688C14.4925 9.41389 14.5628 9.44721 14.5665 9.48793C14.5813 9.61378 14.5739 9.74334 14.5739 9.8692C14.5332 9.8766 14.4925 9.88401 14.4555 9.88771Z" fill="#26AB7B" stroke="#26AB7B" stroke-width="0.5"/>
<path d="M16.0213 8.42926C15.9769 8.31821 15.9214 8.20716 15.8881 8.09241C15.8807 8.05909 15.9399 8.01097 15.9658 7.96655C16.0065 7.99617 16.0695 8.02208 16.0769 8.05909C16.1028 8.17385 16.1028 8.2886 16.1139 8.40705C16.0843 8.41446 16.0547 8.42186 16.0213 8.42926Z" fill="#26AB7B" stroke="#26AB7B" stroke-width="0.5"/>
<path d="M17.3762 7.97765C17.528 8.14052 17.5798 8.30709 17.5687 8.50699C17.4132 8.42185 17.3355 8.22566 17.3762 7.97765Z" fill="#26AB7B" stroke="#26AB7B" stroke-width="0.5"/>
<path d="M10.5725 11.3499C10.5096 11.1648 10.6059 11.0797 10.7317 11.0093C10.7502 10.9982 10.828 11.0463 10.8243 11.0574C10.7983 11.1944 10.728 11.3018 10.5725 11.3499Z" fill="#26AB7B" stroke="#26AB7B" stroke-width="0.5"/>
<path d="M14.6666 11.9718C14.6851 12.0865 14.7036 12.1976 14.7295 12.3493C14.563 12.2198 14.5445 12.1309 14.6666 11.9718Z" fill="#26AB7B" stroke="#26AB7B" stroke-width="0.5"/>
<path d="M20.1081 17.6057C19.8823 17.5872 19.6528 17.5761 19.427 17.5539C19.3493 17.5465 19.2678 17.5206 19.2012 17.4835C18.9606 17.3577 18.9199 17.1504 19.1309 16.9838C19.5307 16.6692 19.9712 16.4471 20.5079 16.5285C20.8892 16.5877 21.1335 17.0838 20.9299 17.4206C20.8818 17.5021 20.7596 17.5724 20.6634 17.5835C20.482 17.6094 20.2969 17.5909 20.1118 17.5909C20.1081 17.5983 20.1081 17.602 20.1081 17.6057ZM19.3086 17.1837C19.3123 17.2022 19.316 17.2207 19.3197 17.2392C19.7565 17.2392 20.1896 17.2392 20.6597 17.2392C20.6264 17.0875 20.6004 16.9542 20.5745 16.8284C20.06 16.7025 19.6824 16.9357 19.3086 17.1837Z" fill="#26AB7B" stroke="#26AB7B" stroke-width="0.5"/>
<path d="M8.84747 17.6612C8.65128 17.6501 8.45509 17.6501 8.2589 17.6279C7.97017 17.5946 7.84431 17.3688 7.96277 17.1097C8.0257 16.969 8.09603 16.832 8.17376 16.6988C8.2589 16.5507 8.41067 16.4915 8.55504 16.5618C8.86968 16.7136 9.17321 16.8839 9.47305 17.0615C9.5915 17.1319 9.66924 17.2688 9.59891 17.3947C9.54708 17.4872 9.42863 17.5687 9.32128 17.5983C9.16951 17.6427 9.00294 17.6316 8.84377 17.6464C8.85117 17.6501 8.84747 17.6575 8.84747 17.6612ZM8.27741 16.8172C8.2515 16.932 8.21448 17.0208 8.21448 17.106C8.21448 17.1689 8.2552 17.2836 8.29592 17.291C8.58835 17.3466 8.88448 17.3244 9.18062 17.254C8.93631 17.0023 8.61796 16.932 8.27741 16.8172Z" fill="#26AB7B" stroke="#26AB7B" stroke-width="0.5"/>
<path d="M13.5929 20.145C12.9895 20.145 12.3861 20.145 11.7828 20.145C11.5089 20.145 11.4052 20.0303 11.4237 19.7564C11.4348 19.5676 11.4533 19.3751 11.4718 19.1863C11.4903 18.9827 11.5681 18.9235 11.7717 18.9198C12.3861 18.905 13.0006 18.8791 13.6151 18.8717C14.0519 18.868 14.4887 18.8828 14.9255 18.8976C15.3253 18.9124 15.7214 18.942 16.1211 18.9679C16.2618 18.9753 16.4025 18.9901 16.5394 19.0086C16.706 19.0271 16.7726 19.153 16.7763 19.2937C16.7837 19.4824 16.7689 19.6749 16.7356 19.8637C16.706 20.0414 16.5357 20.1561 16.3395 20.1561C15.9694 20.1561 15.6029 20.1487 15.2327 20.1487C14.6886 20.145 14.1407 20.145 13.5929 20.145ZM13.0302 19.8119C13.0006 19.5639 12.9747 19.3418 12.9451 19.1197C12.8192 19.1197 12.7156 19.1197 12.6453 19.1197C12.6453 19.3566 12.6453 19.5824 12.6453 19.8119C12.7822 19.8119 12.8896 19.8119 13.0302 19.8119ZM12.0345 19.8822C12.016 19.6416 12.0049 19.4195 11.9716 19.2048C11.9642 19.1678 11.8679 19.1271 11.8087 19.116C11.7791 19.1123 11.7087 19.1752 11.7087 19.2048C11.7087 19.4306 11.7235 19.6527 11.7347 19.8822C11.8272 19.8822 11.9123 19.8822 12.0345 19.8822ZM12.1715 19.8526C12.2825 19.8452 12.3713 19.8415 12.4787 19.8378C12.4602 19.5861 12.4454 19.3529 12.4269 19.1234C12.1715 19.0901 12.1715 19.0901 12.1715 19.3307C12.1715 19.4973 12.1715 19.6638 12.1715 19.8526ZM13.989 19.8156C13.9705 19.5861 13.952 19.3751 13.9334 19.1567C13.8372 19.1567 13.7558 19.1567 13.6595 19.1567C13.6595 19.3825 13.6595 19.6009 13.6595 19.8304C13.7669 19.8267 13.8705 19.8193 13.989 19.8156ZM15.5955 19.19C15.4807 19.19 15.3697 19.19 15.2549 19.19C15.2549 19.3899 15.2549 19.575 15.2549 19.7675C15.3697 19.7675 15.4807 19.7675 15.5955 19.7675C15.5955 19.5713 15.5955 19.3899 15.5955 19.19ZM14.5368 19.7786C14.522 19.575 14.5109 19.3825 14.4961 19.19C14.3962 19.19 14.311 19.19 14.2185 19.19C14.2185 19.401 14.2185 19.6009 14.2185 19.8119C14.3258 19.8008 14.4221 19.7897 14.5368 19.7786ZM13.2264 19.1382C13.2116 19.3714 13.2005 19.5861 13.1894 19.8119C13.282 19.8119 13.3671 19.8119 13.4744 19.8119C13.4559 19.5935 13.4337 19.3751 13.4152 19.1493C13.3523 19.1456 13.3005 19.1419 13.2264 19.1382ZM16.0471 19.7823C16.0471 19.5602 16.0471 19.3529 16.0471 19.0938C15.9657 19.1567 15.8879 19.1863 15.8768 19.227C15.8435 19.4047 15.8287 19.5861 15.8065 19.7823C15.8916 19.7823 15.962 19.7823 16.0471 19.7823ZM15.0143 19.7786C15.0143 19.575 15.0143 19.3862 15.0143 19.1974C14.9366 19.1974 14.8737 19.1974 14.7996 19.1974C14.7996 19.401 14.7996 19.5861 14.7996 19.7786C14.8774 19.7786 14.944 19.7786 15.0143 19.7786ZM16.2026 19.8193C16.2877 19.7749 16.3877 19.749 16.3951 19.7082C16.4321 19.538 16.4395 19.364 16.4617 19.19C16.3358 19.1937 16.2655 19.364 16.2026 19.8193Z" fill="#26AB7B" stroke="#26AB7B" stroke-width="0.5"/>
<path d="M9.08822 18.9976C9.23999 19.0198 9.37695 19.0975 9.42507 19.2715C9.4843 19.4973 9.53612 19.7231 9.57314 19.9526C9.60275 20.1303 9.44728 20.2746 9.27331 20.2154C9.15115 20.1747 9.01419 20.0859 8.95126 19.9785C8.85132 19.8008 8.79579 19.5935 8.73656 19.3936C8.68474 19.216 8.87723 18.9976 9.08822 18.9976Z" fill="#26AB7B" stroke="#26AB7B" stroke-width="0.5"/>
<path d="M7.88135 19.2011C7.93317 19.1271 7.97389 19.0234 8.04792 18.9827C8.10715 18.9494 8.22931 18.9716 8.28483 19.016C8.37367 19.0901 8.46251 19.1937 8.49953 19.3048C8.58096 19.5602 8.63649 19.8267 8.69201 20.0895C8.70312 20.1487 8.67721 20.2672 8.64389 20.2746C8.57726 20.2931 8.47362 20.2783 8.4292 20.2339C8.31074 20.1117 8.18859 19.9785 8.11455 19.8304C8.01461 19.6379 7.95908 19.4269 7.88135 19.2011Z" fill="#26AB7B" stroke="#26AB7B" stroke-width="0.5"/>
<path d="M20.7631 19.1789C20.7002 19.5491 20.5299 19.8711 20.3004 20.1673C20.2671 20.208 20.1597 20.2228 20.1042 20.2006C20.0598 20.1858 20.0117 20.0895 20.0191 20.0414C20.0746 19.6823 20.1375 19.3233 20.3485 19.016C20.3929 18.9531 20.5151 18.9013 20.5928 18.9161C20.715 18.9309 20.7927 19.0308 20.7631 19.1789Z" fill="#26AB7B" stroke="#26AB7B" stroke-width="0.5"/>
<path d="M19.8823 19.3307C19.8416 19.5083 19.8268 19.6564 19.7749 19.7934C19.7453 19.8748 19.675 19.9525 19.6047 19.997C19.5528 20.0303 19.4603 20.0266 19.4011 20.0007C19.3678 19.9859 19.3455 19.8896 19.3566 19.8378C19.4085 19.649 19.4677 19.4602 19.5528 19.2862C19.5825 19.227 19.7046 19.1974 19.786 19.19C19.8157 19.1937 19.8564 19.2936 19.8823 19.3307Z" fill="#26AB7B" stroke="#26AB7B" stroke-width="0.5"/>
</svg>
