<svg width="29" height="29" viewBox="0 0 29 29" fill="none" xmlns="http://www.w3.org/2000/svg">
<path d="M28 14.4055C27.9444 21.8958 21.9699 27.9703 14.4388 28.0148C6.98929 28.0593 1.00371 22.0515 1 14.6019C0.996295 7.1746 7.14125 1 14.5352 1C22.0218 1.00371 27.9926 6.94852 28 14.4055ZM14.6242 1.70048C7.37474 1.7116 1.65601 7.63789 1.69307 14.7353C1.73013 21.6623 7.40809 27.3255 14.3647 27.318C21.5141 27.3106 27.3069 21.5141 27.3032 14.3684C27.2995 7.36733 21.6178 1.68936 14.6242 1.70048Z" fill="#26AB7B" stroke="#26AB7B" stroke-width="0.5"/>
<path d="M7.61941 15.6989C7.2006 15.3098 7.09312 14.7613 6.82627 14.3017C6.39635 14.4351 6.08132 14.1053 5.99978 13.7569C5.95901 13.5827 5.92566 13.4048 5.92936 13.2269C5.93307 13.0638 5.99608 12.9007 6.04426 12.6895C5.90713 12.141 5.83671 11.5294 5.98866 10.9105C6.02573 10.7696 6.11097 10.6214 6.21474 10.5139C6.71879 9.99503 7.3192 9.63923 8.03451 9.48357C8.34954 9.41315 8.65716 9.34274 8.9796 9.4391C9.00925 9.44651 9.05743 9.42057 9.09079 9.39833C9.35023 9.23525 9.62078 9.20931 9.90246 9.3205C10.4547 9.53917 10.8142 9.94315 10.9699 10.5139C11.0625 10.8475 11.1181 11.1922 11.1922 11.5405C11.2108 11.5368 11.2515 11.5257 11.2923 11.5146C11.5332 11.4553 11.7333 11.5405 11.7778 11.7814C11.8297 12.0631 11.8482 12.3559 11.826 12.6413C11.8038 12.923 11.6629 13.0193 11.385 13.0416C11.2849 13.8162 11.2923 14.6278 10.6696 15.2505C10.7438 15.295 10.8031 15.3246 10.855 15.3691C10.918 15.4173 11.0143 15.4729 11.0217 15.5322C11.0477 15.7657 11.2293 15.7694 11.3887 15.8175C11.6444 15.8917 11.8964 15.9695 12.1521 16.0325C12.3375 16.077 12.4857 16.1585 12.5598 16.4105C12.6933 16.1289 12.797 15.888 12.9156 15.6582C13.2751 14.9577 13.6421 14.2609 14.0053 13.5604C14.072 13.4344 14.135 13.3084 14.2165 13.1935C14.2536 13.1416 14.3351 13.1194 14.3981 13.086C14.413 13.1565 14.4574 13.238 14.4389 13.301C14.3648 13.5234 14.2832 13.742 14.1832 13.9533C13.8756 14.5982 13.5605 15.2394 13.2529 15.8843C13.1417 16.1178 13.0417 16.355 12.9453 16.5959C12.9268 16.6477 12.923 16.7441 12.9564 16.7701C13.5272 17.2741 13.9348 17.9079 14.4018 18.4972C14.5723 18.7121 14.7317 18.9419 14.8836 19.1717C14.9281 19.2347 14.9355 19.3199 14.9726 19.4237C14.6316 19.357 14.4463 19.1495 14.2647 18.9308C13.7644 18.323 13.2529 17.7226 12.7414 17.1147C12.5302 17.667 12.3189 18.2155 12.1077 18.7751C12.1596 18.7788 12.204 18.7862 12.2522 18.79C12.5932 18.8011 12.7637 18.9456 12.7563 19.2866C12.7489 19.5794 12.6821 19.8685 12.6265 20.1576C12.5932 20.3318 12.5154 20.4985 12.4857 20.6727C12.4116 21.0767 12.141 21.2657 11.7667 21.2954C11.3516 21.3324 10.9328 21.3176 10.514 21.351C10.3657 21.3621 10.2286 21.4547 10.0804 21.4844C9.40212 21.6289 8.70905 21.7327 8.04192 21.918C7.40074 22.0922 6.74844 22.1626 6.09614 22.2405C5.4772 22.3146 4.93238 21.7549 4.85084 21.1916C4.68036 20.0204 4.83231 18.8567 4.92497 17.6892C4.93979 17.5187 5.02133 17.3445 5.09546 17.1852C5.18441 16.9924 5.33636 16.8775 5.54762 16.8071C5.77741 16.733 5.99237 16.6033 6.20733 16.4884C6.64467 16.2512 7.0783 16.0066 7.51563 15.7657C7.53787 15.7434 7.56752 15.7286 7.61941 15.6989ZM6.75956 11.8407C6.61502 12.0779 6.53348 12.3226 6.58907 12.5968C6.6076 12.6858 6.63355 12.7784 6.64096 12.8674C6.65579 13.0453 6.57054 13.1194 6.41118 13.0564C6.28146 13.0082 6.23698 13.0712 6.25181 13.1676C6.27404 13.3344 6.3111 13.5048 6.3704 13.6642C6.44823 13.8755 6.57054 13.9125 6.78551 13.8495C6.8411 13.831 6.95229 13.8458 6.97082 13.8829C7.14131 14.1905 7.29697 14.5018 7.45263 14.8169C7.69724 15.3061 7.99374 15.6989 8.61639 15.7286C9.06114 15.7471 9.48736 15.7657 9.88393 15.5285C10.2879 15.2838 10.6585 14.9873 10.7845 14.5204C10.918 14.0311 10.981 13.5197 11.0625 13.0156C11.0885 12.86 11.1366 12.7525 11.2997 12.7043C11.3553 12.6895 11.422 12.6116 11.4294 12.556C11.4554 12.3856 11.4628 12.2151 11.4628 12.0409C11.4628 11.9631 11.4183 11.8222 11.3924 11.8222C11.3034 11.8185 11.1996 11.8482 11.1292 11.9C10.918 12.0594 10.8031 12.0372 10.6771 11.8111C10.5325 11.5554 10.3731 11.3108 10.2434 11.0995C9.80609 11.3515 9.40582 11.5739 9.00925 11.8074C8.27542 12.241 7.53787 12.33 6.75956 11.8407ZM7.12648 20.1242C7.00788 19.8092 6.91152 19.4941 6.77438 19.2051C6.47047 18.5676 6.14803 17.9375 5.82929 17.3075C5.79223 17.237 5.69957 17.1221 5.66622 17.1333C5.57727 17.1629 5.46979 17.2333 5.43273 17.3149C5.35119 17.4928 5.26965 17.6818 5.25482 17.8745C5.18441 18.8604 5.07693 19.8462 5.13252 20.8395C5.17329 21.577 5.69587 22.0107 6.42971 21.8773C7.06347 21.7661 7.69724 21.6364 8.33101 21.5103C8.79429 21.4177 9.25757 21.3213 9.72456 21.2324C9.85798 21.2064 9.89134 21.1434 9.8691 21.0137C9.84687 20.8951 9.85428 20.7691 9.83204 20.6468C9.78386 20.3836 9.72827 20.1242 9.67267 19.8574C8.6238 20.0686 7.62311 20.2391 6.61131 20.3651C6.6039 20.3355 6.59649 20.3021 6.58907 20.2725C6.75215 20.228 6.91893 20.1798 7.12648 20.1242ZM5.96643 16.9517C6.6039 17.9523 7.18948 18.9382 7.5564 20.0501C8.00486 19.9426 8.43849 19.8351 8.87212 19.7313C8.76834 19.105 8.83135 18.512 9.01296 17.9301C8.94625 17.8745 8.88324 17.8263 8.81653 17.7707C8.79429 17.8115 8.77576 17.8449 8.75723 17.8745C8.61639 18.0895 8.45331 18.0895 8.31248 17.8708C8.27171 17.8078 8.23465 17.7411 8.21241 17.6744C8.11975 17.3927 8.0308 17.111 7.94556 16.8294C7.87514 16.5959 7.80472 16.3624 7.7306 16.1103C7.66018 16.1474 7.6157 16.1733 7.56382 16.1956C7.28585 16.3216 7.00417 16.4476 6.72621 16.5773C6.47789 16.6996 6.22586 16.8256 5.96643 16.9517ZM10.4732 19.3088C10.7067 19.079 10.981 18.8752 11.3368 18.8122C11.3627 18.8085 11.3924 18.7677 11.4072 18.7381C11.7111 18.1228 12.015 17.5039 12.3152 16.8849C12.4487 16.6144 12.3819 16.4847 12.0817 16.4105C11.7 16.3142 11.3182 16.2141 10.9773 15.9658C10.8772 16.2364 10.7808 16.4921 10.6919 16.7515C10.6178 16.9739 10.5585 17.2 10.4806 17.4223C10.3917 17.6781 10.2249 17.7226 10.0099 17.5632C9.9877 17.5447 9.96176 17.5261 9.9247 17.4965C9.88393 17.578 9.86169 17.6558 9.81721 17.7188C9.72826 17.8412 9.74309 17.9375 9.81721 18.0672C10.0433 18.4675 10.2508 18.8826 10.4732 19.3088ZM10.3139 20.9618C10.3732 20.9729 10.4436 20.9766 10.5066 20.9989C10.9217 21.1545 11.3442 21.1175 11.7519 20.9952C11.9001 20.9507 12.0966 20.858 12.1521 20.7357C12.3597 20.265 12.4412 19.761 12.4412 19.2458C12.4412 19.142 12.3931 19.1087 12.293 19.1124C12.1077 19.1198 11.9224 19.1235 11.7408 19.1198C11.3071 19.1087 10.9365 19.2384 10.6474 19.5831C10.5511 19.698 10.4213 19.7906 10.2953 19.8796C10.2323 19.9241 10.1508 19.9463 10.0729 19.976C10.1471 20.2873 10.2286 20.6134 10.3139 20.9618ZM8.47185 17.6151C8.49408 17.6077 8.51261 17.604 8.53485 17.5965C8.67198 17.3408 8.81282 17.0814 8.94624 16.8331C8.55338 16.6922 8.18647 16.5291 8.12346 16.0399C8.11975 16.0066 8.06045 15.9843 8.0271 15.9547C8.01598 15.9695 8.00115 15.9806 7.99004 15.9954C8.1494 16.5366 8.31248 17.074 8.47185 17.6151ZM8.57933 16.1252C8.8017 16.4217 9.09449 16.5291 9.41694 16.4365C9.79497 16.329 10.0766 16.1103 10.1952 15.7175C9.70232 16.0288 9.17974 16.1919 8.57933 16.1252ZM10.1619 17.0554C10.3064 16.707 10.451 16.3772 10.577 16.0362C10.6103 15.9399 10.5844 15.825 10.5881 15.7175C10.4992 15.799 10.3769 15.8657 10.3324 15.9695C10.2138 16.2326 10.0433 16.4365 9.79868 16.5847C9.76903 16.5996 9.74679 16.6255 9.72456 16.644C9.87281 16.7812 10.0099 16.9109 10.1619 17.0554Z" fill="#26AB7B" stroke="#26AB7B" stroke-width="0.5"/>
<path d="M20.543 16.2994C20.7394 16.266 20.9359 16.2179 21.136 16.1993C21.8476 16.1289 22.5592 16.0696 23.2708 16.0066C23.3634 15.9992 23.4561 16.0066 23.5488 16.0066C23.6525 16.0103 23.7748 16.0326 23.7711 15.8695C23.7674 15.7323 23.7304 15.6063 23.5636 15.5952C23.4524 15.5878 23.3412 15.5952 23.23 15.5989C22.5888 15.6249 21.9514 15.6582 21.3102 15.6768C19.9426 15.7138 18.575 15.7509 17.2074 15.7731C16.5921 15.7842 15.9732 15.7546 15.358 15.7398C15.2727 15.7361 15.1912 15.7101 15.0763 15.6916C15.1986 15.5396 15.3468 15.5322 15.484 15.5248C15.9398 15.5063 16.3957 15.51 16.8516 15.4877C17.7818 15.4396 18.7084 15.3765 19.635 15.3247C20.3169 15.2876 20.9989 15.2542 21.6845 15.232C22.0477 15.2209 22.4109 15.2283 22.7742 15.232C22.889 15.232 23.0039 15.232 23.1411 15.232C23.1411 13.1231 23.1411 11.0477 23.1411 8.9425C22.8297 8.9425 22.5332 8.9425 22.2405 8.9425C21.5993 8.9388 20.9581 8.92768 20.3169 8.93138C19.609 8.93509 18.9011 8.95733 18.1932 8.96474C17.4112 8.97215 16.6292 8.96845 15.8472 8.97586C15.5136 8.97957 15.1838 8.9981 14.8502 9.00922C14.5426 9.02034 14.235 9.03145 13.9273 9.04628C13.6716 9.0574 13.4122 9.06852 13.1564 9.08334C13.0156 9.09075 12.9192 9.21306 12.9192 9.36502C12.9267 9.92095 12.9304 10.4732 12.9415 11.0291C12.96 11.7185 12.9934 12.4078 13.0082 13.0935C13.0156 13.3529 12.9823 13.6087 12.9823 13.8681C12.9823 14.1646 13.0119 14.4574 13.0119 14.7539C13.0119 14.8577 12.9637 14.9614 12.9415 15.0578C12.7043 15.0541 12.6598 14.9318 12.6524 14.7576C12.6302 13.8829 12.6042 13.0083 12.5746 12.1373C12.5449 11.3627 12.5004 10.5881 12.4708 9.80977C12.4597 9.52809 12.4782 9.24271 12.4819 8.96103C12.4856 8.72384 12.6042 8.61265 12.8377 8.60894C15.9213 8.57559 19.0012 8.53852 22.0848 8.50887C22.4851 8.50517 22.8853 8.54594 23.2856 8.56447C23.4153 8.57188 23.4895 8.62747 23.4895 8.77202C23.5117 9.84312 23.5488 10.9142 23.5599 11.9853C23.5673 12.7748 23.5339 13.5605 23.5339 14.3499C23.5339 14.6242 23.5636 14.9021 23.5821 15.1875C23.6192 15.1912 23.6525 15.1949 23.6896 15.1949C24.075 15.1912 24.1529 15.2617 24.1862 15.6434C24.1899 15.6805 24.1899 15.7175 24.1899 15.7546C24.1825 16.2586 24.0936 16.3291 23.5932 16.3476C22.9409 16.3735 22.2886 16.4291 21.64 16.4662C21.3621 16.481 21.0841 16.4921 20.8098 16.4847C20.7172 16.481 20.6282 16.4217 20.5356 16.3846C20.5356 16.3476 20.5393 16.3253 20.543 16.2994Z" fill="#26AB7B" stroke="#26AB7B" stroke-width="0.5"/>
<path d="M21.5584 10.2916C21.3361 10.3175 21.1137 10.3509 20.8913 10.3657C20.5466 10.3879 20.202 10.3916 19.861 10.4102C18.5823 10.4843 17.3037 10.5658 16.0213 10.5177C15.9509 10.5139 15.8805 10.4621 15.8101 10.4287C15.8805 10.3879 15.9472 10.3138 16.0176 10.3101C16.4661 10.2916 16.9145 10.2879 17.3667 10.273C18.2932 10.2397 19.2235 10.1952 20.1501 10.1656C20.5763 10.1507 20.9988 10.1619 21.425 10.1656C21.4732 10.1656 21.5177 10.2026 21.5659 10.2249C21.5622 10.2471 21.5584 10.2693 21.5584 10.2916Z" fill="#26AB7B" stroke="#26AB7B" stroke-width="0.5"/>
<path d="M15.8286 12.2225C15.9398 12.2003 16.0547 12.1595 16.1659 12.1595C16.6032 12.1521 17.0406 12.1595 17.4779 12.1558C18.0561 12.1558 18.6342 12.1521 19.2161 12.1521C19.2717 12.1521 19.3236 12.1929 19.3792 12.2151C19.3273 12.241 19.2754 12.2892 19.2198 12.2966C18.864 12.3337 18.5119 12.3671 18.1561 12.3856C17.9115 12.3967 17.6632 12.3782 17.4186 12.3745C16.9813 12.3708 16.5439 12.3708 16.1066 12.3634C16.0139 12.3634 15.925 12.3337 15.8323 12.3152C15.8323 12.2892 15.8323 12.2559 15.8286 12.2225Z" fill="#26AB7B" stroke="#26AB7B" stroke-width="0.5"/>
<path d="M19.2866 11.4368C18.9752 11.4368 18.6602 11.4368 18.3489 11.4331C18.3155 11.4331 18.2785 11.3997 18.2451 11.3812C18.2711 11.3553 18.2933 11.3182 18.3267 11.3034C18.3748 11.2811 18.4341 11.27 18.486 11.2663C19.2124 11.2367 19.9352 11.2107 20.6616 11.1848C20.795 11.1811 20.9321 11.1588 21.0656 11.1588C21.11 11.1588 21.1545 11.2033 21.199 11.2256C21.1582 11.2626 21.1175 11.3256 21.073 11.3293C20.9284 11.3479 20.7765 11.3367 20.6319 11.3479C20.1835 11.3849 19.7387 11.4294 19.2903 11.4702C19.2866 11.459 19.2866 11.4479 19.2866 11.4368Z" fill="#26AB7B" stroke="#26AB7B" stroke-width="0.5"/>
<path d="M17.6818 11.3812C17.5854 11.4034 17.4891 11.4368 17.389 11.4405C16.9479 11.459 16.5032 11.4701 16.0622 11.4776C16.0103 11.4776 15.9584 11.4368 15.9065 11.4145C15.9361 11.3738 15.9584 11.3071 15.9954 11.2997C16.5403 11.1811 17.0851 11.1292 17.6299 11.2997C17.6447 11.3034 17.6596 11.3182 17.6707 11.3293C17.6781 11.3441 17.6781 11.3627 17.6818 11.3812Z" fill="#26AB7B" stroke="#26AB7B" stroke-width="0.5"/>
</svg>
