<svg width="29" height="29" viewBox="0 0 29 29" fill="none" xmlns="http://www.w3.org/2000/svg">
<path d="M28 14.3401C27.9444 21.7918 21.9662 27.8313 14.4351 27.8755C6.98559 27.9161 1.00371 21.9392 1 14.5281C1 7.13908 7.14496 0.996315 14.5389 1C22.0255 1.00738 27.9963 6.92154 28 14.3401ZM14.6205 1.69687C7.37474 1.71162 1.65601 7.60735 1.69678 14.6645C1.73384 21.5521 7.41551 27.1897 14.3721 27.1787C21.5215 27.1676 27.3106 21.4009 27.3069 14.2921C27.2995 7.33081 21.6141 1.68581 14.6205 1.69687Z" fill="#26AB7B" stroke="#26AB7B" stroke-width="0.5"/>
<path d="M9.59842 19.6864C9.90974 19.1296 9.96534 18.5692 9.86897 17.9608C9.78002 17.4188 9.58359 16.9432 9.25374 16.5044C9.12402 16.3311 9.03136 16.1246 8.93129 15.9292C8.85717 15.7854 8.90906 15.6342 9.08325 15.5199C9.30563 15.3761 9.53912 15.2508 9.76891 15.1217C10.4397 14.7456 11.1328 14.4064 11.7777 13.9898C12.7598 13.3556 13.7124 12.6772 14.6612 11.9987C15.0503 11.7185 15.395 11.3793 15.7656 11.0769C15.8472 11.0106 15.962 10.9811 16.0658 10.9331C16.0769 11.0511 16.1214 11.1802 16.0992 11.2908C15.9695 11.9102 16.0399 12.537 16.0399 13.1602C16.0399 13.4478 16.0658 13.7354 16.0881 14.023C16.1288 14.6645 16.1622 15.3061 16.2215 15.9476C16.2882 16.6851 16.3771 17.4225 16.4661 18.1562C16.5032 18.4475 16.5921 18.7314 16.6143 19.0227C16.6292 19.196 16.5736 19.384 16.5217 19.5573C16.4772 19.7011 16.3327 19.6827 16.2067 19.6938C15.6841 19.7343 15.1578 19.7417 14.6463 19.8376C13.994 19.9592 13.5011 20.3538 13.1231 20.8884C13.023 21.0285 12.9303 21.1723 12.8266 21.3309C12.9822 21.4083 13.1453 21.4894 13.3121 21.5668C13.5641 21.6885 13.7049 21.9245 13.6308 22.1973C13.5159 22.6214 13.3047 23.0011 13.0267 23.3403C12.9155 23.4731 12.7747 23.4805 12.6079 23.4546C11.7888 23.3219 11.1106 22.8721 10.399 22.5034C9.81338 22.201 9.22779 21.8987 8.66074 21.5668C8.43836 21.4378 8.25305 21.2424 8.06774 21.0543C8.01585 21.0027 8.00473 20.8773 8.02697 20.7999C8.14187 20.3722 8.37165 20.0035 8.66444 19.6753C8.77934 19.5463 8.935 19.5094 9.10549 19.55C9.26115 19.6016 9.42793 19.6458 9.59842 19.6864ZM16.1251 19.1776C16.1214 19.1481 16.1214 19.1001 16.114 19.0522C16.0325 18.3406 15.9398 17.629 15.8657 16.9174C15.8286 16.5708 15.8657 16.2131 15.7953 15.8739C15.5655 14.7751 15.6137 13.68 15.7508 12.5813C15.7841 12.3011 15.8027 12.0208 15.8286 11.7406C15.8101 11.7332 15.7878 11.7296 15.7693 11.7222C14.9576 13.3113 14.146 14.9005 13.3417 16.4786C13.4455 16.556 13.5456 16.6224 13.6308 16.6961C13.8384 16.8842 13.8643 17.1423 13.7012 17.3746C13.5641 17.57 13.364 17.688 13.1342 17.7212C12.997 17.7396 12.9229 17.7986 12.871 17.9129C12.4337 18.8347 11.9964 19.7564 11.5553 20.6856C11.8703 20.8589 12.152 21.0138 12.4003 21.1502C12.5486 20.8995 12.645 20.634 12.8191 20.4459C13.3973 19.8228 14.0941 19.384 14.9614 19.2808C15.3394 19.2329 15.7211 19.2108 16.1251 19.1776ZM8.97577 19.8007C8.83123 20.0994 8.68297 20.3722 8.56067 20.6561C8.44948 20.9105 8.47172 20.9511 8.72004 21.0838C9.37975 21.4415 10.0283 21.8176 10.6992 22.1568C11.2255 22.4222 11.774 22.6398 12.3151 22.8795C12.493 22.9606 12.6227 22.9311 12.7265 22.7467C12.8154 22.5845 12.9377 22.4444 13.0415 22.2932C13.086 22.2268 13.1194 22.1494 13.1453 22.1052C11.7555 21.3345 10.3878 20.5787 8.97577 19.8007ZM14.7204 12.5297C13.1601 13.551 11.711 14.7161 10.0913 15.6379C10.1692 15.6232 10.247 15.601 10.3137 15.5679C10.6362 15.413 10.9475 15.2434 11.2773 15.1033C12.5226 14.576 13.6049 13.8312 14.4832 12.8025C14.5648 12.714 14.6426 12.6218 14.7204 12.5297ZM13.4307 17.0501C13.4307 16.8879 13.275 16.6998 13.1416 16.6961C12.9044 16.6888 12.6857 16.8473 12.682 17.0243C12.682 17.1607 12.8896 17.3487 13.0452 17.3524C13.212 17.3598 13.4307 17.1865 13.4307 17.0501ZM10.2322 16.8031C10.2841 16.7514 10.336 16.7035 10.3878 16.6556C10.4397 16.6076 10.4916 16.556 10.5435 16.5081C10.1655 16.6039 10.1284 16.6408 10.2322 16.8031Z" fill="#26AB7B" stroke="#26AB7B" stroke-width="0.5"/>
<path d="M16.1511 8.95685C16.229 8.89048 16.2846 8.83886 16.3402 8.79093C16.5181 8.63607 16.6478 8.61395 16.8368 8.75406C17.0295 8.89786 17.2111 9.06009 17.389 9.22232C17.415 9.24813 17.4076 9.33663 17.3853 9.38456C17.3594 9.44355 17.3038 9.4878 17.2297 9.58367C18.8901 10.3469 20.5356 11.0991 22.1997 11.8623C22.2257 11.8218 22.2701 11.7628 22.3035 11.7001C22.448 11.442 22.5073 11.3977 22.7816 11.4789C22.9595 11.5305 23.1263 11.63 23.2894 11.7222C23.4265 11.7996 23.4562 11.9361 23.4006 12.0725C23.2931 12.3269 23.1782 12.5776 23.0633 12.8247C23.0003 12.9574 22.8817 12.9611 22.7631 12.9168C22.6074 12.8578 22.4518 12.7988 22.3072 12.7214C21.9737 12.5444 21.9143 12.3269 22.1182 11.9692C20.6728 11.3424 19.231 10.7156 17.7856 10.0888C18.6121 10.8152 19.4275 11.5563 19.9463 12.5592C20.4541 13.54 20.8692 14.5539 21.2213 15.6084C21.2732 15.59 21.3325 15.5531 21.3881 15.5605C21.4511 15.5679 21.5474 15.5974 21.566 15.6416C21.6549 15.8702 21.729 16.1025 21.7846 16.3385C21.7957 16.3901 21.7253 16.497 21.666 16.5302C21.4585 16.6335 21.2398 16.7109 21.0286 16.8104C20.91 16.8658 20.8136 16.8363 20.758 16.7367C20.632 16.5118 20.5171 16.2832 20.4133 16.0509C20.3577 15.9255 20.4652 15.8002 20.6394 15.7522C20.7024 15.7338 20.7691 15.7301 20.8432 15.7191C20.317 13.2966 19.1198 11.324 17.0666 9.91919C17.011 9.97819 16.9554 10.0814 16.8813 10.1036C16.8071 10.122 16.7108 10.063 16.6255 10.0298C16.4143 9.94869 16.1993 9.87495 15.9918 9.78277C15.7842 9.68691 15.7879 9.66847 15.8917 9.46567C15.9176 9.41405 15.9102 9.34769 15.9139 9.2887C14.3573 8.51071 11.2144 8.3411 9.66521 8.99004C9.68744 9.41037 9.40947 9.80489 8.98326 9.94869C8.84242 9.99663 8.74235 9.945 8.69046 9.80489C8.5941 9.56154 8.50145 9.3145 8.39767 9.07484C8.2976 8.83518 8.33096 8.73194 8.56445 8.61763C8.69788 8.55127 8.82759 8.4849 8.96102 8.41853C9.14633 8.32267 9.25381 8.33373 9.37983 8.49965C9.46507 8.61026 9.52807 8.73931 9.61332 8.87573C9.98394 8.63976 10.4065 8.54758 10.8364 8.48121C11.7185 8.34479 12.6006 8.3116 13.49 8.39272C14.1572 8.4554 14.8021 8.60289 15.4358 8.80937C15.4692 8.82043 15.5062 8.8278 15.5544 8.7983C14.9132 8.42959 14.261 8.07194 13.6272 7.68479C12.9934 7.29764 12.3782 6.87731 11.7444 6.46804C11.7518 6.46435 11.7333 6.46803 11.7296 6.47541C11.4701 6.86993 11.4331 6.77038 11.0995 6.64133C11.0254 6.61183 10.9476 6.58602 10.8771 6.55284C10.5881 6.41641 10.5399 6.29474 10.6844 6.01452C10.7771 5.83753 10.892 5.66793 11.018 5.50938C11.0625 5.45407 11.1774 5.40245 11.2404 5.42089C11.4442 5.4762 11.6592 5.53519 11.8371 5.6458C12.078 5.79698 12.115 5.9629 11.926 6.17675C11.8852 6.221 11.8593 6.27631 11.8334 6.31687C13.1936 7.3382 14.7316 8.06457 16.1511 8.95685Z" fill="#26AB7B" stroke="#26AB7B" stroke-width="0.5"/>
</svg>
