<svg width="29" height="29" viewBox="0 0 29 29" fill="none" xmlns="http://www.w3.org/2000/svg">
<path d="M28 14.3981C27.9481 21.8884 21.9774 27.9629 14.4426 28.0111C6.99671 28.0593 1.00371 22.0515 1.00001 14.6056C0.992594 7.17832 7.13755 1 14.5278 1C22.0144 0.996295 27.9926 6.94111 28 14.3981ZM14.6205 1.69678C7.37475 1.7116 1.65601 7.63418 1.69307 14.7316C1.73014 21.6549 7.41181 27.3218 14.3647 27.3106C21.5141 27.2995 27.3032 21.503 27.2995 14.3573C27.2995 7.35992 21.6141 1.68566 14.6205 1.69678Z" fill="#26AB7B" stroke="#26AB7B" stroke-width="0.5"/>
<path d="M15.8173 11.0995C15.7988 10.8845 15.8692 10.7326 15.9952 10.6028C16.3992 10.1915 16.8032 9.77636 17.2109 9.36497C17.3814 9.19077 17.5444 9.00175 17.7409 8.86091C17.9855 8.68672 18.2004 8.79791 18.282 9.087C18.3524 9.33532 18.2968 9.52433 18.1263 9.71335C17.6779 10.2137 17.2405 10.7252 16.7958 11.2255C16.692 11.3441 16.5734 11.4479 16.4326 11.585C17.0256 12.0779 17.6371 12.5857 18.2597 13.1009C18.4932 12.5931 18.9528 12.2892 19.2752 11.8741C19.4087 11.6999 19.5643 11.5368 19.72 11.3775C19.8238 11.2737 19.935 11.1736 20.061 11.0995C20.4538 10.8697 20.6725 11.0476 20.8096 11.3923C20.8393 11.4664 20.817 11.5813 20.7763 11.6554C20.7022 11.7888 20.6021 11.9074 20.5057 12.026C20.2759 12.3077 20.0461 12.5857 19.8127 12.8637C19.6088 13.1009 19.4013 13.3344 19.1937 13.5716C19.1418 13.6309 19.0899 13.6901 19.0232 13.768C19.253 13.9792 19.4717 14.1831 19.6941 14.3869C19.8275 14.5092 19.9572 14.6278 20.0943 14.7427C20.3019 14.9132 20.4279 15.1171 20.3278 15.3876C20.2203 15.6767 19.9831 15.799 19.6903 15.8101C19.3383 15.8212 19.0047 15.8917 18.6934 16.0473C18.2227 16.2845 17.8854 16.6626 17.5778 17.0814C17.1034 17.7263 16.5734 18.3267 15.8507 18.6936C14.9278 19.1643 13.9901 19.0642 13.0932 18.6083C11.9702 18.0413 11.3142 17.111 11.1178 15.8694C11.0177 15.2282 11.1215 14.613 11.5255 14.0793C11.9851 13.4715 12.4521 12.8674 12.919 12.2595C13.1414 11.9705 13.3897 11.6999 13.4787 11.3367C13.5306 11.1217 13.5454 10.8994 13.5713 10.6807C13.601 10.4101 13.7381 10.2137 13.9642 10.0654C14.1495 9.94314 14.2792 9.92831 14.4571 10.0654C14.7685 10.2989 15.065 10.5473 15.3726 10.7845C15.5171 10.8882 15.6691 10.992 15.8173 11.0995ZM14.2718 11.333C14.1606 11.4998 14.0902 11.6369 13.9901 11.7518C13.5046 12.3188 12.9969 12.8637 12.5299 13.4455C12.2408 13.805 11.9591 14.1831 11.7664 14.5982C11.3291 15.5285 11.6737 16.3512 12.2408 17.1073C12.3965 17.3186 12.5818 17.5372 12.8041 17.6595C13.2785 17.919 13.7715 18.1636 14.3163 18.2377C14.7536 18.3007 15.1947 18.2859 15.5875 18.0376C16.1583 17.6781 16.6772 17.2519 17.1256 16.7478C17.5815 16.2363 18.0151 15.7063 18.6341 15.3728C18.6674 15.3543 18.7008 15.3394 18.7378 15.3209C18.4562 14.991 18.0893 14.7872 17.9558 14.3906C18.0337 14.398 18.0893 14.4277 18.1411 14.4648C18.4969 14.739 18.849 15.017 19.2048 15.295C19.3308 15.3913 19.4643 15.4358 19.6199 15.3691C19.7978 15.2913 19.809 15.1727 19.657 15.0541C19.5236 14.954 19.3901 14.8539 19.2678 14.7427C18.8268 14.3387 18.3969 13.9199 17.9447 13.5308C16.9922 12.7043 16.0249 11.8889 15.0613 11.0735C14.7796 10.8363 14.4942 10.6066 14.2088 10.3768C14.0643 10.5435 14.0606 10.5991 14.1643 10.7066C14.7203 11.2848 15.2725 11.863 15.8284 12.4412C15.847 12.4597 15.8544 12.4856 15.8655 12.5079C15.8544 12.5227 15.8396 12.5338 15.8284 12.5486C15.3096 12.1372 14.7944 11.737 14.2718 11.333Z" fill="#26AB7B" stroke="#26AB7B" stroke-width="0.5"/>
<path d="M12.4452 22.474C12.6676 22.474 12.89 22.4851 13.1086 22.4703C13.2235 22.4629 13.3458 22.437 13.4459 22.3814C13.9092 22.1256 14.3687 21.8625 14.8246 21.5956C15.2619 21.3436 15.7289 21.2028 16.2219 21.3251C16.9668 21.5104 17.6747 21.7958 18.2974 22.2554C18.6013 22.4814 18.6383 22.7705 18.4197 23.0151C18.3011 23.1486 18.1565 23.2116 17.9897 23.1374C17.8341 23.067 17.6821 22.9818 17.5487 22.878C16.9335 22.374 16.2552 22.2035 15.5029 22.4963C14.9914 22.6927 14.4985 22.9336 13.9944 23.1486C13.5571 23.3339 13.1197 23.5192 12.6379 23.5525C11.993 23.6007 11.4112 23.4488 10.9256 23.0114C10.6551 22.7705 10.3734 22.5333 10.1436 22.2554C9.59881 21.5993 9.57657 20.9656 9.98796 20.2169C10.2919 19.6647 10.681 19.1866 11.111 18.7307C11.2555 18.5788 11.3889 18.4157 11.5335 18.2674C11.7336 18.0599 11.8411 18.0339 11.993 18.1377C12.2339 18.3008 12.3229 18.5343 12.1932 18.7567C12.0746 18.9568 11.9152 19.131 11.7744 19.3163C11.463 19.7277 11.1517 20.1391 10.8404 20.5542C10.6662 20.784 10.6847 21.0212 10.744 21.3028C10.9182 22.1256 11.7521 22.4555 12.4452 22.474ZM11.6447 22.8521C11.8856 23.0114 12.1191 23.0448 12.36 23.067C12.9233 23.1226 13.4274 22.9151 13.9314 22.7186C14.3836 22.5407 14.8209 22.3147 15.2805 22.1664C16.1922 21.8699 17.0261 22.0404 17.76 22.6779C17.8304 22.7409 17.9304 22.7742 18.0157 22.8187C18.0342 22.7965 18.0527 22.7779 18.0713 22.7557C18.0268 22.6927 17.9897 22.6223 17.9342 22.5741C17.4412 22.1256 16.8149 21.9403 16.1996 21.7439C16.044 21.6957 15.8587 21.7365 15.6882 21.755C15.1878 21.8143 14.795 22.1182 14.365 22.348C13.9722 22.5593 13.6238 22.8669 13.1494 22.9002C12.6898 22.9336 12.2265 22.9966 11.7744 22.8521C11.7447 22.8446 11.7151 22.8521 11.6447 22.8521ZM11.8744 18.4935C11.8522 18.4787 11.83 18.4602 11.8114 18.4453C11.4 19.0309 10.8367 19.4942 10.5291 20.1576C10.9775 19.6054 11.426 19.0494 11.8744 18.4935Z" fill="#26AB7B" stroke="#26AB7B" stroke-width="0.5"/>
<path d="M11.448 9.00175C11.3812 9.00546 11.3516 9.00175 11.3219 9.00916C10.8401 9.13888 10.362 9.27972 9.87651 9.39461C9.78385 9.41685 9.63931 9.39091 9.58371 9.3279C9.52812 9.2649 9.53553 9.12406 9.55777 9.02769C9.5763 8.94245 9.64672 8.86833 9.70602 8.79791C10.3472 8.01589 10.9847 7.23387 11.6333 6.45926C11.8853 6.15906 12.167 5.87738 12.4338 5.5883C12.4709 5.54753 12.5191 5.51417 12.5895 5.50305C12.3078 5.92927 12.0261 6.35549 11.7445 6.77801C11.9742 6.96702 12.2003 7.11898 12.3893 7.308C12.9045 7.81576 13.2232 8.42729 13.2307 9.16112C13.2381 10.2471 12.7229 11.0328 11.7852 11.5442C11.2441 11.8407 10.6622 11.8148 10.0655 11.711C10.1841 11.4812 10.299 11.3404 10.5918 11.3552C11.3664 11.396 11.9409 10.9883 12.4264 10.4398C13.0157 9.77265 12.9935 9.0351 12.6747 8.24567C12.4598 7.71197 12.0447 7.4266 11.5851 7.16716C11.5443 7.14492 11.4405 7.16346 11.4146 7.19681C11.0514 7.67862 10.6956 8.16785 10.3398 8.65707C10.3324 8.66819 10.3324 8.69043 10.3213 8.74973C10.6326 8.66078 10.9217 8.58294 11.207 8.4977C11.3961 8.44211 11.5814 8.37911 11.7741 8.32722C11.9001 8.29386 12.0484 8.30498 12.0928 8.4347C12.1225 8.52365 12.0965 8.6719 12.0372 8.74973C11.4665 9.49468 10.8883 10.2322 10.3064 10.9661C9.72826 11.6962 9.14638 12.4189 8.5645 13.1416C8.46072 13.2713 8.34583 13.3862 8.2124 13.4937C8.57191 12.8081 9.00183 12.1669 9.49106 11.5331C8.69421 11.0217 8.25317 10.3064 8.21611 9.37238C8.19387 8.76826 8.3903 8.21603 8.73498 7.7231C9.24274 7.00409 10.5473 6.44444 11.1811 6.70017C11.0588 6.75947 10.981 6.82989 10.892 6.84101C10.2508 6.92255 9.67637 7.16346 9.19826 7.58597C9.02036 7.74534 8.87953 7.964 8.77575 8.18267C8.31988 9.11664 8.43849 10.0617 9.07596 10.7696C9.12785 10.8289 9.18715 10.8845 9.24645 10.9401C9.62448 11.2737 9.6912 11.2663 9.99511 10.8734C10.4176 10.3249 10.8438 9.78377 11.2663 9.23525C11.3256 9.17224 11.3775 9.09811 11.448 9.00175Z" fill="#26AB7B" stroke="#26AB7B" stroke-width="0.5"/>
</svg>
