<svg width="29" height="29" viewBox="0 0 29 29" fill="none" xmlns="http://www.w3.org/2000/svg">
<path d="M28 14.4111C27.9444 21.9004 21.9671 27.9704 14.4333 28.0111C6.98476 28.0519 1.00371 22.0449 1 14.5963C1 7.17005 7.14411 0.996296 14.5371 1C22.0264 1.00741 27.9963 6.95141 28 14.4111ZM27.3033 14.3851C27.2774 7.35904 21.7002 1.79673 14.8113 1.70779C7.47021 1.61144 1.69297 7.57027 1.70038 14.6631C1.70779 21.6224 7.35904 27.3033 14.3295 27.3181C21.4853 27.3293 27.2922 21.5409 27.3033 14.3851Z" fill="#26AB7B" stroke="#26AB7B" stroke-width="0.5"/>
<path d="M16.9423 12.6879C17.4166 12.6879 17.865 12.6879 18.3134 12.6879C18.4431 12.6879 18.4283 12.6027 18.4246 12.5211C18.4171 12.1098 18.4097 11.6948 18.4023 11.2834C18.3986 11.1167 18.3986 10.9499 18.4097 10.7831C18.4171 10.6757 18.3801 10.6423 18.2763 10.6386C17.9984 10.6275 17.7242 10.609 17.4462 10.5905C17.3795 10.5867 17.3165 10.5571 17.2535 10.5386C17.2535 10.52 17.2535 10.4978 17.2535 10.4793C17.3017 10.4645 17.3462 10.4348 17.3944 10.4311C17.6093 10.4126 17.8242 10.3977 18.0392 10.3903C18.8137 10.3718 19.5882 10.357 20.3664 10.3385C20.459 10.3348 20.5554 10.3014 20.6406 10.3162C20.7221 10.3348 20.8444 10.3866 20.8629 10.4496C20.9 10.5793 20.7814 10.6349 20.6739 10.6386C20.5405 10.646 20.4034 10.6312 20.27 10.6201C20.1218 10.6053 20.0588 10.6535 20.0588 10.8128C20.0625 11.6874 20.0551 12.5619 20.0551 13.4365C20.0551 13.4661 20.0625 13.4994 20.0625 13.5291C20.0514 13.7366 20.1477 13.8181 20.3552 13.8256C20.5554 13.833 20.7555 13.8774 20.9852 13.9108C20.9889 13.8663 21.0038 13.8107 21.0038 13.7514C21.0112 12.6842 21.0112 11.6169 21.026 10.5497C21.0334 9.90489 21.0519 9.25638 21.0705 8.61158C21.0742 8.46336 20.9852 8.40036 20.8666 8.36701C20.1329 8.15949 19.3955 7.95567 18.6617 7.74815C18.0985 7.5888 17.5352 7.42946 16.9756 7.27011C16.946 7.2627 16.9163 7.25899 16.883 7.25158C16.883 7.31828 16.8867 7.38129 16.883 7.44058C16.8719 7.5814 16.7792 7.6481 16.6532 7.66292C16.5235 7.67774 16.4235 7.61845 16.4086 7.49245C16.3938 7.34793 16.3901 7.19229 16.4309 7.05518C16.4865 6.85877 16.6236 6.82172 16.883 6.90325C17.3165 7.04036 17.7501 7.18858 18.1874 7.31458C18.5543 7.42204 18.9322 7.49616 19.2954 7.61104C19.766 7.75927 20.2255 7.92973 20.6888 8.09278C20.7814 8.12613 20.8666 8.1669 20.9445 8.19654C21.0408 8.06684 21.1112 7.94455 21.2113 7.85191C21.3484 7.72591 21.4151 7.79262 21.5633 7.88527C21.7708 8.01126 21.8931 8.14467 21.8894 8.39295C21.8894 8.41518 21.9821 8.44113 22.034 8.45966C22.2304 8.53748 22.3156 8.65235 22.3008 8.85246C22.1674 10.4978 22.2859 12.1431 22.2859 13.7885C22.2859 15.193 22.3193 16.6012 22.3415 18.0056C22.3489 18.543 22.3786 19.0766 22.3934 19.6139C22.3971 19.7251 22.4453 19.7547 22.5528 19.7547C22.7417 19.7547 22.9307 19.777 23.1197 19.7992C23.2531 19.8177 23.3495 19.8881 23.3495 20.0438C23.3458 20.2068 23.2346 20.2513 23.1012 20.255C22.3934 20.2735 21.6856 20.2921 20.9778 20.2995C20.17 20.3106 19.3621 20.3032 18.5543 20.3143C17.1868 20.3328 15.8157 20.3551 14.4483 20.3773C14.3334 20.3773 14.1889 20.3736 14.2074 20.2291C14.2148 20.1587 14.3482 20.092 14.4335 20.0401C14.4705 20.0178 14.5261 20.0253 14.5928 20.0178C14.578 19.877 14.5521 19.7436 14.5484 19.6139C14.5335 18.9469 14.5261 18.2836 14.5076 17.6165C14.4668 16.0898 14.4149 14.5593 14.3742 13.0325C14.3557 12.2914 14.352 11.5539 14.3408 10.8128C14.3334 10.3496 14.3223 9.89006 14.3186 9.42685C14.3186 9.28603 14.3223 9.14151 14.3445 9.0044C14.3557 8.93769 14.415 8.88211 14.452 8.81911C14.4928 8.88211 14.5632 8.94139 14.5669 9.0081C14.5928 9.43055 14.6039 9.85672 14.6188 10.2829C14.6262 10.5386 14.6225 10.5349 14.8782 10.5274C15.334 10.5126 15.7898 10.5015 16.2456 10.4978C16.3086 10.4978 16.3716 10.5608 16.4346 10.5942C16.3753 10.6349 16.3197 10.709 16.2567 10.7164C16.0492 10.735 15.838 10.7313 15.6304 10.7313C15.3451 10.7313 15.0635 10.735 14.7781 10.7313C14.6595 10.7313 14.6299 10.7906 14.6336 10.8943C14.6447 11.1648 14.6558 11.4354 14.6595 11.7096C14.6632 11.8171 14.6929 11.8578 14.8115 11.8467C15.3191 11.8022 15.8305 11.7689 16.3419 11.7355C16.5976 11.717 16.6087 11.7096 16.5976 11.4465C16.5717 10.8165 16.5383 10.1902 16.5161 9.56026C16.5124 9.40832 16.5161 9.24897 16.542 9.10074C16.5532 9.04145 16.6421 8.9451 16.6903 8.94881C16.757 8.95252 16.8496 9.02663 16.8681 9.08963C16.9052 9.23045 16.9163 9.38238 16.92 9.5269C16.9274 10.52 16.9311 11.5132 16.9349 12.5063C16.9349 12.5545 16.9386 12.6101 16.9423 12.6879ZM20.963 14.1665C20.8778 14.1739 20.7925 14.185 20.7073 14.185C20.3367 14.1776 19.9661 14.1739 19.5993 14.1517C19.514 14.148 19.4029 14.1146 19.351 14.0516C19.1731 13.8515 18.9841 13.6477 18.8581 13.4142C18.7025 13.1215 18.495 12.9955 18.1726 12.9992C17.7909 13.0029 17.4092 12.9881 17.0275 12.9621C16.7347 12.9436 16.668 12.8621 16.6421 12.5693C16.6347 12.4693 16.6199 12.3729 16.6236 12.2729C16.6273 12.1209 16.5606 12.069 16.4086 12.0727C15.8972 12.0876 15.3859 12.0987 14.8745 12.1024C14.704 12.1024 14.6707 12.1728 14.6781 12.3284C14.7336 13.4735 14.7966 14.6186 14.8226 15.7637C14.8522 17.0088 14.8485 18.2539 14.8559 19.499C14.8559 19.6213 14.8559 19.7473 14.8374 19.8659C14.8189 19.9845 14.8671 20.0253 14.9745 20.0216C15.1042 20.0216 15.2339 20.0253 15.3636 20.0216C16.8904 19.9919 18.4209 19.9623 19.9476 19.9326C20.2367 19.9252 20.5257 19.9104 20.8148 19.8993C20.9482 19.8956 21.0223 19.8289 21.0149 19.688C21 19.2767 20.9741 18.8654 20.9704 18.4503C20.963 17.472 20.963 16.49 20.963 15.5117C20.963 15.0744 20.963 14.626 20.963 14.1665ZM19.7957 12.1209C19.7883 12.1209 19.7809 12.1209 19.7772 12.1209C19.7772 11.6836 19.7697 11.2464 19.7809 10.8091C19.7846 10.646 19.729 10.609 19.5807 10.6238C19.3547 10.6423 19.1249 10.6572 18.8989 10.6497C18.747 10.646 18.7099 10.6942 18.7136 10.8387C18.7247 11.4539 18.721 12.069 18.7284 12.6842C18.7284 12.7472 18.7544 12.8176 18.7914 12.8658C18.9545 13.0881 19.1249 13.3068 19.2991 13.5217C19.3621 13.6032 19.4325 13.6884 19.514 13.7477C19.5659 13.7848 19.6512 13.7885 19.7179 13.7774C19.7401 13.7737 19.7549 13.6736 19.7549 13.618C19.7586 13.5254 19.7401 13.4328 19.7438 13.3401C19.7512 12.9325 19.7734 12.5285 19.7957 12.1209ZM21.3336 11.6429C21.3706 11.6355 21.3892 11.6392 21.3929 11.6318C21.5559 11.4317 21.719 11.2352 21.8709 11.0277C21.8968 10.9944 21.8857 10.9017 21.8561 10.8647C21.6745 10.6201 21.4818 10.3829 21.2891 10.1421C21.2854 10.1384 21.2669 10.1458 21.2372 10.1495C21.2743 10.646 21.3039 11.1426 21.3336 11.6429ZM21.8746 12.9621C21.8968 12.9547 21.9154 12.9436 21.9376 12.9362C21.9376 12.4359 21.9376 11.9356 21.9376 11.4354C21.9228 11.4279 21.908 11.4242 21.8931 11.4168C21.719 11.6577 21.5448 11.8986 21.3743 12.1432C21.3558 12.1691 21.3558 12.2358 21.378 12.2617C21.5374 12.4952 21.7078 12.7287 21.8746 12.9621ZM22.0747 17.824C22.0562 17.8129 22.0414 17.8018 22.0228 17.7907C21.8968 17.9056 21.7671 18.0167 21.6485 18.1353C21.3706 18.4133 21.3706 18.4133 21.6671 18.6541C21.7968 18.7616 21.9228 18.8691 22.0784 18.9988C22.0747 18.5763 22.0747 18.1983 22.0747 17.824ZM21.882 10.5312C21.8931 10.52 21.908 10.5089 21.9191 10.4978C21.9191 10.0754 21.9191 9.6566 21.9191 9.23415C21.9005 9.23044 21.8857 9.22674 21.8672 9.22303C21.8079 9.28232 21.7523 9.34533 21.693 9.40462C21.5893 9.5232 21.4114 9.63437 21.404 9.75666C21.3966 9.89748 21.5337 10.0531 21.6226 10.1939C21.6967 10.3125 21.7931 10.42 21.882 10.5312ZM21.9561 15.76C21.7523 15.986 21.5818 16.1713 21.4188 16.3603C21.4003 16.3825 21.4003 16.4492 21.4225 16.4715C21.5893 16.6642 21.782 16.8198 22.0784 16.8976C22.0377 16.5159 21.9969 16.1639 21.9561 15.76ZM21.9302 13.6625C21.9117 13.6551 21.8931 13.6514 21.8746 13.644C21.7968 13.744 21.7115 13.8404 21.6411 13.9441C21.404 14.2999 21.404 14.2999 21.6374 14.6445C21.6708 14.6964 21.7041 14.7483 21.7449 14.7928C21.7931 14.8446 21.8524 14.8928 21.9265 14.9632C21.9302 14.5 21.9302 14.0813 21.9302 13.6625ZM21.3299 17.8908C21.3521 17.9019 21.3706 17.9093 21.3929 17.9204C21.5448 17.7648 21.7078 17.6128 21.8487 17.4498C21.882 17.409 21.8857 17.2793 21.8561 17.2608C21.6967 17.1496 21.5189 17.057 21.3299 16.9458C21.3299 17.2867 21.3299 17.5869 21.3299 17.8908ZM21.2076 9.48243C21.2372 9.49355 21.2669 9.50467 21.2965 9.51949C21.4892 9.32679 21.6856 9.1341 21.8783 8.9414C21.8746 8.91546 21.8672 8.88952 21.8635 8.86358C21.6671 8.84134 21.4744 8.8154 21.278 8.79687C21.2557 8.79317 21.2113 8.84135 21.2113 8.86729C21.2039 9.0711 21.2076 9.27491 21.2076 9.48243ZM21.4077 19.7918C21.4299 19.8066 21.4559 19.8177 21.4781 19.8326C21.6152 19.688 21.7486 19.5435 21.882 19.3953C21.8968 19.3805 21.8968 19.3249 21.882 19.3138C21.7338 19.1692 21.5818 19.0284 21.4077 18.8691C21.4077 19.21 21.4077 19.499 21.4077 19.7918ZM21.378 15.8711C21.3929 15.8785 21.404 15.8897 21.4188 15.8971C21.5374 15.7451 21.6634 15.5969 21.7782 15.4375C21.8042 15.4005 21.819 15.3116 21.7931 15.2856C21.6782 15.167 21.5522 15.0633 21.4299 14.9521C21.4114 14.9632 21.3966 14.9743 21.378 14.9818C21.378 15.2819 21.378 15.5747 21.378 15.8711ZM21.3854 13.7403C21.404 13.7477 21.4188 13.7514 21.4373 13.7589C21.5337 13.6514 21.6337 13.5439 21.7301 13.4328C21.7523 13.4068 21.7745 13.3549 21.7634 13.3364C21.6523 13.1733 21.5374 13.0177 21.4225 12.8621C21.4114 12.8732 21.3966 12.8806 21.3854 12.8917C21.3854 13.1733 21.3854 13.4587 21.3854 13.7403ZM21.5226 8.04831C21.504 8.03349 21.4892 8.02237 21.4707 8.00755C21.4114 8.07055 21.341 8.12614 21.3039 8.20025C21.2854 8.23361 21.3299 8.3003 21.3447 8.35218C21.3891 8.32624 21.4521 8.31143 21.467 8.27437C21.5003 8.20767 21.504 8.12614 21.5226 8.04831Z" fill="#26AB7B" stroke="#26AB7B" stroke-width="0.5"/>
<path d="M11.6019 15.1559C11.6167 15.004 11.6353 14.852 11.6427 14.7001C11.6464 14.5037 11.639 14.3073 11.639 14.1109C11.639 13.9812 11.5686 13.9441 11.4463 13.9515C11.0275 13.9775 10.6088 14.0034 10.19 14.0219C9.73423 14.0442 9.27843 14.0664 8.82262 14.0775C8.68551 14.0812 8.6188 14.1257 8.6151 14.2665C8.61139 14.3629 8.59287 14.4629 8.58175 14.5593C8.53358 14.9521 8.45946 15.0225 8.04442 15.0336C8.10371 15.4375 7.93324 15.8674 8.20747 16.2454C8.28158 16.3491 8.37422 16.4603 8.48169 16.5122C9.01902 16.7642 9.57118 17.0088 10.1863 16.8161C10.594 16.6901 10.9831 16.5159 11.2499 16.1527C11.2795 16.1157 11.3129 16.0823 11.3685 16.023C11.3685 16.086 11.3759 16.1194 11.3685 16.149C11.1795 16.6604 10.8311 17.0088 10.2938 17.1125C9.87135 17.1941 9.44148 17.2163 8.99679 17.2682C9.01532 17.2978 9.04126 17.3497 9.08203 17.3868C9.30066 17.6054 9.52301 17.8166 9.73794 18.039C9.82688 18.1316 9.88616 18.1242 9.95657 18.0241C10.0492 17.8944 10.1604 17.7759 10.2419 17.6387C10.4754 17.2571 10.7941 17.1311 11.2314 17.2348C11.6649 17.3386 12.0725 17.4868 12.4209 17.761C12.5061 17.8277 12.5914 17.9389 12.6099 18.0427C12.7285 18.6319 13.0027 19.1544 13.2287 19.7028C13.5104 20.3921 13.7624 21.0962 14.0255 21.7929C14.0477 21.8485 14.0551 21.9077 14.044 21.9782C13.6994 21.4853 13.4918 20.9183 13.2176 20.3884C12.9434 19.8548 12.7025 19.2989 12.4357 18.7282C12.4172 18.8431 12.3987 18.9506 12.3801 19.0506C12.2134 19.8955 12.2578 20.7293 12.5098 21.5557C12.5395 21.6483 12.5617 21.7484 12.5728 21.8448C12.5802 21.8892 12.5617 21.9596 12.5358 21.9745C12.495 21.993 12.4135 21.993 12.3838 21.967C12.2838 21.8633 12.1652 21.7558 12.1133 21.6261C11.8873 21.0517 11.765 20.4588 11.891 19.8362C12.0021 19.273 12.0948 18.7097 12.0763 18.1316C12.0725 18.0167 12.0503 17.9463 11.9466 17.8981C11.7761 17.8203 11.6093 17.7314 11.4203 17.635C11.3685 17.95 11.3351 18.228 11.2758 18.5022C11.2165 18.7727 11.1498 19.0432 11.0572 19.3026C10.8941 19.7436 10.5421 19.9548 10.09 19.9956C9.85282 20.0141 9.60824 19.9956 9.37477 19.9585C9.10055 19.9141 8.92638 19.7362 8.81891 19.4731C8.56322 18.8579 8.41499 18.2168 8.28158 17.572C8.27788 17.5498 8.26676 17.5276 8.24823 17.4646C8.05924 17.5276 7.87395 17.5832 7.69607 17.6536C7.66272 17.6684 7.64049 17.7536 7.6479 17.8055C7.71831 18.5652 7.80724 19.3249 7.87024 20.0845C7.92583 20.7442 7.72942 21.3667 7.53673 21.9856C7.52561 22.0189 7.51079 22.0634 7.48485 22.0819C7.42926 22.1227 7.36256 22.1486 7.29956 22.182C7.28474 22.1227 7.25138 22.0597 7.2588 22.0041C7.34032 21.4038 7.43668 20.8109 7.50709 20.2105C7.53673 19.9511 7.55155 19.6806 7.5182 19.4212C7.45149 18.8987 7.34403 18.3799 7.24769 17.8351C6.9994 17.9315 6.73629 18.0353 6.59176 18.2798C6.45836 18.5059 6.3509 18.7542 6.28419 19.0062C6.14708 19.5324 6.05073 20.066 5.92473 20.5922C5.88026 20.7775 5.78762 20.9517 5.71721 21.1295C5.69127 21.1258 5.66904 21.1221 5.6431 21.1184C5.62828 21.048 5.59863 20.9739 5.59863 20.9035C5.63198 20.1512 5.70239 19.4027 5.90991 18.6763C6.09149 18.039 6.5436 17.6684 7.17357 17.5016C7.58491 17.3942 7.99253 17.2756 8.40016 17.1644C8.4261 17.157 8.45576 17.1422 8.48911 17.1311C7.5775 16.4492 7.15133 15.5191 7.01422 14.4333C6.99199 14.2665 6.97716 14.1183 6.82894 13.9923C6.73629 13.9108 6.68441 13.744 6.6733 13.6106C6.66588 13.5217 6.73258 13.366 6.8067 13.3364C6.96604 13.2697 6.99569 13.1548 7.03645 13.0177C7.12909 12.699 7.29586 12.4248 7.53303 12.1876C7.85913 11.8652 8.18523 11.5465 8.63363 11.3946C8.6781 11.3798 8.72627 11.3168 8.74109 11.2649C8.83373 10.9869 9.12279 10.8906 9.35996 11.0611C9.41554 11.1018 9.49335 11.1352 9.55635 11.1352C10.4013 11.1055 11.4574 11.8578 11.6167 12.7694C11.6501 12.9658 11.7464 12.9992 11.9206 12.9769C12.1022 12.9547 12.2912 12.9436 12.4728 12.951C12.7581 12.9658 12.9508 13.1103 12.9656 13.2845C12.9805 13.4957 12.7729 13.7625 12.5358 13.8218C12.3987 13.8589 12.2615 13.8997 12.1207 13.9145C11.9503 13.933 11.8947 13.9923 11.928 14.1739C11.9873 14.5222 11.8836 14.8446 11.7057 15.1448C11.6946 15.1633 11.6723 15.1744 11.6575 15.1892C11.6316 15.167 11.6167 15.1596 11.6019 15.1559ZM8.60398 17.4423C8.59657 17.535 8.58915 17.5609 8.59286 17.5794C8.78926 18.1687 8.98197 18.7579 9.1932 19.3434C9.22284 19.4286 9.3266 19.5324 9.41183 19.5435C9.67123 19.5805 9.93805 19.6065 10.1937 19.5768C10.4198 19.5509 10.6162 19.4027 10.6866 19.1729C10.8422 18.6726 10.9756 18.1687 11.1128 17.6647C11.1239 17.6239 11.1054 17.5498 11.0757 17.5239C10.9534 17.4275 10.7718 17.472 10.6792 17.598C10.4865 17.8611 10.3012 18.1316 10.0937 18.3799C9.88246 18.6319 9.69347 18.6282 9.47854 18.3799C9.27102 18.139 9.08573 17.8759 8.87821 17.6313C8.81151 17.5646 8.71515 17.5202 8.60398 17.4423ZM9.77129 13.1956C9.76017 12.5619 9.09314 11.9653 8.66328 11.9134C8.46687 11.8911 8.21118 11.906 8.07036 12.0171C7.75537 12.2654 7.48114 12.5693 7.34403 12.9769C7.22545 13.3364 7.24027 13.3734 7.62196 13.329C7.62937 13.329 7.63308 13.329 7.64049 13.3253C8.28529 13.2808 8.93008 13.2363 9.57488 13.1919C9.63788 13.1919 9.70458 13.1956 9.77129 13.1956ZM8.94121 11.6058C9.01161 11.6429 9.06349 11.6688 9.11537 11.6984C9.51559 11.9578 9.85652 12.2691 10.001 12.7435C10.0455 12.888 10.0455 13.0918 10.1419 13.1585C10.2456 13.2289 10.4383 13.1659 10.5903 13.1548C10.846 13.1363 11.1017 13.114 11.3611 13.0918C11.3722 12.4729 11.0127 12.0875 10.5791 11.7874C10.0937 11.4465 9.54153 11.3353 8.94121 11.6058ZM12.5098 13.3549C12.5024 13.3364 12.4913 13.3216 12.4839 13.303C12.4505 13.2993 12.4135 13.2919 12.3801 13.2919C11.1091 13.3809 9.83429 13.4772 8.56322 13.5587C8.11112 13.5884 7.65531 13.5735 7.19951 13.5884C7.14022 13.5884 7.08092 13.6254 7.02163 13.6477C7.05869 13.7181 7.07722 13.8218 7.1328 13.8478C7.22174 13.8885 7.33662 13.896 7.44038 13.8885C7.88878 13.8626 8.33346 13.833 8.78186 13.7959C9.78982 13.7107 10.7978 13.6217 11.802 13.5291C11.9873 13.5143 12.1689 13.4883 12.3505 13.455C12.4024 13.4475 12.4542 13.392 12.5098 13.3549Z" fill="#26AB7B" stroke="#26AB7B" stroke-width="0.5"/>
<path d="M16.4267 14.3221C16.4378 14.6927 16.1672 14.878 15.767 14.7705C15.4891 14.6964 15.4669 14.6668 15.4632 14.3814C15.4632 14.2777 15.4335 14.1702 15.4446 14.0701C15.452 13.9849 15.4817 13.8886 15.5373 13.8256C15.667 13.681 16.1376 13.6514 16.2858 13.77C16.3377 13.8107 16.3748 13.8886 16.3896 13.9553C16.4118 14.0738 16.4155 14.1998 16.4267 14.3221Z" fill="#26AB7B" stroke="#26AB7B" stroke-width="0.5"/>
<path d="M17.75 17.0014C17.75 17.031 17.75 17.0643 17.75 17.094C17.7426 17.4942 17.6537 17.5794 17.2498 17.5609C17.1942 17.5572 17.1386 17.5461 17.083 17.5535C16.9348 17.572 16.8495 17.4868 16.8421 17.3571C16.831 17.1199 16.8384 16.8791 16.857 16.6382C16.8607 16.59 16.9459 16.5307 17.0052 16.5085C17.0719 16.4863 17.1497 16.5011 17.2238 16.4974C17.7019 16.4788 17.7537 16.5307 17.75 17.0014Z" fill="#26AB7B" stroke="#26AB7B" stroke-width="0.5"/>
<path d="M15.8709 16.3825C15.8264 16.3825 15.7857 16.3788 15.7412 16.3825C15.567 16.3936 15.4781 16.3232 15.4892 16.1342C15.5003 15.9489 15.4929 15.7673 15.4966 15.5821C15.5003 15.4524 15.5633 15.3708 15.693 15.3597C15.8413 15.3486 15.9895 15.3264 16.134 15.3375C16.3341 15.3523 16.4119 15.4561 16.4008 15.6599C16.3934 15.7933 16.386 15.9304 16.3823 16.0638C16.3749 16.3047 16.3489 16.338 16.1118 16.3677C16.034 16.3788 15.9524 16.3788 15.8746 16.3862C15.8709 16.3862 15.8709 16.3825 15.8709 16.3825Z" fill="#26AB7B" stroke="#26AB7B" stroke-width="0.5"/>
</svg>
