<svg width="29" height="29" viewBox="0 0 29 29" fill="none" xmlns="http://www.w3.org/2000/svg">
<path d="M28 14.4166C27.9407 21.9069 21.9625 27.9778 14.4314 28.0148C6.98188 28.0519 1 22.0441 1 14.5945C1 7.16719 7.14866 0.996295 14.5426 1C22.0292 1.00741 27.9963 6.95594 28 14.4166ZM27.3032 14.4018C27.2847 7.37845 21.7179 1.80796 14.8206 1.70789C7.48222 1.60041 1.70789 7.54523 1.69678 14.613C1.68566 21.6067 7.32285 27.2958 14.3128 27.3218C21.4696 27.344 27.281 21.5623 27.3032 14.4018Z" fill="#26AB7B" stroke="#26AB7B" stroke-width="0.5"/>
<path d="M11.952 15.2209C11.9631 15.0985 11.9631 14.9725 11.9854 14.8539C12.0669 14.424 12.3227 14.2128 12.76 14.2202C13.0491 14.2239 13.3382 14.2609 13.6272 14.2832C13.6903 14.2869 13.7496 14.2906 13.8126 14.298C14.0201 14.3239 14.1721 14.2943 14.2277 14.0423C14.2795 13.8125 14.4649 13.7124 14.7021 13.7013C14.9096 13.6902 15.1172 13.6754 15.3099 13.6605C15.3618 13.3789 15.3914 13.1083 15.4693 12.8526C15.5063 12.7228 15.6101 12.5598 15.725 12.5153C16.2327 12.3189 16.759 12.2188 17.2779 12.4931C17.6708 12.6969 17.8005 12.9675 17.756 13.4419C17.7486 13.5012 17.7412 13.5642 17.7301 13.6531C17.8412 13.6531 17.9413 13.6494 18.0451 13.6531C18.4861 13.6642 18.5899 13.7977 18.5047 14.2572C18.5677 14.2646 18.6307 14.2795 18.6937 14.2832C19.2348 14.3128 19.7796 14.3388 20.3207 14.3647C20.6839 14.3832 20.8025 14.4722 20.8655 14.8836C20.9026 15.1171 20.8618 15.3617 20.8581 15.6026C20.8544 15.7546 20.8581 15.9102 20.8581 16.0214C21.1213 16.14 21.377 16.2475 21.6216 16.3698C22.5408 16.8331 22.6631 18.0154 22.159 18.7455C21.5364 19.6461 20.2837 19.7239 19.5869 18.8789C19.4535 18.7196 19.3386 18.6825 19.1421 18.6899C18.5269 18.7084 17.908 18.6862 17.2927 18.6936C16.7702 18.701 16.2439 18.7344 15.7213 18.7381C14.6502 18.7418 13.5754 18.7307 12.5043 18.7307C12.1596 18.7307 11.8149 18.7381 11.4702 18.7455C11.4146 18.7455 11.3553 18.7789 11.3071 18.8122C11.2108 18.8752 11.1181 18.953 11.0218 19.0198C10.1656 19.609 9.30206 19.4608 8.47928 18.9864C7.91593 18.6603 7.22656 17.5076 7.53788 16.5255C7.63425 16.2141 7.77509 15.9176 7.91593 15.6248C8.09753 15.2468 8.41627 15.017 8.77578 14.8169C9.11675 14.6241 9.47625 14.613 9.84688 14.6019C9.89135 14.6019 9.93212 14.6056 9.9766 14.6019C9.98771 14.6019 9.99513 14.5908 10.0137 14.5797C10.0062 14.5574 10.0025 14.5352 9.99513 14.513C9.57632 13.5864 9.16493 12.6561 8.7313 11.7407C8.3755 10.9883 7.99005 10.2508 7.61943 9.50582C7.52677 9.32051 7.47859 9.06478 7.33034 8.96101C7.18209 8.85723 6.92636 8.90171 6.71881 8.89059C6.16658 8.85352 5.61064 8.82388 5.05841 8.79052C4.92498 8.78311 4.80639 8.75716 4.79156 8.59779C4.77674 8.43843 4.84345 8.34577 5.00653 8.27906C5.34009 8.14563 5.67736 8.16787 6.02574 8.19381C6.41119 8.22346 6.80034 8.22717 7.1895 8.26053C7.3081 8.27164 7.44894 8.31983 7.52677 8.40507C7.69726 8.58668 7.85292 8.79052 7.98634 9.00548C8.86102 10.4176 9.63933 11.8815 10.4028 13.3529C10.6845 13.9014 11.0143 14.424 11.3257 14.954C11.5036 15.2764 11.5703 15.3024 11.952 15.2209ZM20.3652 16.2549C20.3207 15.8361 20.2763 15.4321 20.2392 15.0281C20.2281 14.9244 20.1984 14.8799 20.0835 14.8799C19.0791 14.8725 18.0747 14.8502 17.0704 14.8465C16.3439 14.8465 15.6175 14.8651 14.8911 14.8799C14.4056 14.891 13.9163 14.9095 13.4308 14.9169C13.264 14.9206 13.0973 14.8947 12.9342 14.8947C12.886 14.8947 12.8119 14.9318 12.7933 14.9725C12.734 15.1023 12.697 15.2431 12.6525 15.3839C12.9231 15.484 13.2084 15.5581 13.4642 15.6878C14.3277 16.1252 15.1987 16.544 16.1141 16.859C16.2698 16.9146 16.4366 16.9628 16.596 16.9665C17.4039 16.9739 18.2119 16.9665 19.0198 16.9591C19.1607 16.9591 19.3015 16.9368 19.4424 16.9109C19.5054 16.8998 19.5832 16.8738 19.6165 16.8257C19.8019 16.5699 20.0539 16.3883 20.3652 16.2549ZM11.852 18.0561C14.3426 18.0895 16.785 18.2155 19.2311 18.1191C19.2756 17.8597 19.32 17.5891 19.3645 17.3075C18.8827 17.3075 18.4046 17.3001 17.9265 17.3112C17.4706 17.3186 17.0185 17.3557 16.5626 17.3631C16.418 17.3668 16.2624 17.3371 16.1327 17.2815C15.6842 17.0962 15.2395 16.8998 14.7984 16.6959C13.9163 16.2957 13.0083 15.9658 12.0855 15.6767C11.9965 15.6508 11.9038 15.636 11.7778 15.6063C12.1485 16.4365 12.2671 17.2371 11.852 18.0561ZM9.68381 14.8984C9.38731 14.9169 8.89437 14.9577 8.56822 15.3728C8.16424 15.8843 7.93817 16.4773 8.04565 17.1296C8.15683 17.8041 8.49781 18.3007 9.22794 18.4898C9.82835 18.6454 10.3398 18.4749 10.8364 18.1933C11.6666 17.7226 11.952 16.5403 11.422 15.7546C11.0514 15.2134 10.5548 14.8762 9.68381 14.8984ZM19.8278 17.7633C19.8315 18.2785 20.2058 18.727 20.6914 18.7603C21.0323 18.7826 21.3585 18.6973 21.6142 18.4564C21.718 18.36 21.8292 18.2303 21.8625 18.0969C21.9329 17.8375 21.9811 17.5632 21.9811 17.2964C21.9811 17.0443 21.8959 16.8034 21.6587 16.6441C21.2584 16.3772 20.8211 16.3698 20.4282 16.6441C20.3911 16.67 20.3578 16.6959 20.3207 16.7145C20.065 16.8405 19.9464 17.0666 19.8871 17.326C19.8537 17.4668 19.8463 17.6188 19.8278 17.7633ZM17.0333 13.616C17.0704 13.5864 17.1185 13.5419 17.1741 13.5049C17.4706 13.3047 17.4558 12.96 17.1519 12.7747C16.7442 12.5227 16.318 12.5968 15.9029 12.7191C15.6657 12.7896 15.599 13.049 15.7213 13.2677C15.8436 13.49 16.0511 13.579 16.2846 13.5938C16.4848 13.6086 16.6886 13.5753 16.8925 13.5679C16.9332 13.5679 16.9814 13.5975 17.0333 13.616ZM10.8883 14.7427C9.70604 13.112 9.04262 11.2107 7.93075 9.55771C7.94928 9.62442 7.97523 9.69114 8.00858 9.75414C8.31991 10.3546 8.63864 10.9513 8.94626 11.5591C9.20199 12.0705 9.4429 12.5894 9.69493 13.1046C9.9173 13.5568 10.1434 14.0089 10.3621 14.4648C10.4547 14.6612 10.5992 14.7502 10.8883 14.7427ZM16.4996 14.0904C16.507 14.1238 16.5144 14.1609 16.5218 14.1942C17.0666 14.1942 17.6152 14.1942 18.1674 14.1942C18.1748 14.0423 18.1081 13.9756 17.9487 13.9793C17.6003 13.9867 17.2483 13.9718 16.8999 13.9867C16.7664 13.9978 16.633 14.0571 16.4996 14.0904ZM5.06212 8.54591C5.06212 8.56814 5.05841 8.59038 5.05841 8.61262C5.19554 8.62374 5.33267 8.63856 5.46981 8.64968C5.46981 8.63486 5.47351 8.61633 5.47351 8.6015C5.33638 8.6015 5.22149 8.41989 5.06212 8.54591Z" fill="#26AB7B" stroke="#26AB7B" stroke-width="0.5"/>
<path d="M24.9832 17.1296C24.8534 17.3927 24.7163 17.6522 24.5903 17.919C24.4272 18.2637 24.2827 18.6158 24.1196 18.9642C24.0825 19.0457 24.0047 19.105 23.9417 19.1754C23.8787 19.1013 23.8157 19.0309 23.7601 18.9568C23.7416 18.9345 23.7341 18.9012 23.7008 18.9197C23.5785 18.8715 23.4525 18.8382 23.3413 18.7714C23.2264 18.7047 23.1189 18.6158 23.0263 18.5231C22.9892 18.4861 22.9892 18.4045 22.9744 18.3452C23.0411 18.3378 23.1263 18.3045 23.1745 18.3304C23.3079 18.4119 23.4302 18.5194 23.5525 18.6195C23.5933 18.6528 23.623 18.7047 23.6711 18.7418C23.5044 18.1822 23.4525 17.578 23.0225 17.1148C23.3746 17.1889 23.5525 17.4483 23.7156 17.7337C23.8046 17.3482 23.7304 16.9813 23.6637 16.5811C23.9083 16.7219 23.9899 16.9369 24.0269 17.1629C24.064 17.3853 24.0714 17.6114 24.0937 17.8894C24.3383 17.5336 24.5977 17.2556 24.9498 17.0925C24.9572 17.1073 24.9683 17.1185 24.9832 17.1296Z" fill="#26AB7B" stroke="#26AB7B" stroke-width="0.5"/>
<path d="M5.56605 17.3927C5.51787 17.6003 5.48081 17.7597 5.44745 17.919C5.39186 18.1599 5.35109 18.4008 5.28067 18.638C5.25473 18.7233 5.1769 18.8308 5.10277 18.8493C4.96564 18.8864 4.9397 18.7604 4.90634 18.6455C4.85816 18.475 4.77291 18.3193 4.7025 18.1562C4.66543 18.0636 4.62837 17.9672 4.59131 17.8746C4.60613 17.8671 4.61726 17.8597 4.63208 17.8523C4.73215 17.9969 4.83221 18.1451 4.9434 18.3082C5.1213 17.9895 5.17319 17.6077 5.56605 17.3927Z" fill="#26AB7B" stroke="#26AB7B" stroke-width="0.5"/>
<path d="M14.4167 20.8729C14.3833 20.7209 14.3574 20.5653 14.3203 20.4133C14.2536 20.1539 14.1758 19.9019 13.9497 19.7314C13.92 19.7091 13.8941 19.635 13.9052 19.6091C13.9237 19.5683 13.9942 19.5164 14.0238 19.5238C14.1239 19.5572 14.2425 19.5905 14.3018 19.6684C14.5019 19.9241 14.5353 20.2317 14.5167 20.543C14.5093 20.6542 14.4871 20.7654 14.4686 20.8803C14.4537 20.8766 14.4352 20.8766 14.4167 20.8729Z" fill="#26AB7B" stroke="#26AB7B" stroke-width="0.5"/>
<path d="M25.0351 18.26C24.9461 18.4787 24.8646 18.701 24.7682 18.916C24.7237 19.0124 24.6459 19.1013 24.5199 19.0457C24.3865 18.9864 24.405 18.8641 24.4495 18.7603C24.557 18.512 24.7312 18.3267 24.9647 18.2081C24.9906 18.2266 25.0128 18.2415 25.0351 18.26Z" fill="#26AB7B" stroke="#26AB7B" stroke-width="0.5"/>
<path d="M6.45943 18.1673C6.40384 18.3601 6.35566 18.5528 6.29265 18.7418C6.27412 18.7974 6.21852 18.8567 6.16663 18.8752C6.13698 18.8864 6.05916 18.8196 6.04062 18.7715C5.97021 18.6084 5.9109 18.4416 5.8516 18.2748C5.84048 18.2452 5.87385 18.2007 5.88496 18.1636C5.91832 18.1896 5.97391 18.2044 5.98503 18.2378C6.03321 18.3564 6.06657 18.4824 6.10734 18.6047C6.2037 18.4453 6.30006 18.2859 6.39272 18.1266C6.41496 18.1414 6.43719 18.1562 6.45943 18.1673Z" fill="#26AB7B" stroke="#26AB7B" stroke-width="0.5"/>
<path d="M4.44322 18.6047C4.42469 18.6455 4.40245 18.7418 4.35057 18.8085C4.33204 18.8308 4.20232 18.8085 4.17638 18.7715C4.11337 18.6714 4.03924 18.5528 4.04666 18.4453C4.05407 18.3415 4.16155 18.3749 4.23197 18.4342C4.28386 18.4824 4.34315 18.5232 4.44322 18.6047Z" fill="#26AB7B" stroke="#26AB7B" stroke-width="0.5"/>
<path d="M14.9021 20.4615C14.9355 20.2873 14.9614 20.1094 15.0059 19.9389C15.017 19.9018 15.1022 19.8685 15.1504 19.8685C15.1801 19.8685 15.2357 19.9611 15.2245 19.9871C15.1504 20.1613 15.0615 20.3244 14.9799 20.4948C14.954 20.4837 14.928 20.4726 14.9021 20.4615Z" fill="#26AB7B" stroke="#26AB7B" stroke-width="0.5"/>
<path d="M16.896 20.3874C16.9256 20.2243 16.9479 20.0612 16.9924 19.9019C17.0035 19.8648 17.085 19.85 17.1332 19.824C17.1554 19.8759 17.2073 19.9389 17.1925 19.976C17.1258 20.1242 17.0405 20.2688 16.9627 20.4133C16.9405 20.4022 16.9182 20.3948 16.896 20.3874Z" fill="#26AB7B" stroke="#26AB7B" stroke-width="0.5"/>
<path d="M23.1299 19.0049C23.0373 18.9716 22.9409 18.9382 22.7964 18.8863C22.8853 18.8456 22.9409 18.7974 22.9743 18.8122C23.0484 18.8419 23.1077 18.9012 23.1744 18.9494C23.1559 18.9642 23.1448 18.9827 23.1299 19.0049Z" fill="#26AB7B" stroke="#26AB7B" stroke-width="0.5"/>
<path d="M18.8939 15.5137C18.7864 15.4914 18.6048 15.5396 18.5714 15.332C18.5492 15.2097 18.6863 15.1208 18.9124 15.0948C19.1348 15.0689 19.2979 15.1616 19.3016 15.3061C19.2979 15.4395 19.1644 15.5137 18.8939 15.5137Z" fill="#26AB7B" stroke="#26AB7B" stroke-width="0.5"/>
<path d="M18.9825 15.6323C19.0233 15.636 19.1048 15.6174 19.1678 15.6471C19.2271 15.673 19.2938 15.7434 19.2976 15.7953C19.3013 15.8472 19.2308 15.9473 19.1864 15.951C19.027 15.9621 18.8639 15.951 18.7046 15.925C18.6564 15.9176 18.5748 15.8102 18.5897 15.7768C18.6119 15.7175 18.686 15.6619 18.749 15.636C18.8046 15.6137 18.8787 15.6323 18.9825 15.6323Z" fill="#26AB7B" stroke="#26AB7B" stroke-width="0.5"/>
<path d="M18.9307 16.5959C18.7899 16.5996 18.649 16.5959 18.6268 16.4106C18.612 16.2771 18.7528 16.1734 18.9381 16.1734C18.9863 16.1734 19.053 16.166 19.079 16.1956C19.1531 16.266 19.2087 16.3513 19.2754 16.4291C19.2013 16.481 19.1346 16.5403 19.0567 16.5848C19.0234 16.6033 18.9752 16.5922 18.9307 16.5959Z" fill="#26AB7B" stroke="#26AB7B" stroke-width="0.5"/>
<path d="M9.2129 16.9813C9.34632 16.7071 9.47975 16.4328 9.61688 16.1586C9.63911 16.1141 9.69471 16.0881 9.73547 16.0548C9.76512 16.0955 9.79478 16.1363 9.84296 16.203C9.85779 16.1289 9.88743 16.0659 9.87631 16.0103C9.84666 15.8621 9.93191 15.8509 10.0357 15.8658C10.2321 15.8917 10.4508 16.103 10.4471 16.3068C10.4434 16.5292 10.4285 16.7664 10.3507 16.9739C10.2062 17.3742 9.76513 17.5521 9.36115 17.4113C9.10912 17.3223 8.9164 17.0888 8.93122 16.8294C8.94234 16.6255 8.99794 16.418 9.05353 16.2216C9.12024 15.9918 9.35373 16.04 9.51681 15.9732C9.55017 15.9584 9.59464 15.9584 9.63541 15.9547C9.46863 16.2142 9.30185 16.4625 9.15731 16.7219C9.12024 16.7923 9.1573 16.9072 9.16101 16.9999C9.18324 16.9925 9.19807 16.9888 9.2129 16.9813ZM9.51681 17.1296C9.49828 17.1222 9.47604 17.1111 9.45751 17.1036C9.48716 16.9925 9.5131 16.8776 9.55387 16.7701C9.59835 16.6552 9.65394 16.5403 9.70582 16.4291C9.6947 16.4217 9.67988 16.418 9.66876 16.4106C9.53534 16.633 9.40562 16.859 9.24996 17.1185C9.39451 17.1555 9.5131 17.1852 9.628 17.2111C9.69842 17.0073 9.76142 16.8331 9.82443 16.6589C9.82072 16.6552 9.81331 16.6552 9.8096 16.6515C9.70582 16.8146 9.60947 16.9702 9.51681 17.1296ZM10.1654 16.5329C10.0468 16.733 9.9282 16.9295 9.79107 17.1555C9.98379 17.1036 10.1839 16.7775 10.1654 16.5329Z" fill="#26AB7B" stroke="#26AB7B" stroke-width="0.5"/>
<path d="M20.6912 17.1852C20.6542 17.3186 20.6245 17.4335 20.5949 17.5484C20.6023 17.5521 20.6134 17.5558 20.6208 17.5595C20.6801 17.4594 20.7394 17.3594 20.7987 17.2593C20.8135 17.263 20.8284 17.2667 20.8432 17.2741C20.8469 17.3149 20.8506 17.3594 20.858 17.4372C20.8988 17.3927 20.9247 17.3668 20.9507 17.3371C20.984 17.3001 21.0211 17.2371 21.0545 17.2371C21.1063 17.2408 21.1768 17.2741 21.2027 17.3186C21.2842 17.4557 21.2805 17.6003 21.1842 17.7337C21.0693 17.8857 20.821 17.9598 20.6542 17.8894C20.4948 17.8264 20.4577 17.6966 20.4689 17.5447C20.4874 17.3927 20.5319 17.2593 20.6912 17.1852Z" fill="#26AB7B" stroke="#26AB7B" stroke-width="0.5"/>
</svg>
