<svg width="29" height="29" viewBox="0 0 29 29" fill="none" xmlns="http://www.w3.org/2000/svg">
<path d="M28 14.3981C27.9481 21.8884 21.9774 27.9629 14.4426 28.0111C6.99671 28.0593 1.00371 22.0515 1.00001 14.6056C0.992594 7.17832 7.13755 1 14.5278 1C22.0144 0.996295 27.9926 6.94111 28 14.3981ZM14.6242 1.69678C7.37475 1.7079 1.65601 7.63418 1.69307 14.7279C1.73014 21.6549 7.4081 27.318 14.361 27.3106C21.5104 27.3032 27.3032 21.5067 27.2995 14.361C27.2995 7.36362 21.6141 1.68566 14.6242 1.69678Z" fill="#26AB7B" stroke="#26AB7B" stroke-width="0.5"/>
<path d="M13.3419 14.5871C13.2677 14.4537 13.1602 14.3314 13.1306 14.1942C12.9119 13.1268 12.7118 12.0557 12.5079 10.9846C12.4746 10.8178 12.5524 10.7289 12.7526 10.6844C13.201 10.5806 13.6495 10.4732 14.1016 10.3805C14.7984 10.236 15.4989 10.0988 16.1994 9.9617C16.381 9.92464 16.5626 9.89498 16.7442 9.87645C16.9221 9.85792 16.9962 9.99135 17.0333 10.1359C17.1259 10.4954 17.2186 10.8512 17.289 11.2144C17.4224 11.8741 17.5447 12.5338 17.6633 13.1935C17.6856 13.3121 17.667 13.4344 17.667 13.5827C17.8079 13.5568 17.9635 13.5308 18.1155 13.4975C18.6566 13.3751 19.1977 13.2528 19.7388 13.1305C20.0094 13.0675 20.0798 13.1083 20.1465 13.3789C20.4319 14.5352 20.7173 15.6878 20.9953 16.8442C21.0286 16.9813 21.036 17.1259 21.062 17.263C21.0694 17.3038 21.1027 17.3408 21.1213 17.3779C21.1657 17.3519 21.2213 17.3334 21.2473 17.2964C21.288 17.2445 21.2917 17.1592 21.3362 17.1148C21.3918 17.0592 21.4734 16.9999 21.5438 16.9999C21.6031 16.9999 21.7031 17.0777 21.7143 17.1333C21.7624 17.3853 21.7995 17.641 21.8106 17.8968C21.818 18.0339 21.7291 18.1377 21.5808 18.171C20.9582 18.3119 20.3318 18.4527 19.7092 18.5972C18.0303 18.9827 16.3476 19.3756 14.6687 19.761C14.2795 19.85 13.8867 19.9352 13.4938 20.0167C13.1825 20.0797 13.0231 19.9834 12.9601 19.6684C12.634 18.0117 12.23 16.3735 11.9854 14.6983C11.8334 13.6568 11.5777 12.6302 11.3887 11.5924C11.2589 10.8697 11.1737 10.1396 11.0477 9.41688C10.955 8.87577 10.8401 8.34207 10.7141 7.80837C10.6882 7.70459 10.5955 7.58229 10.4992 7.53411C9.49477 7.03006 8.48667 6.54454 7.47858 6.0479C7.37109 5.99601 7.27473 5.91077 7.18578 5.82923C7.08571 5.73287 7.13389 5.65874 7.2562 5.64762C7.34515 5.64021 7.44151 5.64763 7.53046 5.66986C8.51632 5.88853 9.43918 6.28139 10.3583 6.68908C10.5844 6.78915 10.8068 6.89293 11.0292 6.9967C11.1996 7.07824 11.2923 7.20425 11.3442 7.39698C11.5703 8.24941 11.8445 9.08702 12.0447 9.94317C12.3263 11.1477 12.5524 12.367 12.8119 13.579C13.0491 14.6872 13.3048 15.7916 13.5457 16.8998C13.6421 17.3445 13.7199 17.7967 13.8088 18.2414C13.8422 18.4119 13.883 18.5787 13.9274 18.7455C13.9386 18.7826 13.983 18.8085 14.0164 18.8382C14.0275 18.7974 14.0572 18.7492 14.0497 18.7121C13.983 18.3193 13.9126 17.9264 13.8348 17.5336C13.7347 16.9999 13.6309 16.4699 13.5198 15.9399C13.4605 15.6582 13.3678 15.3802 13.3196 15.0948C13.3122 14.9244 13.3381 14.7502 13.3419 14.5871ZM20.658 17.4335C20.595 17.0406 20.5468 16.6737 20.4727 16.3142C20.2911 15.4284 20.0983 14.5426 19.9167 13.6568C19.8945 13.5419 19.8389 13.4938 19.7277 13.5123C19.4868 13.5531 19.2422 13.5864 19.0013 13.6383C17.8968 13.8718 16.7961 14.1164 15.6953 14.3462C15.106 14.4685 14.513 14.5871 13.92 14.6909C13.6458 14.739 13.6309 14.7279 13.6902 15.0059C13.9423 16.1919 14.2054 17.3779 14.4611 18.5639C14.4908 18.7084 14.5612 18.7233 14.6835 18.6936C14.9244 18.6343 15.1616 18.5824 15.4025 18.5305C16.7442 18.2452 18.0896 17.9598 19.4349 17.6781C19.8426 17.5929 20.254 17.515 20.658 17.4335ZM12.9712 11.8185C12.9786 11.8778 12.9786 11.9186 12.9898 11.9594C13.1714 12.6561 13.3567 13.3529 13.5494 14.046C13.5605 14.0905 13.668 14.146 13.7273 14.1386C13.9645 14.1127 14.2054 14.0793 14.4389 14.0237C15.0764 13.8644 15.7139 13.7013 16.3476 13.5271C16.5996 13.4567 16.848 13.364 17.0889 13.264C17.1445 13.2417 17.2001 13.1231 17.1889 13.0601C17.0778 12.3856 16.9554 11.7147 16.8368 11.0402C16.8183 10.9364 16.7664 10.9142 16.6664 10.9364C15.8213 11.1292 14.9726 11.3108 14.1276 11.5072C13.7421 11.5961 13.3678 11.711 12.9712 11.8185ZM11.4257 8.94618C11.422 8.94618 11.4146 8.94989 11.4109 8.94989C11.5629 9.83568 11.7148 10.7215 11.8742 11.6036C12.1299 13.049 12.3856 14.4944 12.6525 15.9362C12.8675 17.0999 13.0935 18.26 13.3196 19.42C13.3604 19.6313 13.4012 19.6572 13.6124 19.6091C14.1313 19.4942 14.6465 19.383 15.1653 19.2644C17.1741 18.8085 19.1792 18.3526 21.188 17.8968C21.4437 17.8375 21.4437 17.8338 21.4066 17.5892C21.1954 17.6485 20.9841 17.7189 20.7692 17.7633C19.4609 18.0376 18.1489 18.3119 16.8405 18.5824C16.0511 18.7455 15.258 18.9012 14.4648 19.0568C14.3129 19.0865 14.1609 19.1124 14.009 19.1272C13.8459 19.1421 13.7199 19.0791 13.6643 18.9123C13.5753 18.6454 13.4642 18.3823 13.3974 18.108C13.2047 17.3001 13.0194 16.4884 12.8489 15.673C12.4931 13.9533 12.1559 12.2299 11.8038 10.5065C11.6889 9.98393 11.5517 9.46876 11.4257 8.94618ZM11.2145 7.84173C11.1552 8.26795 11.1959 8.48661 11.3405 8.67933C11.2997 8.39395 11.2552 8.11599 11.2145 7.84173ZM16.1215 10.2916C16.1252 10.3064 16.129 10.3175 16.129 10.3323C16.2994 10.3101 16.4699 10.2878 16.6404 10.2693C16.6367 10.2434 16.6293 10.2174 16.6256 10.1878C16.4588 10.2211 16.292 10.2545 16.1215 10.2916Z" fill="#26AB7B" stroke="#26AB7B" stroke-width="0.5"/>
<path d="M15.8769 23.4191C15.1022 23.4413 14.3054 22.7964 14.1053 22.1849C13.8866 21.5215 13.9644 20.9359 14.3351 20.3948C14.487 20.1724 14.7687 20.0241 15.017 19.8796C15.5025 19.5979 16.0399 19.546 16.5885 19.6239C17.137 19.7017 17.4891 20.0501 17.7003 20.5245C17.9301 21.0396 18.0265 21.5919 17.8375 22.1441C17.641 22.7186 17.2667 23.1337 16.6589 23.2893C16.4031 23.3523 16.14 23.3746 15.8769 23.4191ZM15.9732 22.0848C16.4106 22.1145 16.6107 21.7031 16.644 21.3324C16.6737 20.9952 16.3587 20.6876 16.0029 20.7098C15.6841 20.7283 15.269 21.0434 15.2876 21.4066C15.3061 21.7883 15.6063 22.0922 15.9732 22.0848Z" fill="#26AB7B" stroke="#26AB7B" stroke-width="0.5"/>
<path d="M19.7721 14.9911C19.5609 14.6686 19.6202 14.3277 19.5201 14.02C19.3088 14.0793 19.1087 14.1386 18.9049 14.1831C18.7789 14.2128 18.6528 14.2276 18.5231 14.2387C18.4935 14.2424 18.4564 14.2017 18.4268 14.1794C18.449 14.1572 18.4675 14.1201 18.4935 14.1127C18.8344 14.0349 19.1754 13.9645 19.5127 13.8792C19.6202 13.8533 19.6906 13.8681 19.7091 13.9719C19.761 14.2535 19.8055 14.5389 19.8463 14.8243C19.8537 14.8688 19.8129 14.9095 19.7721 14.9911Z" fill="#26AB7B" stroke="#26AB7B" stroke-width="0.5"/>
<path d="M16.7925 16.7182C16.8184 16.5922 16.8407 16.4662 16.8703 16.3402C16.9518 16.014 17.0334 15.6879 17.1223 15.3617C17.1483 15.2691 17.1928 15.1801 17.2409 15.0949C17.2595 15.0615 17.3151 15.0467 17.3558 15.0244C17.3744 15.0689 17.4003 15.1134 17.4114 15.1616C17.4188 15.1949 17.4003 15.232 17.3892 15.2691C17.2187 15.7323 17.0482 16.1993 16.8777 16.6626C16.8703 16.6885 16.8481 16.7071 16.8295 16.7293C16.8184 16.7293 16.8073 16.7219 16.7925 16.7182Z" fill="#26AB7B" stroke="#26AB7B" stroke-width="0.5"/>
<path d="M15.9843 15.9436C15.8435 16.4402 15.7063 16.9368 15.5655 17.4335C15.5359 17.4261 15.5062 17.4149 15.4766 17.4075C15.6248 16.9146 15.7731 16.4217 15.9213 15.9287C15.9398 15.9324 15.9621 15.9399 15.9843 15.9436Z" fill="#26AB7B" stroke="#26AB7B" stroke-width="0.5"/>
<path d="M16.6921 17.2111C16.6439 17.3223 16.5958 17.4372 16.5476 17.5484C16.5291 17.541 16.5068 17.5335 16.4883 17.5261C16.529 17.4075 16.5698 17.2926 16.6069 17.174C16.6365 17.1852 16.6662 17.2 16.6921 17.2111Z" fill="#26AB7B" stroke="#26AB7B" stroke-width="0.5"/>
</svg>
