<svg width="29" height="29" viewBox="0 0 29 29" fill="none" xmlns="http://www.w3.org/2000/svg">
<path d="M28 14.4018C27.9481 21.8921 21.9774 27.9666 14.4426 28.0148C6.993 28.0593 1.00742 22.0552 1.00001 14.6056C0.992594 7.17831 7.13754 1 14.5315 1C22.0181 1 27.9926 6.94482 28 14.4018ZM14.6242 1.70048C7.37474 1.7116 1.65601 7.63788 1.69307 14.7316C1.73014 21.6586 7.4044 27.3218 14.361 27.318C21.5178 27.3106 27.3181 21.5029 27.2995 14.3499C27.2884 7.3525 21.6104 1.68936 14.6242 1.70048Z" fill="#26AB7B" stroke="#26AB7B" stroke-width="0.5"/>
<path d="M18.2969 18.5824C18.4155 19.1532 18.4007 19.6943 18.308 20.2428C18.2079 20.8284 17.9745 21.3621 17.5853 21.7994C17.2073 22.2219 16.7143 22.4814 16.1362 22.5444C15.6506 22.5963 15.1688 22.6667 14.6833 22.7C14.1422 22.7371 13.6011 22.7482 13.0563 22.7593C12.4596 22.7705 11.8629 22.7816 11.2624 22.7705C11.0512 22.7668 10.8362 22.7223 10.6287 22.6778C9.41673 22.4295 8.84968 21.5882 8.57912 20.4615C8.39011 19.6832 8.31227 18.89 8.29374 18.0969C8.26409 16.7219 8.28262 15.3469 8.29004 13.9718C8.29374 13.0898 8.31227 12.2077 8.3271 11.3256C8.3308 11.0476 8.34192 10.7696 8.35304 10.4954C8.35675 10.3916 8.33451 10.336 8.21961 10.2952C7.87122 10.1692 7.80451 10.0358 7.83046 9.66148C7.86752 9.12407 7.89347 8.58296 7.91941 8.04185C7.92682 7.91213 8.02319 7.90842 8.11584 7.89731C8.60136 7.84542 9.08317 7.78982 9.56869 7.74906C9.89855 7.72311 10.2321 7.71941 10.5657 7.71199C11.0289 7.70458 11.4922 7.70458 11.9518 7.70088C12.3484 7.69346 12.5411 7.83059 12.656 8.21604C12.8228 8.7831 12.8079 9.36127 12.7412 9.93945C12.7042 10.2656 12.504 10.4027 12.1742 10.3916C12.126 10.3916 12.0778 10.3916 12.0074 10.3916C12.0074 10.8734 11.9926 11.3478 12.0111 11.8222C12.063 13.2343 12.1075 14.6427 12.0667 16.0585C12.0482 16.67 12.1594 17.2852 12.2112 17.9005C12.2298 18.134 12.252 18.3674 12.2779 18.6009C12.3113 18.916 12.4077 19.0123 12.7079 19.0976C13.0822 19.1976 13.4417 19.1421 13.8012 19.0309C14.0458 18.953 14.12 18.6602 13.968 18.4601C13.9124 18.386 13.8679 18.2822 13.8679 18.1895C13.8716 17.8078 13.8828 17.4261 13.9124 17.048C13.9346 16.7589 14.1644 16.6811 14.3942 16.6366C14.3942 16.2994 14.3905 15.9695 14.3942 15.6397C14.4016 14.802 14.4053 13.9644 14.4313 13.1268C14.4387 12.8896 14.5091 12.6524 14.5758 12.4226C14.6129 12.2855 14.6981 12.1632 14.7611 12.0372C14.7871 12.0446 14.813 12.0483 14.839 12.0557C14.8167 13.5642 14.7945 15.0726 14.7723 16.5959C15.0762 16.5959 15.3653 16.5996 15.6543 16.5959C16.1769 16.5884 16.7032 16.5736 17.2258 16.5662C17.6075 16.5625 17.6149 16.5662 17.6668 16.2067C17.6928 16.0325 17.6668 15.8509 17.6668 15.673C17.6668 15.1615 17.652 14.6501 17.6742 14.1423C17.6928 13.7569 17.8892 13.5753 18.2747 13.5086C18.7194 13.4307 19.1679 13.3492 19.6126 13.2677C19.5941 12.3411 19.5718 11.4405 19.5533 10.5547C18.5526 10.5955 17.5519 10.6325 16.5513 10.6844C16.2807 10.6992 16.0138 10.7511 15.7433 10.7808C15.4913 10.8104 15.2837 10.9105 15.1318 11.118C15.1095 11.1477 15.0725 11.1699 15.0243 11.207C14.9761 10.9661 15.1021 10.8364 15.2578 10.7326C15.6136 10.4954 16.0138 10.3731 16.4289 10.3101C17.3147 10.1729 18.2042 10.1173 19.1011 10.1989C19.1493 10.2026 19.1975 10.1989 19.2494 10.1989C19.3606 10.1989 19.4681 10.1989 19.5644 10.1989C19.5867 10.1655 19.5941 10.1544 19.5978 10.1433C19.6348 9.7319 19.6311 9.70595 20.0388 9.66889C20.4984 9.62442 20.9617 9.617 21.4213 9.62071C21.7103 9.62442 21.7696 9.7356 21.7734 10.021C21.7845 11.0995 21.803 12.178 21.8215 13.2565C21.8252 13.4085 21.8401 13.5642 21.8623 13.7161C21.8957 13.9607 21.7882 14.0904 21.5324 14.1127C21.0247 14.1572 20.5132 14.1534 20.0018 14.146C19.8016 14.1423 19.6756 14.0163 19.6608 13.7754C19.2123 13.8088 18.7713 13.831 18.334 13.8792C18.1672 13.8977 18.0671 14.0274 18.0745 14.209C18.0893 14.8873 18.1042 15.5655 18.1264 16.2438C18.1338 16.4995 18.1449 16.5032 18.397 16.5329C18.6861 16.5662 18.7898 16.6477 18.8195 16.9442C18.8602 17.3631 18.8825 17.7819 18.901 18.2007C18.9084 18.386 18.7824 18.512 18.586 18.5453C18.5044 18.5528 18.4118 18.5639 18.2969 18.5824ZM8.72737 10.3027C8.72737 11.055 8.72737 11.7666 8.72737 12.4819C8.72737 13.4641 8.7459 14.4425 8.73108 15.4247C8.71625 16.6959 8.6829 17.9635 8.82744 19.231C8.89415 19.8203 8.97569 20.4059 9.19807 20.9581C9.4538 21.5993 9.88742 22.0552 10.5916 22.1738C11.1438 22.2701 11.6998 22.3665 12.2557 22.3961C12.8561 22.4258 13.4602 22.3702 14.0644 22.3628C14.7611 22.3554 15.4542 22.2849 16.1287 22.1033C16.5809 21.9847 16.9849 21.7809 17.2443 21.3695C17.5297 20.9211 17.7373 20.4429 17.7891 19.9092C17.8299 19.4941 17.841 19.079 17.867 18.6491C17.778 18.6565 17.7187 18.6639 17.6557 18.6677C16.8996 18.7158 16.1436 18.7677 15.3875 18.8048C15.2059 18.8122 15.0206 18.7751 14.8353 18.7566C14.6833 18.7381 14.5758 18.7492 14.5202 18.9382C14.4313 19.2236 14.2237 19.4274 13.9421 19.5201C13.6715 19.6127 13.3898 19.6906 13.1082 19.7276C12.3558 19.824 11.8258 19.3904 11.748 18.6343C11.7183 18.3267 11.6998 18.0191 11.6812 17.7114C11.6442 16.9739 11.5997 16.2364 11.5775 15.4951C11.5552 14.8317 11.5589 14.1646 11.5441 13.4974C11.5256 12.5375 11.4403 11.5739 11.5738 10.6177C11.5849 10.5436 11.596 10.4657 11.6034 10.3916C10.6583 10.1729 9.72435 10.3249 8.72737 10.3027ZM15.7136 18.3452C16.5105 18.2822 17.3703 18.2118 18.2302 18.1451C18.3414 18.1377 18.4007 18.108 18.4007 17.9857C18.397 17.6781 18.4044 17.3705 18.3933 17.0628C18.3933 17.0184 18.308 16.9554 18.2524 16.9442C18.1079 16.9146 17.9596 16.9035 17.8114 16.8961C17.4482 16.8738 17.0887 16.8368 16.7254 16.8479C16.1436 16.8627 15.558 16.9183 14.9761 16.948C14.7982 16.9554 14.6203 16.922 14.4424 16.9368C14.3794 16.9405 14.2719 17.0184 14.2682 17.0703C14.2386 17.4186 14.2311 17.7707 14.22 18.1191C14.2163 18.234 14.2793 18.2748 14.3942 18.2822C14.813 18.297 15.2318 18.3193 15.7136 18.3452ZM8.37898 9.75413C8.89786 9.71337 9.41673 9.65407 9.93931 9.63553C10.41 9.617 10.8844 9.63924 11.3588 9.64295C11.5923 9.64665 11.8258 9.65777 12.0593 9.65407C12.0963 9.65407 12.1631 9.59477 12.1668 9.56141C12.1853 9.17596 12.1964 8.7868 12.2001 8.40136C12.2001 8.25311 12.1075 8.21234 11.9592 8.23087C11.7591 8.25681 11.5552 8.28276 11.3514 8.27534C10.6176 8.2494 9.88743 8.20492 9.15359 8.17527C8.83486 8.16416 8.51612 8.17157 8.2085 8.17157C8.26039 8.69044 8.31968 9.21302 8.37898 9.75413ZM21.362 13.6197C21.362 12.4523 21.362 11.3071 21.362 10.1211C20.9135 10.1211 20.491 10.1211 20.0203 10.1211C20.0462 11.3515 20.0722 12.5338 20.0981 13.7272C20.5355 13.6902 20.9283 13.6568 21.362 13.6197Z" fill="#26AB7B" stroke="#26AB7B" stroke-width="0.5"/>
<path d="M22.155 14.7353C22.1958 14.2053 22.2959 13.7421 22.5961 13.3418C22.6517 13.2677 22.6776 13.175 22.7369 13.1046C22.8555 12.96 23.0334 12.9786 23.0593 13.1528C23.1261 13.5864 23.4189 13.9014 23.5894 14.2795C23.7487 14.6279 23.7265 14.9911 23.5338 15.3283C23.4003 15.5618 23.2002 15.6915 22.9185 15.6434C22.5775 15.5878 22.3144 15.4247 22.2106 15.08C22.1699 14.954 22.1661 14.8206 22.155 14.7353ZM23.0853 15.2839C23.4819 14.9725 23.3559 14.2239 22.8444 13.8014C22.9445 14.3054 23.341 14.7316 23.0853 15.2839Z" fill="#26AB7B" stroke="#26AB7B" stroke-width="0.5"/>
<path d="M22.2628 16.1697C22.1924 16.4958 22.1145 16.7441 21.9107 16.9332C21.7476 17.0851 21.5215 17.0851 21.3362 16.9369C21.0286 16.696 20.8692 16.3846 20.9952 15.9955C21.1176 15.6211 21.2658 15.2579 21.4103 14.8947C21.4289 14.8465 21.4882 14.8132 21.5289 14.7724C21.566 14.8132 21.6105 14.8502 21.6364 14.8984C21.7587 15.1097 21.881 15.3209 21.9885 15.5433C22.0997 15.762 22.1849 15.9918 22.2628 16.1697Z" fill="#26AB7B" stroke="#26AB7B" stroke-width="0.5"/>
<path d="M16.2881 11.4701C16.2065 11.5369 16.1361 11.6332 16.0434 11.6592C15.8581 11.7111 15.7692 11.8334 15.7062 11.9927C15.6432 12.141 15.5913 12.2929 15.5209 12.4338C15.4986 12.4782 15.4319 12.5042 15.3837 12.5375C15.3467 12.4857 15.2874 12.4375 15.2837 12.3819C15.2503 12.0446 15.3911 11.7444 15.632 11.548C15.7803 11.4257 16.0434 11.4368 16.2547 11.3886C16.2621 11.4146 16.2769 11.4442 16.2881 11.4701Z" fill="#26AB7B" stroke="#26AB7B" stroke-width="0.5"/>
<path d="M16.9999 11.081C17.0555 11.1255 17.0888 11.1551 17.1222 11.181C17.0777 11.2218 17.037 11.2737 16.9888 11.2996C16.9739 11.3071 16.8924 11.2366 16.8961 11.2255C16.9109 11.181 16.9517 11.1403 16.9999 11.081Z" fill="#26AB7B" stroke="#26AB7B" stroke-width="0.5"/>
<path d="M10.0656 20.9136C9.87657 20.947 9.76168 20.8766 9.7172 20.6839C9.66532 20.4504 9.5949 20.2243 9.54301 19.9908C9.52448 19.9093 9.5393 19.8166 9.5393 19.7314C9.56525 19.7276 9.59119 19.7276 9.61714 19.7239C9.66161 19.9241 9.70979 20.1242 9.75427 20.3281C9.78392 20.4578 9.79133 20.5986 9.84692 20.7172C9.88399 20.795 9.98034 20.8395 10.0656 20.9136Z" fill="#26AB7B" stroke="#26AB7B" stroke-width="0.5"/>
</svg>
