<svg width="29" height="29" viewBox="0 0 29 29" fill="none" xmlns="http://www.w3.org/2000/svg">
<path d="M28 14.4074C27.9444 21.8967 21.9671 27.9667 14.4333 28.0074C6.98477 28.0482 1.00371 22.0412 1 14.5926C1 7.16635 7.14411 0.996296 14.5371 1C22.0264 1.00371 27.9926 6.94771 28 14.4074ZM14.6149 1.69668C7.37387 1.7115 1.66333 7.62956 1.69668 14.7186C1.73003 21.6521 7.41092 27.3256 14.374 27.3107C21.5261 27.2959 27.3107 21.5001 27.3033 14.3555C27.2922 7.35534 21.6113 1.68556 14.6149 1.69668Z" fill="#26AB7B" stroke="#26AB7B" stroke-width="0.5"/>
<path d="M20.5108 12.6545C20.8814 13.0066 21.2223 13.3475 21.5743 13.6699C22.3636 14.3888 23.1567 15.1003 23.9497 15.8155C24.0683 15.923 24.1795 16.0416 24.2795 16.1639C24.4277 16.338 24.4166 16.4529 24.2573 16.679C24.1424 16.8383 23.9831 16.9013 23.8052 16.8309C23.7088 16.7939 23.6125 16.742 23.5347 16.6753C23.1159 16.3121 22.6823 15.9638 22.2895 15.571C21.8597 15.1485 21.4743 14.6816 21.0592 14.2406C20.6961 13.8552 20.3255 13.4809 19.9401 13.0844C19.3694 13.5217 18.8061 13.9479 18.2429 14.3777C18.0576 14.5185 17.8649 14.6556 17.6796 14.7965C17.6351 14.8298 17.6092 14.8817 17.5721 14.9262C17.6166 14.9595 17.6574 15.0114 17.7092 15.0299C17.8167 15.0707 17.9316 15.1115 18.0465 15.1263C18.5912 15.1967 18.8766 15.5413 19.0174 16.0342C19.0544 16.1639 19.0804 16.301 19.0841 16.4344C19.0915 16.6012 18.9729 16.6938 18.8061 16.6716C18.7024 16.6567 18.5986 16.6345 18.5023 16.6012C17.7537 16.3492 17.0089 16.0935 16.2603 15.8452C15.8638 15.7155 15.4599 15.6043 15.0633 15.4746C14.9892 15.4524 14.9336 15.382 14.8669 15.3375C14.9262 15.2819 14.9744 15.2115 15.0448 15.1782C15.345 15.0225 15.6414 14.8521 15.9564 14.7446C16.1232 14.689 16.3307 14.7372 16.5123 14.7631C16.6049 14.7779 16.6679 14.7779 16.7606 14.7298C16.9051 14.6556 17.0793 14.6445 17.2646 14.6038C17.9612 13.9367 18.6876 13.2363 19.3731 12.5841C19.0841 12.284 18.7987 11.9875 18.4837 11.6577C18.4393 11.7948 18.3763 11.9319 18.354 12.0728C18.254 12.662 17.9946 13.1659 17.5128 13.5217C17.0941 13.8293 16.1269 13.6403 15.9008 13.0659C15.723 12.6212 15.4858 12.2025 15.2968 11.7615C15.2301 11.6095 15.2079 11.428 15.2116 11.2575C15.2153 10.8573 15.3153 10.4719 15.508 10.1235C15.6081 9.93824 15.7637 9.77519 15.9268 9.63808C16.3159 9.30456 16.7309 9.0044 17.2423 8.88211C17.5017 8.81911 17.7537 8.84135 17.9946 8.96734C18.5467 9.24898 18.9729 9.67143 19.299 10.1902C19.3324 10.2421 19.3138 10.357 19.2768 10.42C19.1397 10.672 18.984 10.9166 18.8247 11.1797C19.173 11.4761 19.5288 11.7763 19.903 12.095C20.0698 11.9393 20.2254 11.7837 20.3922 11.6392C21.0852 11.0388 21.7818 10.4422 22.4785 9.84189C22.6231 9.7159 22.8046 9.7122 22.964 9.75666C23.0603 9.78631 23.1678 9.90489 23.2011 10.0049C23.2641 10.1902 23.2086 10.3829 23.0603 10.5126C22.4378 11.0574 21.8115 11.5947 21.1815 12.132C20.9703 12.3025 20.7479 12.4656 20.5108 12.6545ZM16.9829 11.4909C17.3757 11.3687 17.7685 11.2538 18.1576 11.1241C18.291 11.0796 18.443 11.0314 18.5319 10.9351C18.7024 10.7498 18.8358 10.5349 18.9766 10.3236C19.0025 10.2866 19.0063 10.1976 18.9803 10.168C18.6468 9.79002 18.3281 9.38238 17.8427 9.18969C17.6833 9.12669 17.4721 9.10445 17.309 9.14892C17.057 9.21563 16.8273 9.36015 16.5864 9.46391C16.264 9.60843 16.0898 9.88636 15.9638 10.1902C15.8971 10.3533 15.8897 10.5534 16.0231 10.7164C16.1491 10.8758 16.2751 11.0388 16.4048 11.1945C16.5493 11.3687 16.742 11.4539 16.9829 11.4909ZM15.2079 15.2856C15.3932 15.3227 15.5488 15.3449 15.697 15.3894C16.4789 15.6303 17.2534 15.8822 18.0353 16.1268C18.2355 16.1898 18.4467 16.2269 18.6876 16.2862C18.6246 16.1083 18.5616 15.9823 18.5393 15.8526C18.4949 15.5413 18.2614 15.4339 18.0131 15.3634C17.6055 15.2449 17.1941 15.1485 16.7865 15.0447C16.5975 14.9966 16.4011 14.9188 16.2158 14.9262C15.8638 14.9484 15.534 15.0707 15.2079 15.2856ZM22.6823 10.0087C21.4632 11.2019 20.1587 12.2988 18.9025 13.4513C19.047 13.3735 19.1767 13.2771 19.3027 13.1734C19.7622 12.7991 20.1958 12.3951 20.6775 12.0542C21.3853 11.5539 22.0635 11.0277 22.6786 10.4163C22.8676 10.2347 22.8713 10.168 22.6823 10.0087ZM23.7348 16.4159C23.7533 16.3973 23.7718 16.3825 23.7867 16.364C23.6792 16.2306 23.5791 16.0861 23.4568 15.9638C23.2419 15.7451 23.0084 15.5413 22.7898 15.3227C21.956 14.5037 21.1296 13.681 20.2884 12.851C20.2588 12.8732 20.2069 12.9177 20.1476 12.9695C20.2699 13.0733 20.3774 13.1548 20.4737 13.2512C21.4557 14.2184 22.4341 15.193 23.4161 16.1602C23.5124 16.2565 23.6273 16.3306 23.7348 16.4159ZM18.6987 11.3872C18.6801 11.4057 18.6616 11.4242 18.6431 11.4391C18.9433 11.7615 19.2434 12.0839 19.551 12.41C19.5695 12.3989 19.5881 12.3877 19.6066 12.3692C19.6251 12.347 19.6436 12.3247 19.6733 12.2803C19.3435 11.9801 19.0211 11.6836 18.6987 11.3872Z" fill="#26AB7B" stroke="#26AB7B" stroke-width="0.5"/>
<path d="M17.9797 19.5435C17.8833 19.1729 17.7944 18.8246 17.7055 18.4763C17.6054 18.0871 17.4979 17.7018 17.4053 17.3126C17.3756 17.1904 17.3868 17.057 17.3905 16.9273C17.3905 16.8902 17.4423 16.8531 17.4683 16.8161C17.5016 16.8457 17.5535 16.868 17.5683 16.905C17.9019 17.8055 18.2761 18.6949 18.4688 19.6399C18.5392 19.9882 18.4244 20.0882 18.0686 20.0734C17.5832 20.0549 17.094 20.0734 16.6086 20.0808C15.3523 20.0957 14.0924 20.1142 12.8361 20.1216C11.2834 20.1327 9.73071 20.1364 8.1743 20.1438C7.42945 20.1475 6.68089 20.1661 5.93604 20.1438C5.60993 20.1327 5.28012 20.0512 4.96143 19.966C4.6835 19.8956 4.55009 19.6621 4.6168 19.3582C4.67979 19.0581 4.78726 18.769 4.86508 18.4725C5.46911 16.2083 6.06574 13.9478 6.67348 11.6836C6.77724 11.3019 6.92176 10.9351 7.05146 10.5645C7.0737 10.5015 7.11075 10.4311 7.16264 10.4014C7.24046 10.357 7.33681 10.3422 7.42574 10.3125C7.42945 10.3903 7.45539 10.4756 7.43316 10.546C7.24787 11.1537 7.03293 11.7503 6.86618 12.3618C6.52525 13.6217 6.21026 14.8891 5.87675 16.1528C5.61364 17.1607 5.33941 18.165 5.06889 19.1692C4.99478 19.4546 5.0096 19.4694 5.28753 19.5546C5.72852 19.6917 6.17691 19.6769 6.6253 19.6399C6.69201 19.6361 6.75871 19.625 6.82912 19.625C8.54858 19.6102 10.268 19.588 11.9875 19.5806C13.2438 19.5769 14.5037 19.5954 15.7599 19.588C16.3751 19.5843 16.9902 19.5398 17.6091 19.5176C17.7203 19.5213 17.8315 19.5361 17.9797 19.5435Z" fill="#26AB7B" stroke="#26AB7B" stroke-width="0.5"/>
<path d="M7.87036 10.0087C7.93336 9.95306 7.98895 9.87154 8.06306 9.84931C8.19647 9.80854 8.34099 9.79001 8.48181 9.78631C8.88944 9.77519 9.29337 9.77519 9.701 9.77519C10.809 9.77519 11.9207 9.77519 13.0287 9.77519C13.6254 9.77519 14.222 9.7826 14.8186 9.79001C14.8668 9.79001 14.9298 9.7826 14.9631 9.80854C15.041 9.87154 15.1521 9.94565 15.167 10.0309C15.1855 10.1606 15.0595 10.2125 14.9409 10.2199C14.8112 10.2273 14.6815 10.2273 14.5518 10.2236C13.5735 10.2088 12.5915 10.1976 11.6132 10.1754C10.6645 10.1532 9.71582 10.1161 8.76715 10.0865C8.4781 10.0791 8.19276 10.0865 7.90371 10.0865C7.8963 10.0642 7.88518 10.0383 7.87036 10.0087Z" fill="#26AB7B" stroke="#26AB7B" stroke-width="0.5"/>
<path d="M16.1231 17.1681C15.6858 17.3571 15.2893 17.7092 14.7446 17.3942C14.3999 17.1941 14.0257 17.1867 13.6403 17.346C13.3512 17.4683 13.0362 17.5165 12.7583 17.3053C12.0987 16.805 11.4057 16.8346 10.709 17.1756C10.1161 17.4646 9.51578 17.4905 8.88951 17.3386C8.7524 17.3053 8.61158 17.2645 8.493 17.1941C8.1706 17.0125 7.83708 16.9606 7.47763 17.0496C7.34793 17.0829 7.21081 17.1014 7.07741 17.1126C7.03664 17.1163 6.96994 17.0903 6.95882 17.0644C6.944 17.031 6.97365 16.9717 6.99588 16.9347C7.01441 16.905 7.05147 16.8865 7.08852 16.8754C7.50357 16.7494 7.92602 16.6271 8.34848 16.8346C8.76722 17.0384 9.20079 17.1644 9.66401 17.1459C9.90859 17.1348 10.1495 17.0866 10.3866 17.031C10.7831 16.9421 11.1722 16.7827 11.5688 16.7568C11.8875 16.7346 12.2432 16.8087 12.5285 16.9495C12.9139 17.1385 13.2771 17.1718 13.6662 17.031C14.085 16.8791 14.4963 16.9124 14.8928 17.0718C15.1522 17.1755 15.3894 17.183 15.6414 17.0866C15.7155 17.0607 15.797 17.0347 15.8748 17.0347C15.9601 17.0347 16.0453 17.0681 16.1268 17.0866C16.1268 17.12 16.1268 17.1422 16.1231 17.1681Z" fill="#26AB7B" stroke="#26AB7B" stroke-width="0.5"/>
<path d="M14.4703 12.0209C14.374 12.0394 14.2739 12.0802 14.1813 12.0727C13.7625 12.0394 13.3623 12.1061 12.9658 12.2469C12.5544 12.3914 12.1468 12.2988 11.7614 12.132C11.3908 11.9727 11.0351 11.9949 10.6756 12.1765C10.0753 12.4767 9.47128 12.5026 8.87465 12.158C8.63007 12.0172 8.37808 12.006 8.11127 12.1098C8.02974 12.1394 7.92228 12.1098 7.82593 12.1061C7.87781 12.0172 7.91116 11.9023 7.98898 11.843C8.16315 11.7059 8.37808 11.6503 8.60043 11.6985C8.7746 11.7355 8.95988 11.7689 9.10811 11.8541C9.58986 12.1394 10.0679 12.1061 10.5645 11.9134C10.8609 11.7985 11.1648 11.6762 11.4946 11.7466C11.6762 11.7837 11.8615 11.817 12.0282 11.8912C12.3469 12.0394 12.6619 12.032 12.9769 11.9097C13.3919 11.7466 13.8107 11.7726 14.2294 11.8689C14.311 11.8875 14.3888 11.9245 14.4666 11.9542C14.4666 11.9727 14.4703 11.9949 14.4703 12.0209Z" fill="#26AB7B" stroke="#26AB7B" stroke-width="0.5"/>
<path d="M14.3777 15.6895C14.2925 15.7266 14.2406 15.7525 14.185 15.7748C14.022 15.8415 13.8478 15.8934 13.6922 15.9786C13.4031 16.1342 13.1141 16.1379 12.8176 16.0268C12.6397 15.9601 12.4544 15.8971 12.2951 15.797C11.8726 15.5265 11.4539 15.5673 11.0314 15.7822C10.4904 16.0564 9.9123 16.1713 9.31567 16.1491C9.07109 16.1416 8.81169 16.0898 8.58564 15.9934C8.25954 15.8526 7.94084 15.8748 7.60733 15.8934C7.52951 15.8971 7.44428 15.86 7.36646 15.8415C7.42945 15.7785 7.48133 15.6784 7.55545 15.6562C7.88526 15.5598 8.2336 15.5598 8.53006 15.7081C8.97475 15.9267 9.42314 15.9304 9.88265 15.8489C10.2013 15.7896 10.5089 15.6747 10.8202 15.5747C10.961 15.5302 11.0944 15.4672 11.2315 15.4116C11.5539 15.2856 11.8689 15.3042 12.1802 15.4487C12.3433 15.5228 12.5026 15.6006 12.6694 15.6673C13.0251 15.8155 13.3772 15.8489 13.7403 15.6673C13.9775 15.545 14.1331 15.5636 14.3777 15.6895Z" fill="#26AB7B" stroke="#26AB7B" stroke-width="0.5"/>
<path d="M7.88159 13.1622C8.04835 13.0955 8.2114 12.9806 8.38187 12.9732C8.62644 12.9621 8.89326 12.9881 9.11931 13.0733C9.65664 13.2771 10.1791 13.3253 10.7128 13.0733C11.2316 12.825 11.7504 12.7583 12.2914 13.051C12.6916 13.2697 13.1215 13.2475 13.5477 13.0918C13.7811 13.0066 14.0183 12.9288 14.2703 12.9992C14.3444 13.0214 14.4111 13.0622 14.4852 13.0955C14.4815 13.1178 14.4741 13.14 14.4704 13.1622C14.3889 13.1733 14.3073 13.177 14.2258 13.1919C14.0405 13.2252 13.8441 13.2363 13.67 13.2993C13.0919 13.5106 12.536 13.5402 11.9727 13.2475C11.6244 13.0659 11.2538 13.0881 10.9092 13.2919C10.4571 13.5624 9.97163 13.6217 9.46394 13.5143C9.31571 13.4846 9.16748 13.4216 9.03778 13.3401C8.7302 13.14 8.40781 13.1029 8.06688 13.2141C8.02612 13.2252 7.98535 13.2326 7.94088 13.24C7.92977 13.24 7.91865 13.2289 7.90753 13.2252C7.89641 13.203 7.889 13.1845 7.88159 13.1622Z" fill="#26AB7B" stroke="#26AB7B" stroke-width="0.5"/>
<path d="M10.7388 14.4926C10.8018 14.4555 10.8611 14.4111 10.9278 14.3777C11.1242 14.2888 11.3243 14.211 11.517 14.1146C11.8727 13.9367 12.2248 13.933 12.5842 14.0961C12.9289 14.2517 13.2735 14.4037 13.6626 14.3703C13.8368 14.3555 14.0146 14.3147 14.1851 14.2777C14.4445 14.2184 14.5964 14.248 14.7002 14.4C14.6706 14.4185 14.6446 14.4518 14.615 14.4592C14.3593 14.5148 14.1036 14.5741 13.8442 14.6223C13.381 14.7112 12.9474 14.6186 12.5509 14.374C12.2285 14.1739 11.9135 14.1813 11.5874 14.3481C11.328 14.4852 11.0501 14.5482 10.761 14.5445C10.7536 14.5297 10.7462 14.5111 10.7388 14.4926Z" fill="#26AB7B" stroke="#26AB7B" stroke-width="0.5"/>
<path d="M9.89374 14.5519C9.84557 14.5852 9.8011 14.6297 9.74551 14.6445C9.34529 14.7742 8.94136 14.8113 8.57079 14.5704C8.26692 14.374 7.96305 14.3221 7.62583 14.4704C7.57395 14.4926 7.51466 14.4963 7.45166 14.4815C7.5443 14.2925 7.72588 14.2443 7.90005 14.2258C8.19651 14.1924 8.48186 14.2258 8.76349 14.3592C8.93766 14.4444 9.15259 14.4518 9.3527 14.4704C9.52687 14.4889 9.70475 14.4741 9.88262 14.4741C9.88262 14.5037 9.89004 14.5296 9.89374 14.5519Z" fill="#26AB7B" stroke="#26AB7B" stroke-width="0.5"/>
</svg>
