<svg width="29" height="29" viewBox="0 0 29 29" fill="none" xmlns="http://www.w3.org/2000/svg">
<path d="M28 14.4018C27.9444 21.8921 21.9736 27.9666 14.4388 28.0111C6.98929 28.0556 1.00371 22.0478 1 14.6019C0.996295 7.17461 7.14125 1 14.5315 1C22.0218 1 27.9926 6.94482 28 14.4018ZM14.613 1.69678C7.37103 1.7116 1.65971 7.63419 1.69307 14.7205C1.72642 21.6549 7.4118 27.3255 14.3721 27.3143C21.5252 27.2995 27.3106 21.4992 27.2995 14.3536C27.2921 7.35251 21.6104 1.68566 14.613 1.69678Z" fill="#26AB7B" stroke="#26AB7B" stroke-width="0.5"/>
<path d="M7.53413 13.9718C8.07895 13.5086 8.646 13.0712 9.16117 12.5783C10.5695 11.2403 11.9557 9.88015 13.3455 8.52367C13.6013 8.27535 13.8236 7.99367 14.0942 7.76389C14.2054 7.66752 14.3981 7.63417 14.5575 7.62676C14.7205 7.61564 14.8503 7.70829 14.8762 7.93067C14.7798 7.91584 14.6983 7.91214 14.6242 7.8899C14.4796 7.84913 14.3499 7.86767 14.2461 7.97515C14.0386 8.1864 13.8273 8.39395 13.6383 8.62003C12.0187 10.5992 10.1804 12.3559 8.19384 13.9607C7.8121 14.2721 7.41553 14.5686 7.02267 14.8651C6.92631 14.9355 6.89665 15.0096 6.90407 15.1282C6.94483 15.8732 6.97449 16.6181 7.00784 17.3631C7.01155 17.4557 7.00413 17.5521 6.97819 17.6373C6.96337 17.6855 6.89295 17.7522 6.85589 17.7485C6.804 17.7411 6.72987 17.6855 6.71134 17.6336C6.68169 17.541 6.68169 17.4409 6.67799 17.3408C6.65945 16.6515 6.64463 15.9621 6.6298 15.269C6.6298 15.2394 6.61868 15.2134 6.61127 15.1727C6.32589 15.3357 6.07016 15.5173 5.78478 15.6397C5.41786 15.7953 5.03241 15.9065 4.65438 16.0288C4.61731 16.0399 4.56913 16.0066 4.52466 15.9955C4.54319 15.9473 4.5506 15.8843 4.58396 15.8546C4.80263 15.673 5.02129 15.4951 5.25108 15.3283C6.16652 14.6612 6.96707 13.8644 7.79727 13.1009C9.13152 11.8667 10.2693 10.4509 11.5109 9.12778C12.2596 8.33094 13.0305 7.56004 13.794 6.78173C13.9422 6.62977 14.0831 6.46299 14.2498 6.32957C14.45 6.1702 14.6279 6.19614 14.8095 6.37404C15.3284 6.8855 15.8435 7.39697 16.3624 7.90843C16.4069 7.95291 16.4551 7.99738 16.544 8.07892C16.5366 7.90102 16.5292 7.78242 16.5255 7.66012C16.5181 7.31544 16.5069 6.97075 16.5069 6.62607C16.5069 6.52229 16.5255 6.41482 16.5514 6.31475C16.5996 6.13685 16.696 6.00342 16.9072 5.99972C17.3112 5.99601 17.7189 5.97747 18.1229 5.98489C18.3638 5.98859 18.4527 6.1109 18.4564 6.35922C18.4676 7.01152 18.475 7.66382 18.5009 8.31982C18.5269 8.96471 18.5676 9.6133 18.6084 10.2582C18.6121 10.3175 18.6455 10.3879 18.6862 10.4361C19.9056 11.8556 21.2287 13.175 22.6371 14.4055C23.1708 14.8725 23.7415 15.2913 24.2901 15.7397C24.3716 15.8064 24.4235 15.9102 24.4865 15.9992C24.3864 15.9992 24.2864 16.0103 24.19 15.9917C23.5859 15.8917 23.0744 15.5804 22.5667 15.2616C22.4592 15.1949 22.3517 15.1245 22.2183 15.0392C22.1923 15.8732 22.2294 16.6774 22.033 17.4817C22.007 17.4001 21.9625 17.3223 21.9514 17.2408C21.8736 16.4995 21.7735 15.7583 21.7402 15.017C21.729 14.7687 21.6586 14.6464 21.477 14.5056C19.4275 12.8859 17.4854 11.1477 15.8065 9.13149C15.6508 8.94248 15.4692 8.77199 15.3061 8.58668C15.232 8.50514 15.1653 8.41619 15.1171 8.31612C15.0949 8.26794 15.1282 8.19381 15.1356 8.13081C15.1949 8.14934 15.2691 8.15304 15.3061 8.1901C15.6249 8.50143 15.9362 8.81646 16.2475 9.13149C17.6855 10.6066 19.1717 12.0372 20.7358 13.3751C20.9174 13.5308 21.1138 13.6753 21.3028 13.8236C21.3177 13.8347 21.3325 13.8384 21.3955 13.8644C21.3473 13.8088 21.3288 13.7828 21.3065 13.7606C20.5468 13.0045 19.7796 12.2559 19.0309 11.485C18.1711 10.5992 17.3186 9.70596 16.4884 8.79793C15.9732 8.23458 15.4951 7.63417 15.0096 7.04488C14.7873 6.77432 14.3536 6.73355 14.1016 6.98187C13.9608 7.119 13.8162 7.25613 13.6976 7.41179C12.7636 8.61262 11.6851 9.68002 10.64 10.7808C9.82459 11.6369 9.0018 12.4894 8.1716 13.3381C7.96035 13.553 7.72315 13.7384 7.49707 13.9348C7.50448 13.9422 7.5193 13.957 7.53413 13.9718ZM16.8183 6.34069C16.8368 6.5816 16.8516 6.79285 16.8702 7.0041C16.8739 7.0041 16.8813 7.0041 16.885 7.0041C16.9295 6.78914 16.9702 6.57789 17.0184 6.35181C16.9517 6.3481 16.8998 6.3444 16.8183 6.34069Z" fill="#26AB7B" stroke="#26AB7B" stroke-width="0.5"/>
<path d="M14.8576 19.6313C14.8057 19.6721 14.7798 19.6869 14.7612 19.7091C14.461 20.0353 14.1608 20.3614 13.8606 20.6913C13.7457 20.8173 13.7012 20.9656 13.7087 21.1472C13.7272 21.603 13.6605 22.0552 13.3751 22.4258C13.0638 22.8335 12.6672 23.1115 12.115 23.0559C12.0334 23.0485 11.9408 23.0225 11.8741 22.9743C11.8185 22.9336 11.7666 22.8483 11.7666 22.7853C11.7666 22.7334 11.8444 22.6704 11.9037 22.6371C12.6042 22.2331 12.7599 21.6586 12.2521 21.1027C12.2113 21.0582 12.1706 21.01 12.1261 20.9656C11.9519 20.784 11.7258 20.7543 11.5034 20.8729C11.181 21.0471 10.9846 21.3399 10.7807 21.6253C10.7325 21.692 10.6288 21.7883 10.5843 21.7735C10.5065 21.7476 10.4249 21.6549 10.399 21.5734C10.2841 21.2139 10.3693 20.8803 10.5583 20.5653C10.6028 20.4912 10.6621 20.4281 10.714 20.3577C11.0439 19.9093 11.459 19.6313 12.0371 19.7314C12.5783 19.824 12.9452 19.6054 13.2454 19.1829C13.3936 18.9753 13.5826 18.79 13.7642 18.5824C13.7049 18.512 13.6568 18.4527 13.6049 18.3934C13.1342 17.856 12.6598 17.3223 12.1854 16.7886C12.1446 16.7441 12.0816 16.7071 12.0223 16.696C11.8741 16.6626 11.7221 16.6441 11.5739 16.6181C11.4478 16.5959 11.3218 16.5477 11.1958 16.5477C10.9475 16.5477 10.9067 16.633 10.7993 16.8442C10.6695 17.1036 10.4879 17.3446 10.2952 17.5595C10.2211 17.6411 10.0432 17.667 9.92087 17.6522C9.36494 17.578 8.92389 17.0555 8.90907 16.4921C8.90536 16.3031 8.97949 16.1474 9.12774 16.0474C9.33899 15.9102 9.56507 15.7953 9.79486 15.6656C9.66144 15.4358 9.69479 15.1801 9.89122 14.9429C10.4064 14.3128 10.992 13.7643 11.6962 13.3455C12.0668 13.1231 12.4893 13.0527 12.9044 13.0453C13.3751 13.0379 13.8495 13.1009 14.3202 13.1491C14.3795 13.1565 14.4314 13.238 14.487 13.2862C14.4314 13.3344 14.3832 13.4048 14.3165 13.4271C13.9384 13.5605 13.5567 13.6717 13.1787 13.8088C12.834 13.9348 12.6857 14.2424 12.582 14.5612C12.556 14.6464 12.6005 14.7687 12.6413 14.8577C12.745 15.08 12.8785 15.2913 12.9674 15.5211C13.0082 15.6249 12.9748 15.7583 12.9748 15.9325C13.1638 16.1104 13.401 16.3253 13.6308 16.5477C13.9496 16.859 14.2609 17.1741 14.5722 17.4891C14.6575 17.5743 14.7168 17.5743 14.7946 17.478C15.1096 17.0851 15.4284 16.6923 15.7545 16.3031C15.8509 16.1882 15.8768 16.0659 15.836 15.9251C15.8212 15.8769 15.8138 15.8287 15.8027 15.7805C15.6915 15.3951 15.7767 15.0652 16.0584 14.7798C16.2437 14.5908 16.4142 14.387 16.6032 14.2054C16.9146 13.9015 17.3074 13.8199 17.7262 13.8384C17.7855 13.8422 17.8485 13.8533 17.9041 13.8792C17.9449 13.8977 18.0042 13.9459 18.0005 13.9756C17.9968 14.0201 17.9449 14.0608 17.9115 14.0979C17.9041 14.1053 17.8893 14.109 17.8782 14.1127C17.3927 14.1942 17.2481 14.6353 17.0332 14.9689C16.8701 15.2246 16.959 15.5285 17.1443 15.7657C17.3 15.9658 17.5224 15.9844 17.767 15.9399C18.1228 15.8769 18.4267 15.7138 18.6713 15.4692C18.7899 15.3506 18.827 15.1579 18.9085 15.0022C18.9345 14.9503 18.9863 14.9095 19.0271 14.8614C19.0605 14.9095 19.1087 14.954 19.1198 15.0059C19.1754 15.3284 19.2458 15.673 19.0345 15.9547C18.7936 16.2734 18.5305 16.5774 18.2377 16.8479C17.9745 17.0851 17.6113 17.0925 17.2741 17.1074C17.0776 17.1148 16.9109 17.1444 16.7811 17.3001C16.5143 17.6151 16.2437 17.9264 15.9769 18.2378C15.9028 18.3267 15.8286 18.4157 15.7397 18.5268C15.8657 18.6454 15.988 18.764 16.1103 18.8789C16.833 19.5572 17.5594 20.2354 18.2822 20.9174C18.3526 20.9841 18.423 21.0545 18.4897 21.1286C18.9122 21.6216 18.7714 22.0218 18.2748 22.3406C18.1673 22.411 18.0413 22.4555 17.919 22.4962C17.7559 22.5518 17.6002 22.5333 17.4742 22.3999C17.0072 21.9107 16.5365 21.4214 16.0695 20.9285C15.736 20.5764 15.4024 20.2169 15.0726 19.8611C14.9947 19.7907 14.928 19.7128 14.8576 19.6313ZM13.7531 13.3603C13.7494 13.3418 13.7457 13.3233 13.742 13.3047C13.4307 13.3047 13.112 13.2677 12.808 13.3159C12.4671 13.3678 12.1076 13.4456 11.8148 13.6124C11.4627 13.8125 11.1588 14.109 10.8548 14.387C10.6139 14.6056 10.4027 14.8577 10.184 15.0986C10.0877 15.2061 10.0728 15.3209 10.1618 15.4507C10.3582 15.7398 10.5435 16.0325 10.7362 16.329C11.0142 16.1956 11.2811 16.1956 11.5294 16.2994C11.7888 16.4069 11.9593 16.355 12.1594 16.1549C12.5783 15.7286 12.6116 15.6619 12.3966 15.1097C12.3485 14.9837 12.2632 14.8428 12.2855 14.7279C12.3818 14.261 12.5449 13.8236 13.0489 13.6346C13.2861 13.5457 13.5196 13.453 13.7531 13.3603ZM13.7457 18.0821C13.7865 18.1303 13.831 18.1822 13.8791 18.2266C14.3795 18.7381 14.8761 19.2533 15.3765 19.761C16.0176 20.4096 16.6625 21.0545 17.3 21.7031C17.426 21.8291 17.5335 21.9737 17.6595 22.0997C17.6966 22.1367 17.7818 22.1701 17.8152 22.1516C17.9486 22.0774 18.0931 22.0033 18.1932 21.8958C18.3822 21.6883 18.3563 21.5178 18.1524 21.3288C17.8226 21.0211 17.4964 20.7172 17.174 20.4022C16.3401 19.5905 15.5136 18.7715 14.6797 17.9598C14.5314 17.8152 14.3721 17.6855 14.2164 17.5521C14.0533 17.73 13.9088 17.8968 13.7457 18.0821ZM12.3485 22.6074C12.3559 22.6185 12.3633 22.6297 12.3707 22.6371C12.4782 22.6 12.5931 22.5741 12.6969 22.5296C12.9044 22.4406 13.0601 22.3109 13.1564 22.0848C13.3195 21.7068 13.3417 21.3102 13.3751 20.9137C13.3825 20.8099 13.4196 20.6913 13.4826 20.6135C13.6679 20.3763 13.8791 20.1576 14.0719 19.9278C14.2349 19.7351 14.3869 19.5387 14.5537 19.3311C14.3647 19.1532 14.1979 18.9938 14.0089 18.8159C13.957 18.8789 13.9199 18.9234 13.8791 18.9679C13.6679 19.2162 13.4492 19.4571 13.2491 19.7165C13.0415 19.9871 12.7599 20.0501 12.4448 20.0427C12.3522 20.039 12.2595 20.0168 12.1706 20.0205C11.8852 20.0279 11.5739 19.976 11.3478 20.2058C11.118 20.443 10.9104 20.7024 10.7029 20.9618C10.6621 21.0137 10.6621 21.099 10.6473 21.1583C10.903 20.973 11.1402 20.7765 11.4034 20.6246C11.7406 20.4281 12.0446 20.506 12.2929 20.8025C12.3448 20.8655 12.4004 20.9211 12.4597 20.973C12.9081 21.3992 12.9266 21.9848 12.5004 22.4369C12.4485 22.4925 12.4004 22.5518 12.3485 22.6074ZM17.3185 14.1386C17.3074 14.1164 17.3 14.0942 17.2889 14.0719C17.1666 14.1275 17.0257 14.1646 16.9257 14.2498C16.7033 14.4351 16.5106 14.6501 16.2919 14.8428C15.9991 15.0986 15.925 15.4284 16.0584 15.7657C16.203 16.1326 16.1103 16.4106 15.8731 16.6774C15.7879 16.7738 15.7026 16.8702 15.6174 16.9702C15.4209 17.2074 15.2208 17.4409 15.0355 17.6855C15.0021 17.7263 14.9947 17.8375 15.0244 17.8671C15.1541 18.0043 15.3023 18.1229 15.4246 18.234C15.8842 17.7782 16.3364 17.3334 16.7811 16.885C16.9146 16.7516 17.0776 16.696 17.2518 16.7219C17.956 16.822 18.486 16.266 18.7158 15.7323C18.6268 15.8028 18.5675 15.8546 18.5045 15.8954C18.3526 15.9955 18.2043 16.1215 18.0376 16.1845C17.6669 16.3253 17.2778 16.355 16.9516 16.077C16.6551 15.825 16.6106 15.0578 16.8441 14.7465C17.0035 14.5463 17.1629 14.3425 17.3185 14.1386ZM10.4175 16.633C10.3916 16.5885 10.3508 16.4921 10.2878 16.4143C10.2285 16.3365 10.147 16.2772 10.0765 16.2104C9.86899 16.0066 9.76521 15.9992 9.53172 16.1697C9.47613 16.2104 9.42795 16.2586 9.37606 16.2994C9.23522 16.4032 9.23151 16.5292 9.30934 16.6737C9.42794 16.8961 9.60214 17.0444 9.84675 17.1185C10.0691 17.1815 10.4175 16.9257 10.4175 16.633Z" fill="#26AB7B" stroke="#26AB7B" stroke-width="0.5"/>
</svg>
