<svg width="29" height="29" viewBox="0 0 29 29" fill="none" xmlns="http://www.w3.org/2000/svg">
<path d="M28 14.3944C27.9518 21.8847 21.9811 27.9592 14.4463 28.0111C7.00042 28.0593 1.00742 22.0552 1.00001 14.6093C0.992594 7.18202 7.13384 1.00371 14.5241 1.00001C22.0144 0.992594 27.9926 6.93741 28 14.3944ZM14.6205 1.69678C7.37475 1.71161 1.65601 7.63789 1.69678 14.7353C1.73755 21.6586 7.41922 27.3255 14.3721 27.3143C21.5252 27.3032 27.3106 21.503 27.3069 14.3573C27.2958 7.35622 21.6141 1.68566 14.6205 1.69678Z" fill="#26AB7B" stroke="#26AB7B" stroke-width="0.5"/>
<path d="M13.1008 16.3364C13.0304 16.14 12.9674 15.9806 12.9192 15.8138C12.8821 15.6841 12.8006 15.6582 12.682 15.6656C12.152 15.7101 12.1334 15.7138 12.0519 15.1875C12.0186 14.9799 11.9407 14.9503 11.7591 14.9503C11.5442 14.9503 11.3329 14.9095 11.1179 14.8947C11.0735 14.891 11.0142 14.9169 10.9845 14.9503C10.31 15.7434 9.64285 16.544 8.95719 17.3297C8.80894 17.5002 8.59398 17.6151 8.39755 17.7374C8.34566 17.7707 8.24189 17.7707 8.18629 17.7374C7.95651 17.6003 7.7156 17.4668 7.51546 17.2889C7.30791 17.1073 7.30792 16.9109 7.48952 16.7033C8.19371 15.8954 8.90901 15.0948 9.62432 14.298C9.74662 14.1609 9.83187 14.0645 9.7355 13.8607C9.64285 13.6642 9.63543 13.4307 9.57613 13.2158C9.56131 13.1602 9.50572 13.0823 9.45383 13.0749C9.27593 13.0379 9.08691 12.9934 8.90901 13.0045C8.73111 13.0156 8.65328 12.9341 8.60881 12.797C8.52727 12.5524 8.46056 12.304 8.38273 12.0409C8.37161 12.0409 8.34566 12.0261 8.32713 12.0335C7.97133 12.1521 7.67854 12.0187 7.40057 11.8074C6.85946 11.3923 6.35541 10.9401 5.95514 10.3879C5.77724 10.1396 5.60304 9.88386 5.60675 9.56883C5.60675 9.42058 5.64752 9.22415 5.74759 9.13149C6.20716 8.71639 6.6482 8.26423 7.2375 8.01962C7.4191 7.94549 7.60812 7.88249 7.78973 7.81577C7.97133 7.74906 8.13441 7.78612 8.26783 7.91584C8.76818 8.39395 9.27593 8.86094 9.75404 9.35757C10.2655 9.88386 10.7436 10.4398 11.2439 10.9772C11.4923 11.2441 11.7517 11.4961 12.0148 11.7666C12.3484 11.4553 12.6708 11.1551 13.0044 10.8438C12.7783 10.614 12.8302 10.3953 12.9636 10.1581C13.0674 9.97281 13.0229 9.79862 12.8747 9.65407C12.7005 9.47988 12.5745 9.44652 12.3632 9.54288C12.1705 9.62813 11.9852 9.62442 11.8258 9.491C11.6479 9.34275 11.4589 9.1982 11.3218 9.0166C11.1772 8.83129 11.2106 8.60891 11.37 8.43842C11.7888 8.00479 12.2113 7.57487 12.6486 7.15977C12.719 7.09306 12.8821 7.07082 12.9896 7.09676C13.2935 7.16348 13.5418 7.33767 13.742 7.57487C13.868 7.72312 13.868 7.8899 13.8013 8.06409C13.7605 8.17157 13.716 8.28276 13.6938 8.39765C13.6456 8.60891 13.6975 8.74975 13.8902 8.84611C14.0644 8.93135 14.2534 9.00177 14.4461 9.03513C14.5462 9.05366 14.6759 9.00918 14.7723 8.9573C14.8835 8.89429 14.9761 8.87947 15.0799 8.9573C15.6581 9.39093 16.2177 9.84309 16.6921 10.3953C16.8404 10.5695 16.9886 10.74 17.1258 10.9216C17.1776 10.9883 17.2184 11.0847 17.2221 11.1699C17.2406 11.5072 17.2518 11.8482 17.2444 12.1854C17.2406 12.33 17.2073 12.4819 17.1517 12.6154C16.9404 13.1231 16.6328 13.5642 16.2622 13.9681C16.2363 13.9941 16.2214 14.0311 16.1918 14.0534C16.1399 14.1016 16.0843 14.1423 16.0324 14.1868C15.9879 14.1201 15.9064 14.0571 15.899 13.9867C15.8693 13.6568 15.8656 13.3233 15.8397 12.9897C15.8212 12.734 15.8063 12.4708 15.7396 12.2262C15.6951 12.0594 15.5765 11.9001 15.4579 11.7629C15.2763 11.5517 15.0466 11.4553 14.7649 11.5887C14.6833 11.6258 14.587 11.6369 14.5017 11.6703C14.2238 11.7815 13.9754 11.7555 13.7938 11.5443C12.9303 12.5894 12.0741 13.616 11.1958 14.6797C11.4404 14.6983 11.6331 14.7094 11.8295 14.7242C12.0927 14.7427 12.1779 14.8243 12.1965 15.08C12.2187 15.3988 12.2928 15.458 12.6115 15.4284C12.6301 15.4284 12.6486 15.4247 12.6671 15.421C13.0822 15.3765 13.0822 15.3765 13.1601 15.7842C13.1675 15.825 13.1786 15.8694 13.1897 15.9102C13.2601 16.1845 13.2638 16.1808 13.5529 16.1882C14.1756 16.1993 14.094 16.1956 14.1867 16.7108C14.1904 16.7404 14.1978 16.7701 14.2089 16.8368C14.3831 16.8108 14.5573 16.7849 14.7278 16.7589C14.9428 16.7256 15.0391 16.7589 15.0614 16.9628C15.0947 17.3112 15.28 17.4372 15.6025 17.4261C15.6507 17.4261 15.6988 17.4409 15.747 17.4557C16.0472 17.5558 16.2511 17.4298 16.429 17.174C16.3882 17.1222 16.3437 17.0666 16.2956 17.011C15.7211 16.3475 15.1503 15.6878 14.5722 15.0281C14.057 14.4388 13.5381 13.8532 13.0267 13.2602C12.9896 13.2158 12.9859 13.1454 12.9673 13.0898C13.0341 13.1009 13.1193 13.0898 13.1601 13.1305C13.4973 13.4641 13.8383 13.7977 14.1608 14.1423C14.6833 14.702 15.1911 15.2727 15.71 15.8361C15.7396 15.8657 15.8063 15.8917 15.8471 15.8806C16.8181 15.6026 17.8188 15.5248 18.8232 15.4395C19.5422 15.3802 20.2575 15.2987 20.9765 15.2394C21.1174 15.2283 21.2693 15.2653 21.4102 15.3061C21.6956 15.3876 21.9735 15.4803 22.2515 15.5841C22.4887 15.673 22.6925 15.8064 22.8 16.0585C22.9297 16.355 22.8667 16.5885 22.5628 16.7033C22.1662 16.8516 21.7549 16.9628 21.3472 17.0888C21.2916 17.1073 21.2323 17.1222 21.1767 17.137C21.1804 17.1555 21.1841 17.1777 21.1841 17.1963C21.5214 17.1629 21.8623 17.137 22.1996 17.0925C22.4294 17.0629 22.6592 17.011 22.8853 16.9517C23.0557 16.9109 23.1558 16.9739 23.2262 17.1222C23.4708 17.6559 23.356 18.1191 22.9927 18.5676C22.6703 18.9642 22.2181 19.0716 21.7771 19.2199C21.3805 19.3533 20.9654 19.4386 20.5689 19.5683C20.0315 19.7462 19.5015 19.9463 18.9678 20.1353C17.4667 20.6727 15.9694 21.2287 14.4573 21.7364C13.9013 21.9217 13.312 21.9662 12.7116 21.9736C11.9037 21.9847 11.2847 21.5845 10.6658 21.1768C10.4508 21.0322 10.2877 20.7654 10.1691 20.5245C9.77257 19.7165 9.68362 18.8974 10.2062 18.0969C10.4545 17.7152 10.6732 17.2963 11.0809 17.0629C11.344 16.9109 11.6405 16.8182 11.9296 16.7182C12.315 16.5736 12.7042 16.4587 13.1008 16.3364ZM11.3959 17.2852C11.3811 17.2667 11.3663 17.2482 11.3514 17.2296C11.2106 17.3408 11.0401 17.4261 10.9289 17.5632C10.6028 17.9709 10.3841 18.4379 10.2581 18.9493C10.0468 19.8092 10.5323 20.7543 11.2847 21.073C11.4256 21.1323 11.5701 21.1953 11.7035 21.2731C12.063 21.4807 12.4411 21.5326 12.845 21.4659C13.0563 21.4288 13.275 21.414 13.4862 21.3695C13.7345 21.3176 13.9792 21.2435 14.1533 21.0397C14.3757 20.7765 14.5981 20.5097 14.8131 20.2391C14.9724 20.039 15.0317 19.8018 15.0169 19.546C15.0095 19.4348 14.9761 19.383 14.8538 19.3793C14.7278 19.3718 14.6018 19.3348 14.4832 19.3163C14.3275 19.6239 14.1793 19.9204 14.0236 20.228C14.094 20.2836 14.1682 20.3466 14.2571 20.417C14.2126 20.4244 14.1941 20.4355 14.1793 20.4318C14.1274 20.4133 14.0755 20.3762 14.0236 20.3762C13.9643 20.3725 13.8754 20.3799 13.8494 20.417C13.6122 20.7469 13.2638 20.9173 12.9118 21.0841C12.871 21.1027 12.8228 21.099 12.7783 21.1064C12.7746 21.0878 12.7709 21.073 12.7635 21.0545C12.908 20.9804 13.06 20.9173 13.1934 20.8284C13.6085 20.5541 13.8717 20.1502 14.094 19.7202C14.4684 18.9938 14.3498 18.4712 13.716 17.9635C13.3528 17.6707 12.9266 17.5743 12.4818 17.6781C11.5997 17.8782 11.3107 18.6084 11.3737 19.4126C11.3922 19.6572 11.5071 19.8388 11.7295 19.9315C11.9444 20.0241 12.1668 20.0983 12.3892 20.1613C12.5745 20.2132 12.7487 20.1835 12.8895 20.0204C12.9748 19.9167 13.0897 19.8388 13.1934 19.7536C13.6345 19.3941 13.5233 18.764 13.3046 18.4601C13.0785 18.1414 12.5597 18.108 12.1742 18.3415C11.9074 18.5046 11.8295 18.8567 11.9741 19.2347C12.0519 19.4311 12.1483 19.4867 12.3447 19.42C12.4855 19.3718 12.619 19.3125 12.7524 19.2458C12.9192 19.1606 12.9192 18.9827 12.7561 18.89C12.6783 18.8456 12.593 18.8233 12.5004 18.7863C12.6857 18.6862 12.8895 18.7195 12.9896 18.8567C13.0748 18.9716 13.0785 19.1902 12.9673 19.2644C12.7635 19.3978 12.5485 19.5275 12.3225 19.6128C12.1297 19.6869 11.9592 19.6016 11.8925 19.3978C11.7962 19.0976 11.7702 18.7788 11.8888 18.4749C11.9296 18.3675 12.0334 18.2711 12.1297 18.2081C12.4559 17.9931 13.0007 18.0376 13.3157 18.2637C13.59 18.4601 13.6196 18.7603 13.6604 19.0494C13.7345 19.5386 13.2898 20.202 12.8154 20.3355C12.4262 20.4467 11.533 20.1168 11.3514 19.761C11.2551 19.5683 11.2143 19.3385 11.1884 19.1198C11.1253 18.6232 11.3403 17.9486 11.9185 17.7152C12.2706 17.5706 12.6227 17.5224 12.997 17.515C13.6419 17.5002 14.6574 18.3007 14.4869 19.0457C14.4795 19.0828 14.5166 19.1643 14.5462 19.1754C14.6833 19.2199 14.8279 19.2421 15.0095 19.2829C14.9798 19.0939 14.9724 18.9271 14.9242 18.7751C14.6648 17.9672 14.0681 17.4891 13.3083 17.1889C12.9043 17.0295 12.4522 16.9665 12.0519 17.0703C11.4849 17.2185 11.0475 17.604 10.8288 18.1858C10.6547 18.6454 10.6435 19.1161 10.7325 19.5868C10.7992 19.9315 10.9474 20.2354 11.2773 20.4281C11.4218 20.5134 11.5516 20.6394 11.6553 20.7728C11.7888 20.947 11.9481 21.0471 12.152 21.1027C12.189 21.1138 12.2261 21.1249 12.2817 21.1397C12.1112 21.2176 11.9259 21.2361 11.7443 21.1064C11.4107 20.8655 11.029 20.6394 10.814 20.3132C10.4693 19.7869 10.3693 19.1643 10.5657 18.5379C10.7214 18.045 10.9882 17.6151 11.3959 17.2852ZM16.2696 13.5382C16.4253 13.2862 16.5735 13.0527 16.7181 12.8192C16.8552 12.6005 16.9219 12.3633 16.9145 12.1002C16.9071 11.9038 16.9441 11.7073 16.9516 11.5109C16.9553 11.4071 16.9479 11.3033 16.933 11.1996C16.8997 10.9772 16.7848 10.803 16.6217 10.6511C16.1547 10.2211 15.6951 9.78379 15.2282 9.35016C15.0614 9.1945 14.8983 9.12779 14.6722 9.27974C14.4461 9.4317 14.1941 9.3761 13.9754 9.23527C13.842 9.15002 13.7271 9.03142 13.6122 8.92394C13.3454 8.67562 13.338 8.36059 13.4455 8.05297C13.5159 7.84542 13.4825 7.712 13.3194 7.58969C13.2268 7.51927 13.1267 7.45997 13.0304 7.39326C12.8969 7.30431 12.8006 7.34138 12.7005 7.46739C12.4299 7.80836 12.1446 8.14192 11.8666 8.47919C11.7035 8.67562 11.7072 8.75716 11.8851 8.93506C11.9148 8.96471 11.9555 8.99065 11.9778 9.02772C12.063 9.16855 12.1631 9.17226 12.3151 9.11667C12.8673 8.92394 13.4788 9.3761 13.3639 9.95057C13.275 10.399 13.401 10.6992 13.6938 10.9883C13.7086 10.9994 13.716 11.018 13.7271 11.0328C13.9532 11.2737 14.1867 11.4887 14.5573 11.3367C14.6203 11.3108 14.6908 11.3034 14.7538 11.2811C15.2726 11.0995 16.0139 11.3997 16.0954 12.0965C16.1436 12.5709 16.2066 13.0379 16.2696 13.5382ZM13.1934 10.9772C13.1675 10.992 13.1564 10.9957 13.1452 11.0031C12.3484 11.837 11.5479 12.6635 10.7621 13.5086C9.77627 14.5686 8.80153 15.6434 7.82308 16.7108C7.73784 16.8034 7.73784 16.8887 7.82308 16.9665C7.92686 17.0629 8.04917 17.1407 8.15294 17.2333C8.29007 17.3556 8.41608 17.3186 8.52727 17.2074C8.62734 17.1073 8.71999 16.9998 8.81635 16.8961C9.49089 16.1511 10.1728 15.4136 10.84 14.6575C11.6294 13.7606 12.404 12.8489 13.1823 11.9408C13.3343 11.7666 13.4825 11.585 13.6122 11.4294C13.4677 11.27 13.3343 11.1292 13.1934 10.9772ZM8.92013 12.8414C8.98314 12.8414 9.07209 12.8377 9.16474 12.8414C9.2574 12.8489 9.34635 12.8637 9.43901 12.8822C9.74292 12.9341 9.80222 12.9971 9.87634 13.2973C9.91711 13.4678 9.9727 13.6346 10.032 13.8384C10.6361 13.2047 11.2106 12.5931 11.7925 11.9816C11.7221 11.9186 11.6516 11.8556 11.5775 11.7926C11.2106 11.4479 10.8437 11.0995 10.473 10.7585C10.3841 10.677 10.2692 10.5806 10.1617 10.7289C9.81704 11.1959 9.35747 11.522 8.85342 11.7852C8.7237 11.8519 8.70887 11.9408 8.74223 12.0705C8.80894 12.3077 8.85713 12.5524 8.92013 12.8414ZM6.78904 9.75785C7.00771 9.68002 7.11519 9.82826 7.23008 9.95798C7.48211 10.2471 7.72672 10.5399 8.07882 10.7141C8.14182 10.7437 8.23077 10.7919 8.28266 10.7734C8.53839 10.6807 8.79782 10.5806 9.03873 10.4509C9.17215 10.3805 9.19069 10.2434 9.10544 10.0988C8.84601 9.65407 8.51244 9.28715 8.0714 9.0166C8.01951 8.98695 7.93427 8.961 7.88609 8.98324C7.47469 9.16855 7.07442 9.36869 6.78904 9.75785ZM19.268 18.0895C18.3933 18.1043 17.5371 18.2118 16.744 18.6195C17.6483 18.7381 18.4341 18.3044 19.268 18.0895ZM20.2056 16.1659C20.1982 16.1326 20.1908 16.0992 20.1834 16.0659C18.9455 16.2771 17.7076 16.4884 16.4586 16.7033C16.5624 16.8887 16.6847 16.9591 16.8774 16.8812C17.5816 16.6033 18.3303 16.518 19.0678 16.3735C19.4459 16.2994 19.8276 16.2327 20.2056 16.1659ZM20.1982 18.5935C20.1945 18.575 20.1908 18.5565 20.1871 18.5379C19.9759 18.4786 19.6052 18.5639 19.4607 18.7381C19.709 18.6899 19.9536 18.6417 20.1982 18.5935Z" fill="#26AB7B" stroke="#26AB7B" stroke-width="0.5"/>
</svg>
