<svg width="24" height="25" viewBox="0 0 24 25" fill="none" xmlns="http://www.w3.org/2000/svg">
<g clip-path="url(#clip0_0_2837)">
<path d="M15.05 5.26245C16.0267 5.45302 16.9244 5.93071 17.6281 6.63439C18.3317 7.33806 18.8094 8.23572 19 9.21245M15.05 1.26245C17.0793 1.48789 18.9716 2.39663 20.4162 3.83946C21.8609 5.28229 22.772 7.17346 23 9.20245M22 17.1825V20.1825C22.0011 20.461 21.9441 20.7366 21.8325 20.9918C21.7209 21.247 21.5573 21.476 21.3521 21.6643C21.1468 21.8526 20.9046 21.9959 20.6407 22.0852C20.3769 22.1744 20.0974 22.2075 19.82 22.1825C16.7428 21.8481 13.787 20.7966 11.19 19.1125C8.77382 17.5771 6.72533 15.5286 5.18999 13.1125C3.49997 10.5037 2.44824 7.53345 2.11999 4.44245C2.095 4.16592 2.12787 3.88721 2.21649 3.62408C2.30512 3.36094 2.44756 3.11914 2.63476 2.91407C2.82196 2.709 3.0498 2.54516 3.30379 2.43297C3.55777 2.32079 3.83233 2.26271 4.10999 2.26245H7.10999C7.5953 2.25767 8.06579 2.42953 8.43376 2.74598C8.80173 3.06244 9.04207 3.5019 9.10999 3.98245C9.23662 4.94252 9.47144 5.88518 9.80999 6.79245C9.94454 7.15038 9.97366 7.53937 9.8939 7.91333C9.81415 8.2873 9.62886 8.63056 9.35999 8.90245L8.08999 10.1725C9.51355 12.676 11.5864 14.7489 14.09 16.1725L15.36 14.9025C15.6319 14.6336 15.9751 14.4483 16.3491 14.3685C16.7231 14.2888 17.1121 14.3179 17.47 14.4525C18.3773 14.791 19.3199 15.0258 20.28 15.1525C20.7658 15.221 21.2094 15.4657 21.5265 15.8399C21.8437 16.2142 22.0122 16.692 22 17.1825Z" stroke="#898A8D" stroke-width="2" stroke-linecap="round" stroke-linejoin="round"/>
</g>
<defs>
<clipPath id="clip0_0_2837">
<rect width="24" height="24" fill="white" transform="translate(0 0.262451)"/>
</clipPath>
</defs>
</svg>
