<svg width="259" height="187" viewBox="0 0 259 187" fill="none" xmlns="http://www.w3.org/2000/svg">
<path d="M231.904 184.829C234.369 184.829 239.797 163.648 240.419 161.418C245.997 141.618 248.255 121.03 247.103 100.492C245.594 75.0165 242.791 47.3045 228.226 27.6141C198.715 -12.3274 143.821 -7.29394 115.918 32.1054C107.669 43.7435 99.0432 55.6773 87.9535 63.3661C75.3543 72.1393 60.5249 70.9503 47.0016 76.3842C26.4548 84.6399 10.4979 113.405 11.04 140.156C11.4775 161.818 24.9022 183.733 43.3543 185.316C61.0362 186.832 231.83 184.829 231.904 184.829Z" fill="#26AB7B"/>
<path opacity="0.7" d="M231.904 184.829C234.369 184.829 239.797 163.648 240.419 161.418C245.997 141.618 248.255 121.03 247.103 100.492C245.594 75.0165 242.791 47.3045 228.226 27.6141C198.715 -12.3274 143.821 -7.29394 115.918 32.1054C107.669 43.7435 99.0432 55.6773 87.9535 63.3661C75.3543 72.1393 60.5249 70.9503 47.0016 76.3842C26.4548 84.6399 10.4979 113.405 11.04 140.156C11.4775 161.818 24.9022 183.733 43.3543 185.316C61.0362 186.832 231.83 184.829 231.904 184.829Z" fill="white"/>
<path d="M204.673 21.7242C202.208 20.3934 201.124 21.5024 200.237 20.3934C199.35 19.2844 202.701 16.4011 196.023 13.5116C196.023 13.5116 195.579 7.30135 186.479 7.07956C177.38 6.85776 179.826 13.2898 177.386 14.8424C174.946 16.3949 174.305 13.9552 171.841 15.5139C169.377 17.0726 170.51 20.1716 168.514 20.6152C166.518 21.0588 163.85 18.619 161.411 20.1716C158.971 21.7242 158.946 23.0549 157.862 23.0549C156.777 23.0549 154.535 22.1678 153.204 23.0549C151.873 23.9421 150.321 25.0511 150.321 25.0511H206.447C206.447 25.0511 207.113 23.0549 204.673 21.7242Z" fill="white"/>
<path d="M98.8398 22.981C97.3057 22.1432 96.6033 22.8393 96.0489 22.1432C95.4944 21.447 97.5829 19.6356 93.3935 17.8305C93.3935 17.8305 93.1162 13.9244 87.3989 13.7827C81.6815 13.641 83.2094 17.6888 81.6753 18.6684C80.1413 19.648 79.7223 18.1077 78.1882 19.0873C76.6541 20.0669 77.3503 22.0199 76.0935 22.2972C74.8367 22.5744 73.167 21.065 71.633 22.0199C70.0989 22.9749 70.0927 23.8313 69.3965 23.8313C68.7003 23.8313 67.3018 23.2706 66.4701 23.8313L64.6526 25.0634H99.9549C99.9549 25.0634 100.374 23.8189 98.8398 22.981Z" fill="#26AB7B"/>
<path d="M98.8398 22.981C97.3057 22.1432 96.6033 22.8393 96.0489 22.1432C95.4944 21.447 97.5829 19.6356 93.3935 17.8305C93.3935 17.8305 93.1162 13.9244 87.3989 13.7827C81.6815 13.641 83.2094 17.6888 81.6753 18.6684C80.1413 19.648 79.7223 18.1077 78.1882 19.0873C76.6541 20.0669 77.3503 22.0199 76.0935 22.2972C74.8367 22.5744 73.167 21.065 71.633 22.0199C70.0989 22.9749 70.0927 23.8313 69.3965 23.8313C68.7003 23.8313 67.3018 23.2706 66.4701 23.8313L64.6526 25.0634H99.9549C99.9549 25.0634 100.374 23.8189 98.8398 22.981Z" fill="#26AB7B"/>
<path opacity="0.7" d="M98.8398 22.981C97.3057 22.1432 96.6033 22.8393 96.0489 22.1432C95.4944 21.447 97.5829 19.6356 93.3935 17.8305C93.3935 17.8305 93.1162 13.9244 87.3989 13.7827C81.6815 13.641 83.2094 17.6888 81.6753 18.6684C80.1413 19.648 79.7223 18.1077 78.1882 19.0873C76.6541 20.0669 77.3503 22.0199 76.0935 22.2972C74.8367 22.5744 73.167 21.065 71.633 22.0199C70.0989 22.9749 70.0927 23.8313 69.3965 23.8313C68.7003 23.8313 67.3018 23.2706 66.4701 23.8313L64.6526 25.0634H99.9549C99.9549 25.0634 100.374 23.8189 98.8398 22.981Z" fill="white"/>
<path d="M258.391 182.864H15.2544V186.801H258.391V182.864Z" fill="#263238"/>
<path d="M248.533 124.772C247.301 114.028 243.271 114.496 242.015 103.751C240.758 93.0064 244.756 92.5382 243.499 81.7935C242.242 71.0488 238.238 71.517 236.975 60.7723C235.712 50.0276 239.723 49.5594 238.46 38.8146C237.197 28.0699 233.198 28.5381 231.941 17.7996L231.325 19.9744C230.093 28.5998 226.569 29.0433 225.713 39.0734C224.788 49.8551 228.793 50.2001 227.881 60.9879C226.969 71.7758 222.952 71.4308 222.016 82.2186C221.08 93.0065 225.096 93.3453 224.185 104.133C223.273 114.921 219.256 114.607 218.326 125.364C217.935 128.866 218.254 132.411 219.262 135.788C220.094 137.717 223.606 144.851 230.685 146.921C231.134 147.051 231.591 147.154 232.052 147.229V183.258H233.673V147.358C240.179 147.402 244.504 140.988 247.787 135.622L247.83 135.554C248.802 132.046 249.041 128.376 248.533 124.772ZM241.214 120.521L233.174 135.443V146.668H232.483V135.455L223.532 120.755C223.484 120.673 223.47 120.576 223.493 120.484C223.516 120.392 223.574 120.312 223.655 120.263C223.738 120.215 223.836 120.202 223.928 120.226C224.02 120.251 224.099 120.31 224.148 120.392L232.508 134.112V91.7989C232.446 91.7775 232.39 91.7391 232.348 91.688L225.195 82.4466C225.167 82.4106 225.147 82.3694 225.135 82.3255C225.123 82.2815 225.119 82.2356 225.125 82.1905C225.131 82.1453 225.145 82.1016 225.168 82.0621C225.191 82.0225 225.221 81.9878 225.257 81.9598C225.293 81.9319 225.334 81.9114 225.378 81.8994C225.422 81.8874 225.468 81.8841 225.513 81.8898C225.558 81.8956 225.602 81.9101 225.641 81.9327C225.681 81.9553 225.715 81.9855 225.743 82.0215L232.52 90.7515V50.5205L227.709 40.897C227.673 40.8127 227.672 40.7179 227.706 40.6328C227.739 40.5477 227.804 40.4789 227.887 40.4411C227.966 40.4074 228.054 40.4038 228.135 40.4311C228.215 40.4584 228.283 40.5147 228.325 40.589L232.514 48.9741V34.9517C232.514 34.8602 232.551 34.7724 232.615 34.7077C232.68 34.643 232.768 34.6067 232.859 34.6067C232.951 34.6067 233.039 34.643 233.103 34.7077C233.168 34.7724 233.204 34.8602 233.204 34.9517V48.5921L236.001 41.5193C236.018 41.4768 236.043 41.438 236.074 41.4051C236.106 41.3722 236.144 41.3459 236.185 41.3276C236.227 41.3093 236.272 41.2994 236.318 41.2984C236.363 41.2975 236.409 41.3056 236.451 41.3221C236.494 41.3387 236.532 41.3635 236.565 41.3951C236.598 41.4267 236.625 41.4644 236.643 41.5062C236.661 41.548 236.671 41.5929 236.672 41.6385C236.673 41.6841 236.665 41.7294 236.648 41.7719L233.204 50.4835V90.2771L239.753 82.5082C239.783 82.4734 239.818 82.4447 239.858 82.4237C239.899 82.4027 239.943 82.3898 239.988 82.3858C240.033 82.3818 240.079 82.3867 240.122 82.4003C240.165 82.4139 240.205 82.4359 240.24 82.465C240.275 82.4942 240.304 82.5299 240.325 82.5701C240.346 82.6103 240.358 82.6543 240.363 82.6995C240.367 82.7447 240.362 82.7902 240.348 82.8335C240.334 82.8768 240.312 82.917 240.283 82.9518L233.204 91.3553V133.983L240.634 120.189C240.679 120.109 240.753 120.049 240.841 120.024C240.928 119.999 241.023 120.009 241.103 120.053C241.141 120.076 241.174 120.107 241.2 120.143C241.227 120.179 241.245 120.221 241.256 120.264C241.266 120.308 241.268 120.353 241.26 120.397C241.253 120.441 241.237 120.483 241.214 120.521Z" fill="#263238"/>
<path d="M253.067 183.246L251.145 182.63C250.153 182.328 249.827 181.429 248.841 179.63C247.855 177.831 245.218 180.529 243.241 180.529C241.263 180.529 243.567 178.428 242.581 176.629C241.596 174.83 238.959 176.931 236.654 176.327C234.35 175.724 237.64 170.327 234.35 170.628C233.734 170.684 233.284 171.171 232.939 171.922C232.625 171.171 232.212 170.69 231.658 170.628C228.658 170.327 231.658 175.73 229.557 176.327C227.456 176.925 225.06 174.83 224.16 176.629C223.261 178.428 225.355 180.529 223.544 180.529C221.733 180.529 219.342 177.831 218.443 179.63C217.543 181.429 217.241 182.328 216.342 182.63L214.592 183.246H253.067Z" fill="#263238"/>
<path d="M83.0246 95.2552V95.2244H82.9877V95.1936C82.1313 95.1074 73.2657 94.3496 65.1763 98.5513C68.7483 94.0617 70.3944 88.3389 69.7539 82.6376C67.8071 63.1073 49.3735 51.9252 47.9564 51.0934V51.0442H47.8702V51.1366C46.447 51.9683 28.0196 63.1504 26.0665 82.6807C25.6493 86.4613 26.2313 90.2852 27.7546 93.7704C17.3796 87.5663 5.27945 88.6137 4.16432 88.7184H4.0411V88.7554C3.49277 89.9876 -3.43215 106.671 4.88515 120.792C12.3276 133.441 27.9333 130.102 32.1721 128.913C35.7331 132.652 42.2267 141.161 45.1101 155.694H41.0685L43.0215 183.209H52.1151L54.0681 155.731H49.3057C51.4874 145.884 55.4234 136.51 60.9253 128.056C65.164 129.116 76.6542 130.903 82.3161 121.279C89.0685 109.789 83.4436 96.2841 83.0246 95.2552ZM47.6237 95.1505L38.0126 81.7997C37.9923 81.7722 37.9775 81.741 37.9693 81.7078C37.961 81.6747 37.9594 81.6402 37.9646 81.6064C37.9697 81.5726 37.9815 81.5401 37.9993 81.5109C38.0171 81.4817 38.0405 81.4563 38.0681 81.4362C38.1245 81.3947 38.1951 81.3772 38.2644 81.3876C38.3336 81.398 38.396 81.4354 38.4377 81.4916L47.6114 94.2633V80.7523L38.0003 67.4077C37.9588 67.3512 37.9413 67.2807 37.9517 67.2114C37.9621 67.1421 37.9995 67.0798 38.0558 67.038C38.1135 66.9987 38.1841 66.9832 38.253 66.9947C38.3218 67.0061 38.3836 67.0437 38.4254 67.0996L47.6237 79.8836V60.1685C47.6359 60.0998 47.674 60.0384 47.7302 59.9971C47.7864 59.9558 47.8564 59.9378 47.9256 59.9467C47.9818 59.9543 48.0339 59.9801 48.074 60.0202C48.114 60.0603 48.1398 60.1124 48.1474 60.1685V79.1998L58.1282 66.539C58.1707 66.4854 58.2323 66.4504 58.3 66.4412C58.3678 66.4321 58.4364 66.4494 58.4917 66.4897C58.5443 66.5331 58.5781 66.5951 58.5861 66.6628C58.5942 66.7305 58.5758 66.7987 58.5348 66.8532L48.1351 80.0931V93.6472L58.1159 80.9864C58.1369 80.9588 58.1634 80.9358 58.1935 80.9186C58.2237 80.9014 58.257 80.8905 58.2915 80.8864C58.326 80.8824 58.361 80.8854 58.3943 80.8951C58.4276 80.9049 58.4587 80.9213 58.4855 80.9433C58.5122 80.9643 58.5345 80.9904 58.5512 81.0201C58.5678 81.0497 58.5784 81.0824 58.5824 81.1161C58.5864 81.1499 58.5837 81.1841 58.5745 81.2168C58.5653 81.2495 58.5497 81.2801 58.5287 81.3068L48.1351 94.4913V105.926L58.1159 93.2714C58.1584 93.2179 58.22 93.1828 58.2877 93.1737C58.3554 93.1645 58.4241 93.1818 58.4794 93.2221C58.5319 93.2655 58.5658 93.3275 58.5738 93.3952C58.5818 93.4629 58.5635 93.5311 58.5225 93.5856L48.1351 106.77V107.023H47.2911L37.9942 94.0846C37.9527 94.0282 37.9352 93.9576 37.9456 93.8884C37.956 93.8191 37.9934 93.7567 38.0496 93.715C38.1073 93.6757 38.1779 93.6601 38.2468 93.6716C38.3157 93.6831 38.3774 93.7207 38.4193 93.7766L47.6114 106.585V95.1258L47.6237 95.1505ZM32.3261 127.736L31.3834 126.442L17.8293 122.671C17.7786 122.651 17.737 122.613 17.7127 122.564C17.6884 122.515 17.6829 122.459 17.6974 122.407C17.7119 122.354 17.7453 122.308 17.7913 122.279C17.8372 122.249 17.8925 122.238 17.9464 122.246L30.9645 125.869L25.3149 118.143L11.7916 114.373C11.7354 114.357 11.6877 114.32 11.6589 114.269C11.6301 114.218 11.6224 114.158 11.6376 114.102C11.6533 114.047 11.69 114.001 11.7396 113.973C11.7892 113.946 11.8478 113.939 11.9025 113.954L24.896 117.576L18.2175 108.434L4.66336 104.663C4.63681 104.657 4.61182 104.645 4.5899 104.629C4.56798 104.612 4.54957 104.592 4.53577 104.568C4.52196 104.545 4.51305 104.518 4.50957 104.491C4.50609 104.464 4.5081 104.437 4.51549 104.41C4.52265 104.383 4.5352 104.357 4.55243 104.334C4.56965 104.312 4.5912 104.292 4.61583 104.278C4.64047 104.264 4.6677 104.255 4.69595 104.251C4.7242 104.247 4.75291 104.249 4.78042 104.256L17.7739 107.879L8.40922 95.0273C8.37522 94.9798 8.36133 94.9208 8.37055 94.8631C8.37978 94.8054 8.41139 94.7537 8.45851 94.7192C8.50308 94.6861 8.5587 94.6715 8.61379 94.6784C8.66887 94.6853 8.71918 94.7131 8.75424 94.7562L18.4762 108.052L18.3838 94.8794C18.3786 94.8506 18.3792 94.821 18.3858 94.7925C18.3923 94.7639 18.4046 94.737 18.4219 94.7134C18.4392 94.6897 18.4612 94.6699 18.4864 94.655C18.5116 94.6401 18.5396 94.6305 18.5686 94.6268C18.597 94.6215 18.6261 94.622 18.6543 94.6281C18.6825 94.6343 18.7092 94.6461 18.7327 94.6627C18.7563 94.6794 18.7762 94.7006 18.7915 94.7251C18.8067 94.7497 18.8168 94.777 18.8212 94.8055C18.8275 94.8297 18.8275 94.8552 18.8212 94.8794L18.9506 108.631L25.623 117.767L25.5305 104.589C25.5253 104.56 25.5259 104.531 25.5325 104.502C25.5391 104.474 25.5514 104.447 25.5686 104.423C25.5859 104.399 25.6079 104.38 25.6331 104.365C25.6583 104.35 25.6863 104.34 25.7154 104.336C25.7437 104.331 25.7729 104.332 25.801 104.338C25.8292 104.344 25.8559 104.356 25.8794 104.372C25.903 104.389 25.923 104.41 25.9382 104.435C25.9534 104.459 25.9635 104.487 25.968 104.515C25.9742 104.539 25.9742 104.565 25.968 104.589L26.0665 118.353L31.6114 126.054L31.5128 112.876C31.5159 112.818 31.5404 112.764 31.5816 112.724C31.6227 112.684 31.6773 112.661 31.7346 112.66C31.7918 112.66 31.8467 112.683 31.8871 112.723C31.9275 112.764 31.9503 112.818 31.9503 112.876L32.0488 126.633L32.8559 127.736H32.3261ZM33.8663 127.736C35.8378 124.735 41.5306 114.884 38.1297 105.402C40.7732 107.147 43.6019 108.593 46.5641 109.715V152.497C43.4405 139.386 37.5567 131.549 33.9772 127.736H33.8663ZM48.6526 149.86V109.912C51.472 108.885 54.1751 107.563 56.7173 105.969C51.2895 114.668 57.3334 124.717 58.9722 127.089C54.4116 134.12 50.9329 141.796 48.6526 149.86ZM82.4886 108.156L71.516 111.237L66.0943 118.63L76.6357 115.685C76.6588 115.678 76.6829 115.677 76.7067 115.68C76.7304 115.683 76.7533 115.691 76.774 115.703C76.7947 115.715 76.8128 115.731 76.8271 115.75C76.8415 115.769 76.8518 115.791 76.8575 115.814C76.8689 115.859 76.8625 115.907 76.8395 115.947C76.8165 115.987 76.7788 116.017 76.7343 116.03L65.7555 119.11L61.1779 125.376L71.7193 122.437C71.7642 122.426 71.8118 122.432 71.852 122.455C71.8922 122.478 71.922 122.516 71.9349 122.561C71.9465 122.606 71.9403 122.655 71.9174 122.696C71.8945 122.737 71.8567 122.768 71.8117 122.782L60.839 125.863L60.2599 126.651C60.1551 126.59 60.0504 126.534 59.958 126.467L60.2845 126.017L60.3646 114.853C60.3662 114.806 60.3855 114.762 60.4187 114.729C60.4518 114.695 60.4964 114.676 60.5433 114.675C60.5907 114.675 60.6361 114.693 60.6696 114.727C60.7031 114.76 60.722 114.806 60.722 114.853L60.648 125.543L65.2256 119.283L65.3057 108.119C65.3057 108.072 65.3245 108.026 65.358 107.993C65.3915 107.959 65.437 107.941 65.4844 107.941C65.5313 107.942 65.5758 107.962 65.609 107.995C65.6422 108.028 65.6615 108.072 65.663 108.119L65.583 118.815L70.9984 111.422L71.0785 100.252C71.0862 100.211 71.108 100.174 71.1401 100.147C71.1721 100.121 71.2125 100.106 71.2541 100.106C71.2958 100.106 71.3361 100.121 71.3682 100.147C71.4002 100.174 71.422 100.211 71.4297 100.252L71.3188 110.898L79.2048 100.11C79.233 100.073 79.2745 100.048 79.3205 100.042C79.3666 100.035 79.4135 100.046 79.4513 100.073C79.4699 100.086 79.4858 100.103 79.498 100.122C79.5103 100.141 79.5186 100.162 79.5226 100.184C79.5266 100.207 79.5262 100.23 79.5214 100.252C79.5165 100.274 79.5074 100.295 79.4944 100.313L71.8733 110.744L82.4085 107.817C82.4534 107.806 82.501 107.812 82.5413 107.835C82.5815 107.858 82.6112 107.896 82.6242 107.941C82.6379 107.982 82.6345 108.028 82.6149 108.067C82.5953 108.106 82.561 108.136 82.5194 108.15L82.4886 108.156Z" fill="#263238"/>
<path d="M187.699 57.5996L186.067 52.7078L182.629 48.0008L180.657 53.4902L185.161 59.4109L187.699 57.5996Z" fill="white"/>
<path d="M185.099 59.836L180.312 53.5456L182.53 47.3477L186.362 52.6153L188.063 57.7228L185.099 59.836ZM180.984 53.4409L185.21 58.9858L187.317 57.4825L185.771 52.8556L182.69 48.6477L180.984 53.4409Z" fill="#263238"/>
<path d="M212.035 72.8047L198.333 73.2853C197.827 73.3048 197.326 73.1788 196.889 72.9222C196.452 72.6656 196.098 72.2891 195.869 71.8374L187.699 57.5995C187.699 57.5995 185.346 58.8686 185.161 59.4108C184.976 59.9529 190.62 73.6426 193.041 79.7419C193.244 80.2557 193.602 80.6931 194.067 80.9925C194.531 81.292 195.077 81.4385 195.629 81.4116L210.951 80.7955" fill="white"/>
<path d="M195.518 81.732C194.925 81.7349 194.346 81.5604 193.854 81.231C193.362 80.9015 192.98 80.4323 192.757 79.8837C192.265 78.6515 191.642 77.0866 190.958 75.3924C185.617 62.0662 184.754 59.6942 184.871 59.3369C185.069 58.7208 186.812 57.7535 187.551 57.3531L187.816 57.2114L196.134 71.7081C196.337 72.1095 196.651 72.4444 197.039 72.6736C197.426 72.9028 197.871 73.0167 198.321 73.0019L212.023 72.5214V73.1375L198.321 73.618C197.756 73.6361 197.198 73.4942 196.711 73.2085C196.223 72.9229 195.827 72.5053 195.567 72.0038L187.558 58.0431C186.788 58.4254 186.079 58.9172 185.451 59.5033C185.617 60.4705 189.147 69.293 191.507 75.1644C192.184 76.8587 192.813 78.4174 193.306 79.6558C193.484 80.1103 193.801 80.4974 194.211 80.7626C194.621 81.0279 195.104 81.1579 195.591 81.1344L210.914 80.5183V81.1344L195.591 81.7505L195.518 81.732Z" fill="#263238"/>
<path d="M188.621 59.9354L186.476 60.825L186.653 61.2518L188.798 60.3623L188.621 59.9354Z" fill="#263238"/>
<path d="M193.786 84.1347H64.2214V182.075H193.786V84.1347Z" fill="#26AB7B"/>
<path d="M193.786 182.365H64.2214C64.1397 182.365 64.0613 182.333 64.0036 182.275C63.9458 182.217 63.9133 182.139 63.9133 182.057V84.0978C63.9133 84.0161 63.9458 83.9378 64.0036 83.88C64.0613 83.8223 64.1397 83.7898 64.2214 83.7898H193.786C193.867 83.7928 193.944 83.8263 194.001 83.8834C194.058 83.9405 194.091 84.0171 194.094 84.0978V182.057C194.094 182.139 194.062 182.217 194.004 182.275C193.946 182.333 193.868 182.365 193.786 182.365ZM64.5418 181.749H193.491V84.4059H64.5418V181.749Z" fill="#263238"/>
<path d="M64.2214 84.1347L121.679 28.0207C123.427 26.5398 125.639 25.719 127.93 25.701C130.22 25.6829 132.445 26.4689 134.216 27.9221L193.786 84.1347H64.2214Z" fill="#26AB7B"/>
<path d="M193.788 84.4427H64.2234C64.1624 84.4433 64.1026 84.4253 64.052 84.3912C64.0015 84.3571 63.9624 84.3085 63.94 84.2517C63.9169 84.1948 63.911 84.1324 63.9231 84.0722C63.9351 84.0119 63.9646 83.9566 64.0077 83.9129L121.465 27.805C123.266 26.273 125.547 25.4215 127.912 25.399C130.276 25.3765 132.573 26.1843 134.403 27.6818L193.986 83.9129C194.031 83.9549 194.063 84.01 194.076 84.0706C194.089 84.1313 194.084 84.1945 194.06 84.2517C194.037 84.3061 194 84.353 193.952 84.3868C193.904 84.4207 193.847 84.4401 193.788 84.4427ZM64.9812 83.8266H193.012L134.009 28.1438C132.294 26.7408 130.141 25.984 127.925 26.0054C125.709 26.0268 123.571 26.825 121.884 28.2609L64.9812 83.8266Z" fill="#263238"/>
<path d="M183.042 37.3854H74.9663V128.592H183.042V37.3854Z" fill="white"/>
<path d="M183.042 128.894H74.966C74.8843 128.894 74.806 128.862 74.7482 128.804C74.6904 128.746 74.658 128.668 74.658 128.586V37.4039C74.658 37.3222 74.6904 37.2438 74.7482 37.186C74.806 37.1283 74.8843 37.0958 74.966 37.0958H183.042C183.123 37.0958 183.202 37.1283 183.259 37.186C183.317 37.2438 183.35 37.3222 183.35 37.4039V128.586C183.35 128.668 183.317 128.746 183.259 128.804C183.202 128.862 183.123 128.894 183.042 128.894ZM75.2741 128.278H182.734V37.7119H75.2741V128.278Z" fill="#263238"/>
<path d="M178.304 123.041H79.7285C79.6664 123.041 79.6069 123.017 79.563 122.973C79.519 122.929 79.4944 122.869 79.4944 122.807V43.1644C79.496 43.1034 79.5214 43.0454 79.5651 43.0028C79.6088 42.9602 79.6675 42.9364 79.7285 42.9364H178.304C178.363 42.9394 178.42 42.9644 178.462 43.0065C178.504 43.0486 178.529 43.1049 178.532 43.1644V122.807C178.532 122.868 178.508 122.927 178.465 122.971C178.423 123.014 178.365 123.04 178.304 123.041ZM79.9441 122.604H178.07V43.3985H79.9441V122.604Z" fill="#26AB7B"/>
<path d="M175.156 120.879H82.8522C82.6888 120.879 82.5321 120.814 82.4165 120.698C82.301 120.583 82.2361 120.426 82.2361 120.263V45.715C82.2361 45.5516 82.301 45.3949 82.4165 45.2794C82.5321 45.1638 82.6888 45.0989 82.8522 45.0989H175.156C175.319 45.0989 175.476 45.1638 175.591 45.2794C175.707 45.3949 175.772 45.5516 175.772 45.715V120.263C175.772 120.426 175.707 120.583 175.591 120.698C175.476 120.814 175.319 120.879 175.156 120.879ZM83.4683 119.647H174.54V46.3311H83.4683V119.647Z" fill="#26AB7B"/>
<path d="M125.418 71.8436C125.874 72.5645 126.349 72.928 126.841 72.928V72.9834C126.521 72.9834 126.102 73.2668 125.609 73.8336C125.609 73.9877 125.554 74.0616 125.437 74.0616C125.437 73.772 125.252 73.5256 124.87 73.3223C124.498 73.1455 124.086 73.067 123.675 73.0943H110.977L109.782 73.5502L109.609 73.7227H109.517C109.418 73.6597 109.333 73.5775 109.266 73.4811C109.199 73.3846 109.153 73.2758 109.128 73.161C109.104 73.0463 109.103 72.9278 109.126 72.8127C109.148 72.6976 109.193 72.5881 109.258 72.4905C109.325 72.3868 109.413 72.2985 109.517 72.2318H109.628C109.992 72.4981 110.414 72.6734 110.86 72.7431L110.977 72.8602H124.057C124.962 72.7 125.418 72.3858 125.418 71.8436ZM127.47 71.4493C127.969 71.4493 128.369 71.8067 128.659 72.5275V72.6446H128.493C127.692 72.3858 127.297 72.0839 127.297 71.7327V71.6157L127.47 71.4493ZM128.431 73.2976H128.548L128.659 73.4147C128.659 73.7289 128.339 74.0862 127.692 74.4929H127.636C127.439 74.4929 127.322 74.4374 127.297 74.3265V74.0986C127.567 73.7079 127.97 73.4295 128.431 73.3161V73.2976ZM130.593 71.4493L130.711 71.6157V71.7327C130.711 71.9977 130.366 72.2996 129.688 72.6446H129.343V72.5275C129.343 72.2133 129.645 71.8744 130.255 71.5048L130.593 71.4493ZM129.46 73.2976C129.73 73.3147 129.989 73.4159 130.199 73.5872C130.538 73.7843 130.711 73.9938 130.711 74.2033V74.3204C130.674 74.4312 130.557 74.4867 130.366 74.4867H130.31C129.958 74.3066 129.663 74.0312 129.46 73.6919L129.343 73.5194V73.4085L129.46 73.2976ZM132.583 71.819C132.583 72.3612 133.039 72.7 133.951 72.8479H147.031C147.277 72.6644 147.574 72.5631 147.881 72.5583L148.393 72.2195H148.51C148.632 72.3004 148.732 72.4103 148.801 72.5393C148.87 72.6682 148.906 72.8124 148.906 72.9588C148.906 73.1052 148.87 73.2493 148.801 73.3783C148.732 73.5073 148.632 73.6172 148.51 73.6981H148.393C147.946 73.3955 147.443 73.186 146.914 73.082H134.346C133.421 73.082 132.83 73.3531 132.583 73.8829V74.0493C132.109 73.4332 131.715 73.082 131.388 73.082C131.388 73.0081 131.314 72.9711 131.166 72.9711C131.166 72.8972 131.296 72.8602 131.561 72.8602C132.007 72.6588 132.354 72.2888 132.528 71.8313L132.583 71.819Z" fill="#26AB7B"/>
<path d="M64.2214 84.6953L129.004 133.663L193.78 84.6953V182.63H64.2214V84.6953Z" fill="#26AB7B"/>
<path d="M193.786 182.938H64.2214C64.1397 182.938 64.0613 182.906 64.0036 182.848C63.9458 182.79 63.9133 182.712 63.9133 182.63V84.6708C63.9167 84.6147 63.9343 84.5605 63.9643 84.513C63.9943 84.4656 64.0359 84.4265 64.0851 84.3995C64.1343 84.3724 64.1895 84.3582 64.2457 84.3583C64.3018 84.3583 64.3571 84.3726 64.4062 84.3997L129.004 133.225L193.595 84.4059C193.659 84.3555 193.74 84.3324 193.821 84.3417C193.902 84.3509 193.976 84.3917 194.027 84.4552C194.07 84.5096 194.094 84.5767 194.094 84.6461V182.605C194.099 182.646 194.095 182.687 194.083 182.726C194.072 182.765 194.052 182.801 194.027 182.833C194.001 182.864 193.969 182.89 193.933 182.909C193.897 182.929 193.858 182.94 193.817 182.944L193.786 182.938ZM64.5294 182.322H193.478V85.3115L129.189 133.909C129.135 133.948 129.07 133.969 129.004 133.969C128.937 133.969 128.873 133.948 128.819 133.909L64.5418 85.3115L64.5294 182.322Z" fill="#263238"/>
<path d="M64.2214 182.63L119.997 126.855H138.005L193.78 182.63H64.2214Z" fill="#26AB7B"/>
<path d="M193.786 182.938H64.2213C64.1613 182.938 64.1028 182.92 64.0526 182.887C64.0023 182.854 63.9625 182.808 63.9379 182.753C63.9131 182.697 63.9063 182.634 63.9185 182.573C63.9306 182.513 63.961 182.457 64.0056 182.414L119.781 126.639C119.808 126.61 119.842 126.586 119.879 126.57C119.916 126.554 119.956 126.546 119.996 126.547H138.005C138.045 126.546 138.085 126.554 138.123 126.57C138.16 126.586 138.193 126.61 138.221 126.639L194.002 182.414C194.044 182.459 194.072 182.514 194.084 182.574C194.096 182.634 194.091 182.696 194.07 182.753C194.045 182.808 194.005 182.854 193.955 182.887C193.905 182.92 193.846 182.938 193.786 182.938ZM64.9667 182.322H193.041L137.857 127.163H120.126L64.9667 182.322Z" fill="#263238"/>
<path d="M208.4 65.9598L208.222 71.1535L214.413 70.1678L214.629 61.1111L208.4 65.9598Z" fill="white"/>
<path d="M207.901 71.5171L208.092 65.8058L214.955 60.4704L214.715 70.4327L207.901 71.5171ZM208.702 66.1139L208.542 70.7901L214.087 69.9029L214.278 61.7519L208.702 66.1139Z" fill="#263238"/>
<path d="M203.163 181.386C203.034 181.023 202.929 180.653 202.849 180.277L202.498 177.67L197.939 176.943L194.138 179.648L191.722 180.979H191.673C191.079 181.22 190.511 181.521 189.979 181.878C189.578 182.23 189.776 182.624 190.977 182.624H202.917C202.917 182.624 203.496 182.285 203.163 181.386Z" fill="white"/>
<path d="M202.978 182.938H190.958C190.127 182.938 189.634 182.753 189.498 182.39C189.456 182.255 189.458 182.11 189.504 181.977C189.551 181.844 189.64 181.729 189.757 181.65C190.314 181.271 190.911 180.952 191.537 180.702H191.605L193.971 179.402L197.846 176.642L202.775 177.43L203.151 180.258C203.233 180.61 203.334 180.958 203.453 181.299C203.595 181.571 203.635 181.885 203.565 182.184C203.495 182.483 203.32 182.746 203.071 182.926L202.978 182.938ZM190.083 182.205C190.366 182.296 190.662 182.336 190.958 182.322H202.794C202.886 182.23 203.046 181.983 202.861 181.496C202.725 181.12 202.614 180.735 202.529 180.344L202.208 177.942L198 177.264L194.304 179.901L191.759 181.281C191.202 181.502 190.669 181.781 190.17 182.112C190.137 182.137 190.109 182.169 190.09 182.205H190.083Z" fill="#263238"/>
<path d="M203.237 181.749H190.164C190.091 181.793 190.023 181.845 189.96 181.903C189.56 182.254 189.757 182.649 190.958 182.649H202.898C203.036 182.548 203.142 182.409 203.202 182.25C203.263 182.09 203.275 181.916 203.237 181.749Z" fill="white"/>
<path d="M202.978 182.938H190.958C190.127 182.938 189.634 182.753 189.498 182.39C189.456 182.255 189.458 182.11 189.504 181.977C189.551 181.844 189.64 181.729 189.757 181.651C189.832 181.586 189.912 181.528 189.997 181.478L190.071 181.423H203.502L203.545 181.687C203.596 181.919 203.576 182.16 203.488 182.379C203.4 182.599 203.248 182.787 203.052 182.92L202.978 182.938ZM190.083 182.205C190.366 182.296 190.662 182.336 190.958 182.322H202.787C202.862 182.244 202.911 182.145 202.929 182.039H190.256L190.164 182.113C190.131 182.137 190.103 182.169 190.083 182.205Z" fill="#263238"/>
<path d="M223.279 181.386C223.151 181.022 223.044 180.652 222.959 180.277L222.614 177.67L218.054 176.943L214.253 179.648L211.838 180.979H211.789C211.193 181.22 210.623 181.521 210.088 181.878C209.688 182.23 209.891 182.624 211.086 182.624H223.026C223.026 182.624 223.624 182.285 223.279 181.386Z" fill="white"/>
<path d="M223.112 182.938H211.086C210.255 182.938 209.768 182.753 209.626 182.39C209.584 182.255 209.586 182.11 209.632 181.977C209.679 181.844 209.768 181.729 209.885 181.65C210.442 181.271 211.039 180.952 211.665 180.702H211.739L214.099 179.402L217.98 176.642L222.909 177.43L223.285 180.258C223.365 180.61 223.464 180.958 223.581 181.299C223.726 181.57 223.767 181.885 223.697 182.185C223.627 182.484 223.45 182.748 223.199 182.926L223.112 182.938ZM210.218 182.205C210.497 182.299 210.792 182.339 211.086 182.322H222.921C223.014 182.23 223.18 181.983 222.989 181.496C222.859 181.119 222.75 180.734 222.663 180.344L222.336 177.942L218.128 177.264L214.432 179.901L211.887 181.281C211.33 181.502 210.797 181.781 210.298 182.112C210.266 182.139 210.239 182.17 210.218 182.205Z" fill="#263238"/>
<path d="M223.371 181.749H210.298C210.224 181.795 210.154 181.846 210.088 181.903C209.688 182.254 209.891 182.649 211.086 182.649H223.026C223.165 182.548 223.271 182.41 223.333 182.25C223.394 182.09 223.407 181.916 223.371 181.749Z" fill="white"/>
<path d="M223.112 182.938H211.086C210.255 182.938 209.768 182.753 209.626 182.39C209.584 182.255 209.586 182.11 209.632 181.977C209.679 181.844 209.768 181.729 209.885 181.651C209.96 181.586 210.04 181.528 210.125 181.478L210.205 181.423H223.636L223.673 181.687C223.725 181.918 223.706 182.159 223.62 182.379C223.533 182.598 223.382 182.787 223.186 182.92L223.112 182.938ZM210.218 182.205C210.497 182.299 210.792 182.339 211.086 182.322H222.921C222.995 182.243 223.044 182.145 223.063 182.039H210.39L210.292 182.113C210.26 182.139 210.233 182.17 210.211 182.205H210.218Z" fill="#263238"/>
<path d="M201.488 105.063L200.939 111.841C200.939 111.841 197.15 138.801 197.329 141.9C197.508 144.999 197.945 176.974 197.945 176.974L202.504 177.701L207.63 142.233L214.826 106.191L201.488 105.063Z" fill="#26AB7B"/>
<path d="M202.744 178.052L197.619 177.202V176.944C197.619 176.623 197.212 144.95 197.033 141.888C196.855 138.826 200.49 112.869 200.644 111.767L201.21 104.731L215.177 105.877L215.11 106.216L207.907 142.263L202.744 178.052ZM198.235 176.679L202.227 177.295L207.304 142.134L214.438 106.4L201.777 105.353L201.253 111.791C201.217 112.081 197.471 138.776 197.643 141.808C197.816 144.839 198.185 173.623 198.235 176.679Z" fill="#263238"/>
<path d="M201.124 176.272L200.699 176.204C200.699 176.106 202.67 166.069 202.67 160.666C202.67 155.263 202.67 150.1 203.989 145.024C205.289 140.046 207.069 129.781 207.069 129.677L207.525 129.757C207.525 129.861 205.751 140.138 204.445 145.159C203.139 150.18 203.163 155.257 203.163 160.685C203.163 166.113 201.143 176.204 201.124 176.272Z" fill="#263238"/>
<path d="M210.742 103.4C213.754 101.829 216.989 100.776 217.901 102.876C219.749 107.072 217.537 113.455 217.537 113.455L219.182 142.867L222.454 177.689L217.309 177.64C217.309 177.64 210.661 147.673 209.571 145.849C208.48 144.026 206.749 118.377 206.749 118.377L203.299 115.211" fill="#26AB7B"/>
<path d="M222.817 177.997L217.087 177.942L217.032 177.701C214.74 167.357 210.175 147.414 209.331 146.003C208.246 144.198 206.688 121.68 206.478 118.519L203.09 115.439L203.502 114.983L207.076 118.217V118.34C207.766 128.623 209.078 144.383 209.854 145.677C210.92 147.457 216.896 174.282 217.574 177.319L222.133 177.362L218.892 142.861L217.217 113.362V113.301C217.217 113.239 219.342 106.98 217.586 102.95C217.507 102.748 217.385 102.566 217.227 102.417C217.069 102.268 216.881 102.156 216.675 102.088C215.553 101.687 213.539 102.223 210.852 103.622L210.569 103.074C213.446 101.57 215.572 101.047 216.884 101.509C217.169 101.604 217.431 101.761 217.65 101.967C217.869 102.173 218.041 102.425 218.153 102.704C219.927 106.795 218.048 112.752 217.814 113.442L219.484 142.799L222.817 177.997Z" fill="#263238"/>
<path d="M220.205 176.032C220.205 175.908 218.868 163.432 216.915 154.548C215.436 147.814 215.547 147.408 215.682 146.798C215.763 146.518 215.799 146.227 215.787 145.935V144.703C215.824 142.608 215.88 139.442 215.344 137.673C214.524 134.932 214.111 131.02 214 125.709H214.463C214.543 130.977 214.98 134.846 215.787 137.55C216.342 139.399 216.286 142.596 216.249 144.715V145.948C216.26 146.28 216.22 146.613 216.132 146.933C215.997 147.439 215.886 147.833 217.364 154.462C219.324 163.371 220.648 175.871 220.667 176.025L220.205 176.032Z" fill="#263238"/>
<path d="M214.493 122.302H214.031V120.688C214.216 111.97 214.087 111.003 214.031 110.898L214.241 110.818L214.031 110.713L214.296 110.59C214.53 110.645 214.684 110.682 214.469 120.7C214.506 121.248 214.499 121.784 214.493 122.302Z" fill="#263238"/>
<path d="M204.396 115.574C204.362 115.573 204.329 115.566 204.298 115.552C204.268 115.538 204.24 115.519 204.217 115.494L203.151 114.262C203.124 114.233 203.105 114.197 203.097 114.157C203.089 114.118 203.093 114.077 203.108 114.04L203.81 111.927L203.952 108.846C203.953 108.816 203.96 108.786 203.972 108.758C203.985 108.73 204.003 108.705 204.025 108.685C204.048 108.664 204.074 108.648 204.103 108.638C204.131 108.627 204.162 108.623 204.192 108.625C204.252 108.628 204.309 108.654 204.35 108.697C204.391 108.741 204.414 108.799 204.414 108.859L204.266 111.939C204.272 111.961 204.272 111.985 204.266 112.007L203.595 114.022L204.58 115.174C204.623 115.216 204.646 115.274 204.646 115.334C204.646 115.394 204.623 115.451 204.58 115.494C204.558 115.52 204.529 115.541 204.497 115.555C204.465 115.569 204.43 115.575 204.396 115.574Z" fill="#263238"/>
<path d="M207.519 112.284C204.075 112.284 202.677 110.929 202.59 110.861C202.57 110.84 202.553 110.816 202.542 110.789C202.531 110.762 202.525 110.733 202.525 110.704C202.525 110.675 202.531 110.646 202.542 110.619C202.553 110.592 202.57 110.567 202.59 110.547C202.633 110.505 202.691 110.481 202.751 110.481C202.811 110.481 202.868 110.505 202.911 110.547C202.911 110.547 204.697 112.247 209.152 111.73C209.181 111.725 209.211 111.727 209.239 111.734C209.268 111.741 209.295 111.754 209.318 111.772C209.342 111.79 209.361 111.812 209.376 111.838C209.391 111.863 209.401 111.891 209.404 111.921C209.413 111.98 209.398 112.041 209.362 112.089C209.327 112.138 209.273 112.17 209.213 112.179C208.651 112.248 208.086 112.283 207.519 112.284Z" fill="#263238"/>
<path d="M213.736 109.161C217.21 108.483 217.432 107.503 218.621 106.696C218.633 105.386 218.388 104.086 217.9 102.87C216.989 100.769 213.754 101.823 210.741 103.394L209.324 105.704L201.518 105.088L201.272 108.169C205.285 109.505 209.562 109.846 213.736 109.161Z" fill="#263238"/>
<path d="M202.264 107.183L202.19 108.403L204.174 108.859L204.322 107.263L202.264 107.183Z" fill="white"/>
<path d="M204.396 109.148L201.968 108.588L202.067 106.943L204.593 107.041L204.396 109.148ZM202.449 108.224L203.983 108.575L204.088 107.485L202.504 107.423L202.449 108.224Z" fill="#263238"/>
<path d="M216.095 108.988L215.757 105.963L216.767 105.624L217.272 108.317" fill="#26AB7B"/>
<path d="M215.787 109.025L215.424 105.747L217.001 105.218L217.574 108.261L216.97 108.372L216.526 106.031L216.089 106.173L216.397 108.957L215.787 109.025Z" fill="#263238"/>
<path d="M208.351 110.005L207.673 106.468H209.355L210.033 109.499" fill="#26AB7B"/>
<path d="M208.043 110.06L207.304 106.16H209.608L210.335 109.432L209.731 109.561L209.109 106.776H208.049L208.653 109.943L208.043 110.06Z" fill="#263238"/>
<path d="M206.49 71.1783C206.49 71.1783 203.219 74.8749 201.913 76.409C200.606 77.943 200.606 94.2758 200.606 96.6847C200.606 99.0936 199.3 105.612 201.481 106.918C203.662 108.224 216.958 107.793 218.264 105.612C219.57 103.431 220.439 77.2715 220.223 74.8872C220.007 72.5029 218.036 70.5745 216.526 69.8722C215.017 69.1698 206.49 71.1783 206.49 71.1783Z" fill="white"/>
<path d="M207.402 107.959C204.784 107.959 202.251 107.737 201.321 107.183C199.473 106.08 199.867 101.94 200.144 98.9149C200.224 98.0092 200.298 97.2329 200.298 96.6846C200.298 89.6365 200.477 77.5856 201.678 76.2117C202.972 74.7023 206.225 71.0119 206.262 70.9749L206.324 70.901H206.422C207.303 70.6915 215.048 68.8863 216.643 69.6133C218.412 70.4266 220.309 72.4905 220.531 74.8748C220.753 77.2591 219.872 103.554 218.529 105.784C217.617 107.312 212.411 107.768 210.218 107.898C209.324 107.935 208.351 107.959 207.402 107.959ZM206.657 71.4678C206.188 71.9976 203.336 75.2383 202.147 76.6245C201.389 77.5117 200.915 85.2006 200.915 96.6969C200.915 97.2761 200.841 98.0647 200.76 98.9826C200.514 101.681 200.144 105.76 201.642 106.665C202.596 107.238 206.268 107.503 210.181 107.281C214.352 107.041 217.494 106.314 217.999 105.47C219.231 103.388 220.131 77.2961 219.915 74.9302C219.699 72.5644 217.685 70.7654 216.385 70.1678C215.356 69.6749 210.039 70.6669 206.657 71.4678Z" fill="#263238"/>
<path opacity="0.1" d="M216.514 69.8721C216.334 69.7971 216.142 69.7554 215.947 69.7489L215.005 70.2417C215.005 70.2417 217.617 72.2625 218.085 75.3492C218.524 78.2646 218.485 81.232 217.968 84.1347C217.494 87.3446 209.891 84.1347 211.321 85.3238C212.75 86.5128 218.098 88.5336 218.326 89.5995C218.554 90.6653 215.713 92.452 214.629 92.5691C213.545 92.6861 215.344 95.0642 216.416 97.085C217.488 99.1058 217.124 101.952 214.629 103.862C212.134 105.772 206.423 106.733 203.946 106.832C203.139 106.862 202.634 107.041 202.492 107.281C206.293 108.125 217.075 107.577 218.246 105.624C219.558 103.443 220.42 77.2837 220.205 74.8994C219.989 72.5151 218.036 70.5744 216.514 69.8721Z" fill="#26AB7B"/>
<path d="M213.187 87.7697C209.676 86.673 206.607 83.5987 206.607 83.5987C207.383 87.2367 209.499 90.4498 212.534 92.5999" fill="white"/>
<path d="M212.534 92.8279C212.485 92.8298 212.437 92.8145 212.399 92.7848C209.325 90.589 207.179 87.3275 206.379 83.6358C206.371 83.5877 206.378 83.5382 206.4 83.4947C206.422 83.4513 206.458 83.4164 206.503 83.3955C206.545 83.372 206.593 83.3629 206.641 83.3695C206.689 83.3762 206.733 83.3983 206.767 83.4325C206.767 83.4633 209.848 86.5129 213.261 87.548C213.318 87.5677 213.366 87.6089 213.394 87.6629C213.421 87.7169 213.427 87.7795 213.409 87.8375C213.401 87.8667 213.388 87.894 213.369 87.9178C213.35 87.9415 213.327 87.9612 213.3 87.9757C213.274 87.9901 213.245 87.9989 213.215 88.0017C213.185 88.0044 213.154 88.001 213.126 87.9916C210.861 87.1771 208.782 85.9205 207.008 84.295C207.904 87.571 209.902 90.4383 212.664 92.4151C212.688 92.4318 212.709 92.4532 212.726 92.4782C212.742 92.5032 212.753 92.5312 212.758 92.5605C212.763 92.5898 212.762 92.6199 212.756 92.6489C212.749 92.6779 212.736 92.7053 212.719 92.7293C212.699 92.7597 212.671 92.7846 212.639 92.8018C212.607 92.819 212.571 92.828 212.534 92.8279Z" fill="#263238"/>
<path d="M215.861 67.4755L205.4 69.8721L204.747 72.9218L216.514 69.8721L215.861 67.4755Z" fill="white"/>
<path d="M204.34 73.347L205.141 69.6134L216.102 67.1059L216.915 70.094L204.34 73.347ZM205.659 70.1309L205.154 72.5029L216.139 69.6504L215.646 67.8391L205.659 70.1309Z" fill="#263238"/>
<path d="M185.709 53.6009L182.894 51.9744C182.894 51.9744 181.803 51.8327 182.278 53.0588L185.087 55.2274" fill="white"/>
<path d="M185.081 55.5479C185.014 55.5493 184.949 55.5276 184.896 55.4863L182.08 53.3115C182.036 53.2787 182.002 53.2338 181.982 53.1821C181.885 52.9998 181.837 52.7953 181.844 52.5888C181.85 52.3824 181.911 52.1812 182.019 52.0054C182.135 51.8832 182.277 51.79 182.436 51.7332C182.594 51.6765 182.764 51.6579 182.931 51.6788C182.972 51.6845 183.011 51.697 183.048 51.7158L185.863 53.3484C185.903 53.3633 185.939 53.3861 185.969 53.4154C185.999 53.4446 186.023 53.4798 186.039 53.5186C186.055 53.5575 186.063 53.5992 186.062 53.6413C186.062 53.6833 186.052 53.7248 186.035 53.7631C186.018 53.8014 185.993 53.8358 185.962 53.8642C185.931 53.8925 185.894 53.9142 185.855 53.9279C185.815 53.9416 185.773 53.9469 185.731 53.9437C185.689 53.9405 185.648 53.9287 185.611 53.9091L185.555 53.8783L182.832 52.2888C182.721 52.278 182.611 52.3112 182.524 52.3812C182.462 52.4613 182.475 52.6461 182.555 52.8802L185.297 54.9996C185.329 55.0233 185.356 55.0532 185.376 55.0874C185.397 55.1217 185.41 55.1597 185.416 55.1993C185.422 55.2388 185.42 55.2791 185.41 55.3178C185.4 55.3565 185.382 55.3928 185.358 55.4247C185.325 55.4661 185.283 55.499 185.235 55.5205C185.186 55.5419 185.134 55.5513 185.081 55.5479Z" fill="#263238"/>
<path d="M185.297 57.8458C185.167 57.5091 184.973 57.2012 184.724 56.9402L184.2 56.3734L181.341 52.8308C181.341 52.8308 180.454 52.2147 180.651 53.5208L182.426 56.9648L179.271 54.0137C179.271 54.0137 178.655 53.5208 178.655 54.2047C178.655 54.8886 181.514 57.9506 181.514 57.9506L178.359 56.472C178.359 56.472 177.669 56.9648 178.162 57.4577C178.655 57.9506 181.317 58.9363 181.317 58.9363L178.951 58.8378C178.951 58.8378 178.261 59.4539 178.754 59.6264C179.247 59.7989 182.007 60.415 182.007 60.415C182.358 60.7113 182.759 60.9447 183.19 61.105L183.88 62.3865L186.529 61.0557L185.297 57.8458Z" fill="white"/>
<path d="M183.911 62.6699C183.855 62.6695 183.801 62.6544 183.754 62.6263C183.706 62.5981 183.667 62.558 183.639 62.5098L183.023 61.3269C182.615 61.1714 182.234 60.9508 181.896 60.6738C181.341 60.5506 179.16 60.0577 178.692 59.8914C178.601 59.8585 178.519 59.8027 178.456 59.7294C178.392 59.656 178.348 59.5675 178.329 59.4724C178.267 59.0781 178.68 58.69 178.803 58.5791C178.864 58.5303 178.94 58.5041 179.019 58.5051H179.598C179.028 58.2886 178.491 57.9942 178.002 57.6303C177.91 57.5469 177.838 57.4437 177.793 57.3283C177.747 57.213 177.728 57.0887 177.737 56.9649C177.794 56.6468 177.973 56.3636 178.236 56.1763C178.28 56.1432 178.332 56.1228 178.386 56.1174C178.44 56.1119 178.495 56.1217 178.544 56.1455L180.313 56.9772C179.407 55.936 178.403 54.673 178.403 54.1555C178.387 54.0331 178.409 53.909 178.465 53.7992C178.521 53.6894 178.609 53.5989 178.717 53.5394C178.853 53.5013 178.997 53.4995 179.134 53.5341C179.271 53.5687 179.397 53.6385 179.499 53.7366L181.348 55.4863L180.386 53.638C180.38 53.6075 180.38 53.5761 180.386 53.5456C180.386 53.3423 180.263 52.7138 180.664 52.4551C180.807 52.3885 180.967 52.3625 181.124 52.3798C181.282 52.3972 181.431 52.4573 181.557 52.5536C181.582 52.5708 181.605 52.5916 181.625 52.6153L184.484 56.164C184.504 56.1905 184.52 56.2195 184.533 56.2502L184.983 56.7369C185.249 57.0281 185.458 57.3667 185.599 57.735L186.862 60.9202C186.891 60.9916 186.893 61.0716 186.865 61.1438C186.838 61.216 186.783 61.2749 186.714 61.3084L184.065 62.6453C184.015 62.6629 183.963 62.6713 183.911 62.6699ZM178.939 59.3307C179.45 59.5094 181.372 59.9468 182.099 60.0885C182.178 60.1046 182.246 60.1512 182.29 60.2179C182.603 60.4674 182.955 60.6631 183.331 60.797C183.399 60.8225 183.455 60.8703 183.492 60.9326L184.04 61.9553L186.172 60.8833L185.007 57.9568C184.885 57.6601 184.712 57.387 184.496 57.1497L183.966 56.5829C183.935 56.5469 183.912 56.505 183.898 56.4597L181.138 53.0404C181.078 53.0087 181.014 52.9859 180.947 52.9726C180.923 53.1132 180.923 53.2571 180.947 53.3977L182.697 56.8047C182.73 56.8682 182.74 56.9416 182.724 57.0116C182.708 57.0816 182.668 57.1437 182.611 57.1867C182.556 57.234 182.486 57.26 182.413 57.26C182.341 57.26 182.271 57.234 182.216 57.1867L179.062 54.2294L178.988 54.1801C178.988 54.5621 180.448 56.3118 181.76 57.7165C181.789 57.7452 181.812 57.7792 181.828 57.8168C181.843 57.8543 181.851 57.8946 181.851 57.9352C181.851 57.9759 181.843 58.0162 181.828 58.0537C181.812 58.0913 181.789 58.1253 181.76 58.154C181.717 58.1973 181.661 58.226 181.6 58.2359C181.539 58.2458 181.477 58.2366 181.422 58.2094L178.452 56.817C178.39 56.8797 178.347 56.9588 178.329 57.045C178.336 57.111 178.366 57.1722 178.415 57.2175C179.374 57.7981 180.395 58.2693 181.458 58.6222C181.527 58.6484 181.585 58.6979 181.621 58.762C181.657 58.8262 181.669 58.901 181.656 58.9734C181.641 59.0451 181.601 59.1092 181.544 59.1544C181.486 59.1995 181.415 59.2227 181.341 59.2198L179.105 59.1274C179.041 59.1874 178.985 59.2558 178.939 59.3307Z" fill="#263238"/>
<path d="M215.701 81.3253L195.511 86.1431C194.703 86.2845 193.87 86.1414 193.154 85.7382C192.439 85.335 191.885 84.6966 191.587 83.9313L183.91 62.368L186.56 61.0372L195.284 75.269C195.537 75.7325 195.932 76.1023 196.411 76.3242C196.89 76.546 197.428 76.6081 197.945 76.5012L210.027 73.0819" fill="white"/>
<path d="M194.914 86.4698C194.134 86.47 193.372 86.2349 192.728 85.7952C192.084 85.3556 191.588 84.7318 191.304 84.0054L183.529 62.2264L186.671 60.643L195.549 75.1213C195.765 75.5343 196.11 75.8658 196.531 76.0659C196.952 76.2659 197.427 76.3236 197.884 76.2303L209.941 72.8048L210.107 73.4209L198.025 76.8402C197.439 76.9611 196.829 76.8897 196.286 76.6367C195.744 76.3836 195.297 75.9624 195.013 75.4355L186.443 61.4563L184.293 62.5406L191.877 83.7898C192.15 84.4867 192.655 85.0679 193.307 85.4351C193.96 85.8022 194.719 85.9327 195.456 85.8044L215.627 80.9865L215.769 81.6026L195.586 86.4267C195.363 86.4594 195.139 86.4739 194.914 86.4698Z" fill="#263238"/>
<path opacity="0.1" d="M186.745 70.9565C186.745 70.9565 193.035 82.8287 195.413 83.6604C197.791 84.4921 202.775 82.7116 202.775 82.7116C202.775 82.7116 195.887 82.0955 198.259 81.8799C200.631 81.6642 203.367 82.2372 207.883 81.1714C212.399 80.1055 214.66 78.0909 213.465 80.0993C212.269 82.1078 205.622 83.4263 203.25 84.258C200.878 85.0897 195.647 86.3959 194.107 86.1556C193.62 86.0482 193.164 85.8324 192.773 85.5241C192.381 85.2157 192.064 84.823 191.846 84.3751L186.745 70.9565Z" fill="#26AB7B"/>
<path d="M187.943 63.4414L184.869 64.9807L185.076 65.3938L188.15 63.8545L187.943 63.4414Z" fill="#263238"/>
<path d="M217.839 57.3962C218.125 57.3494 218.418 57.3968 218.675 57.5313C218.932 57.6657 219.138 57.8799 219.262 58.1416C219.431 58.4868 219.512 58.869 219.495 59.2531C219.479 59.6373 219.367 60.0113 219.17 60.3411C218.208 62.0292 215.923 62.6268 215.923 62.6268C215.923 62.6268 213.754 65.7566 211.61 66.6006C209.466 67.4447 205.979 67.6357 204.987 63.2306C204.556 61.2961 205.831 53.3731 205.831 53.3731C205.869 52.7954 206.022 52.2311 206.28 51.7129C206.538 51.1947 206.896 50.7329 207.334 50.3542C208.764 49.2637 212.091 49.0604 213.994 49.6703C215.898 50.2802 217.075 52.0484 217.598 53.41C217.936 54.4148 218.074 55.4759 218.005 56.5336L217.802 57.4208L217.839 57.3962Z" fill="white"/>
<path d="M209.176 67.3892C208.439 67.4015 207.711 67.23 207.057 66.8902C205.862 66.2741 205.055 65.0419 204.667 63.2983C204.223 61.3268 205.449 53.6379 205.504 53.3114C205.544 52.6938 205.708 52.0905 205.986 51.5379C206.265 50.9852 206.652 50.4945 207.125 50.0954C208.665 48.9248 212.121 48.74 214.068 49.3684C216.372 50.1077 217.488 52.3503 217.857 53.2806C218.215 54.3298 218.362 55.4397 218.288 56.5459L218.171 57.0819C218.462 57.1005 218.742 57.1966 218.982 57.3602C219.223 57.5238 219.415 57.749 219.539 58.0122C219.727 58.3992 219.817 58.8268 219.8 59.2568C219.783 59.6868 219.659 60.1059 219.441 60.4766C218.535 62.0538 216.6 62.7254 216.108 62.8794C215.726 63.4154 213.742 66.0769 211.696 66.8717C210.894 67.1938 210.041 67.3691 209.176 67.3892ZM211.431 49.6272C209.934 49.6272 208.351 49.9352 207.501 50.5821C206.687 51.2918 206.188 52.2957 206.114 53.373C206.114 53.4839 204.845 61.3083 205.264 63.1628C205.615 64.7277 206.318 65.7997 207.347 66.348C208.887 67.1674 210.747 66.6006 211.474 66.3172C213.526 65.5163 215.645 62.4851 215.67 62.4543L215.732 62.3619L215.843 62.3311C215.843 62.3311 218.017 61.715 218.923 60.187C219.099 59.9011 219.199 59.5749 219.213 59.2394C219.227 58.904 219.155 58.5706 219.003 58.271C218.904 58.0708 218.744 57.9076 218.545 57.8055C218.347 57.7035 218.121 57.6679 217.9 57.7042L217.395 57.7843L217.703 56.4535C217.755 55.458 217.621 54.4615 217.309 53.5147C216.964 52.6645 215.953 50.6129 213.896 49.9537C213.096 49.7194 212.265 49.6093 211.431 49.6272Z" fill="#263238"/>
<path d="M210.698 57.39C210.624 57.7042 210.698 58.0061 210.846 58.0061C210.994 58.0061 211.191 57.8213 211.265 57.507C211.339 57.1928 211.265 56.8909 211.117 56.8909C210.969 56.8909 210.772 57.0758 210.698 57.39Z" fill="#263238"/>
<path d="M207.353 56.7616C207.279 57.0697 207.353 57.3777 207.501 57.3777C207.649 57.3777 207.846 57.1929 207.92 56.8848C207.994 56.5768 207.92 56.2687 207.772 56.2687C207.624 56.2687 207.427 56.4474 207.353 56.7616Z" fill="#263238"/>
<path d="M212.793 56.2748C212.744 56.2749 212.696 56.261 212.655 56.2348C212.613 56.2087 212.58 56.1713 212.559 56.127C212.392 55.842 212.158 55.6028 211.876 55.4308C211.594 55.2587 211.274 55.1592 210.945 55.1412C210.91 55.1389 210.876 55.1297 210.845 55.1141C210.814 55.0986 210.786 55.0771 210.763 55.0507C210.74 55.0244 210.722 54.9938 210.711 54.9607C210.7 54.9276 210.696 54.8926 210.698 54.8578C210.706 54.7876 210.74 54.7229 210.794 54.6771C210.848 54.6313 210.917 54.6078 210.988 54.6114C211.409 54.6362 211.817 54.7666 212.175 54.9905C212.532 55.2145 212.827 55.5248 213.033 55.8928C213.05 55.9228 213.06 55.9556 213.063 55.9895C213.067 56.0233 213.064 56.0575 213.054 56.0902C213.044 56.1228 213.028 56.1532 213.007 56.1796C212.985 56.206 212.959 56.2279 212.929 56.244C212.887 56.2668 212.84 56.2774 212.793 56.2748Z" fill="#263238"/>
<path d="M206.521 55.5603C206.45 55.5599 206.381 55.5311 206.33 55.4802C206.306 55.4555 206.286 55.4263 206.273 55.394C206.259 55.3618 206.252 55.3272 206.252 55.2923C206.252 55.2573 206.259 55.2227 206.273 55.1905C206.286 55.1582 206.306 55.129 206.33 55.1043C206.604 54.8224 206.958 54.6319 207.344 54.5591C207.73 54.4863 208.129 54.5347 208.487 54.6977C208.517 54.715 208.544 54.7381 208.565 54.7658C208.587 54.7934 208.603 54.8251 208.612 54.8589C208.621 54.8927 208.623 54.928 208.619 54.9627C208.614 54.9974 208.603 55.0309 208.585 55.0612C208.554 55.1181 208.502 55.1611 208.441 55.1816C208.379 55.2022 208.312 55.1988 208.253 55.1721C207.992 55.06 207.703 55.03 207.424 55.0861C207.146 55.1423 206.891 55.2819 206.694 55.4863C206.648 55.5317 206.586 55.5581 206.521 55.5603Z" fill="#263238"/>
<path d="M208.77 60.0578C208.541 60.0521 208.32 59.9764 208.136 59.8409C207.952 59.7053 207.814 59.5165 207.741 59.3C207.636 58.8872 207.914 58.5976 208.16 58.345C208.355 58.1837 208.501 57.97 208.579 57.7289C208.708 57.1128 208.868 55.9792 208.868 55.973C208.873 55.9383 208.885 55.9048 208.903 55.8745C208.921 55.8442 208.944 55.8177 208.972 55.7965C209 55.7754 209.032 55.7599 209.066 55.7511C209.1 55.7423 209.136 55.7402 209.17 55.7451C209.205 55.7499 209.239 55.7616 209.269 55.7794C209.299 55.7972 209.326 55.8208 209.347 55.8488C209.368 55.8769 209.383 55.9088 209.392 55.9428C209.401 55.9768 209.403 56.0122 209.398 56.047C209.398 56.0963 209.232 57.1806 209.096 57.8337C209.005 58.1766 208.812 58.4838 208.542 58.7147C208.326 58.9365 208.228 59.0474 208.252 59.1583C208.332 59.4725 208.807 59.5156 208.807 59.5218C208.842 59.5241 208.876 59.5333 208.907 59.5488C208.938 59.5644 208.966 59.5859 208.989 59.6122C209.012 59.6386 209.029 59.6692 209.04 59.7023C209.051 59.7354 209.056 59.7704 209.053 59.8052C209.052 59.84 209.043 59.8741 209.028 59.9057C209.014 59.9372 208.993 59.9655 208.967 59.989C208.941 60.0124 208.911 60.0306 208.878 60.0424C208.846 60.0542 208.811 60.0594 208.776 60.0578H208.77Z" fill="#263238"/>
<path d="M210.125 62.2264C209.869 62.2267 209.613 62.1894 209.368 62.1155C209.334 62.105 209.304 62.0881 209.277 62.0657C209.25 62.0432 209.228 62.0158 209.212 61.9849C209.196 61.954 209.187 61.9203 209.184 61.8856C209.181 61.8509 209.185 61.816 209.195 61.7828C209.218 61.7154 209.266 61.6595 209.329 61.6272C209.393 61.5949 209.466 61.5889 209.534 61.6103C209.771 61.6864 210.022 61.711 210.27 61.6823C210.517 61.6536 210.756 61.5723 210.969 61.444C210.997 61.4229 211.029 61.4076 211.063 61.3989C211.097 61.3901 211.132 61.3881 211.167 61.393C211.201 61.3978 211.235 61.4095 211.265 61.4272C211.295 61.4449 211.321 61.4684 211.342 61.4964C211.363 61.5243 211.378 61.556 211.387 61.5899C211.396 61.6237 211.398 61.659 211.393 61.6936C211.388 61.7282 211.377 61.7615 211.359 61.7916C211.341 61.8217 211.318 61.8481 211.29 61.8691C210.949 62.1089 210.542 62.2341 210.125 62.2264Z" fill="#263238"/>
<path d="M215.682 47.822C215.682 47.822 213.033 45.5301 210.501 45.5301C207.969 45.5301 205.93 46.9779 204.34 47.095C202.751 47.212 201.691 45.7704 200.724 47.7111C199.756 49.6518 203.373 52.8863 205.782 53.373C208.191 53.8597 211.561 53.1327 212.528 53.0095C213.449 52.9417 214.373 52.9417 215.294 53.0095C215.294 53.0095 214.574 55.2952 215.294 56.0222C215.55 56.2235 215.758 56.4786 215.904 56.7692C216.049 57.0599 216.13 57.3791 216.138 57.7042C216.182 58.2308 216.262 58.7537 216.379 59.269L217.099 59.5093L217.463 58.1847C218.439 57.1436 219.105 55.8505 219.385 54.4512C219.749 52.2887 217.944 50.1385 217.944 50.1385L215.682 47.822Z" fill="#263238"/>
<path d="M208.338 52.7323C207.394 52.7324 206.45 52.6583 205.517 52.5105C205.483 52.5045 205.454 52.4856 205.434 52.4579C205.415 52.4303 205.407 52.3961 205.412 52.3626C205.414 52.3458 205.418 52.3295 205.427 52.3147C205.435 52.2998 205.446 52.2868 205.459 52.2764C205.472 52.266 205.487 52.2585 205.504 52.2542C205.52 52.25 205.537 52.2491 205.554 52.2517C205.591 52.2517 209.669 53.0095 212.818 51.7034C213.674 51.3522 214.161 50.8778 214.272 50.2864C214.487 49.1528 213.236 47.9329 213.224 47.9206C213.211 47.9084 213.2 47.8937 213.193 47.8772C213.186 47.8608 213.182 47.843 213.182 47.8251C213.182 47.8071 213.186 47.7893 213.193 47.7729C213.2 47.7565 213.211 47.7417 213.224 47.7296C213.25 47.7058 213.284 47.6926 213.32 47.6926C213.355 47.6926 213.389 47.7058 213.415 47.7296C213.471 47.7789 214.783 49.0603 214.536 50.3357C214.431 50.721 214.228 51.0724 213.946 51.3554C213.664 51.6384 213.313 51.8432 212.928 51.9498C211.462 52.4993 209.904 52.7648 208.338 52.7323Z" fill="white"/>
<path d="M214.869 53.065C214.837 53.0653 214.805 53.0536 214.78 53.0321C214.755 53.0105 214.738 52.9806 214.734 52.948C214.73 52.9129 214.741 52.8779 214.763 52.8503C214.784 52.8227 214.816 52.8047 214.851 52.8001C214.894 52.8001 215.892 52.6707 216.41 51.2229C216.474 50.9672 216.48 50.7003 216.426 50.4421C216.373 50.184 216.262 49.9412 216.102 49.7319C215.572 48.8973 214.841 48.2089 213.976 47.7296C213.94 47.7296 213.906 47.7153 213.88 47.6899C213.855 47.6645 213.841 47.63 213.841 47.5941C213.841 47.5598 213.854 47.5268 213.878 47.5026C213.903 47.4783 213.936 47.4647 213.97 47.4647C214.253 47.4647 215.455 48.3396 216.169 49.3561C216.404 49.6172 216.571 49.9317 216.655 50.2722C216.74 50.6126 216.741 50.9686 216.656 51.3091C216.077 52.9295 214.925 53.065 214.876 53.065H214.869Z" fill="white"/>
<path d="M102.183 59.9174H102.689V66.8679H102.183V59.9174Z" fill="#263238"/>
<path d="M110.771 59.9174V66.8679H110.354L105.618 60.8309V66.8679H105.111V59.9174H105.538L110.264 65.9544V59.9174H110.771Z" fill="#263238"/>
<path d="M118.661 59.9174L115.563 66.8679H115.057L111.959 59.9174H112.515L115.325 66.2126L118.135 59.9174H118.661Z" fill="#263238"/>
<path d="M119.782 59.9174H120.288V66.8679H119.782V59.9174Z" fill="#263238"/>
<path d="M129.198 64.9118H125.166L124.283 66.8679H123.737L126.934 59.9174H127.44L130.637 66.8679H130.091L129.198 64.9118ZM129.009 64.4849L127.182 60.4735L125.365 64.4849H129.009Z" fill="#263238"/>
<path d="M135.47 60.3742H132.968V59.9174H138.479V60.3742H135.977V66.8679H135.47V60.3742Z" fill="#263238"/>
<path d="M139.735 59.9174H140.241V66.8679H139.735V59.9174Z" fill="#263238"/>
<path d="M145.612 66.9175C144.93 66.9175 144.315 66.7653 143.765 66.4608C143.216 66.1497 142.782 65.726 142.465 65.1899C142.153 64.6537 141.998 64.0546 141.998 63.3927C141.998 62.7307 142.153 62.1317 142.465 61.5955C142.782 61.0593 143.216 60.639 143.765 60.3345C144.315 60.0234 144.93 59.8678 145.612 59.8678C146.294 59.8678 146.91 60.02 147.459 60.3245C148.008 60.629 148.439 61.0494 148.75 61.5856C149.067 62.1217 149.226 62.7241 149.226 63.3927C149.226 64.0612 149.067 64.6636 148.75 65.1998C148.439 65.736 148.008 66.1563 147.459 66.4608C146.91 66.7653 146.294 66.9175 145.612 66.9175ZM145.612 66.4509C146.195 66.4509 146.721 66.3185 147.191 66.0537C147.661 65.7889 148.032 65.4248 148.303 64.9615C148.574 64.4915 148.71 63.9686 148.71 63.3927C148.71 62.8168 148.574 62.2971 148.303 61.8338C148.032 61.3638 147.661 60.9964 147.191 60.7316C146.721 60.4669 146.195 60.3345 145.612 60.3345C145.03 60.3345 144.5 60.4669 144.023 60.7316C143.553 60.9964 143.183 61.3638 142.911 61.8338C142.64 62.2971 142.504 62.8168 142.504 63.3927C142.504 63.9686 142.64 64.4915 142.911 64.9615C143.183 65.4248 143.553 65.7889 144.023 66.0537C144.5 66.3185 145.03 66.4509 145.612 66.4509Z" fill="#263238"/>
<path d="M156.642 59.9174V66.8679H156.225L151.489 60.8309V66.8679H150.983V59.9174H151.41L156.136 65.9544V59.9174H156.642Z" fill="#263238"/>
</svg>
