<svg width="26" height="18" viewBox="0 0 26 18" fill="none" xmlns="http://www.w3.org/2000/svg">
<path d="M9.69995 9H16.3" stroke="white" stroke-width="3" stroke-linecap="round" stroke-linejoin="round"/>
<path d="M16.3 2.4H17.4C19.1505 2.4 20.8292 3.09536 22.067 4.3331C23.3047 5.57084 24 7.24957 24 9C24 10.7504 23.3047 12.4292 22.067 13.6669C20.8292 14.9046 19.1505 15.6 17.4 15.6H16.3" stroke="white" stroke-width="3" stroke-linecap="round" stroke-linejoin="round"/>
<path d="M9.7 15.6H8.6C6.84957 15.6 5.17084 14.9047 3.9331 13.6669C2.69536 12.4292 2 10.7505 2 9.00002C2 7.2496 2.69536 5.57086 3.9331 4.33312C5.17084 3.09538 6.84957 2.40002 8.6 2.40002H9.7" stroke="white" stroke-width="3" stroke-linecap="round" stroke-linejoin="round"/>
</svg>
